<svg id="组_229" data-name="组 229" xmlns="http://www.w3.org/2000/svg" width="179.37" height="190.479" viewBox="0 0 179.37 190.479">
    <g id="组_226" data-name="组 226">
      <path id="路径_679" data-name="路径 679" d="M78.7,322.189c-.354,2.5-3.081,2.6-5.144,3.662a2.2,2.2,0,0,0-.737,3.309c3.109,4,6.723,8.865,12.151,10.273,9.252,2.4,18.081-1.351,25.932-3.378a2.192,2.192,0,0,1,2.727,1.9c.237,2.4.16,5.108.9,7.006a2.184,2.184,0,0,0,2.906,1.22c.347-.156.7-.349,1.07-.518a2.2,2.2,0,0,1,2.7.717c2.036,2.8,7.788,3.845,12.375,3.632,2.7-.126,5.388-1.789,7.838-1.568,2.551.23,5.063,2.824,7.838,3.135,2.694.3,5.826-1.083,8.622-.784,3.772.4,7.419,3.089,11.366,3.527,8.823.979,18.934.255,27.827-.392a84.635,84.635,0,0,0,20.737-3.772,2.168,2.168,0,0,0,.77-.448c4.205-3.863,2.208-9.181,4.752-14.592,1.837-3.907,7.449-5.99,8.621-10.19.627-2.239-.592-6.666,0-9.406.617-2.85,4.27-5.084,5.488-8.622,1.514-4.4-.28-5.171.784-10.582,1.439-7.313,5.664-7.978,7.157-16.2.468-2.578.9-4.979-.1-7.7-1.247-3.373-3.341-3.541-5.745-7.89a22.3,22.3,0,0,1-2.517-7.557c-.564-3.689.1-5.629.424-9.244.29-3.192.147-6.948-1.019-14.207-.558-3.476-1.336-11.442-2.226-15.095-2.484-10.2,3.132-16.488,4.029-28.311.795-10.47.214-20.256-4.312-23.515-1.409-1.014-4.391-2.8-6.99-2.121a2.44,2.44,0,0,1-.844.082c-6.716-.642-12.5,3.912-17.818,7.454-4.009,2.67-10.072,8.363-13.1,10.414-1.869,1.265-5.015,3.731-6.805,4.166a48.355,48.355,0,0,1-10.485,1.169c-4.18.19-9.514.345-14.5.784-4.533.4-10.26,2.632-13.716,1.96-3.191-.621-7.569-6.727-10.583-9.406-7.52-6.684-20.99-18.118-28.61-5.879-9.221,14.812-7.889,33.961-12.411,48.249-.883,2.791-2.015,5.376-2.015,5.377-1.976,4.513-3.208,5.605-6.106,10.52a156.532,156.532,0,0,0-8.84,18.22c-.266.649-.414,1.032-.722,1.71-2.567,5.661-4.611,6.256-4.4,8.368.241,2.451,3.146,3.164,2.733,5.3-.1.5-.56,1.045-1.479,2.112-2.606,3.022-3.671,3.234-3.662,4.222.014,1.586,1.873,2.136,3.2,4.172a2.153,2.153,0,0,1-.425,2.762c-2.752,2.435-1.652,5.318-.673,9.458a2.2,2.2,0,0,1-.991,2.384c-2.324,1.395-5.455,1.983-7.446,3.711a2.172,2.172,0,0,0-.558,2.386c.822,2.276,1.008,4.4,2.646,7.042C72.185,315.88,79.288,318.079,78.7,322.189Z" transform="translate(-66.511 -164.326)" fill="#001a31" fill-rule="evenodd"/>
    </g>
    <g id="组_228" data-name="组 228" transform="translate(13.503 15.969)">
      <g id="组_227" data-name="组 227">
        <path id="路径_680" data-name="路径 680" d="M203.492,191.73c-3.4,2.263-7.065,3.908-9.634,5.647-1.584,1.073-2.8,2.954-4.318,3.322-3.463.839-10.229-.139-13.29,0-3.543.161-8.064.292-12.292.665-3.842.338-8.7,2.231-11.628,1.661-2.7-.526-6.415-5.7-8.97-7.973-6.375-5.666-17.793-15.359-24.252-4.984-7.484,12.022-5.64,35.048-10.3,51.5-1.848.47-5.1-.208-6.977,1-.99,7.759-3.586,13.912-8.306,17.94.723,5.173-4.008,6.6-4.318,9.635,1,1.543,4.221.873,4.318,3.322-2.384,1.77-5,1.181-5.647,3.655-.72,2.745,2.655,3.168,3.321,6.312-3.943,2.443-2.274,5.336-1.328,9.967-2.282,2.149-6.574,2.285-8.306,4.983,1.094,2.334,1.031,4.351,2.658,6.977,2.448,3.954,8.467,5.817,7.973,9.3-.415,2.926-4.677,1.978-5.98,4.65,2.872,3.543,6.1,8.621,11.3,9.968,8.613,2.233,16.794-1.821,23.92-3.323.83,2.714.109,6.979,1.661,8.97,1.584,1.127,2.717-1.038,4.651-.665,1.029,3.054,6.614,4.188,10.964,3.987,2.289-.106,4.567-1.517,6.644-1.329,2.162.2,4.291,2.395,6.645,2.658,2.283.256,4.938-.918,7.308-.665,3.2.342,6.289,2.619,9.635,2.99,7.479.831,16.049.216,23.587-.333a70.863,70.863,0,0,0,17.941-3.322c3.947-3.293,2.106-7.917,4.318-12.624,1.558-3.312,6.315-5.077,7.309-8.638.531-1.9-.5-5.652,0-7.974.523-2.416,3.619-4.309,4.651-7.308.922-2.68-.107-6.108.665-8.97,1.224-4.543,7.867-8.124,8.306-12.624.19-1.96-.935-5.6-2.326-7.641-1.417-2.078-4.485-2.741-5.648-4.984-1.78-3.439-1.465-11.109-1-15.946.368-3.794,2.468-8,1.994-10.964s-4.561-4.212-5.316-7.308c-2.106-8.646,3.226-20.542,3.987-30.565.674-8.875-1.291-13.175-3.655-19.933C215.784,181.27,209.568,187.683,203.492,191.73Z" transform="translate(-81.567 -182.174)" fill="#fff" fill-rule="evenodd"/>
        <path id="路径_681" data-name="路径 681" d="M221.273,205.011c.074,2.621-3.071,2.024-4.318,3.322.887.866,2.928.066,3.986,0-.552.7-1.71,1.752.333,1.662-1.024,2.563-3.841.478-5.979.332C215.249,205.811,218.2,206,221.273,205.011Z" transform="translate(-95.361 -184.492)" fill="#fff" fill-rule="evenodd"/>
        <path id="路径_682" data-name="路径 682" d="M223.66,205.752c.9.711-.431,1.982-1.328,1.993C222.272,206.579,223.454,206.652,223.66,205.752Z" transform="translate(-96.086 -184.568)" fill="#fff" fill-rule="evenodd"/>
        <path id="路径_683" data-name="路径 683" d="M201.834,212.283c0,.66-.907.422-.664,1.328,1.176-.642,1.918.009,3.322,0v1.329c1.048.162,1.173-.6,2.326-.333-.768,2.079-3.156,1.653-4.984,1.994-.161-1.047,1.021-.752.665-1.994-1.8-.143-2,1.325-3.987,1,.249-1.135-1.35-.422-1-1.661-1.382.612-1.831,2.155-3.655,2.326,0-1.435-.611-1.863.332-2.658-1.959.257-2.51,1.919-3.655,2.99-1.005-.1-1.187-1.028-2.657-.665.167-3.488,4.569-2.741,6.645-4.318,1.773,1.386,4.959-2.307,5.316.665Z" transform="translate(-92.533 -185.119)" fill="#001a31" fill-rule="evenodd"/>
        <path id="路径_684" data-name="路径 684" d="M212.689,216.747c-.746.582-2.5.159-3.323.665C209.3,216.094,212.488,214.735,212.689,216.747Z" transform="translate(-94.749 -185.597)" fill="#001a31" fill-rule="evenodd"/>
        <path id="路径_685" data-name="路径 685" d="M140.1,217.976c3.784,1.531,7.258,3.372,11.96,3.987C147.531,223.412,142.39,220.847,140.1,217.976Z" transform="translate(-87.604 -185.829)" fill="#fff" fill-rule="evenodd"/>
        <path id="路径_686" data-name="路径 686" d="M197.06,218.717c.972.435.474,2.47-.665,2.657A2.937,2.937,0,0,1,197.06,218.717Z" transform="translate(-93.407 -185.906)" fill="#001a31" fill-rule="evenodd"/>
        <path id="路径_687" data-name="路径 687" d="M199.319,219.458c1.42-.093.022,1.455,0,1.993C198.384,221.115,199.411,220.04,199.319,219.458Z" transform="translate(-93.672 -185.982)" fill="#001a31" fill-rule="evenodd"/>
        <path id="路径_688" data-name="路径 688" d="M215.564,220.148c-.405,1.689-2.646,2.595-4.319,1.993-1.317.455-1.043,2.5-2.99,2.326C209.749,222.046,211.967,218.453,215.564,220.148Z" transform="translate(-94.635 -186.008)" fill="#001a31" fill-rule="evenodd"/>
        <path id="路径_689" data-name="路径 689" d="M208.64,219.828c-.057,4.372-3.835,5.025-4.651,8.638-.709-.207-.311-2.045,0-2.326-.427-.928-.687,1.048-1.661.665C203.675,223.723,204.506,220.123,208.64,219.828Z" transform="translate(-94.023 -186.02)" fill="#001a31" fill-rule="evenodd"/>
        <path id="路径_690" data-name="路径 690" d="M178.085,223.521c-.056.831.511,1.04,1,1.329-1.425.091-4.312-1.22-5.647-2.326.78.106,1.247.525,2.326.332.067-1.4-1.263-1.4-1.33-2.657,5.587.616,8.886,3.517,11.629,6.977C183.208,226.15,181.49,223.994,178.085,223.521Zm.333-.665c.1-.875-.461-1.091-1.329-1C176.988,222.735,177.549,222.95,178.418,222.856Z" transform="translate(-91.043 -186.059)" fill="#001a31" fill-rule="evenodd"/>
        <path id="路径_691" data-name="路径 691" d="M200.443,222.894c-.884-.906.483-2.379,1.661-2.326C202.194,221.988,200.891,222.014,200.443,222.894Z" transform="translate(-93.8 -186.097)" fill="#001a31" fill-rule="evenodd"/>
        <path id="路径_692" data-name="路径 692" d="M203.51,221.68c-.482,1.18-1.529,1.794-2.326,2.658C200.2,223.006,202.008,221.63,203.51,221.68Z" transform="translate(-93.876 -186.211)" fill="#001a31" fill-rule="evenodd"/>
        <path id="路径_693" data-name="路径 693" d="M177.508,222.049c.868-.094,1.429.121,1.329,1C177.968,223.138,177.407,222.924,177.508,222.049Z" transform="translate(-91.462 -186.247)" fill="#fff" fill-rule="evenodd"/>
        <path id="路径_694" data-name="路径 694" d="M140.1,222.421c2.231.774,3.716.255,5.647,1.329C144.22,224.269,140.88,223.747,140.1,222.421Z" transform="translate(-87.604 -186.288)" fill="#fff" fill-rule="evenodd"/>
        <path id="路径_695" data-name="路径 695" d="M218.36,222.416c-.413.7-1.7,1.528-2.326,1C216.286,222.557,217.095,222.259,218.36,222.416Z" transform="translate(-95.437 -186.283)" fill="#001a31" fill-rule="evenodd"/>
        <path id="路径_696" data-name="路径 696" d="M172.693,225.366c1.126-.778,2.124,1.409,3.655,1.328C174.986,227.709,173.547,225.963,172.693,225.366Z" transform="translate(-90.967 -186.574)" fill="#001a31" fill-rule="evenodd"/>
        <path id="路径_697" data-name="路径 697" d="M222.306,225.012c.536-.093.571.314,1,.333.159,1.045-.473,1.3-.665,1.993C221.641,226.77,222.268,226.129,222.306,225.012Z" transform="translate(-96.06 -186.554)" fill="#001a31" fill-rule="evenodd"/>
        <path id="路径_698" data-name="路径 698" d="M211.569,242.775a10.956,10.956,0,0,1-1.993-3.987h-1.329c-.714-1.354-.243-3.021-1.661-2.99-.2-1.242.738-3.617-1.329-2.99a3.863,3.863,0,0,1,1.329-4.651c.805.192.739,1.255,1,1.994,1.741-.7,2.352-2.52,3.654-3.655,1.173.725-1.672,2.9-1.993,4.319.063.269.334.331.332.664,1.532-.572,1.876-2.333,3.655-2.657-1.128,1.53-2.653,2.663-2.99,4.984.147.3.292.594.665.664,1.187-.142,1.109-1.548,2.657-1.328-.578,1.082-1.117,2.2-1.661,3.322.306.906,1.039-.464,1.994,0C214.009,238.194,211.557,240.055,211.569,242.775Z" transform="translate(-94.295 -186.708)" fill="#001a31" fill-rule="evenodd"/>
        <path id="路径_699" data-name="路径 699" d="M134.168,227.23c2.24-.242,6.621.242,8.306,1.661C139.644,228.4,135.937,228.784,134.168,227.23Z" transform="translate(-86.993 -186.778)" fill="#fff" fill-rule="evenodd"/>
        <path id="路径_700" data-name="路径 700" d="M188.141,230.521c-1.4.074-2.146-.512-3.323-.665.456-1.035-1.479-1.9-.665-2.99A10.446,10.446,0,0,1,188.141,230.521Z" transform="translate(-92.128 -186.746)" fill="#001a31" fill-rule="evenodd"/>
        <path id="路径_701" data-name="路径 701" d="M172.915,228.556a6.354,6.354,0,0,0-4.652,0c.335.55,1.411.361,1.993.664-.327,1.068-2.47.318-1.328,1.994a37.407,37.407,0,0,1-6.977,2.658c1.279-1.933,3.784-2.639,6.312-3.323-.569-.761-2.535-.122-3.655-.332C164.546,226.907,171.268,226.136,172.915,228.556Z" transform="translate(-89.859 -186.775)" fill="#001a31" fill-rule="evenodd"/>
        <path id="路径_702" data-name="路径 702" d="M129.353,227.607c2.366,1.067,5.478,1.388,6.977,3.323C133.494,230.517,129.264,229.848,129.353,227.607Z" transform="translate(-86.496 -186.823)" fill="#001a31" fill-rule="evenodd"/>
        <path id="路径_703" data-name="路径 703" d="M180.843,230.2c3.577-.03,8.635,1.331,8.969,5.648-2.691-1.074-5.219-2.311-7.973-3.323.708-1.6,2.128.371,3.655,0C184.517,231.177,182.345,231.023,180.843,230.2Z" transform="translate(-91.807 -187.09)" fill="#001a31" fill-rule="evenodd"/>
        <path id="路径_704" data-name="路径 704" d="M182.99,235.011c3.743-.42,7.094,2.428,9.634,4.319-.054.389-.606.28-1,.332.534,3.332,4.148,3.565,5.316,6.977-2.5-1.35-5.83-5.13-8.638-3.987-1.662-.774-3.732-1.141-4.651-2.658,1.075.189,1.671-.1,1.994-.664a21.991,21.991,0,0,1,2.99.664c-1-2.211-4.369-2.053-6.312-3.322,1.215-.72,2.644.232,4.318.665C186.081,235.905,184.1,235.89,182.99,235.011Z" transform="translate(-91.96 -187.582)" fill="#001a31" fill-rule="evenodd"/>
        <path id="路径_705" data-name="路径 705" d="M129.456,236.127c-.875,1.594.682,2.5,0,3.655-1.716.054-2-1.322-2.326-2.657C127.961,236.848,128.435,236.214,129.456,236.127Z" transform="translate(-86.267 -187.702)" fill="#001a31" fill-rule="evenodd"/>
        <path id="路径_706" data-name="路径 706" d="M167.114,237.609c-.136,1.456-4.724,2.973-6.645,2.657C160.88,237.576,165.739,239.335,167.114,237.609Z" transform="translate(-89.706 -187.854)" fill="#001a31" fill-rule="evenodd"/>
        <path id="路径_707" data-name="路径 707" d="M129.891,242.223c-1.34,1.541-4.97.271-4.983-1.662C126.448,240.013,127.916,242.127,129.891,242.223Z" transform="translate(-86.038 -188.15)" fill="#001a31" fill-rule="evenodd"/>
        <path id="路径_708" data-name="路径 708" d="M152.69,242.339c2.71-1.645,3.694-.09,0,0Z" transform="translate(-88.903 -188.265)" fill="#fff" fill-rule="evenodd"/>
        <path id="路径_709" data-name="路径 709" d="M155.374,244.647a5.517,5.517,0,0,1-2.658,2.658v-1c-1.282.048-1.535,1.123-2.99,1A13.785,13.785,0,0,1,155.374,244.647Z" transform="translate(-88.598 -188.58)" fill="#fff" fill-rule="evenodd"/>
        <path id="路径_710" data-name="路径 710" d="M182.506,245.353c.243.907-.659.669-.664,1.329.629.589,2.194.242,3.322.332.614-.05.2-1.125.665-1.328,2.306,1.159,7.387,1.206,6.312,4.651-1.07.073-1.405-.588-2.657-.333.2,1.9,1.03,3.178,2.657,3.655a2.821,2.821,0,0,1-.333,1.994c-1.361-.411-3.237-.307-3.654-1.662-2.837,1.775-8.092,2.3-10.631,0-.983.583.192,1.77,0,2.658-1.5-.228-.762.557-.665,1.329-2.517-.77-3.244-.317-4.983-1,.072-1.257,1.694-.962,1.328-2.657-.14-.746-1.762-.009-1.994-.665-.17-2.164,2.049-1.938,3.323-2.657,0-1.552-2.22-.883-1.994-2.658C177.57,249.159,177.739,243.74,182.506,245.353Z" transform="translate(-90.813 -188.622)" fill="#001a31" fill-rule="evenodd"/>
        <path id="路径_711" data-name="路径 711" d="M149,245.388c-.342,1.32-2.028,1.3-2.991,1.994C145.386,246.409,147.993,245.831,149,245.388Z" transform="translate(-88.204 -188.657)" fill="#fff" fill-rule="evenodd"/>
        <path id="路径_712" data-name="路径 712" d="M222.332,245.756q1.559-.231,1.328,1.328h-1.328Z" transform="translate(-96.087 -188.692)" fill="#fff" fill-rule="evenodd"/>
        <path id="路径_713" data-name="路径 713" d="M142.894,248.352c-1.557.769-2.345,2.306-4.651,2.326C139.75,249.858,140.836,248.618,142.894,248.352Z" transform="translate(-87.413 -188.963)" fill="#fff" fill-rule="evenodd"/>
        <path id="路径_714" data-name="路径 714" d="M225.437,250.945a1.589,1.589,0,0,1-1.994,1C223.635,251.136,224.7,251.2,225.437,250.945Z" transform="translate(-96.201 -189.23)" fill="#fff" fill-rule="evenodd"/>
        <path id="路径_715" data-name="路径 715" d="M121.933,252.056a3.388,3.388,0,0,1-3.323,2.99C119.036,253.368,120.452,252.679,121.933,252.056Z" transform="translate(-85.388 -189.345)" fill="#001a31" fill-rule="evenodd"/>
        <path id="路径_716" data-name="路径 716" d="M167.549,252.426c1.309.6-.457,1.293.332,2.658-1.345.316-2.267,1.055-3.987,1-.122,1.008,1.082.69,1.661,1-1.322,2.035-5.517,2.854-7.308,3.323.386-1.275,1.529-1.793,2.99-1.994v-2.99C164.15,255.23,165.471,253.449,167.549,252.426Z" transform="translate(-89.476 -189.383)" fill="#001a31" fill-rule="evenodd"/>
        <path id="路径_717" data-name="路径 717" d="M122.632,254.279c-1.059,3.4-4.292,4.791-6.645,7.641-.933-1.063.912-2.175,1.661-2.658.248-1.022-.911-.639-.664-1.661C118.789,256.416,120.074,254.711,122.632,254.279Z" transform="translate(-85.091 -189.574)" fill="#001a31" fill-rule="evenodd"/>
        <path id="路径_718" data-name="路径 718" d="M207.885,257.609c1.791-.208,2.955.725,2.325,1.994C209.3,259.067,207.846,259.088,207.885,257.609Z" transform="translate(-94.597 -189.914)" fill="#001a31" fill-rule="evenodd"/>
        <path id="路径_719" data-name="路径 719" d="M165.12,260.175a11.022,11.022,0,0,1-4.651,2.989C160.78,261.23,164.008,259.146,165.12,260.175Z" transform="translate(-89.706 -190.154)" fill="#001a31" fill-rule="evenodd"/>
        <path id="路径_720" data-name="路径 720" d="M168.595,261.566c-2.3.8-3.629,2.572-6.644,2.657C162.81,262.366,167.239,258.706,168.595,261.566Z" transform="translate(-89.859 -190.217)" fill="#001a31" fill-rule="evenodd"/>
        <path id="路径_721" data-name="路径 721" d="M211.883,260.571a6.219,6.219,0,0,1,2.658.332c-1.518,1.953,1.074,1.808,2.325,1.994-.875.785-1.422,1.9-3.321,1.661-.237-1.093-.509-2.149-2.326-1.661A12.339,12.339,0,0,1,211.883,260.571Z" transform="translate(-94.94 -190.219)" fill="#001a31" fill-rule="evenodd"/>
        <path id="路径_722" data-name="路径 722" d="M170.039,262.428c.219,1.215-.718,1.274-.664,2.326-2.834-.065-4.372,1.166-6.313,1.994C163.07,264.315,167.246,263.182,170.039,262.428Z" transform="translate(-89.973 -190.415)" fill="#001a31" fill-rule="evenodd"/>
        <path id="路径_723" data-name="路径 723" d="M125.56,264.28c.1,1.654-2.663,3.313-3.987,4.651C121.584,267.385,124.3,265.679,125.56,264.28Z" transform="translate(-85.694 -190.606)" fill="#fff" fill-rule="evenodd"/>
        <path id="路径_724" data-name="路径 724" d="M190.424,265.762c-.381,1.39-2.22,1.324-3.654,1.661C187.028,265.91,189.139,266.248,190.424,265.762Z" transform="translate(-92.419 -190.758)" fill="#001a31" fill-rule="evenodd"/>
        <path id="路径_725" data-name="路径 725" d="M231.993,268.08c-5.446-.772-8.192-.067-12.625.332C221.612,266.483,230.4,263.561,231.993,268.08Z" transform="translate(-95.781 -190.751)" fill="#fff" fill-rule="evenodd"/>
        <path id="路径_726" data-name="路径 726" d="M180.564,271.318c-.264,2.875-2.8,5.124-5.648,4.319C175.336,272.735,178.094,272.171,180.564,271.318Z" transform="translate(-91.196 -191.332)" fill="#001a31" fill-rule="evenodd"/>
        <path id="路径_727" data-name="路径 727" d="M202.139,272.795c-.039.957.182,2.175-.332,2.657C199.94,275.588,200.084,272.329,202.139,272.795Z" transform="translate(-93.835 -191.479)" fill="#001a31" fill-rule="evenodd"/>
        <path id="路径_728" data-name="路径 728" d="M194.883,275.759c1.384-.366,1.384,2.36,0,1.994C194.781,276.976,194.233,276.381,194.883,275.759Z" transform="translate(-93.223 -191.786)" fill="#001a31" fill-rule="evenodd"/>
        <path id="路径_729" data-name="路径 729" d="M206.029,277.245h1c-.182.483.387,1.717-.333,1.661C205.576,279.247,206.176,277.873,206.029,277.245Z" transform="translate(-94.402 -191.943)" fill="#001a31" fill-rule="evenodd"/>
        <path id="路径_730" data-name="路径 730" d="M199.694,278.357c1.3.271,1.783,2.357,0,2.326A2.081,2.081,0,0,1,199.694,278.357Z" transform="translate(-93.715 -192.058)" fill="#001a31" fill-rule="evenodd"/>
        <path id="路径_731" data-name="路径 731" d="M169.385,279.838a3.873,3.873,0,0,1-2.99,3.323C166.248,280.909,167.546,280.1,169.385,279.838Z" transform="translate(-90.316 -192.21)" fill="#001a31" fill-rule="evenodd"/>
        <path id="路径_732" data-name="路径 732" d="M171.609,280.95c-.237,1.424-1.775,2.945-2.99,2.326C169.194,282.078,169.851,280.964,171.609,280.95Z" transform="translate(-90.546 -192.325)" fill="#001a31" fill-rule="evenodd"/>
        <path id="路径_733" data-name="路径 733" d="M238.589,281.69c1.435.1.947,1.758-.333,1.662A2.165,2.165,0,0,1,238.589,281.69Z" transform="translate(-97.726 -192.401)" fill="#001a31" fill-rule="evenodd"/>
        <path id="路径_734" data-name="路径 734" d="M209.309,282.431c.726.048.714.838.665,1.661C208.661,283.975,208.5,283.1,209.309,282.431Z" transform="translate(-94.692 -192.478)" fill="#001a31" fill-rule="evenodd"/>
        <path id="路径_735" data-name="路径 735" d="M223.024,282.8c1.128.976,1.578,2.63,1.994,4.318C223.749,286.19,221.721,284.333,223.024,282.8Z" transform="translate(-96.115 -192.516)" fill="#fff" fill-rule="evenodd"/>
        <path id="路径_736" data-name="路径 736" d="M172.17,283.172a1.248,1.248,0,0,1-1.329,1.329A1.248,1.248,0,0,1,172.17,283.172Z" transform="translate(-90.776 -192.554)" fill="#001a31" fill-rule="evenodd"/>
        <path id="路径_737" data-name="路径 737" d="M200.434,283.913c.935.062,1.416.578,1.329,1.661a2.165,2.165,0,0,1-1.662-.332C199.961,284.547,200.329,284.362,200.434,283.913Z" transform="translate(-93.79 -192.631)" fill="#001a31" fill-rule="evenodd"/>
        <path id="路径_738" data-name="路径 738" d="M143.368,288.358c-1.656,2.994-3.627,5.675-6.977,6.977C138.5,292.795,139.749,289.391,143.368,288.358Z" transform="translate(-87.222 -193.089)" fill="#001a31" fill-rule="evenodd"/>
        <path id="路径_739" data-name="路径 739" d="M187.805,289.467c1.245-.23.809,2.514-.332,1.994C186.743,290.762,187.4,289.984,187.805,289.467Z" transform="translate(-92.457 -193.202)" fill="#001a31" fill-rule="evenodd"/>
        <path id="路径_740" data-name="路径 740" d="M104.129,317.855c-1.107-1.129,1.261-1.6,1-2.99,6.494-5.465,15.051-8.869,21.594-14.285.565-.123.627.259.665.664C120.213,307.361,111.5,311.941,104.129,317.855Z" transform="translate(-83.864 -194.347)" fill="#001a31" fill-rule="evenodd"/>
        <path id="路径_741" data-name="路径 741" d="M169.924,300.583c.75.247.13,1.863.332,2.657-1.23.21-1.852,1.027-1.661,2.657-1.414-.764-2.23-.413-3.654.333-.943-.387-1.267-1.39-2.99-1C163.215,302.29,168.281,303.147,169.924,300.583Z" transform="translate(-89.859 -194.35)" fill="#001a31" fill-rule="evenodd"/>
        <path id="路径_742" data-name="路径 742" d="M232.807,308.082c-1.622.183-1.665-1.215-2.326-1.994C230.988,304.806,233.016,306.563,232.807,308.082Z" transform="translate(-96.927 -194.872)" fill="#001a31" fill-rule="evenodd"/>
        <path id="路径_743" data-name="路径 743" d="M212.4,307.872c-1.47.744-2.16,2.27-2.326,4.319-1.032-.074-.561-1.654-.664-2.658-1.1.785-.939,2.826-1,4.652-.849-.59-.745-2.135-1.328-2.991-1.066.517-.435,1.5-.333,2.991-1.731-.373-.887-3.321-3.321-2.991-.388.831-1.16,1.278-1,2.658-1.3.306-.241-1.752-1-1.993-.964,1.1-3.484,1.308-4.319.332-.917,1.188-1.117,3.09-1,5.315-1.5-.376-.333-3.283-.333-4.318-.805-1.511-2.937.324-2.99,1.661-1.234-.33-.869-.709-2.325-.332,1.529-1.793,2.143-4.5,4.651-5.316a1.865,1.865,0,0,1,.331,1.328c1.3-.031,1.316-1.342,1.994-1.993a2.34,2.34,0,0,1,.665,1c.957-.039.577-1.416,1.662-1.328-.141.693.227.88.332,1.328a10.31,10.31,0,0,1,2.657-2.326C206.1,308.778,209.248,305.174,212.4,307.872Z" transform="translate(-92.801 -194.995)" fill="#fff" fill-rule="evenodd"/>
        <path id="路径_744" data-name="路径 744" d="M229,306.509c1.586.3.966,2.8,1.661,3.987C228.966,310.308,229.09,308.3,229,306.509Z" transform="translate(-96.774 -194.961)" fill="#001a31" fill-rule="evenodd"/>
        <path id="路径_745" data-name="路径 745" d="M220.475,308.362c1.055.273,1.23,1.425,1.661,2.325C220.768,311.462,220.273,310.077,220.475,308.362Z" transform="translate(-95.891 -195.153)" fill="#001a31" fill-rule="evenodd"/>
        <path id="路径_746" data-name="路径 746" d="M227.674,314.342c.56,1.226,1.787,5.695-.332,7.308-1.06-.625-2.026.718-2.326-.665-.868.572.416,3.3-1.661,2.657,1.136,5.71-2.334,4.039-3.322.665-.684,1.14-.365,4.12,0,5.316-1.248.25-.725-1.269-1.662-1.329-.763.287.973,1.73,0,2.326-2.9-2.256-2.517-7.361-1.328-10.63,1.065-.291.688.861,1.328,1,1.451-1.282,3.129-2.01,2.657-4.651,1.072.479,1.474,1.626,1.994,2.657,1.014-.614-.383-1.578,0-2.657,1.136.994,1.625-.293.665-1,1.448-.576,2.236,2.283,2.326,3.323,1.84-2.047-.4-4.026-1-5.648,1.356.1.178-.693.332-1.328a.91.91,0,0,0,1.329,0c-.342-1.361-.8-1.871-.332-3.322,1.326,1.441,1.718,3.818,3.322,4.983-.54,1.07-.159,1.8,0,2.99C228.24,316.434,228.586,314.758,227.674,314.342Z" transform="translate(-95.45 -195.153)" fill="#001a31" fill-rule="evenodd"/>
        <path id="路径_747" data-name="路径 747" d="M217.476,309.1c.346,2.04,3.482,2.86,2.326,5.316C217.274,314.465,216.665,311.349,217.476,309.1Z" transform="translate(-95.551 -195.229)" fill="#001a31" fill-rule="evenodd"/>
        <path id="路径_748" data-name="路径 748" d="M153.446,309.843c.3,2.079-3.7,2.72-6.312,2.99C148.053,310.668,151.962,310.418,153.446,309.843Z" transform="translate(-88.33 -195.305)" fill="#001a31" fill-rule="evenodd"/>
        <path id="路径_749" data-name="路径 749" d="M162.53,310.584c-3.556,4.086-8.991,6.291-13.29,9.635,2.942.832,4.891-2.194,6.978-3.322-.376,1.4-1.573,1.97-1.994,3.322-6.173,3.351-11.724,7.324-15.615,12.956-.376-2.263,2.416-4.225,3.323-6.312-.761-.846-1.256,1.383-2.657,1,1.723-3.925,5.788-5.508,9.634-7.309-.216-.338-.764-.344-.664-1C153.547,317.318,156.377,310.866,162.53,310.584Z" transform="translate(-87.447 -195.382)" fill="#001a31" fill-rule="evenodd"/>
        <path id="路径_750" data-name="路径 750" d="M189.215,310.212c2.3,4.179-3.7,4.323-3.987,7.973-1.708-1.094,1.548-3.127-.332-4.651C186.136,312.225,186.4,309.947,189.215,310.212Z" transform="translate(-92.207 -195.341)" fill="#fff" fill-rule="evenodd"/>
        <path id="路径_751" data-name="路径 751" d="M158.255,311.307c-.587,1.406-1.146,2.84-2.99,2.99C154.474,312.88,156.838,310.515,158.255,311.307Z" transform="translate(-89.153 -195.44)" fill="#001a31" fill-rule="evenodd"/>
        <path id="路径_752" data-name="路径 752" d="M115.944,321.694c.565-.122.626.259.664.665-3.926,3.272-7,7.4-10.963,10.631C107.988,328.135,112.112,325.06,115.944,321.694Z" transform="translate(-84.051 -196.525)" fill="#001a31" fill-rule="evenodd"/>
        <path id="路径_753" data-name="路径 753" d="M210.837,323.546c.282-.061.313.13.332.333.628,1.13,1.164-.569,1.994-.333.255,4.175.8,8.064,2.657,10.631-2.58.143-2.569-2.3-3.987-3.322-.882,1.394,1.715,3.575,0,4.983-2.683-1.634-3.762-4.874-4.318-8.638a3.588,3.588,0,0,1,1.661,1.994A19.5,19.5,0,0,0,210.837,323.546Z" transform="translate(-94.558 -196.716)" fill="#001a31" fill-rule="evenodd"/>
        <path id="路径_754" data-name="路径 754" d="M170.552,324.29c1.162.943-1.227,5.526-.664,6.977.77.64,1.09-2,2.325-1.993-.854,2.911-2.291,5.238-2.657,8.638C166.131,334.1,169.422,328.341,170.552,324.29Z" transform="translate(-90.487 -196.796)" fill="#001a31" fill-rule="evenodd"/>
        <path id="路径_755" data-name="路径 755" d="M167.381,324.661c1.249,2.5-1.732,6.434-4.319,7.308C164.066,329.1,166.464,327.619,167.381,324.661Z" transform="translate(-89.973 -196.834)" fill="#001a31" fill-rule="evenodd"/>
        <path id="路径_756" data-name="路径 756" d="M151.864,325.4a7.165,7.165,0,0,1-2.99,2.658c-4.273,3.7-3.674,12.273-10.631,13.289C143.873,337.122,144.542,327.934,151.864,325.4Z" transform="translate(-87.413 -196.91)" fill="#001a31" fill-rule="evenodd"/>
        <path id="路径_757" data-name="路径 757" d="M201.176,325.4c1.084.247,1.036,3.794-.332,3.655C200.952,327.835,200.56,326.115,201.176,325.4Z" transform="translate(-93.868 -196.91)" fill="#001a31" fill-rule="evenodd"/>
        <path id="路径_758" data-name="路径 758" d="M176.436,325.772c1.5,2.865-1.107,7.282-2.657,9.3C172.738,331.373,175.506,328.609,176.436,325.772Z" transform="translate(-91.055 -196.948)" fill="#001a31" fill-rule="evenodd"/>
        <path id="路径_759" data-name="路径 759" d="M179.439,327.622c.537-.093.573.314,1,.332-.272,2.543-2.335,4.912-1.661,7.309,1.265-1.5,2.025-3.512,4.318-3.987-.335,3.839-5.291,5.186-3.322,9.3C174.9,339.488,177.239,330.721,179.439,327.622Z" transform="translate(-91.401 -197.138)" fill="#001a31" fill-rule="evenodd"/>
        <path id="路径_760" data-name="路径 760" d="M190.284,329.844c1.262-.266.422,1.57.664,2.326,1.716.165,1.236-1.866,2.657-1.994-.239,2.086-1.343,3.308-1.993,4.983.576,1.078.87-.863,1.993-.332.339,1.79-1.734,2.9-.664,4.318,1.223-.166.014-1.752,1.328-2.326,1.442,1.161-.29,4.241.665,6.313-2.469-.855-3.123-3.522-4.651-5.316-1.023-.248-.639.912-1.661.665A63.861,63.861,0,0,1,190.284,329.844Z" transform="translate(-92.61 -197.366)" fill="#001a31" fill-rule="evenodd"/>
        <path id="路径_761" data-name="路径 761" d="M197.082,329.847c1.541.943-.938,5.466,1.661,5.98,1.632-.426-.3-2.58.665-3.323,1.242.862,1.138,3.07,1.661,4.651.631,1.232,3.57,1.62,2.658,3.323C198.9,339.633,195.139,335.392,197.082,329.847Z" transform="translate(-93.428 -197.369)" fill="#001a31" fill-rule="evenodd"/>
        <path id="路径_762" data-name="路径 762" d="M204.517,330.217c2.692,1.626,2.687,5.951,4.651,8.306A6.428,6.428,0,0,1,204.517,330.217Z" transform="translate(-94.219 -197.407)" fill="#001a31" fill-rule="evenodd"/>
        <path id="路径_763" data-name="路径 763" d="M148.9,332.81a5.786,5.786,0,0,1-3.987,5.98C145.781,336.337,147.96,335.195,148.9,332.81Z" transform="translate(-88.101 -197.674)" fill="#001a31" fill-rule="evenodd"/>
        <path id="路径_764" data-name="路径 764" d="M164.9,333.18c1.382,1.667-1.357,4.8-.665,7.974-1.356-.656-.82-3.374-2.657-2.657C161.948,335.984,163.694,334.851,164.9,333.18Z" transform="translate(-89.82 -197.713)" fill="#001a31" fill-rule="evenodd"/>
        <path id="路径_765" data-name="路径 765" d="M183,335.032c2.308.762,4.255,1.919,3.654,6.313,1.026,1.189,2.8,1.633,3.655,2.99C185.892,344.862,180.629,340.225,183,335.032Z" transform="translate(-91.969 -197.904)" fill="#001a31" fill-rule="evenodd"/>
        <path id="路径_766" data-name="路径 766" d="M152.487,335.773c1.194.825-.593,2.054-1.328,3.323-1.071,1.847-1.409,4.776-3.655,5.316C148.271,340.638,150.713,338.539,152.487,335.773Z" transform="translate(-88.368 -197.98)" fill="#001a31" fill-rule="evenodd"/>
        <path id="路径_767" data-name="路径 767" d="M154.025,339.108c1.258.412-.777,2.878-1,3.987C152.119,341.837,153.674,340.208,154.025,339.108Z" transform="translate(-88.909 -198.324)" fill="#001a31" fill-rule="evenodd"/>
        <path id="路径_768" data-name="路径 768" d="M111.364,275.781c2.236.021,2.515-1.916,4.984-1.662-.144.633-.717.835-.665,1.662-7.349,4.831-13.833,10.529-20.929,15.614.7-1.708.04-2.549-.665-3.655,3.4-2.025,7.605-3.248,9.635-6.645-.053-.389-.605-.28-1-.332a40.325,40.325,0,0,0,4.651-4.983c-2.6.5-4.731,4.348-8.306,4.983-1.571-2.048-5.686-.215-5.979-2.99,6.673,1.1,7.725-4,5.979-7.973a9.623,9.623,0,0,0-3.655-.333c.417-2.129,3.111-1.983,3.987-3.655a2.781,2.781,0,0,0-1.329-2.326c.47-.969,1.825-1.054,2.657-1.661-.289-.486-.5-1.052-1.328-1a5.424,5.424,0,0,1,4.318-3.322c.069-.835-1.621-1.78.333-1.661.179-1.177-1.178-.817-1-1.994a7.487,7.487,0,0,0,1.994-.665c-.134-.864-.991-1-1-1.993h1.993c.1-2.1-1.219-2.768-1-4.984,1.837.047,2.183,1.583,3.986,1.661,1.083-.826-1.446-1.874-.665-2.326,5.789,3.528,6.96-2.978,5.648-6.644,1.921-1.391.984-3.969,1-6.645a1.628,1.628,0,0,0,1.994,0c.2-1.2-.12-1.874-1-1.994,1.437-.446,1.212-2.553,1.661-3.986-.066-1.372-2.119-.76-1.994-2.326.784-.428.619.044,1.662-.332-1.032-10.385,1.778-16.159,2.326-25.249h1.661c-.724-3.8,2.809-5.986,3.987-8.97,2.048-.118,2.176,1.123,3.654,0a9.532,9.532,0,0,0,6.312,3.323c4.179,5.566,10.386,9.1,14.286,14.95,2.139-.079,2.678.683,5.316.665,2.731-3.3,8.261-.556,11.628-2.99,1.611,1.589,4.21.744,5.647,1.994,1.23.232.829-1.165,1.329-1.662.687.642,1.847.81,2.658,1.329.875.1,1.091-.46,1-1.329,6.37-.482,10.947-.168,16.611-.332.57-2.53,1.5-4.7,4.651-4.651.541-2.117,3.194-2.121,3.987-3.987.492.172.837.491,1.329.665a102.105,102.105,0,0,1,10.963-8.97c.551-.17,4.121-2.744,7.641-2.658,2.056,6.756,4.087,20.113-.665,27.243.5,1.369,1.335,4.3-.664,4.651-.151,4.256-1.148,6.857-1.661,11.3-.141,1.136.995,1,1.328,1.661-1.014,3.558.8,5.447,2.326,7.973.3,1.63-1.393,1.265-1.33,2.658.979,1.758,2.585-.942,3.655,0a12.087,12.087,0,0,1-1.328,3.655c2.807,2.614-1.29,6.5-.333,9.967-2.007-.1-2.674-1.535-3.986-2.326-.968-4.068,1.785-4.416,2.325-6.978-.271-.836-1.752-.463-2.325-1-1.532,1.569-1.143,5.06-2.659,6.645-2-1.434-5.546-1.32-4.983-5.316,2.256-.711,3.493-.641,6.313-1,5.878-6.238-4.631-13.977-.333-21.6-1.952-3.2,1.1-7.026-.665-11.3-.893-.229-.641.687-1,1-.469-1.254,1.227-3.2,2.326-3.987A30.754,30.754,0,0,1,220,198.7c-.288-.966-.5-.373-1.328-.332,1.263-2.281.152-4.937,0-7.641-7.22,3.744-12.086,9.841-18.937,13.953a6.192,6.192,0,0,0-1.994,3.323c.359,2.631,4.642,1.338,6.312,2.657v2.326c.875,1.248,2.23-.032,3.655.665v1.993c2.161.278,1.238-2.528,3.656-1.993-.227,1.545-1.294,2.25-1.662,3.654,1.754,1.407,1.778-1.753,3.323-1.661.34,2-.744,2.578-1.329,3.655,1.874,1.116,2.23,3.75,4.651,4.319-1.034,1.181-.8,3.628-2.326,4.318.013-1.093.561-1.654.332-2.99-.4-.484-1.452-.319-1-1.661-1.324.216-2.032-.182-1.993-1.329a1.248,1.248,0,0,0-1.329,1.329c.23,1.041.885.433,1.661.333-.139,1.135.1,1.892,1.329,1.661-.256,1.915.788,3.167,0,4.651.281.974,1.07-.2,1.661,0v2.657c1.015.241.977-.573,1.994-.332.947,2.153,1.1,5.1,2.325,6.977-.556,1.326-1.561,2.2-1.661,3.986-2.758.074-1.112-2.694-1-4.318-3.013-3.061-11.153-5.671-14.618-1.662.355-1.417,1.875-1.668,1.994-3.322-2.362.3-4.979,3.508-2.99,5.98,2.834-.263,3.008-4.6,6.311-3.322-1.14,1.85-3.415,2.563-4.65,4.318a9.214,9.214,0,0,0,6.311,4.651v1.329a119.134,119.134,0,0,0,14.619,9.634c-1.769,7.507,4.826,15.192-.332,20.931a20.318,20.318,0,0,0-2.991-.665v-4.319c1.132.665,3.27-.362,1.994-2.657-.831-.057-1.039.51-1.329,1-.461-.881.508-1.863.333-2.99h1.661v-1.661c-1.543.506-2.96.183-3.322-1.329h1.328c4.892-7.3-5.273-9.334-9.634-11.628-4,.324-4.952,3.685-8.638,4.319.358,2.3.509,4.805,1.66,6.312,1.24-.733,1.63-.537,2.99,0,.135-1.1,2.263-2.562,2.991-1-1.33,2.888-4.614.552-6.312,2.326.213,1.668,2.111,1.653,2.325,3.322-.874.835-1.118-.833-1.994-1-1.426.441-.09,1.484,0,2.326,1.016.239,1.212-.34,1.994-.333a1.883,1.883,0,0,1-2.325,1.662c-.5,2.273,1.259,2.283,1,4.318,1.506-.515,2.287-.055,3.655.333.086.972-.752,1.021-.665,1.993-3.32-1.726-4.966,5.223-8.969,2.658-3.159,3.884-12.43,8.372-15.947,1.661-2.662.328-6.343,4.2-8.638,1.661-1.442,0-1.422,1.457-1.994,2.326-1.518.011-.017-1.166-.333-1.993-1.9.051-.5,2.1-.664,3.322,2.029-.28,1.925,2.731,4.318,2.99.816-.292,1.917-.3,1.994-1.329,2.679.234,7.453.309,9.3-1.329,5.676,2.352,8.557-2.3,11.96-3.987a38.47,38.47,0,0,1,9.3-2.658c1.564-.269,4.961-1.412,6.645.665a85.7,85.7,0,0,1-12.624,2.658c-.452.1-.276.831-.333,1.329-2.92-.373-4.7.4-4.319,3.322.472-.029.942-.055,1,.332a1.9,1.9,0,0,0,1-1.993,35.7,35.7,0,0,1,9.968-1.994,1.566,1.566,0,0,0-.333,1c1.457.349,1.091-1.124,2.326-1,.093,1.709,3.064.613,3.655,1-.817,4.273-8.845,2.845-11.96,6.312-.614-.05-.2-1.126-.665-1.329-1.554.092-3.865,1.216-5.648.332a2.494,2.494,0,0,0-1.661,1.994c-1.688-2-5.72-1.062-7.641.332-1.65.406-3.16-.878-3.655.333-.869-.239-1.13-1.084-1.993-1.329-1.182.147-1.456,1.2-2.326,1.661-1.224-1.987-5.807-.616-6.977-2.657-1.245-.026-1.134,1.3-1.329,2.326.048.726.837.713,1.661.665.178,1.617-1.324,1.554-1.661,2.657.173.491.492.838.664,1.329,1.217-.224,1.545-1.335,2.658-1.661.808,3.579-4.866,3.547-4.983,7.308,2.2.675.522,5.237,1.994,6.645.893-.878.153-3.391,1.993-3.322a6.5,6.5,0,0,0,1.661,4.651c.258-2.317-.132-6.019,1.994-7.309-.764,1.052-1.155,4.347,0,5.316.939.06.773-1.249,1.661-.332,1.04-1.887.452-3.342,1.328-5.317.788,1.982-.339,5.878,1.994,6.313.985-.483-.437-1.3,0-2.326,1.172.642,1.486-.156,2.657-.333A1.464,1.464,0,0,0,185.45,310a2.72,2.72,0,0,0,.665-1.993c2.421,1.15,3.034.136,5.647.664,1.849-.587-.028-4.9,2.326-4.983a1.881,1.881,0,0,1-.665,2.657c.23.656.886.886,1.661,1a4.9,4.9,0,0,0,2.657-4.652c1.172.268.852,2.028,2.326,1.994,1.423-.68,2.108-2.1,3.322-2.989.291-1.067-.862-.69-1-1.33-.465-3.012,1.452-3.641,1.993-5.648,1.862-.453,5.706-.051,6.645-2.326,8.6-.7,9.158-9.447,14.618-13.289.35-2.2,1.682-3.412,1.994-5.647,1.6.282,3.206.559,3.654,1.993h-1.329c.465,2.083,2.308,2.787,2.99,4.651-1.264,1.025-2.136-1.173-3.322-1.329-1.65,1.268,1.163,3.065.332,5.648-1.395-.044-.821-2.058-2.325-1.994-.841.97-.113,3.2,0,4.319-.807.708-1.419-.791-2.99-.332-.823.526-.135,2.324,0,2.989-.94.275-.861-.468-1.661-.332-.257,1.585.518,2.138.332,3.655a2.164,2.164,0,0,1-1.662.332c-.487,3.368,2.119,3.64,2.658,5.98h-1.993v3.322c-1.683.7-2.253-1.726-4.319-1.661.3,1.911,1.977,2.453,2.99,3.655-.282.974-1.07-.2-1.661,0-.517,1.113,1.473,2.181,1,4.318-2.383-3.326-2.282,3.9-1.329,6.313-1.066.291-.689-.862-1.328-1-1.255,1.681,1.5,3.691.665,4.984-.946-.827-1.151-2.394-1.994-3.323-1.377-.047-.346,2.312-.665,3.323a6.577,6.577,0,0,1-1-2.326c-.922.074-.94,1.053-1.661,1.328-.2,1.639.863,2.016.664,3.655-.756-.161-1.7-.659-2.325,0,.674,1.6-.354,2.836.332,4.319-1.16-.611-1.409-.064-2.326.332-.237,1.677.453,2.426.665,3.655-1.393.064-1.028-1.63-2.658-1.329.75,2.019,2.567,2.97,3.655,4.651-2.636-.021-4.322-.994-6.312-1.661-.2,1.422,2.8,2.509,2.657,4.984-1.841-.153-2.238-1.75-3.987-1.994-2.178,2.9-7.616,1.308-9.967-.332-1.593,1.722,1.858,1.228,1.329,2.989-2.16.057-3.16-1.048-4.651-1.661-1.051.245-2.062,2.291-2.99.665-.88.893-1.393,2.152-2.99,2.326.38-1.045-.522-.807-.665-1.329-2.707,1.667-4.5-.822-6.645.333-.623-.587.4-.97-.332-1.661a1.239,1.239,0,0,1-1.661,0c-1.472.3-1.174,2.37-3.322,1.993-.008-.782.572-.978.331-1.993-.882.114-1.121.872-1.328,1.661a2.33,2.33,0,0,0-1.994,0c-.482-.734-.223-2.213-1-2.658-1.284.045-1.31,1.348-2.325,1.662-1.479-.183-1.767-1.557-1.662-3.323-.3-.9-.8.7-1,1-.552-2,1.356-4.4,1-7.309-1.622,3.361-3.092,6.874-6.312,8.638-.451-.1-.275-.831-.333-1.328-1.564.317-2.66,1.1-4.318,1.328v-1.661c-1.5.093-2.17.666-1.994-1.329h-1.994a7.48,7.48,0,0,0,.665-1.993c-3.03.736-4.446,3.085-7.974,3.322-.039-1.479,1.163-1.716,1-3.322a9.164,9.164,0,0,0-3.322,1.993c-1.508-.412.574-.966-.333-1.661-1.607.276-2.293,1.472-3.655,1.994a3.94,3.94,0,0,1-2.989-3.655c-.881-.005-1.956.185-1.993-.665-1.4-.117-1.53,2.215-2.658,1.329.491-1.214-.474-2.4.332-3.655-.3-1.115-.617-.164-1.661-.332.225-.772,1.1-.89,1.329-1.662-.289-.966-.5-.373-1.329-.332,2.06-1.815,4.457-3.294,5.647-5.98-2.317.146-4.153,5.335-7.973,3.987,3.2-2.072,5.447-4.873,7.973-7.64,3.25-3.56,8.16-5.247,11.3-8.97-.283-.975-.837.432-1.662,0,1.452-1.981,4.121-2.745,5.316-4.984-5.974,2.665-10.77,6.506-15.947,9.968.054.389.605.28,1,.332-.622,2.163-3.863,3.047-2.99,5.647-1.38,1.056-2.973,1.9-4.318,2.99.444-1.552,3.385-3.477,3.987-5.98-1.328-1.2-2.01,1.076-2.657,1.662-2.732,1.919-5.085,4.216-7.641,6.312-4.445,1.092-8.012,3.063-12.625,3.986,2.42-2.12,6.191-2.89,8.306-5.316-2.959-.187-6.51,1.9-8.97,3.323a105.636,105.636,0,0,1,14.618-16.28c-8.737,3.112-11.566,15.012-21.926,17.608-.055-1.717-2.141-1.4-2.99-2.326.426-.9,1.7-.956,1.994-1.994-.845-.911-2.368,1.639-3.655.333.319-1.785,2.562-1.646,2.99-3.322,7.118-2.073,11.233-7.15,16.943-10.631,5.93.828,11.585-4.054,16.943-5.98-5.739,6-14.494,8.983-18.272,16.943,2.016-.866,4.517-4.119,6.645-5.98.231,1.238-1.814,3.053-1.994,4.984,4.084-2.782,6.312-7.42,10.964-9.635-2.153,2.609-4.982,4.542-5.98,8.306,3.939-2.262,5.958-6.445,9.634-8.97.341,1.236-2.205,2.439-1.661,4.984,3.085-4,7.643-6.532,11.3-9.967-.935-.914-2.188.674-3.323.665,1.026-1.633,2.771-2.545,3.987-3.987-2.517-.3-4.471,2.837-7.309,3.323,1.264-1.837,4.171-2.03,4.983-4.319-1.63-.405-4.182,1.127-5.979,1.661,2.83-3.26,8.395-3.787,11.96-6.312.515,1.711-3.134,1.894-3.322,3.987,3.269.015,5.861-4.78,10.631-3.322,1.222-.218,1.655-1.225,2.326-1.993a2.516,2.516,0,0,0,2.326-.665c-1.688-1.569,2.964-1.674,2.99-3.655.335-1-.741-.589-1.329-.665.416-1.577,2.125-1.861,3.323-2.658.247-1.022-.912-.639-.665-1.661,2.087-1.9,4.637-3.337,6.645-5.316-3.8-.117-5.908,4.263-9.967,4.984.3-.7,1.012-.982,1-1.994-3.525,1.57-5.732,4.457-8.306,6.978-.743-.144-.135-1.638-.333-2.326-3.953,2.136-5.5,6.683-9.967,8.3,3.249-4.835,9.39-6.778,9.967-14.285-.179-1.177,1.177-.817,1-1.994-.219-.995-.71.317-1.329,0-.136-.8.607-.722.332-1.661-4.45,1.46-7.09,5.986-7.308,10.631-8.7,2.7-14.857,7.955-22.592,11.628,5.639.794,9.948-5.3,15.947-6.977,2.408-.673,4.73-.487,6.312-2.325-.195,1.582-3.06,3.359-4.983,4.318-4.957,6.45-13.128,9.685-20.93,13.289,1.275-2.047,4.808-1.836,5.979-3.986-5.18.469-10.765,3.41-14.618,6.313,1.291-4.136,7.134-6.6,10.3-9.967-8.725,1.352-11.951,11.082-18.6,15.614a11.245,11.245,0,0,1,2.657-3.655c-2.482-.743-4.693,2.413-7.641,1.329-.042-.6.406-.7.333-1.329-.483-.514-1.7-.292-2.658-.332,7.438-5.518,15.49-10.424,22.259-16.611-4.285,1.254-8.128,5.825-12.957,7.641,3.265-5.926,11.69-6.693,14.951-12.624-2.014.463-4.215,3.506-6.313,4.983-8.887,1.965-10.319,11.386-18.272,14.286-.042-.6.407-.7.333-1.329-.746-.582-2.5-.159-3.323-.665.52-1.253,2.9-.643,3.323-1.994-1.6-.865-3.216.364-4.984-.332,1.249-1.4-.525-1.529,0-2.657,5.246-2.175,10.768-4.071,14.286-7.974-1.106-.32-2.851,1.571-4.651,1.662,4.536-5.43,11.163-8.77,16.611-13.29-.427-1.331-.687.091-1.661,0,.672-2.2,1.988-2.094,3.654-1.993,2.431-2,4.32-4.54,7.309-5.98-2.437,3.654-7.351,4.83-7.974,10.3,2.995-1.989,5.61-4.357,8.97-5.98-1.86,3.456-7.143,3.488-6.977,8.97,2.539-.561,2.4-3.8,5.316-3.986-.969,2.574-3.271,3.816-4.319,6.312,3.478-1.056,5.22-4.439,7.642-6.645,2.8-2.552,5.751-4.857,7.64-8.3.8.3-.752.98-.332,1.993.756.717,1.287-.665,1.994-1-1.558,2.985-6.754,5.205-8.638,8.97-.1.875.46,1.09,1.329,1-.78,1.988-3.1,2.434-3.987,4.318,5.027-.854,7.78-6.828,11.3-10.3.274-.939-.469-.861-.333-1.661,1.37-.068.386-2.493,2.326-1.994-.347,1.2-1.561,1.541-1.329,3.323,2.106-.774,2.844-2.916,3.987-4.651,1.022,1.152-1.554,1.532-1,3.322,2.538-.563,3.942-2.26,5.98-3.322-1.046,2.387-3.369,3.5-4.319,5.979,5.758.663,6.947-6.119,11.628-7.64-.453.654-.317,1.9-.664,2.657,2.057-.855,3.178-.742,4.651-2.326.614.05.2,1.125.664,1.329a7.538,7.538,0,0,0,4.319-6.978c-1.952-.178-2.209,1.335-3.655,1.662v-1a2.346,2.346,0,0,0-1.993,1.329c-.889-.8.675-1.963,1-2.657-.282-.974-1.069.2-1.661,0,.3-.7,1.012-.982,1-1.994-1.643.018-1.942,1.38-2.99,1.994-1.463-.342,1.266-1.685,1-2.99-1.947-.176-1.9,1.643-3.323,1.993-1.447-.476.455-1.509.333-2.657-2.491.831-3.509,3.135-6.313,3.655.717-1.056,1.794-1.751,1.994-3.323-1.168-.6-2.582,1.4-3.987,1.661.7-1.3,2.153-1.832,2.657-3.322-.706-1.183-1.237,1.466-1.993.333a21.86,21.86,0,0,0,1.661-2.658c-1.63-.184-2.675,3.079-4.983,3.323.039-1.4,1.2-1.681,1.661-2.658.155-.708-.475-.633-1-.665a18.814,18.814,0,0,1,3.322-3.322c-.1-.451-.831-.275-1.328-.333.274-.832,1.163-1.05,1.661-1.66-2.138-.252-4.969,1.671-6.645,2.989.858,1.05,2.082-.332,2.99-.332-2.382,2.379-4.865,4.657-6.312,7.973,2,3.479-3.158,5.586-1.994,8.306-.6-.042-.7.407-1.329.332.26-1.87-.312-1.645-1.661-1.328.986-2.337,1.883-4.762,2.99-6.978-.84-.429-2.184,1-2.99,1.662-.374-1.16,1.813-2.61,2.326-3.987-.283-.975-.837.431-1.662,0,1.1-1.784,2.9-2.863,3.323-5.316a21.975,21.975,0,0,0-5.98,3.655c.341-3.76,6.094-4.979,8.3-7.974-.816-.9-2.275.363-3.322.333a53.108,53.108,0,0,1,9.3-6.645c-1.6-1.393-3.932.5-5.981.665a27.949,27.949,0,0,1,4.984-2.99c.286.268.2.909.665,1,1.589-.848,3.543-1.329,4.984-2.326.978,1.654-2.136,2.064-3.655,2.326.117,1.1,1.915.521,2.99.665-.543.786-1.951.708-2.658,1.329a.918.918,0,0,0,1,.665c-2.377,2.605-5.681,4.284-7.64,7.308,1.979.245,7.394-1.057,6.644-4.318a11.4,11.4,0,0,1,3.987-2.658c.136-.8-.606-.722-.332-1.661,1.123.126,1.417-.576,1.993-1-.1-.451-.831-.276-1.328-.333,1.173-.931,2.814-1.393,3.655-2.657-.434-.439-1.759-.073-1.994.665.712-2.834,5.752-4.214,8.638-5.98-3-1.333-4.645,1.552-6.977,1.993.09-.924,1.139-2.184,0-1.661-.9-.827,2.068-.79.665-2.326,2.1-.443,4.378-.717,5.316-2.326-.891-.543-2.614.918-4.319.665.854.035,1.944-2.959,0-2.657,2.321-1.613,1.33-3.429,2.658-4.984-1.413-.848-3.231.747-4.983.665.782-.768,2.244-.856,2.989-1.661-.577-.224-2.307-.98-2.326-.665.128-.328,1.253-2.5,2.99-2.326-.45-1.745-2.856-1.025-4.319-1,1.189-1.247,4.07-.8,6.313-1a3.5,3.5,0,0,1,1.661-1.661c.1-.874-1.289-.262-1-1.329,2.108,1.035,2.429-.613,4.318-.665-.147-1.292-1.887-.992-2.99-1.328,1.085-1.11,3.4.018,4.984.332.389-.054.28-.605.332-1,2.414.789,3.952.628,7.309.665a12.384,12.384,0,0,1,.664,2.326c1.474.4,3.632-1.3,4.319,1,.876.1,1.091-.46,1-1.329-.084-.69-1.459-.091-1.661-.665.175-4.126-4.072-2.491-6.312-3.654-.242.754-1.4.588-1.994,1-5.222-2.585-11.073,1.484-15.946.332,2.079,1.026-.06,3.237,1.661,3.655-1.656,1.917-5.1,1.257-7.309.333.038-.849,1.113-.66,1.994-.665-1.31-1.79-5.139-1.063-6.644-2.658,1.361-.3,4.943,1.624,6.644,1-.267-2.391-2.622-2.693-1.994-5.98,1.514-.406,1.3.911,2.658.665-.733-3.033-2.807-4.724-5.98-5.316-2.379-4.93-7.4-7.221-11.628-10.3-.8-.135-.722.607-1.661.333A13.014,13.014,0,0,0,129.3,198.7c-2.182-.188-1.578,2.409-3.654,2.326.859,1.577,2.38,2.492,2.989,4.319a22.067,22.067,0,0,1-5.315-2.326c.083,1.658-1.722,3.331-1.994,5.647-.241,2.053.666,6.387.333,8.97-.474,3.667-.32,6.773,4.318,4.983,3.227,2.09,8.25,2.382,10.963,4.984-.353.754-2.088.126-2.989.332-.024,1.132.977,1.238,1.661,1.662-3.562,1.461-4.545-2.781-8.97-2.326.752,3.872,5.228,5.839,1.661,9.967-.157,1.044.414,1.358,1,1.662a3.918,3.918,0,0,1-3.654,1.328c-.474-1.47,1.124-.869,1-1.993-1.1-.143-3.884.071-5.647-.333.725,2.487,3.143,3.28,4.651,4.984-1.456.623-3.2-.292-4.319-1,.949-2.562-2.325-2.714-2.657-4.984.845-.83.83-2.752-.333-3.322-2.468,5.134,1.463,14.142,8.97,10.3-1.049,1.608-2.235,3.081-4.651,3.323-.233,1.23,1.421.572,1.661,1.328-3.177,4.8-8.519,7.428-11.96,11.96-.573-2.818,3.519-5.523,3.654-7.641-3.931,2.824-5.587,7.923-9.3,10.963-.056.72,1.178.151,1.661.332-.489.952-1.632,1.248-1.994,2.326.377.778,2.192.23,2.326-.332.636,2.3-3.3,2.9-3.987,4.984,1.489,1.031,2.677-1.079,4.319-1a1.865,1.865,0,0,0-.332,1.329,12.793,12.793,0,0,0,3.655-3.655c1.16.76-.786,1.178-.333,2.326,3.03-1.509,4.763-4.318,6.977-6.645.3,1.851-2.13,3.847-2.99,5.648,1.795-.864,3.543-1.773,4.319-3.655.558.294-1.171,2.645-1.994,3.655A46.053,46.053,0,0,1,111.364,275.781Zm90.365-43.521c-.954-.464-1.688.906-1.994,0,.543-1.118,1.083-2.239,1.661-3.322-1.548-.22-1.47,1.186-2.657,1.328-.372-.07-.518-.369-.665-.664.337-2.321,1.862-3.454,2.99-4.984-1.778.325-2.123,2.085-3.655,2.657,0-.333-.269-.395-.332-.664.321-1.417,3.166-3.595,1.993-4.319-1.3,1.134-1.913,2.96-3.654,3.655-.258-.739-.192-1.8-1-1.994a3.863,3.863,0,0,0-1.329,4.651c2.067-.627,1.131,1.748,1.329,2.99,1.418-.031.947,1.636,1.661,2.99h1.329a10.956,10.956,0,0,0,1.993,3.986C199.39,235.851,201.842,233.99,201.729,232.259Zm-12.292-22.591c-.357-2.971-3.543.721-5.316-.665-2.076,1.578-6.478.83-6.645,4.318,1.471-.363,1.652.563,2.657.665,1.144-1.071,1.7-2.734,3.655-2.99-.943.8-.328,1.223-.332,2.658,1.823-.17,2.273-1.714,3.655-2.326-.353,1.239,1.246.526,1,1.661,1.989.327,2.183-1.14,3.987-1,.356,1.241-.825.947-.665,1.994,1.828-.341,4.216.085,4.984-1.994-1.152-.266-1.277.5-2.326.333V211c-1.4.009-2.146-.642-3.322,0-.243-.906.659-.668.664-1.328Zm7.308,4.651c.823-.506,2.577-.083,3.323-.665C199.867,211.643,196.675,213,196.745,214.32Zm-11.628,3.654c1.139-.187,1.637-2.222.665-2.657A2.937,2.937,0,0,0,185.118,217.973Zm2.658,0c.022-.538,1.42-2.086,0-1.993C187.867,216.563,186.84,217.638,187.776,217.973Zm7.973,2.99c1.947.176,1.673-1.871,2.99-2.326,1.674.6,3.914-.3,4.319-1.993C199.461,214.949,197.243,218.543,195.749,220.964Zm-5.316,2.326c.974.383,1.234-1.593,1.661-.665-.311.281-.709,2.118,0,2.326.816-3.613,4.594-4.265,4.651-8.638C192.611,216.607,191.78,220.207,190.433,223.289Zm-16.279-.665c-.814,1.094,1.12,1.955.665,2.99,1.177.152,1.918.739,3.323.665A10.446,10.446,0,0,0,174.154,222.624Zm2.99,1c-2.743-3.459-6.042-6.36-11.629-6.977.067,1.262,1.4,1.26,1.33,2.657-1.079.193-1.546-.226-2.326-.332,1.335,1.106,4.222,2.416,5.647,2.326-.485-.289-1.052-.5-1-1.329C172.575,220.44,174.293,222.6,177.145,223.622Zm12.292-2.99c.8-.865,1.844-1.478,2.326-2.658C190.26,217.923,188.452,219.3,189.437,220.632Zm1-3.655c-1.178-.054-2.545,1.42-1.661,2.326C189.22,218.422,190.523,218.4,190.433,216.977Zm12.292,2.657c.63.532,1.912-.3,2.326-1C203.786,218.48,202.977,218.779,202.725,219.634Zm-35.216,2.99c-1.531.081-2.528-2.107-3.655-1.328C164.709,221.894,166.148,223.64,167.51,222.624Zm41.2.665c.193-.694.824-.948.665-1.993-.425-.019-.46-.426-1-.333C208.336,222.08,207.709,222.721,208.7,223.289Zm-51.826,2.658c1.119.21,3.086-.429,3.655.332-2.528.683-5.033,1.39-6.312,3.323a37.411,37.411,0,0,0,6.977-2.658c-1.142-1.675,1-.926,1.328-1.994-.582-.3-1.657-.114-1.993-.664a6.354,6.354,0,0,1,4.652,0C163.538,221.866,156.816,222.637,156.878,225.947Zm-24.916.665c-1.5-1.935-4.611-2.256-6.977-3.323C124.9,225.53,129.127,226.2,131.962,226.612Zm43.853,1.328c-1.526.371-2.947-1.6-3.655,0,2.754,1.012,5.282,2.249,7.973,3.323-.335-4.317-5.393-5.679-8.969-5.648C172.667,226.438,174.838,226.592,175.815,227.94Zm1,4.319c-1.674-.432-3.1-1.385-4.318-.665,1.943,1.269,5.312,1.111,6.312,3.322a22,22,0,0,0-2.99-.664c-.323.563-.918.853-1.994.664.919,1.517,2.989,1.884,4.651,2.658,2.809-1.143,6.14,2.637,8.638,3.987-1.168-3.412-4.781-3.645-5.316-6.977.39-.052.943.057,1-.332-2.54-1.891-5.89-4.739-9.634-4.319C174.272,230.813,176.25,230.828,176.812,232.259Zm-53.82-.332c.326,1.335.611,2.711,2.326,2.657.682-1.157-.875-2.061,0-3.655C124.3,231.017,123.823,231.651,122.992,231.927Zm29.9,2.989c1.921.316,6.508-1.2,6.645-2.657C158.162,233.985,153.3,232.226,152.892,234.917Zm-31.893,0c.013,1.933,3.643,3.2,4.983,1.662C124.007,236.483,122.539,234.368,121,234.917Zm42.856,7.309c-.226,1.776,1.995,1.107,1.994,2.658-1.274.719-3.493.493-3.323,2.657.231.656,1.854-.082,1.994.665.366,1.7-1.256,1.4-1.328,2.657,1.739.681,2.465.227,4.983,1-.1-.772-.835-1.557.665-1.329.192-.888-.983-2.075,0-2.658,2.539,2.3,7.794,1.775,10.631,0,.417,1.355,2.293,1.251,3.654,1.662a2.821,2.821,0,0,0,.333-1.994c-1.627-.477-2.453-1.755-2.657-3.655,1.252-.256,1.587.405,2.657.333,1.075-3.445-4.006-3.492-6.312-4.651-.46.2-.05,1.278-.665,1.328-1.128-.09-2.693.257-3.322-.332,0-.66.907-.422.664-1.329C169.055,237.623,168.886,243.041,163.855,242.226Zm-48.5,5.98a3.388,3.388,0,0,0,3.323-2.99C117.193,245.839,115.777,246.528,115.351,248.206Zm38.539.332v2.99c-1.461.2-2.6.718-2.99,1.994,1.792-.469,5.986-1.288,7.308-3.323-.578-.307-1.783.012-1.661-1,1.719.058,2.641-.681,3.986-1-.789-1.365.978-2.056-.332-2.658C158.123,246.571,156.8,248.352,153.889,248.538Zm-39.867,1.994c-.248,1.022.911.639.664,1.661-.749.483-2.594,1.6-1.661,2.658,2.352-2.85,5.586-4.246,6.645-7.641C117.112,247.642,115.827,249.347,114.022,250.532Zm83.719,1.661c.63-1.269-.534-2.2-2.325-1.994C195.378,251.678,196.837,251.657,197.742,252.193Zm-44.85,3.322a11.023,11.023,0,0,0,4.651-2.989C156.431,251.5,153.2,253.581,152.892,255.515Zm1.329,1c3.015-.085,4.343-1.857,6.644-2.657C159.509,250.994,155.08,254.654,154.221,256.511Zm44.186-1.328c1.816-.488,2.089.568,2.326,1.661,1.9.239,2.446-.876,3.321-1.661-1.251-.186-3.843-.04-2.325-1.994a6.218,6.218,0,0,0-2.658-.332A12.336,12.336,0,0,0,198.407,255.183Zm-43.19,3.655c1.941-.828,3.479-2.059,6.313-1.994-.055-1.051.883-1.11.664-2.326C159.4,255.273,155.226,256.405,155.217,258.838Zm21.263.332c1.434-.337,3.273-.271,3.654-1.661C178.849,257.994,176.738,257.656,176.48,259.169Zm-10.631,7.641c2.85.8,5.385-1.444,5.648-4.319C169.026,263.344,166.268,263.908,165.849,266.811Zm24.253-.333c.514-.482.292-1.7.332-2.657C188.379,263.355,188.234,266.614,190.1,266.478Zm-6.313,1.994c1.384.366,1.384-2.36,0-1.994C183.138,267.1,183.686,267.695,183.788,268.471Zm10.631,1c.72.057.151-1.178.333-1.661h-1C193.9,268.435,193.3,269.809,194.42,269.468Zm-6.312,1.662c1.783.031,1.3-2.055,0-2.326A2.081,2.081,0,0,0,188.108,271.13Zm-29.9,2.326a3.873,3.873,0,0,0,2.99-3.323C159.359,270.4,158.06,271.2,158.208,273.455Zm1.994,0c1.215.62,2.753-.9,2.99-2.326C161.434,271.144,160.776,272.258,160.2,273.455Zm62.458,0c1.28.1,1.768-1.566.333-1.662A2.165,2.165,0,0,0,222.659,273.455Zm-25.249.664c.049-.823.062-1.613-.665-1.661C195.933,273.124,196.1,274,197.41,274.119Zm-35.216.333a1.248,1.248,0,0,0,1.329-1.329A1.248,1.248,0,0,0,162.194,274.452Zm26.245.665a2.165,2.165,0,0,0,1.662.332c.087-1.083-.395-1.6-1.329-1.661C188.667,274.236,188.3,274.421,188.44,275.116Zm-11.295,5.647c1.141.52,1.577-2.224.332-1.994C177.076,279.287,176.415,280.065,177.145,280.764Zm-10.964,13.953c.874.1.262-1.289,1.329-1-.128,3.331-4.329,5.4-7.641,6.644.037-.826.622-1.028,0-1.661-2.88-.333-2.779,2.315-5.316,2.326-.124,1.426-.892,2.208-1,3.655,1.245.026,1-1.432,2.657-1a3.93,3.93,0,0,1-2.325,4.319c-.032-.523.044-1.152-.665-1-1.653,1.7-6.884,3.914-3.986,6.977-.634,1.581-2.364,2.066-2.326,4.319,1.684.023,2.148-1.175,3.655-1.329a29.552,29.552,0,0,0-1.328,5.316c2.694-3.285,4.444-7.517,6.976-10.963-1.5-.709-2.514,1.6-4.318,1.661,1.449-3.2,3.838-5.465,6.312-7.641.056.5-.118,1.226.333,1.329.458-.556,1.534-2.205,1.993-1.662v1.994c1.306-.135,1.419-1.46,2.658-1.661.462.423.144,1.628,1,1.661.334-.441.314-1.236,1-1.328.009,1.319,1.292,1.364,2.325,1.661a35.582,35.582,0,0,0,2.99-6.645c-2.012-.35-2.554.768-3.986,1,0-1.843-2.221.6-2.658-.665.935-3.052,3.691-4.283,5.316-6.644a22.688,22.688,0,0,0-1.661-6.313C165.536,289.157,161.572,293.842,166.181,294.717Zm-11.959-1.328c1.723-.394,2.048.609,2.99,1,1.423-.745,2.239-1.1,3.654-.333-.191-1.63.431-2.447,1.661-2.657-.2-.795.418-2.411-.332-2.657C160.551,291.3,155.485,290.444,154.221,293.389Zm61.461.332c.661.778.7,2.177,2.326,1.994C218.218,294.2,216.189,292.439,215.682,293.721Zm.332,4.318c-.7-1.187-.075-3.689-1.661-3.987C214.444,295.844,214.32,297.851,216.014,298.039Zm-7.64,0c-.43-.9-.606-2.052-1.661-2.325C206.511,297.429,207.006,298.815,208.374,298.039Zm7.973,5.648c-.159-1.19-.54-1.92,0-2.99-1.6-1.165-2-3.542-3.322-4.983-.464,1.451-.01,1.961.332,3.322a.91.91,0,0,1-1.329,0c-.154.635,1.024,1.43-.332,1.328.594,1.622,2.837,3.6,1,5.648-.09-1.039-.878-3.9-2.326-3.323.961.7.472,1.991-.665,1-.383,1.08,1.014,2.043,0,2.657-.519-1.031-.922-2.178-1.994-2.657.472,2.641-1.206,3.37-2.657,4.651-.64-.135-.263-1.288-1.328-1-1.188,3.269-1.57,8.375,1.328,10.63.973-.6-.763-2.039,0-2.326.937.06.414,1.579,1.662,1.329-.365-1.2-.684-4.176,0-5.316.988,3.375,4.458,5.046,3.322-.665,2.077.639.793-2.085,1.661-2.657.3,1.383,1.266.039,2.326.665,2.119-1.613.891-6.082.332-7.308C215.265,302.111,214.919,303.786,216.347,303.687Zm-9.967-1.993c1.155-2.457-1.98-3.276-2.326-5.317C203.243,298.625,203.851,301.741,206.38,301.694Zm-65.448-1.662c2.613-.27,6.613-.911,6.312-2.99C145.76,297.617,141.852,297.868,140.932,300.033Zm1.994,6.645c-.1.653.448.658.664,1-3.846,1.8-7.911,3.385-9.634,7.309,1.4.386,1.9-1.843,2.657-1-.907,2.087-3.7,4.049-3.323,6.312,3.891-5.632,9.442-9.605,15.615-12.956.421-1.352,1.618-1.926,1.994-3.322-2.086,1.128-4.036,4.154-6.978,3.322,4.3-3.343,9.734-5.549,13.29-9.635C151.058,297.989,148.228,304.441,142.926,306.677Zm5.315-5.316c1.844-.15,2.4-1.584,2.99-2.99C149.814,297.58,147.45,299.945,148.241,301.362ZM103.723,318.97c3.962-3.236,7.037-7.36,10.963-10.631-.038-.405-.1-.786-.664-.665C110.19,311.04,106.066,314.114,103.723,318.97Zm93.022-3.987a3.588,3.588,0,0,0-1.661-1.994c.556,3.763,1.635,7,4.318,8.638,1.715-1.408-.882-3.589,0-4.983,1.418,1.019,1.407,3.465,3.987,3.322-1.862-2.568-2.4-6.456-2.657-10.631-.83-.237-1.366,1.463-1.994.333-.019-.2-.05-.394-.332-.333A19.5,19.5,0,0,1,196.745,314.983ZM161.2,323.621c.367-3.4,1.8-5.726,2.657-8.638-1.235,0-1.554,2.633-2.325,1.993-.563-1.45,1.826-6.033.664-6.977C161.064,314.05,157.773,319.813,161.2,323.621Zm-5.98-5.98c2.587-.874,5.569-4.8,4.319-7.308C158.619,313.29,156.221,314.768,155.217,317.64Zm-22.259,9.3c6.957-1.016,6.359-9.587,10.631-13.289A7.165,7.165,0,0,0,146.58,311C139.257,313.528,138.588,322.717,132.959,326.943ZM189.1,314.65c1.368.139,1.416-3.407.332-3.655C188.821,311.71,189.213,313.43,189.1,314.65Zm-24.253,5.98c1.551-2.021,4.158-6.437,2.657-9.3C166.58,314.165,163.812,316.929,164.852,320.631Zm5.647,5.316c-1.969-4.116,2.987-5.464,3.322-9.3-2.293.474-3.054,2.482-4.318,3.987-.674-2.4,1.389-4.766,1.661-7.309-.424-.018-.46-.425-1-.332C167.966,316.088,165.631,324.855,170.5,325.946Zm7.642-2.326c1.021.248.638-.912,1.661-.665,1.528,1.794,2.182,4.461,4.651,5.316-.955-2.072.777-5.152-.665-6.313-1.314.573-.1,2.16-1.328,2.326-1.07-1.416,1-2.528.664-4.318-1.123-.531-1.417,1.41-1.993.332.649-1.675,1.754-2.9,1.993-4.983-1.421.127-.942,2.159-2.657,1.994-.242-.755.6-2.592-.664-2.326A63.858,63.858,0,0,0,178.142,323.621Zm14.285,1.994c.912-1.7-2.027-2.091-2.658-3.323-.523-1.581-.419-3.789-1.661-4.651-.963.743.968,2.9-.665,3.323-2.6-.514-.12-5.038-1.661-5.98C183.84,320.528,187.6,324.769,192.427,325.614Zm4.651-1.994c-1.964-2.355-1.959-6.68-4.651-8.306A6.428,6.428,0,0,0,197.078,323.621Zm-58.139,0a5.786,5.786,0,0,0,3.987-5.98C141.988,320.025,139.809,321.168,138.939,323.621Zm14.95-.332c1.838-.717,1.3,2,2.657,2.657-.692-3.176,2.047-6.307.665-7.974C156,319.643,154.256,320.776,153.889,323.289Zm26.577,5.647c-.858-1.357-2.629-1.8-3.655-2.99.6-4.394-1.345-5.551-3.654-6.313C170.789,324.826,176.052,329.464,180.467,328.936Zm-39.2,0c2.246-.54,2.584-3.469,3.655-5.316.735-1.269,2.522-2.5,1.328-3.323C144.473,323.064,142.031,325.162,141.264,328.936Zm4.983-1.661c.221-1.109,2.256-3.575,1-3.987C146.894,324.388,145.339,326.018,146.247,327.275ZM131.3,284.75c3.35-1.3,5.32-3.983,6.977-6.977C134.655,278.807,133.409,282.21,131.3,284.75ZM125.65,289.4c-.038-.4-.1-.787-.665-.664-6.543,5.416-15.1,8.82-21.594,14.285.264,1.387-2.1,1.861-1,2.99C109.77,300.1,118.478,295.519,125.65,289.4Z" transform="translate(-82.129 -182.505)" fill="#fff" fill-rule="evenodd"/>
        <path id="路径_769" data-name="路径 769" d="M223.758,182.718c3.836,2.762,4.328,11.058,3.655,19.933-.761,10.022-6.092,21.919-3.987,30.565.754,3.1,4.842,4.361,5.316,7.308s-1.626,7.17-1.994,10.964c-.468,4.837-.784,12.508,1,15.946,1.163,2.243,4.231,2.906,5.648,4.984,1.39,2.039,2.516,5.682,2.326,7.641-.439,4.5-7.082,8.082-8.306,12.624-.771,2.863.257,6.29-.665,8.97-1.032,3-4.128,4.892-4.651,7.308-.5,2.322.531,6.075,0,7.974-.995,3.56-5.752,5.325-7.309,8.638-2.213,4.707-.371,9.331-4.318,12.624a70.861,70.861,0,0,1-17.941,3.322c-7.538.549-16.108,1.163-23.587.333-3.346-.371-6.438-2.648-9.635-2.99-2.37-.254-5.025.92-7.308.665-2.353-.264-4.482-2.463-6.645-2.658-2.077-.187-4.355,1.223-6.644,1.329-4.35.2-9.935-.933-10.964-3.987-1.934-.373-3.067,1.792-4.651.665-1.552-1.991-.831-6.256-1.661-8.97-7.126,1.5-15.307,5.556-23.92,3.323-5.193-1.346-8.424-6.425-11.3-9.968,1.3-2.672,5.565-1.724,5.98-4.65.494-3.485-5.525-5.348-7.973-9.3-1.627-2.627-1.564-4.644-2.658-6.978,1.732-2.7,6.024-2.834,8.306-4.983-.946-4.63-2.614-7.524,1.328-9.967-.666-3.144-4.041-3.567-3.321-6.312.648-2.474,3.263-1.884,5.647-3.655-.1-2.449-3.315-1.778-4.318-3.322.31-3.039,5.041-4.462,4.318-9.635,4.72-4.028,7.316-10.181,8.306-17.94,1.878-1.2,5.128-.526,6.977-1,4.659-16.447,2.815-39.473,10.3-51.5,6.459-10.375,17.877-.682,24.252,4.984,2.555,2.271,6.266,7.447,8.97,7.973,2.931.57,7.786-1.323,11.628-1.661,4.228-.372,8.749-.5,12.292-.665,3.06-.139,9.827.839,13.29,0,1.517-.368,2.735-2.249,4.318-3.322,2.569-1.739,6.236-3.385,9.634-5.647C209.568,187.641,219.922,179.955,223.758,182.718ZM117.779,268.763c.822-1.01,2.552-3.36,1.994-3.655-.777,1.882-2.525,2.791-4.319,3.655.86-1.8,3.285-3.8,2.99-5.648-2.213,2.326-3.946,5.135-6.977,6.645-.453-1.148,1.492-1.566.333-2.326a12.793,12.793,0,0,1-3.655,3.655,1.865,1.865,0,0,1,.332-1.329c-1.642-.082-2.83,2.029-4.319,1,.684-2.089,4.623-2.681,3.987-4.984-.135.562-1.95,1.109-2.326.332.361-1.078,1.5-1.374,1.994-2.326-.483-.181-1.717.388-1.661-.332,3.715-3.04,5.371-8.139,9.3-10.963-.135,2.118-4.227,4.823-3.654,7.641,3.44-4.533,8.783-7.164,11.96-11.96-.24-.756-1.894-.1-1.661-1.328,2.416-.242,3.6-1.715,4.651-3.323-7.508,3.844-11.438-5.164-8.97-10.3,1.163.57,1.178,2.491.333,3.322.333,2.27,3.606,2.422,2.657,4.984,1.119.7,2.864,1.62,4.319,1-1.508-1.7-3.926-2.5-4.651-4.984,1.763.4,4.552.19,5.647.333.127,1.124-1.471.523-1,1.993a3.918,3.918,0,0,0,3.654-1.328c-.582-.3-1.153-.618-1-1.662,3.567-4.127-.909-6.095-1.661-9.967,4.425-.455,5.408,3.787,8.97,2.326-.684-.424-1.685-.53-1.661-1.662.9-.205,2.636.422,2.989-.332-2.713-2.6-7.736-2.894-10.963-4.984-4.639,1.79-4.793-1.316-4.318-4.983.334-2.583-.574-6.917-.333-8.97.272-2.317,2.077-3.989,1.994-5.647a22.067,22.067,0,0,0,5.315,2.326c-.609-1.827-2.13-2.743-2.989-4.319,2.076.083,1.472-2.514,3.654-2.326a13.015,13.015,0,0,1-1.993-4.983c.939.274.86-.468,1.661-.333,4.23,3.079,9.248,5.369,11.628,10.3,3.173.592,5.247,2.283,5.98,5.316-1.354.247-1.144-1.071-2.658-.665-.629,3.287,1.726,3.589,1.994,5.98-1.7.627-5.283-1.3-6.644-1,1.5,1.6,5.334.868,6.644,2.658-.881,0-1.956-.185-1.994.665,2.208.925,5.654,1.585,7.309-.333-1.721-.418.418-2.629-1.661-3.655,4.873,1.152,10.724-2.917,15.946-.332.589-.408,1.752-.242,1.994-1,2.24,1.163,6.487-.473,6.312,3.654.2.574,1.577-.025,1.661.665.094.869-.12,1.43-1,1.329-.687-2.292-2.845-.6-4.319-1a12.388,12.388,0,0,0-.664-2.326c-3.358-.037-4.9.125-7.309-.665-.052.391.057.943-.332,1-1.587-.314-3.9-1.442-4.984-.332,1.1.336,2.843.036,2.99,1.328-1.89.051-2.21,1.7-4.318.665-.292,1.067,1.1.456,1,1.329a3.5,3.5,0,0,0-1.661,1.661c-2.243.194-5.124-.251-6.313,1,1.463-.028,3.869-.748,4.319,1-1.737-.178-2.862,2-2.99,2.326.019-.316,1.749.44,2.326.665-.745.8-2.207.893-2.989,1.661,1.752.083,3.569-1.512,4.983-.665-1.328,1.555-.337,3.371-2.658,4.984,1.944-.3.854,2.692,0,2.657,1.7.254,3.429-1.207,4.319-.665-.938,1.609-3.212,1.883-5.316,2.326,1.4,1.535-1.566,1.5-.665,2.326,1.139-.523.09.737,0,1.661,2.332-.44,3.978-3.326,6.977-1.993-2.886,1.766-7.925,3.146-8.638,5.98.235-.737,1.56-1.1,1.994-.665-.84,1.265-2.482,1.726-3.655,2.657.5.057,1.226-.118,1.328.333-.576.421-.87,1.122-1.993,1-.274.939.468.861.332,1.661a11.4,11.4,0,0,0-3.986,2.658c.75,3.261-4.665,4.563-6.644,4.318,1.96-3.024,5.264-4.7,7.64-7.308a.918.918,0,0,1-1-.665c.708-.621,2.116-.543,2.658-1.329-1.075-.143-2.874.437-2.99-.665,1.518-.262,4.633-.672,3.655-2.326-1.44,1-3.395,1.478-4.984,2.326-.467-.087-.378-.728-.665-1a27.948,27.948,0,0,0-4.984,2.99c2.049-.168,4.382-2.057,5.981-.665a53.107,53.107,0,0,0-9.3,6.645c1.047.03,2.506-1.234,3.322-.333-2.211,2.995-7.964,4.214-8.3,7.974a21.975,21.975,0,0,1,5.98-3.655c-.426,2.453-2.227,3.532-3.323,5.316.825.431,1.378-.975,1.662,0-.513,1.377-2.7,2.827-2.326,3.987.806-.661,2.15-2.091,2.99-1.662-1.107,2.215-2,4.64-2.99,6.978,1.349-.317,1.921-.542,1.661,1.328.629.075.734-.374,1.329-.332-1.164-2.72,3.993-4.827,1.994-8.306,1.447-3.316,3.93-5.594,6.312-7.973-.909,0-2.132,1.382-2.99.332,1.675-1.318,4.507-3.241,6.645-2.989-.5.61-1.387.828-1.661,1.66.5.057,1.226-.118,1.328.333a18.816,18.816,0,0,0-3.322,3.322c.522.031,1.152-.044,1,.665-.463.978-1.622,1.257-1.661,2.658,2.308-.244,3.353-3.507,4.983-3.323a21.859,21.859,0,0,1-1.661,2.658c.756,1.134,1.287-1.516,1.993-.333-.5,1.49-1.961,2.025-2.657,3.322,1.4-.265,2.819-2.263,3.987-1.661-.2,1.572-1.277,2.266-1.994,3.323,2.8-.519,3.821-2.823,6.313-3.655.122,1.148-1.779,2.181-.333,2.657,1.422-.35,1.376-2.169,3.323-1.993.269,1.3-2.46,2.648-1,2.99,1.048-.613,1.347-1.976,2.99-1.994.015,1.012-.7,1.291-1,1.994.592.2,1.379-.974,1.661,0-.321.694-1.885,1.854-1,2.657a2.346,2.346,0,0,1,1.993-1.329v1c1.446-.327,1.7-1.84,3.655-1.662a7.538,7.538,0,0,1-4.319,6.978c-.46-.2-.049-1.279-.664-1.329-1.473,1.584-2.594,1.471-4.651,2.326.347-.76.211-2,.664-2.657-4.681,1.521-5.87,8.3-11.628,7.64.951-2.483,3.274-3.593,4.319-5.979-2.039,1.062-3.442,2.759-5.98,3.322-.557-1.79,2.019-2.17,1-3.322-1.143,1.735-1.882,3.877-3.987,4.651-.231-1.782.982-2.119,1.329-3.323-1.94-.5-.955,1.926-2.326,1.994-.136.8.606.722.333,1.661-3.516,3.471-6.269,9.445-11.3,10.3.883-1.884,3.206-2.33,3.986-4.318-.869.093-1.429-.121-1.329-1,1.884-3.765,7.081-5.986,8.638-8.97-.707.332-1.238,1.714-1.994,1-.421-1.013,1.135-1.691.332-1.993-1.89,3.447-4.837,5.752-7.64,8.3-2.422,2.205-4.164,5.589-7.642,6.645,1.048-2.5,3.35-3.738,4.319-6.312-2.914.187-2.777,3.425-5.316,3.986-.167-5.482,5.117-5.514,6.977-8.97-3.36,1.623-5.976,3.991-8.97,5.98.622-5.468,5.537-6.645,7.974-10.3-2.989,1.44-4.878,3.98-7.309,5.98-1.665-.1-2.982-.209-3.654,1.993.974.091,1.234-1.331,1.661,0-5.448,4.519-12.075,7.859-16.611,13.29,1.8-.091,3.545-1.982,4.651-1.662-3.517,3.9-9.04,5.8-14.286,7.974-.525,1.128,1.249,1.258,0,2.657,1.768.7,3.386-.533,4.984.332-.422,1.351-2.8.741-3.323,1.994.824.506,2.577.082,3.323.665.074.629-.375.733-.333,1.329,7.953-2.9,9.386-12.321,18.272-14.286,2.1-1.477,4.3-4.52,6.313-4.983-3.261,5.931-11.686,6.7-14.951,12.624,4.829-1.816,8.672-6.387,12.957-7.641-6.769,6.187-14.821,11.093-22.259,16.611.957.039,2.175-.182,2.658.332.074.629-.375.733-.333,1.329,2.948,1.083,5.16-2.072,7.641-1.329a11.244,11.244,0,0,0-2.657,3.655c6.654-4.532,9.879-14.262,18.6-15.614-3.166,3.369-9.008,5.83-10.3,9.967,3.853-2.9,9.438-5.844,14.618-6.313-1.171,2.151-4.7,1.94-5.979,3.986,7.8-3.6,15.973-6.838,20.93-13.289,1.923-.96,4.788-2.736,4.983-4.318-1.582,1.838-3.9,1.652-6.312,2.325-6,1.676-10.308,7.771-15.947,6.978,7.734-3.673,13.889-8.925,22.592-11.628.219-4.645,2.858-9.171,7.308-10.631.275.939-.468.861-.332,1.661.619.317,1.11-.995,1.329,0,.179,1.177-1.177.817-1,1.994-.577,7.507-6.717,9.45-9.967,14.285,4.468-1.622,6.013-6.169,9.967-8.3.2.688-.411,2.182.333,2.326,2.574-2.52,4.781-5.408,8.306-6.978.014,1.012-.7,1.292-1,1.994,4.059-.721,6.171-5.1,9.967-4.984-2.008,1.978-4.558,3.415-6.645,5.316-.247,1.022.912.639.665,1.661-1.2.8-2.907,1.082-3.323,2.658.588.075,1.664-.335,1.329.665-.026,1.98-4.678,2.086-2.99,3.655a2.516,2.516,0,0,1-2.326.665c-.671.768-1.1,1.775-2.326,1.993-4.77-1.458-7.362,3.337-10.631,3.322.188-2.092,3.837-2.275,3.322-3.986-3.565,2.525-9.129,3.052-11.96,6.312,1.8-.534,4.349-2.066,5.979-1.661-.812,2.289-3.719,2.483-4.983,4.319,2.839-.486,4.793-3.62,7.309-3.323-1.216,1.442-2.961,2.354-3.987,3.987,1.134.01,2.387-1.578,3.323-.665-3.653,3.435-8.211,5.964-11.3,9.967-.544-2.544,2-3.748,1.661-4.984-3.676,2.526-5.7,6.708-9.634,8.97,1-3.764,3.827-5.7,5.98-8.306-4.652,2.215-6.88,6.853-10.964,9.635.179-1.931,2.225-3.746,1.994-4.984-2.128,1.861-4.629,5.114-6.645,5.98,3.778-7.96,12.533-10.943,18.272-16.943-5.359,1.926-11.013,6.808-16.943,5.98-5.71,3.482-9.825,8.559-16.943,10.631-.428,1.676-2.671,1.537-2.99,3.322,1.287,1.306,2.81-1.244,3.655-.333-.292,1.038-1.568,1.091-1.994,1.994.849.922,2.935.609,2.99,2.326,10.36-2.6,13.189-14.5,21.926-17.608a105.639,105.639,0,0,0-14.618,16.28c2.46-1.42,6.012-3.51,8.97-3.323-2.115,2.426-5.886,3.2-8.306,5.316,4.613-.924,8.18-2.894,12.625-3.987,2.556-2.1,4.909-4.393,7.641-6.312.648-.586,1.329-2.86,2.657-1.662-.6,2.5-3.543,4.428-3.987,5.98,1.345-1.091,2.938-1.935,4.318-2.99-.873-2.6,2.369-3.484,2.99-5.647-.391-.052-.943.057-1-.332,5.177-3.462,9.973-7.3,15.947-9.968-1.195,2.238-3.864,3-5.316,4.984.825.432,1.378-.975,1.662,0-3.136,3.723-8.047,5.411-11.3,8.97-2.526,2.768-4.773,5.569-7.973,7.64,3.82,1.348,5.656-3.84,7.973-3.987-1.19,2.686-3.587,4.165-5.647,5.98.832-.041,1.04-.634,1.329.332-.225.772-1.1.89-1.329,1.662,1.044.168,1.357-.783,1.661.332-.805,1.251.16,2.44-.332,3.655,1.128.886,1.258-1.447,2.658-1.329.037.849,1.112.659,1.993.665a3.94,3.94,0,0,0,2.989,3.655c1.361-.522,2.048-1.717,3.655-1.994.907.7-1.175,1.249.333,1.661a9.164,9.164,0,0,1,3.322-1.993c.167,1.606-1.036,1.843-1,3.322,3.528-.237,4.944-2.586,7.974-3.322a7.481,7.481,0,0,1-.665,1.993H150c-.176,2,.489,1.422,1.994,1.329v1.661c1.658-.223,2.754-1.011,4.318-1.328.057.5-.118,1.226.333,1.328,3.22-1.763,4.69-5.277,6.312-8.638.359,2.91-1.55,5.311-1,7.309.195-.3.7-1.9,1-1-.1,1.766.183,3.14,1.662,3.323,1.014-.314,1.04-1.617,2.325-1.662.773.446.514,1.924,1,2.658a2.33,2.33,0,0,1,1.994,0c.207-.789.447-1.547,1.328-1.661.241,1.015-.339,1.211-.331,1.993,2.148.377,1.85-1.693,3.322-1.993a1.239,1.239,0,0,0,1.661,0c.728.691-.291,1.074.332,1.661,2.146-1.154,3.938,1.335,6.645-.333.143.522,1.045.284.665,1.329,1.6-.174,2.11-1.432,2.99-2.326.928,1.626,1.939-.42,2.99-.665,1.491.613,2.491,1.717,4.651,1.661.529-1.761-2.922-1.267-1.329-2.989,2.351,1.639,7.788,3.232,9.967.332,1.749.244,2.145,1.84,3.987,1.994.143-2.474-2.855-3.561-2.657-4.984,1.99.667,3.676,1.639,6.312,1.661-1.088-1.681-2.9-2.632-3.655-4.651,1.63-.3,1.265,1.393,2.658,1.329-.212-1.229-.9-1.978-.665-3.655.917-.4,1.166-.943,2.326-.332-.686-1.483.342-2.721-.332-4.319.628-.659,1.569-.161,2.325,0,.2-1.639-.863-2.016-.664-3.655.721-.275.739-1.254,1.661-1.328a6.576,6.576,0,0,0,1,2.326c.318-1.011-.712-3.369.665-3.323.843.929,1.048,2.5,1.994,3.323.838-1.293-1.919-3.3-.665-4.984.639.135.262,1.288,1.328,1-.953-2.417-1.054-9.639,1.329-6.313.476-2.137-1.514-3.205-1-4.318.591-.2,1.379.974,1.661,0-1.013-1.2-2.687-1.743-2.99-3.655,2.066-.065,2.636,2.356,4.319,1.661v-3.322h1.993c-.539-2.34-3.145-2.613-2.658-5.98a2.164,2.164,0,0,0,1.662-.332c.187-1.517-.589-2.07-.332-3.655.8-.136.721.607,1.661.332-.135-.665-.823-2.464,0-2.989,1.571-.459,2.183,1.04,2.99.332-.113-1.12-.841-3.349,0-4.319,1.5-.065.93,1.95,2.325,1.994.831-2.583-1.982-4.38-.332-5.648,1.186.156,2.058,2.354,3.322,1.329-.682-1.864-2.526-2.568-2.99-4.651h1.329c-.447-1.434-2.054-1.711-3.654-1.993-.312,2.235-1.644,3.45-1.994,5.647-5.46,3.842-6.021,12.584-14.618,13.289-.939,2.274-4.783,1.873-6.645,2.326-.541,2.006-2.458,2.636-1.993,5.648.135.64,1.287.263,1,1.33-1.213.891-1.9,2.309-3.322,2.989-1.474.034-1.154-1.726-2.326-1.994a4.9,4.9,0,0,1-2.657,4.652c-.775-.111-1.431-.341-1.661-1a1.881,1.881,0,0,0,.665-2.657c-2.353.083-.476,4.4-2.326,4.983-2.613-.527-3.227.486-5.647-.664a2.72,2.72,0,0,1-.665,1.993,1.464,1.464,0,0,1-.665-1.329c-1.171.177-1.485.975-2.657.333-.437,1.03.985,1.842,0,2.326-2.333-.435-1.205-4.331-1.994-6.313-.876,1.975-.288,3.43-1.328,5.317-.888-.918-.722.392-1.661.332-1.155-.969-.764-4.264,0-5.316-2.126,1.291-1.735,4.992-1.994,7.309a6.505,6.505,0,0,1-1.661-4.651c-1.839-.069-1.1,2.444-1.993,3.322-1.472-1.408.21-5.969-1.994-6.645.117-3.761,5.791-3.729,4.983-7.308-1.113.326-1.441,1.437-2.658,1.661-.171-.491-.491-.838-.664-1.329.337-1.1,1.839-1.04,1.661-2.657-.824.048-1.613.062-1.661-.665.2-1.022.084-2.352,1.329-2.326,1.17,2.041,5.752.67,6.977,2.657.87-.458,1.143-1.514,2.326-1.661.863.245,1.124,1.091,1.993,1.329.5-1.211,2,.074,3.655-.333,1.921-1.394,5.953-2.335,7.641-.332a2.494,2.494,0,0,1,1.661-1.994c1.783.884,4.094-.239,5.648-.332.46.2.05,1.279.665,1.329,3.116-3.467,11.143-2.039,11.96-6.312-.591-.385-3.561.712-3.655-1-1.235-.126-.869,1.346-2.326,1a1.566,1.566,0,0,1,.333-1,35.7,35.7,0,0,0-9.968,1.994,1.9,1.9,0,0,1-1,1.993c-.056-.387-.526-.361-1-.332-.376-2.923,1.4-3.695,4.319-3.322.056-.5-.119-1.227.333-1.329a85.7,85.7,0,0,0,12.624-2.658c-1.683-2.076-5.081-.934-6.645-.665a38.468,38.468,0,0,0-9.3,2.658c-3.4,1.688-6.284,6.339-11.96,3.987-1.849,1.638-6.623,1.563-9.3,1.329-.077,1.03-1.178,1.037-1.994,1.329-2.394-.259-2.29-3.27-4.318-2.99.161-1.219-1.232-3.271.664-3.322.316.827-1.186,2,.333,1.993.571-.868.552-2.328,1.994-2.326,2.3,2.543,5.976-1.333,8.638-1.661,3.517,6.711,12.788,2.223,15.947-1.661,4,2.565,5.649-4.385,8.969-2.658-.086-.972.752-1.021.665-1.993-1.368-.387-2.149-.847-3.655-.333.263-2.035-1.5-2.046-1-4.318a1.883,1.883,0,0,0,2.325-1.662c-.782-.007-.978.572-1.994.333-.09-.841-1.426-1.884,0-2.326.875.163,1.119,1.831,1.994,1-.213-1.669-2.111-1.654-2.325-3.322,1.7-1.773,4.982.562,6.312-2.326-.728-1.566-2.144.689-3.028.7s-1.713-.438-2.953.3c-1.151-1.507-2.453-6.168-1.66-6.312,2.846-.52,5.508-5.273,8.638-4.319S225,257.148,220.1,264.444h-1.328c.361,1.512,2.9,1.181,3.322,1.329s0,1.108,0,1.661h-1.661c.175,1.127-.794,2.109-.333,2.99.29-.486.5-1.053,1.329-1,1.276,2.295-.862,3.322-1.994,2.657V276.4a20.318,20.318,0,0,1,2.991.665c5.158-5.739-1.438-13.424.332-20.931a119.133,119.133,0,0,1-14.619-9.634v-1.329a9.214,9.214,0,0,1-6.311-4.651c1.235-1.755,3.51-2.468,4.65-4.318-3.3-1.274-3.477,3.059-6.311,3.322-1.989-2.473.628-5.685,2.99-5.98-.118,1.654-1.639,1.9-1.994,3.322,3.465-4.009,11.6-1.4,14.618,1.662-.116,1.624-1.761,4.392,1,4.318.1-1.783,1.1-2.661,1.661-3.987-1.222-1.879-1.378-4.823-2.325-6.977-1.017-.241-.978.573-1.994.332v-2.657c-.591-.2-1.38.974-1.661,0,.788-1.484-.256-2.736,0-4.651-1.23.231-1.468-.526-1.329-1.661-.776.1-1.431.708-1.661-.333a1.248,1.248,0,0,1,1.329-1.329c-.039,1.147.669,1.545,1.993,1.329-.456,1.342.6,1.177,1,1.661.229,1.336-.318,1.9-.332,2.99,1.523-.691,1.291-3.137,2.326-4.318-2.421-.569-2.777-3.2-4.651-4.319.585-1.076,1.669-1.653,1.329-3.655-1.544-.092-1.569,3.068-3.323,1.661.368-1.4,1.435-2.108,1.662-3.654-2.418-.535-1.494,2.271-3.656,1.993v-1.993c-1.425-.7-2.779.584-3.655-.665v-2.326c-1.67-1.319-5.953-.026-6.312-2.657a6.193,6.193,0,0,1,1.994-3.323c6.851-4.112,17.3-14.457,18.937-13.953s1.263,5.36,0,7.641c.831-.041,1.04-.634,1.328.332a30.754,30.754,0,0,0-1.328,10.3c-1.1.791-2.795,2.733-2.326,3.987.355-.31.1-1.226,1-1,1.766,4.27-1.288,8.094.665,11.3-4.3,7.618,6.211,15.358.333,21.6-2.82.355-4.056.285-6.313,1-.563,4,2.985,3.882,4.983,5.316,1.516-1.585,1.127-5.075,2.659-6.645.573.534,2.054.161,2.325,1-.54,2.561-3.292,2.909-2.325,6.978,1.311.791,1.978,2.229,3.986,2.326-.957-3.465,3.14-7.352.333-9.967a12.086,12.086,0,0,0,1.328-3.655c-1.07-.942-2.675,1.758-3.655,0-.063-1.393,1.631-1.028,1.33-2.658-1.526-2.526-3.341-4.415-2.326-7.973-.334-.663-1.469-.525-1.328-1.661.513-4.439,1.51-7.04,1.661-11.3,2-.352,1.162-3.282.664-4.651,4.752-7.13,2.988-26.348.665-27.243s-7.423,2.366-7.641,2.658-7.6,5.691-10.963,8.97c-.492-.173-.838-.492-1.329-.665-.793,1.865-3.446,1.869-3.987,3.986-3.153-.052-4.081,2.121-4.651,4.651-5.664.164-10.241-.15-16.611.332.094.869-.121,1.43-1,1.329-.811-.519-1.971-.687-2.658-1.329-.5.5-.1,1.894-1.329,1.662-1.438-1.249-4.037-.4-5.647-1.994-3.367,2.434-8.9-.311-11.628,2.99-2.638.019-3.177-.743-5.316-.665-3.9-5.845-10.107-9.384-14.286-14.95a9.532,9.532,0,0,1-6.312-3.323c-1.478,1.123-1.605-.118-3.654,0-1.178,2.984-4.711,5.169-3.987,8.97h-1.661c-.548,9.09-3.358,14.864-2.326,25.249-1.043.376-.878-.1-1.662.332-.126,1.566,1.927.953,1.994,2.325-.449,1.433-.224,3.541-1.661,3.987.877.12,1.2.8,1,1.994a1.628,1.628,0,0,1-1.994,0c-.013,2.675.925,5.254-1,6.645,1.312,3.666.141,10.172-5.648,6.644-.781.451,1.748,1.5.665,2.326-1.8-.078-2.15-1.614-3.987-1.661-.222,2.216,1.1,2.888,1,4.984h-1.993c.005.991.863,1.129,1,1.993a7.486,7.486,0,0,1-1.994.665c-.18,1.177,1.177.817,1,1.994-1.953-.119-.264.826-.333,1.661a5.424,5.424,0,0,0-4.318,3.322c.831-.056,1.039.51,1.328,1-.832.607-2.187.691-2.657,1.661a2.781,2.781,0,0,1,1.329,2.326c-.876,1.672-3.57,1.526-3.987,3.655a9.623,9.623,0,0,1,3.655.333c1.745,3.969.693,9.073-5.979,7.973.293,2.775,4.408.943,5.979,2.99,3.575-.635,5.7-4.482,8.306-4.983a40.326,40.326,0,0,1-4.651,4.983c.391.052.943-.057,1,.332-2.03,3.4-6.234,4.62-9.635,6.645.706,1.106,1.365,1.947.665,3.655,7.1-5.085,13.58-10.783,20.929-15.614-.051-.827.522-1.029.665-1.662-2.469-.254-2.748,1.682-4.984,1.662A46.051,46.051,0,0,0,117.779,268.763Zm83.721-60.8c2.138.146,4.955,2.231,5.979-.332-2.043.091-.884-.965-.333-1.662-1.057.066-3.1.866-3.986,0,1.248-1.3,4.392-.7,4.318-3.322C204.405,203.641,201.455,203.451,201.5,207.967Zm6.312-2.658c.9-.011,2.231-1.282,1.328-1.993C208.934,204.216,207.752,204.143,207.812,205.308Zm-61.794,12.957c-4.7-.614-8.176-2.456-11.96-3.987C136.353,217.15,141.494,219.715,146.018,218.265Zm-6.312,1.329c-1.932-1.074-3.416-.555-5.647-1.329C134.843,219.592,138.183,220.114,139.706,219.594Zm-2.658,4.651c-1.684-1.419-6.065-1.9-8.306-1.661C130.512,224.139,134.218,223.752,137.048,224.245Zm8.306,11.96c3.694-.09,2.71-1.645,0,0Zm-2.658,4.651c1.456.126,1.709-.95,2.99-1v1a5.517,5.517,0,0,0,2.658-2.658A13.786,13.786,0,0,0,142.7,240.857Zm-3.322,0c.963-.7,2.649-.674,2.991-1.994C141.356,239.306,138.748,239.884,139.374,240.857Zm68.439-.333h1.328q.231-1.559-1.328-1.328ZM132.4,243.847c2.306-.02,3.094-1.557,4.651-2.326C134.99,241.788,133.9,243.027,132.4,243.847Zm76.412,1a1.589,1.589,0,0,0,1.994-1C210.063,244.1,209,244.038,208.809,244.843Zm-91.361,15.614c1.324-1.338,4.084-3,3.987-4.651C120.171,257.206,117.457,258.911,117.447,260.458Zm87.707-.665c4.433-.4,7.179-1.1,12.625-.332C216.183,254.942,207.4,257.865,205.154,259.793Zm5.316,16.943c-.415-1.689-.865-3.343-1.994-4.318C207.174,273.949,209.2,275.806,210.47,276.736Zm-18.937,17.608a10.31,10.31,0,0,0-2.657,2.326c-.1-.448-.473-.635-.332-1.328-1.085-.088-.7,1.289-1.662,1.328a2.34,2.34,0,0,0-.665-1c-.678.651-.7,1.961-1.994,1.993a1.865,1.865,0,0,0-.331-1.328c-2.508.815-3.122,3.523-4.651,5.316,1.456-.378,1.091,0,2.325.332.053-1.337,2.185-3.172,2.99-1.661,0,1.036-1.165,3.943.333,4.318-.121-2.224.08-4.126,1-5.315.835.976,3.355.763,4.319-.332.755.24-.307,2.3,1,1.993-.162-1.38.609-1.827,1-2.658,2.434-.33,1.59,2.618,3.321,2.991-.1-1.492-.734-2.474.333-2.991.583.856.479,2.4,1.328,2.991.058-1.826-.1-3.867,1-4.652.1,1-.369,2.584.664,2.658.167-2.049.856-3.575,2.326-4.319C198.014,292.311,194.867,295.915,191.533,294.344Zm-17.275,5.98c1.88,1.524-1.376,3.557.332,4.651.288-3.65,6.282-3.794,3.987-7.973C175.765,296.738,175.5,299.016,174.257,300.324Z" transform="translate(-81.567 -182.132)" fill="#001a31" fill-rule="evenodd"/>
        <path id="路径_770" data-name="路径 770" d="M174.4,299.841a22.688,22.688,0,0,1,1.661,6.313c-1.625,2.36-4.381,3.592-5.316,6.644.438,1.266,2.659-1.178,2.658.665,1.432-.23,1.975-1.347,3.987-1a35.582,35.582,0,0,1-2.99,6.645c-1.032-.3-2.316-.342-2.325-1.661-.683.092-.664.887-1,1.328-.852-.033-.535-1.238-1-1.661-1.239.2-1.352,1.526-2.658,1.661v-1.994c-.459-.543-1.535,1.106-1.993,1.662-.451-.1-.276-.832-.333-1.329-2.474,2.177-4.863,4.439-6.312,7.641,1.8-.059,2.819-2.37,4.318-1.661-2.532,3.447-4.282,7.678-6.976,10.963a29.549,29.549,0,0,1,1.328-5.316c-1.507.154-1.97,1.352-3.655,1.329-.038-2.253,1.692-2.738,2.326-4.319-2.9-3.063,2.334-5.282,3.986-6.977.709-.155.632.474.665,1a3.93,3.93,0,0,0,2.325-4.319c-1.654-.436-1.413,1.022-2.657,1,.1-1.447.873-2.229,1-3.655,2.536-.011,2.436-2.658,5.316-2.326.622.633.037.835,0,1.661,3.312-1.248,7.513-3.313,7.641-6.644-1.067-.292-.455,1.1-1.329,1C168.461,305.611,172.425,300.926,174.4,299.841Z" transform="translate(-89.018 -194.274)" fill="#001a31" fill-rule="evenodd"/>
        <path id="路径_771" data-name="路径 771" d="M186.4,251.171a1.23,1.23,0,1,1-1.23-1.23A1.23,1.23,0,0,1,186.4,251.171Z" transform="translate(-92.126 -189.127)" fill="#fff" fill-rule="evenodd"/>
        <path id="路径_772" data-name="路径 772" d="M224.019,246.8a1.23,1.23,0,1,1-1.23-1.23A1.23,1.23,0,0,1,224.019,246.8Z" transform="translate(-96.007 -188.675)" fill="#fff" fill-rule="evenodd"/>
      </g>
    </g>
  </svg>
  