<svg id="组_156" data-name="组 156" xmlns="http://www.w3.org/2000/svg" xmlns:xlink="http://www.w3.org/1999/xlink" width="182.41" height="195.429" viewBox="0 0 182.41 195.429">
    <defs>
      <clipPath id="clip-path">
        <rect id="矩形_18" data-name="矩形 18" width="182.41" height="195.429" fill="none"/>
      </clipPath>
    </defs>
    <g id="组_154" data-name="组 154" clip-path="url(#clip-path)">
      <path id="路径_477" data-name="路径 477" d="M157,81.127a76.1,76.1,0,1,1-76.1-76.1,76.1,76.1,0,0,1,76.1,76.1" transform="translate(2.642 2.768)" fill="#00204a" fill-rule="evenodd"/>
      <path id="路径_478" data-name="路径 478" d="M43.922,4.161a41.985,41.985,0,0,0,8.244,5.821c.236-.071.211-.312.242-.509a7.579,7.579,0,0,0-1.774-5.018c-.016-.143-.084-.33,0-.437L50.784,4c1.241,1.387,2.347,2.835,3.449,4.282.363.257.4,1.126.9.836l-.261-1.767c.485,0,.442.586.757.848.391,1.078.425,2.48,1.588,3,.183-.6-.251-1.137-.267-1.816-.016-.143-.082-.378.109-.4.386-.033.422.4.585.574,3.484,3.071,5.432,7.878,10.3,9.12a26.6,26.6,0,0,0,4.8-.5c4.416-.409,9.25-1.536,13.545-.676,5.309.327,8.9-3.249,12.856-6.038,2.972-2.409,6.308-4.075,9.454-6.158,3.372-1.77,6.435-4.284,10.262-5.317a3.114,3.114,0,0,1,1.591.481A21.2,21.2,0,0,1,124.4,7.04a33.885,33.885,0,0,1,2.744,9.19,18.565,18.565,0,0,1,.779,8.889c.378.935-.375,1.684-.1,2.53l-.141.109c1.517.634,2.877-.363,4.133-.915l.11.136c-.833.949-1.249,2.2-2.475,2.6-.213.309-.762.648-.394.955.23.366.689.082.819.454-.4.327-.957.673-.957,1.157a7.593,7.593,0,0,0,4.616-.382l.338.017.009.1c-1.709,1.421-3.811,2.243-5.582,3.522-.164.306-.633.495-.458.814l.29.51c1.613,1.689,3.957,2.438,5.247,4.355,1.121,1.59,1.543,3.538,2.66,5.129-.029.2.13.375-.054.49-.53,0-.731-.613-1.106-.965-1.283-1.286-2.758-3.087-4.591-3.544-.341.516.276.895.279,1.429.794,1.283,2.283,2.159,2.944,3.55.219.27.679.52.375.887a.364.364,0,0,1-.439-.008,5.913,5.913,0,0,0-1.857-1.232c-.149.5.155,1.145.157,1.677a20.589,20.589,0,0,0,1.384,3.412c.309.743.67,1.484.931,2.238-.636-.088-.994-.83-1.667-.766-.2-.124-.439-.493-.726-.513l.039.431a24.381,24.381,0,0,0,2.826,4.869c.655.279.921,1.078,1.618,1.21l.033.383c-.358.276-.754-.318-1.066,0,.858,1.418,1.5,3.1,2.817,4.244l0,.484c-1.069-.53-1.7-1.588-2.686-2.319-1.278-.706-2.449-1.853-3.758-2.364-.292.512.493.585.34,1.035a2.5,2.5,0,0,1,.731,1.092C135.24,65.224,137.331,69,140.6,71.8a41.439,41.439,0,0,0,3.665,3.485c.121.278-.214.307-.3.414-.549-.144-1.115-.039-1.719-.228.1.572-.47.138-.7.259a20.619,20.619,0,0,0-2.665-1.591l-.085.154a12.207,12.207,0,0,1,2.122,2.466,22.777,22.777,0,0,1,3.139,4.07c-.087.1-.071.295-.211.306-.628.059-1.373-1.177-1.708-.084.016,1.211,1.055,1.988,1.2,3.038.164.226.676.516.216.755-1.249-.467-2.272-1.534-3.558-1.8-.718,1.132.4,2.193.785,3.221.084.425.648.715.5,1.211-.188.552-.912,1.106-.323,1.726.147.518.94.735.709,1.387-1.3-.025-2.477-1.124-3.73-1.588a16.724,16.724,0,0,1-3.059-2.139c-.189.014-.3-.166-.54-.1l-.121.254c.113,2.266,1.7,3.716,2.412,5.633a15.571,15.571,0,0,0,1.492,1.995c-.088.592.472.878.7,1.29,1.762,2.263,3.287,4.638,5,6.9.084.382.537.583.624.962a37.465,37.465,0,0,1,2.786,2.84c-.495.481-.85-.259-1.317-.071-2.043-.634-3.909-1.911-5.962-2.64-.149.495.375.931.659,1.342.544.627.772,1.528,1.311,2.157-.011.918,1.017,2.08.059,2.7-.2-.026-.4-.158-.645-.181a7.983,7.983,0,0,0,.36,2.824c-.441-.056-.746-.706-1.165-1.052-.343-.068-.811-.413-.965.039a19.765,19.765,0,0,0,1.283,2.882c.445,1.078,1.34,1.911,1.686,2.992.655.281.492,1.121.926,1.612a35.277,35.277,0,0,1,2.513,12.942c.119,1.3-.051,2.62.152,3.763a1.153,1.153,0,0,1-.275.709l-.42-.4c-.22-4.436-2.407-8.158-4.208-11.913a9.9,9.9,0,0,0-1.914-2.877c-.366.768.5,1.218.323,1.912a20.256,20.256,0,0,1,.271,4.526c-.152,2,.11,4.3.163,6.382-.51-.245-.34-1.035-.763-1.385a7.4,7.4,0,0,0-.413,1.782c-.565.686-.23,1.719-.949,2.317-.206-.658-.136-1.487-.343-2.15a3.919,3.919,0,0,0-.389-1.031c-.859.132-.475,1.649-1.594,1.605-.228-.366-.149-1.1-.692-1.194-.326,1.191.2,2.645-.532,3.681a4.911,4.911,0,0,1-1.359,2.015,16.857,16.857,0,0,1-1.038,3.442l-.1.006a37.9,37.9,0,0,0-.814-4.137,9.028,9.028,0,0,0-.375-1.953c-.669-.9-.549-2.226-1.4-3.017-.27.219-.8.219-.762.651a26.942,26.942,0,0,1-1.818,8.062,8.991,8.991,0,0,1-3.133,4.365c-.29-.026-.411.276-.755.213-.23-.417.1-1.123-.419-1.415-.524.633-.881,1.487-1.621,1.847-.4-.641.123-1.27-.228-1.919-.543-.09-.765.658-1.185.793l-2.733,1.9c-1.106.057-.4,1.444-.966,2.08-.411-.254-.614-.861-1.066-1.061-.5,1.933-.143,3.691-.743,5.588a12.739,12.739,0,0,1-1.335-2.928,75.725,75.725,0,0,0-5.171-8.721c-.633-.524-1.047-1.356-1.889-1.57a8.531,8.531,0,0,1-2.142,3.009,3.16,3.16,0,0,1-2.452,1.779c-.712-.855-1.418-1.709-2.03-2.572-.65.3-.676,1.081-.907,1.681-.425,1.737.428,3.062.489,4.752-.5-.2-.71-.856-1.275-1.193a16.24,16.24,0,0,1-3.988-4.861c-.105-.085-.171-.275-.36-.206-1.371,3.468-2.195,7.085-.918,10.935.212,1.287,1.179,2.266,1.664,3.285l-.2.016a35.179,35.179,0,0,1-4.87-3.9c-.143.009-.177.161-.264.264.147.566.572.963.723,1.534-.619.1-.872-.5-1.411-.6a56.125,56.125,0,0,1-5.833-4.929c-.189.07-.276.172-.262.315a8.206,8.206,0,0,0,2.123,5.134l.017.189c-1.1.2-2.215-.374-3.287-.467l.017.189a13.527,13.527,0,0,0,2.8,1.97.237.237,0,0,1-.115.3c-1.971-.351-3.76-1.346-5.653-1.9A30.97,30.97,0,0,1,72.8,154.3a33.225,33.225,0,0,1-7.938-7.737c-.2-.081-.231.116-.267.265a12.3,12.3,0,0,1-1.833,6.324c-.18.16-.383.036-.54-.095a10.841,10.841,0,0,0,.087-4.273c-.478.093-.614.689-.777,1.042a11.293,11.293,0,0,1-2.828,5.01c-1.635,1.171-3.145,2.618-5.129,3.19-1.424.276-2.55,1.207-3.921,1.576-2.457.664-5.264,1.214-7.737.668-.1-.524.6-.828,1.007-1.157a28.235,28.235,0,0,0,4.619-5.03c-.949-.3-1.819.216-2.84.164l-.6-.137c.226-.7,1.064-1.069,1.087-1.844-.439-.059-.682.45-1.058.579-1.97.188-3.051,2.126-5.044,2.019-.484,0-.963.575-1.4.079a7.458,7.458,0,0,0,1.5-1.59l-.006-.095c-.349-.065-.731.5-1.107.1,1.245-1.712,1-3.87,1.442-5.846,0-1.067.546-2.475-.3-3.266-.672.06-1,.673-1.557.918-1.121.444-2.161,1.267-3.363,1.379a27.8,27.8,0,0,0,2.713-4.658.39.39,0,0,0-.3-.116,47.954,47.954,0,0,0-3.643,4.017c-.509.288-1.232.306-1.621.83-.529.047-.389-.548-.614-.867a28.6,28.6,0,0,1-.811-6.655,40.4,40.4,0,0,1-.24-6.761c-.171-.276-.3-.067-.49-.048a22.3,22.3,0,0,1-3.564,4.351l-.2.019c-.161-.71.472-1.207.7-1.809a10.192,10.192,0,0,0,.115-2.435c-.158-.126-.329-.4-.561-.288a22.965,22.965,0,0,1-5.308,6.458c-.329.123-.548-.144-.831-.07a10.411,10.411,0,0,1,.543-.921c2.226-3.7,3.963-7.927,2.865-12.428.166-.838-.731-1.1-.608-1.878-.912-1.466-.912-3.018-1.731-4.54-.515-1.888-1.444-3.546-2.05-5.384-.312.273-.264.8-.534,1.024a11.323,11.323,0,0,1-.53-2.569c-.318-1.857-.388-3.645-.613-5.562.186-2.145.031-4.315.268-6.465-.166-.763.6-1.9-.492-2.184l-.569.152a81.956,81.956,0,0,0-5.432,6.172c-.862,1.68-2.272,3.164-2.834,4.962a29.17,29.17,0,0,0-3.377,5.885,2.651,2.651,0,0,1-.4,1.343c-.372-1.366.378-2.7.444-4.059.49-2.035,1.027-4.07,1.517-6.1a28.311,28.311,0,0,1,2.756-7.862A49.864,49.864,0,0,0,12,92.235c-.624-.425-1.1.2-1.559.434l-.875,1c-.639-.622.136-1.66.157-2.485a41.968,41.968,0,0,1,2.035-6.773.454.454,0,0,0-.226-.371c-.541-.047-.852,1.289-1.121.492.143-1.612.684-3.068.774-4.721l-.154-.084C9.9,80.61,8.4,81.621,8.112,83.2c-.236.07-.312-.212-.371-.352-.054-3.2,1.081-6.058,2.316-8.934A44.176,44.176,0,0,1,14.2,67.909c.056-.44.54-.439.543-.92.783-.946,1.278-1.864,2.117-2.767-.124-.278.228-.169.357-.324.27-.751,1.179-.883,1.447-1.635.354-.372.782-.945.639-1.464-.411-.257-.76.166-1.089.245-3.3,1.52-5.568,5.266-8.241,7.792L8.7,70.792l-.288.025c.625-2.139.895-4.437,1.912-6.522a3.813,3.813,0,0,1,.737-1.956,32.964,32.964,0,0,1,4.656-6.2,21.519,21.519,0,0,0,3.487-3.133c.445.1.535-.487.817-.561,1.722-.791,3.079-2.32,4.909-2.972.2-.413.921-.475.636-.985-1.729-1.388-4.006-1.9-5.337-3.766.594-.346,1.182.279,1.77.318.479-.042,1.039.244,1.405.019-.689-.614-1.438-.883-2.167-1.444-.257-.174-.706-.276-.74-.662a17.1,17.1,0,0,1,2.043.1c.1-.492-.639-.617-.949-.833a5.8,5.8,0,0,1-1.624-.814l-.023-.239a8.881,8.881,0,0,1,1.951.155c2.578.1,5.121-.136,7.839-.1.476-.092,1.117.042,1.475-.281-.976-1.123-2.624-1.646-3.783-2.654a14.311,14.311,0,0,1-3.781-2.117c-.6-.72-2.043-1.118-1.886-2.054,1.1-.1,2.114.337,3.172.237l-.034-.335a12.216,12.216,0,0,1-2.663-2.61c-.132-.377.464-.237.33-.613a18.359,18.359,0,0,1-4.478-4.911c.324-.709.858.357,1.342.358,1.942,1.081,3.691,2.708,5.807,3.045a1.033,1.033,0,0,0,1.169.088c.526-.583-.275-1.38.253-1.965-.143-2.068.507-3.921.665-5.874.273-.7.082-1.7.543-2.471l-.036-.386c1.3-4.769,2.372-9.956,4.757-14.487C33.752,2.635,34.971.633,37.1.63c2.786-.261,4.7,2.126,6.821,3.532" transform="translate(2.23 0)" fill="#00204a"/>
      <path id="路径_479" data-name="路径 479" d="M40.769,3.2c3.584,2.617,7.64,6.117,11.777,8.4.427,2,.493,4.27,1.529,6.01l.141-.014a25.4,25.4,0,0,0-.62-2.511c-.534-2.613-.762-4.529-1.287-7.1.628.524.859,1.473,1.4,2.1,1.028,2.713,1.038,5.425,1.2,8.217-.022.248-.13.645.082.865l.216-.309c.2-2.973-.358-5.926-.386-8.832,1.532,1.894,1.587,4.554,2.375,6.8a21.928,21.928,0,0,0,.425,2.48c.374-1.734-.236-3.609-.121-5.464a3.686,3.686,0,0,1,.909,1.421,13.9,13.9,0,0,0,1.65,2.654,22.17,22.17,0,0,0-1.249-2.5c-.278-1.432-1.4-2.537-1.308-4.146l.1-.006a44.486,44.486,0,0,1,3.442,4.718c2.185,1.1,4.079,3.254,6.575,3.5,1.855.168,3.3-.937,5.134-1.01a43.322,43.322,0,0,1,10.891-.627c2.144.143,4.276.668,6.455.178a16.372,16.372,0,0,0,2.043-1.016c.672-.064,1.05-.678,1.6-1.019,1.753-1.475,3.664-2.812,5.419-4.233a14.473,14.473,0,0,1,2.5-1.737c1.439-1.2,3.119-1.84,4.562-3.037a64.95,64.95,0,0,1,10.4-5.906c.211-.312.655-.208.923-.428.478-.093,1.1-.248,1.473.154a23.894,23.894,0,0,1,3.626,6.735A64.19,64.19,0,0,1,124.87,14.8a32.6,32.6,0,0,1,.968,5.723c-.113.836,0,1.6-.068,2.382a42.053,42.053,0,0,0-.333,5.26c-.057.442-.436,1.058.082,1.4a11.344,11.344,0,0,0,2.468-1.052c.324-.175.574-.586,1.021-.484.217.757-.824,1.047-1.213,1.518a27.93,27.93,0,0,0-3.4,1.478c.257.169.572-.1.9-.18.71-.166,1.517-.386,2.229-.5.064.141.168.228.132.375-.045.538-.713.164-.858.661a20.781,20.781,0,0,1-2.432.955,11.561,11.561,0,0,0,3.239.423,18.713,18.713,0,0,1,2.323-.022c-.036.682-.972.481-1.422.858-1.219.453-2.2,1.37-3.473,1.729a6.072,6.072,0,0,0,2.34,2.787.137.137,0,0,0,.023.239,27.778,27.778,0,0,0,3.249,2.117c.06.14.028.337-.112.351-1-.343-2.05-.682-3.007-1.075-.143.011-.341-.065-.425.135.085.378.768.948.208,1.194-.1.006-.133.109-.177.161a10.659,10.659,0,0,0,1.2,2.5c-.768-.411-1.083-1.207-1.81-1.723-1.773-1.866-3.051-4.172-5.063-5.97-1.532-1.891-3.812-3.518-4.7-5.762.236-1.09,1.486-1.207,2.142-1.945.481-.575,1.1-1.166,1.577-1.788-.213-.228-.431.034-.565.147-.774.554-1.382,2.354-2.665,1.554.164-.839,1.112-1.024,1.594-1.551a3.889,3.889,0,0,0,1.281-1.382c-.465-.3-.968,1.061-1.354.029.039-.1-.017-.191-.123-.278-.56.244-1.1.729-1.728.695.017-.343.326-.665.537-.974-.6.251-.948,1.252-1.537,1.647-.091.1-.186.113-.3-.019a5.588,5.588,0,0,1,2.291-2.443l-.245.458a.137.137,0,0,0,.24-.022l1.678-1.756c-.251-.025-.721.067-.524-.389.462-.237,0-.482.171-.786a5.906,5.906,0,0,0,.816-1.1l-.583-.045a4.4,4.4,0,0,1,.264-2.393l-.11-.092a35.545,35.545,0,0,0-1.742,3.119l-.191.016c-.285-.454.18-1.177-.374-1.416-.382,1.148-1.573,1.841-2.474,2.555-.507-.244-.955.723-1.2.158a14.931,14.931,0,0,0,1.34-1.723c-.15-.081-.34-.019-.487-.047.006-.489.6-.834.955-1.159a24.889,24.889,0,0,0,2.708-1.608c-.676-.516-1.269.409-1.881.566a77.662,77.662,0,0,1-10.645,4.279c-.216-.22-.751-.268-.6-.667,2.179-1.03,4.472-1.92,6.581-3.178a111.6,111.6,0,0,0,10-6.016c.036-.105-.06-.1-.115-.188-1.607.972-3.262,1.9-4.872,2.826a9.035,9.035,0,0,1-2.541,1.352c0-.484.729-1.039,1.022-1.5a12.027,12.027,0,0,0,2.021-4.357.189.189,0,0,0-.3-.019,18.047,18.047,0,0,1-7.184,7.111l-1.228.357c-.225-.366.293-.512.318-.807-.074-.234-.49-.047-.428-.394,2.081-2.133,3.972-4.729,4.475-7.636.244-1.039,1.179-1.9,1.568-2.9l-.1-.088c-2.834,3.363-6.2,5.709-9.329,8.52-.078-.816.631-1.557,1.19-2.294a32.052,32.052,0,0,1,7.709-7.256l-.006-.045a6.735,6.735,0,0,0-2.741,1.272c-2.576,1.981-5.362,3.792-7.177,6.671A14.939,14.939,0,0,1,98.318,19.4c-.4.377-1.312.409-1.106,1.117.456.2.929.11,1.385.309,1.03.146,1.818.8,2.846.9a10.415,10.415,0,0,0,2.241,1.2c3.726,2.026,6.9,4.929,10.145,7.53,1.19,1.345,2.911,1.621,4.057,3.012a6.057,6.057,0,0,1-1.627-.814c-.388-.062-.754-.8-1.1-.335a41.1,41.1,0,0,1,7.67,6.454c2.655,3,4.289,6.53,6.8,9.59.23.9,1.011,1.5,1.2,2.455.02.242.237.461.067.672-1.308-1.573-2.291-3.226-3.543-4.757a4.944,4.944,0,0,0-1.031-1.211l-.133.157a25.007,25.007,0,0,1,2.5,6.552,31.866,31.866,0,0,0,3.1,4.65,2.626,2.626,0,0,1-1.37-1.134c-.794-.214-.8-1.281-1.548-1.013-.04.582.616.862.855,1.371.634,1.052,1.964,1.8,2.264,2.987-2.795-1.436-4.3-4.009-6.063-6.362a.357.357,0,0,0-.372.181c.831,1.616,1.7,3.181,2.486,4.853a34.98,34.98,0,0,0,3.626,6.2c2.264,2.455,3.56,5.484,6.091,7.671a12.668,12.668,0,0,1,3.256,2.747,12.006,12.006,0,0,1-4.417-2.206c-1.331-.8-2.42-2.05-3.664-2.953-.351.422.073.769.2,1.146,1.554,1.6,2.558,3.539,4.158,5.135a15.094,15.094,0,0,1-1.931-.986l-.138.112c1.562,1.649,3.55,2.72,5.109,4.369a1.614,1.614,0,0,1,.738.658,3.893,3.893,0,0,1-1.964-.789,33.216,33.216,0,0,1-3.287-2.55c-.093.056-.2-.029-.236.073l.017.188c1.6,1.6,3.066,3.3,4.531,5l.022.2-.287.025-3.418-2.393c-1.425-1.225-2.6-2.859-4.054-3.983-.1.011-.135.109-.225.216l.135.375c1.68,1.923,3.659,3.923,5.486,5.881l.023.24-.385.034c-1.044-.824-1.951-1.708-2.9-2.534-.192.019-.378.081-.409.275.836,1.187,1.9,2.153,2.682,3.336.24.512.856.844,1,1.36-1.8-1.093-2.815-2.693-4.2-4.065-1.528-1.308-2.8-2.984-4.284-4.348-.1-.04-.189.016-.278.121.1.574.757.852,1.09,1.3,2.207,3.428,5.455,6.032,7.712,9.457-1.3-.413-2.269-1.484-3.454-2.247a30.122,30.122,0,0,0-2.916-2.15,34.474,34.474,0,0,1-4.057-4.081c-.152-.034-.233.121-.321.225l.047.481c1.278,1.767,2,3.833,3.422,5.542.244,1.092,1.233,1.822,1.48,2.913,1.393,1.906,2.175,4.061,3.465,5.978a55.041,55.041,0,0,0,7.262,9.883c-.267.222-.7-.225-1.047-.337-2.151-1.256-3.786-3.187-5.5-4.917a55.174,55.174,0,0,1-3.719-4.6,16.708,16.708,0,0,0-1.531-1.888c-.223.209,0,.482.11.712,3.2,4.642,5.238,9.928,9.08,14.266,0,.485.85.8.408,1.275-1.3.118-1.815-1.287-2.694-1.933a5.05,5.05,0,0,0-1.453-1.556l.028.337c1.1,1.4,2.015,2.862,3.11,4.261.019.143.031.337-.161.354-1.016,0-1.43-1.321-2.291-1.723-1.011-.971-1.8-2.206-2.719-3.235a10.376,10.376,0,0,0-1.332-1.765c-.146,1.03.523,1.985.9,2.921,2.539,5.964,7.246,10.755,9.145,17.072a15.316,15.316,0,0,1,.644,3.282,1.253,1.253,0,0,1,.067.72c.1,1.059.177,1.919.18,2.984l-.192.019c-2.323-6.226-6.125-11.682-10.065-17.083-.1-.037-.189.065-.234.119,1.325,2.251,2.185,4.738,3.28,7.107.765,2.5,1.83,5.109,1.607,7.938l-.188.019a47.718,47.718,0,0,0-4.109-9.792c-.105-.085-.214-.223-.357-.158.243,1.574,1.425,2.82,1.773,4.433.828,2.686,1.308,5.793,1.909,8.6-.217.259.285.94-.295.993-1.522-4.41-2.911-8.934-6.238-12.4a18.735,18.735,0,0,0-4.295-3.474c.028.287.541.624.845.794.352,1.131,1.688,1.438,2.117,2.418,3.394,3.172,4.945,7.341,6.4,11.516.326.935-.475,1.688-.946,2.362-.369.18-.257-.217-.461-.3a18.412,18.412,0,0,0-2.384-6.9c-.2-.029-.278.174-.316.271a30.2,30.2,0,0,1,1.021,10.953c-.282.123-.154.448-.338.561-.284-.458-.18-.9-.323-1.374a34.464,34.464,0,0,0-1.328-10.145l-.212-.174-.174.209c1.011,4.12,1.658,8.469.813,12.422l-.042.054a7,7,0,0,1-.563-2.42,33.487,33.487,0,0,0-2.237-6.333,8.73,8.73,0,0,0-1.447-3.065,11.138,11.138,0,0,0-2.083-2.613l-.178-.32a23.459,23.459,0,0,0-6.919-5.171.434.434,0,0,0-.524.1c.133.369.566.378.83.548,5.032,2.587,8.725,7.377,8.481,13.115.2,4.241.068,9.052-3.11,12.4-.332.036-.43.572-.879.423-.3-.6-.078-1.348-.23-1.965a26.7,26.7,0,0,0-.867-6.167c-.2-.079-.23.118-.27.222a11.427,11.427,0,0,1-.275,6.414c-.355-.158-.157-.658-.341-1.031a64.871,64.871,0,0,0-1.844-7.873,9.255,9.255,0,0,0-1.151-2.5c-.295.512.2,1.1.392,1.61,1.134,2.851,1.911,6.507,1.173,9.534a14.231,14.231,0,0,1-1.2,2.188,7.31,7.31,0,0,1-2.3,1.326c-.5-.724-.52-1.937-1.031-2.758-.355-.695-.268-1.866-1.078-2.229a22.936,22.936,0,0,1,.813,5.109c-.532,0-.4-.687-.721-1-.425-.928-.855-1.9-1.28-2.832-.454.332.226.9.223,1.384.216,1.284,1.01,2.522.653,3.864l-.318-.264c-.816-2.489-2.04-4.751-2.809-7.3a14.954,14.954,0,0,0-1.4-3.111c-.74-1.191-1.157-2.558-1.942-3.7l-.05,0c.053,1.111.909,1.951,1.194,2.942,1.187,2.845,2.79,5.5,3.27,8.61a11.012,11.012,0,0,1,.794,2.784,16.608,16.608,0,0,1,.637,3.716,2.293,2.293,0,0,1-.585-1.058c-.78-2.688-2.395-4.912-3.315-7.54-2.264-4-3.834-8.41-5.636-12.65-.423.136.039.431-.081.682,1.79,4.146.65,9.05-1.461,12.925-.493.434-.8,1.335-1.536,1.208-1.228-2.258-2.893-4.524-3.622-7.17-.169-.276-.383.037-.419.183a21.743,21.743,0,0,0,.507,9.641c-.343-.065-.675-.52-.943-.782-1.928-3.02-3.763-6.094-4.259-9.874-.482.043-.282.606-.5.817a31.9,31.9,0,0,0-1.542,8.96,15.765,15.765,0,0,0,.94,6.5c.078.766.524,1.405.628,2.024a5.838,5.838,0,0,1-2.072-1.987,40.013,40.013,0,0,1-7.84-13.415c-.1-.04-.161-.228-.3-.169-.23.655.226,1.387.34,2.1a10.484,10.484,0,0,0,1.187,2.843c.313,1.28,1.224,2.212,1.58,3.439a37.763,37.763,0,0,0,2.071,3.536c.028.337.3.65.147,1.053l-.335.031a24.677,24.677,0,0,1-7.352-8.715c-.648-1.779-1.81-3.318-2.416-5.151-.721-1-.938-2.285-1.661-3.284-.807-1.912-.99-3.881-1.615-5.9l-.152-.082c-.177,1.756.644,3.279.991,4.94a82.821,82.821,0,0,0,3.75,9.582c.658,1.343,1.218,2.7,1.92,3.988a14.5,14.5,0,0,0,1.667,5.947c.009.1-.14.064-.234.073a31.625,31.625,0,0,1-6.883-4.738,148.393,148.393,0,0,1-10.491-13.312c-.6.346.366.838.369,1.37.979,2.185,2.6,4.02,3.856,6.038.434.49.689,1.146,1.2,1.436l.02.239c2.7,3,5.219,6.1,8.1,8.984-.214.312-.489-.051-.686-.079-1.7-.523-2.75-1.973-4.313-2.654a17.355,17.355,0,0,1-3.508-3.307c-5.159-6.01-9.691-13.581-8.287-21.942-.105-1.106.275-2.255.175-3.316a19.426,19.426,0,0,0-.853,4.876c-.087,2.721.5,5.379.475,8.241.141,3.085.937,5.922.409,9.117-.118,3.932-1.723,8.01-5.362,10.043-.16-.18.109-.4.188-.6,1.258-2.108,3.012-4.061,3.226-6.452l-.163-.18c-2.381,3.564-4.576,8.614-9.191,9.478a19.946,19.946,0,0,1-5.539.855l-.02-.192c2.725-2.483,5.877-5.052,7.336-8.628a10.945,10.945,0,0,0,.67-2.676l-.209-.177c-.437.527-.512,1.256-.948,1.782a7.138,7.138,0,0,1-5.858,3.695,5.165,5.165,0,0,1,.895-1.827c.087-.637.758-1.235.312-1.871-.592.4-1.087,1.314-1.832,1.14l-.022-.239a12.829,12.829,0,0,0,2.475-6.721.286.286,0,0,0-.3-.118c-.383.571-.174,1.273-.408,1.877-1.031,2.953-3.135,6.4-6.117,7.642a14.938,14.938,0,0,1,.966-2.609,6.073,6.073,0,0,0,.414-1.784c.485-.529.4-1.394.579-2.136l-.2-.079c-.624,1.126-.825,2.6-1.909,3.423.271-2.3,1.573-4.458,1.4-6.863a5.342,5.342,0,0,0-.033-1.934c-.3-.068-.267.268-.253.459-.118.786.073,1.787-.549,2.378a21.383,21.383,0,0,0-.079-3.432l-.194.017c-.968,1.543-1.934,3.138-3.553,3.963-.082-.375.413-.762.572-1.115a37.575,37.575,0,0,0,2.714-7.811c.752-2.345,1.739-4.763,1.843-7.242l-.191.014c-.917,4.206-2.232,8.3-5.2,11.774a34.087,34.087,0,0,1-3.4,4l-.112-.138c.414-4.928,2.522-9.34,4.43-13.827,2.575-5.132,4.25-10.567,6.721-15.786.69-1.422,1.331-2.835,2.026-4.258a.207.207,0,0,0-.344-.015c-2.066,3.823-3.929,7.726-5.9,11.591-.977,2.516-1.906,5.024-2.784,7.575.239,1-.7,1.808-.907,2.747A65.057,65.057,0,0,0,32.5,139.3a50.428,50.428,0,0,0-.937,5.562c-.087.1-.267.265-.375.129l-.152-.082c-.05-4.692,1.3-8.89,2.5-13.165a45.138,45.138,0,0,0,3.541-12.974c-.059-.137-.253-.121-.344-.062-.442.473-.34,1.048-.53,1.6-1.216,3.068-2.832,5.981-3.557,9.148a64.87,64.87,0,0,0-1.821,10.15c-.2.889-.163,1.853-.372,2.742l-.095.012a26.94,26.94,0,0,1-.05-8.861,35.946,35.946,0,0,0,.49-4.112c-.284-1.478-.667-2.992-.848-4.427-.214-.222-.29.023-.422.135a17.04,17.04,0,0,1-2.812,7.287l-.144.009c.053-2.038.537-4.118.582-6.251.1-3.063.454-6.051.853-9.041l-.206-.174c-.45.912-.2,2-.555,2.908a40.179,40.179,0,0,1-.8,4.966c-.786,3.028-2.367,5.838-3.7,8.725-.4.327-.558.729-1.07.969.177-.693.662-1.222.692-1.953a17.075,17.075,0,0,0,1.053-12.112c-.4-6.4.2-13,3.065-18.591l.1-.5c2.317-4.234,6.181-6.964,9.869-9.491l.012.144a28.584,28.584,0,0,0-4.759,7.659c-1.332,2.353-2.5,4.839-3.642,7.218a5.8,5.8,0,0,0-1.055,2.713c.214-.312.3-.949.819-1.09a4.316,4.316,0,0,1,1.177-2.437,20.453,20.453,0,0,1,2.359-4.337c1.267-1.475,1.936-3.132,3.056-4.644a12.7,12.7,0,0,1,1.045-1.258.167.167,0,0,0-.1-.039l0-.051c.268.313.264-.265.549-.341a32.436,32.436,0,0,1,10.6-7.33,25.584,25.584,0,0,0,3.164-.876c-4.428.27-8.293,2.466-11.676,5.154l-.288.028-.022-.239A15.243,15.243,0,0,1,39.841,89.6c2.8-2.68,6.2-4.208,9.52-5.97-.011-.095-.11-.135-.16-.177a31.021,31.021,0,0,0-2.942,1.193c-4.524,1.874-8.458,4.9-12.352,7.783-.2-.078.026-.2.019-.29,1.877-2.212,4.608-3.578,6.382-5.874-.613.2-1.132.878-1.773,1.28-.957.62-1.737,1.615-2.753,2.142a20.615,20.615,0,0,0-2.966,3.038l-.237.019c-2.038,2.567-4.558,4.641-6.131,7.549-1.031.872-1.107,2.136-1.888,3.13-.1.979-.706,1.81-.757,2.784a7.621,7.621,0,0,0-.485,2.075,37.566,37.566,0,0,0-.492,13.471c-.338.026-.324-.36-.493-.589-2.14-3.774-2.389-8.545-2.812-13.058a32.232,32.232,0,0,1,.865-9.48,24.484,24.484,0,0,0,.181-2.725l-.158-.132a8.7,8.7,0,0,0-1.056,2.713c-.678,2.581-1.067,5.185-1.8,7.723a27.5,27.5,0,0,1,3.591-18.158c.633-1.027.968-2.122,1.6-3.105.625-1.605,2.112-2.809,2.787-4.424l-.053-.045c-4.983,5.793-7.907,12.9-13.243,18.577A70.033,70.033,0,0,0,5.99,108.4c-.149.014-.177.213-.377.133.478-5.809,5.117-10.068,8.2-14.913a18.862,18.862,0,0,0,1.258-1.568,3.987,3.987,0,0,0-1.478,1.3,35.494,35.494,0,0,1-3.921,4.194c-.267-.267.1-.448.087-.642l1.354-2.109c.275-.172.168.228.361.257a4.446,4.446,0,0,1,.963-2.173,29.541,29.541,0,0,1,1.795-6.226l3.318-4.422-.059-.092c-2.736,2.336-4.956,5.545-7.068,8.36l-.192.017c-.186-1.481.614-2.769,1.267-4.09a57.637,57.637,0,0,0,4.1-4.886,1.929,1.929,0,0,0-1.266.988c-.845.808-1.32,1.965-2.347,2.353.05-1.024,1.042-1.8,1.557-2.517.817-1.1,1.9-1.971,2.579-3l.143-.017A54.45,54.45,0,0,1,22,73.775l-.287.025a113.918,113.918,0,0,0-8.918,7.755c-.206-.124-.022-.239.017-.34,3.167-3.975,7.015-6.852,10.459-10.468l-.512.244A97.8,97.8,0,0,0,11.434,81.538a.237.237,0,0,1-.3-.067c1.793-4.676,3.713-9.55,7.277-13.416-.008-.1.262-.316-.034-.388-1.473,1.349-2.5,2.8-3.822,4.233-2.032,2.125-4.085,4.495-5.916,6.7-.309-.168.208-.358.084-.641a5.014,5.014,0,0,1,.752-1.808,75.046,75.046,0,0,1,9.506-13.433c1.177-1.415,2.154-2.862,3.4-4.1a11.735,11.735,0,0,1-1.41.472,9.176,9.176,0,0,1,2.274-2.634l-.017-.192c-3.383,1.142-6.21,3.535-9.066,5.64a66.207,66.207,0,0,0-4.616,5.078l-.143.02c.031-2.285,1.2-4.282,2.472-6.243a52.544,52.544,0,0,1,6.569-6.956,46.219,46.219,0,0,1,9.449-5.187c.3-.414,1.048-.2,1.086-.83,1.591-.583,2.953-1.58,4.731-1.745,1.151-.642,2.689-.254,3.778-1.03,1.126-.4,2.493-.281,3.329-1.183-.765-.414-1.934.036-2.761-.516.019-.341.437-.529.653-.791,1.115-.537,1.8,1.145,2.717.042-.385-.5-1.165-.039-1.675-.281-.212-.223-.569.1-.783-.123.433-.524,1.411-.422,2-.375.363-.279-.228-.369-.2-.569.146-.5.876.064.867-.566a7.26,7.26,0,0,0-5.247-.135c-.037.1.062.133.116.18a5.657,5.657,0,0,1,2.7-.105c-.261.313-.093.541-.163.841-.918.037-1.278.844-1.81,1.376A1.714,1.714,0,0,1,35.9,42.5c-.017-.191.161-.352-.138-.467a.835.835,0,0,0-.824.509c.135.425.552.239.82.5,1.111,0,2,.687,3,.982l-.175.208a13.207,13.207,0,0,1-5.016-.307c-.18.163-.659.206-.386.566.535.487,1.422.161,1.9.648-1.261.509-2.4-.261-3.533-.495-.324.177.025.29,0,.534-.749.264-1.529-.292-2.223.06-.033.2.118.233.22.321.884.11,1.815.217,2.691.279l.019.192a11.524,11.524,0,0,1-8.529-2.113l.132-.154c1.425.2,2.654.917,4.182.675l.088-.109c-.327-.355-.9-.251-1.3-.458-.617-.378-1.632-.333-1.933-.982.941-.282,2.074-.1,3.169-.293,2.584-.343,5.115-1.256,7.8-1.5.088-.1.267-.268.068-.346-1.106-.431-2.285-.613-3.392-1.041-2.607-.434-5.069-1.9-7.31-3.1A14.71,14.71,0,0,1,22.7,35.006c2.195.136,4.309,1.007,6.531,1.473a6.186,6.186,0,0,0,2.815.082,39.239,39.239,0,0,0-3.981-1.667c-1.461-1.123-3.311-1.774-4.411-3.175,1.394.406,2.68,1.207,4.121,1.6,4.033,1.177,8.329,1.549,12.334,2.924,1.078.141,2.092.628,3.17.769.324.358.65.715,1.154.425.222-.214-.045-.478-.16-.665-1.522-1.793-3.034-3.977-5.5-4.427-.054.439.579.481.892.74a8.067,8.067,0,0,1,2.309,1.917l.026.29-.585-.047c-4.462-2.151-9.6-2.156-14.215-3.909-.689-.613-.354-1.712-.58-2.558l.31-.321a1.379,1.379,0,0,1-.31-.214,45,45,0,0,1,1.106-8.97c.076-1.8.8-3.367,1.022-5.131A8.987,8.987,0,0,1,29.84,11.77c-.189-.516.357-.858.363-1.343,1.551-3.1,1.976-7.4,5.768-8.816,1.9-.374,3.274.856,4.8,1.588" transform="translate(3.093 0.304)" fill="#fff"/>
      <path id="路径_480" data-name="路径 480" d="M28.277,4.33a27.239,27.239,0,0,0,2.2,7.592,25.924,25.924,0,0,0,1.864,3.9c.816,1.47,1.263,3.128,2.446,4.42l.177-.208a52.157,52.157,0,0,1-3.73-10.407c1.048,1.886,1.27,4.29,2.362,6.127a28.608,28.608,0,0,0,5.061,7.569c.555.726,1.32,1.142,1.822,1.864-.025.247-.318.225-.5.338a11.9,11.9,0,0,1-3.893-3.85c-.154-.082-.267-.267-.413-.253a9.114,9.114,0,0,0,1.808,3.271c.634,1.1,1.639,2.027,2.282,3.18l.012.141c-1.354.028-1.458-1.605-2.693-1.881L37,26.238c.468.879.473,1.992,1.407,2.632l.014.14a2.946,2.946,0,0,1-1.545-.968c-.6.392.065,1.205.065,1.737l.034.388c-.476.042-.561-1.354-1.053-.389-.257-.171-.493-.631-.841-.741-.177.206.178.368,0,.529-.554-.189-.665-1.391-1.455-1.028.3,1.135,1.514,1.7,2.123,2.519-.012.385.427.928-.042,1.118-.529-.49-.757-1.387-1.6-1.594-2.789-.858-3.937-3.8-5.63-5.872-1.9-2.683-4.621-4.9-7.2-7.129.662-.158,1.106.43,1.629.869.918.49,1.678,1.339,2.638,1.785.225-.216,0-.487-.115-.715-1.508-1.6-2.278-3.667-3.786-5.315-.016-.143-.076-.284.064-.344,1.187.81,1.891,2.1,3.136,3a5.557,5.557,0,0,0,1.263,1.1c.25-.459-.357-.744-.445-1.173a32.756,32.756,0,0,1-3.608-5.474c.622-.06.71.9,1.276,1.235.721,1,1.767,1.824,2.581,2.765.99,1.261,1.889,2.584,2.924,3.845.653-.257-.172-.811-.119-1.3-.617-1.4-1.368-2.73-2.122-4.067a4.526,4.526,0,0,1-1.152-1.442c.223-.212.479-.575.164-.838l0-.047.194-.016c1.587,1.982,2.9,4.135,4.393,6.128.155.084.136-.112.228-.168-.628-2.074-.713-4.535-1.669-6.483-.431-1.509-.824-3.119-1.118-4.74l.24-.02A4.648,4.648,0,0,0,28.3,7.722a1.149,1.149,0,0,0-.054-1.061c-.014-.678-.355-1.76.031-2.331" transform="translate(11.721 2.386)" fill="#00204a"/>
      <path id="路径_481" data-name="路径 481" d="M30.43,11.821a6.431,6.431,0,0,1,.907,1.419c1.808,2.254,3.924,4.675,6.659,5.967.068.188.178.372.1.571-.495-.1-.907.136-1.345.127-2.984-2.387-5.574-5.244-6.772-8.717.3.02.239.459.448.633" transform="translate(16.521 6.165)" fill="#00204a"/>
      <path id="路径_482" data-name="路径 482" d="M74.892,7.27c.181.368-.417.717-.537.968A10.117,10.117,0,0,1,69.929,11.7l-.019-.192c1.643-1.608,3.228-2.82,4.982-4.241" transform="translate(38.522 4.006)" fill="#fff"/>
      <path id="路径_483" data-name="路径 483" d="M71.154,8.1c-.783.941-1.247,2.2-2.24,2.969l-.033-.337A13.417,13.417,0,0,1,71.131,7.81Z" transform="translate(37.956 4.304)" fill="#fff"/>
      <path id="路径_484" data-name="路径 484" d="M33.393,13.6c1.348,1.472,3.256,2.215,4.858,3.279l.028.287c-1.109.054-1.985-1.027-2.95-1.518a18.622,18.622,0,0,1-2.894-2.975c.36.209.6.72.959.928" transform="translate(17.872 6.985)" fill="#00204a"/>
      <path id="路径_485" data-name="路径 485" d="M48.8,14.264l2.145.138-.135.115a12.084,12.084,0,0,1-9.1-1.433l-.012-.144c2.328.557,4.513,1.661,7.1,1.325" transform="translate(22.979 7.13)" fill="#00204a"/>
      <path id="路径_486" data-name="路径 486" d="M48.477,13.194c1.124.138,2.365-.074,3.423.361-2.783-.758-6.342,1.073-8.83-.681a10.513,10.513,0,0,0,5.407.32" transform="translate(23.733 7.094)" fill="#00204a"/>
      <path id="路径_487" data-name="路径 487" d="M71.288,11.079l.019.24A43.683,43.683,0,0,1,66.434,14.1c-.236.071-.478.093-.6-.183.25-.461.816-.613,1.278-.848l3.056-2.075a1.448,1.448,0,0,1,1.12.088" transform="translate(36.277 6.018)" fill="#fff"/>
      <path id="路径_488" data-name="路径 488" d="M44.821,14.774c2.019.394,4.242.335,6.109,1.131-1.892-.552-4.284-.234-6.277-.825A11.254,11.254,0,0,1,41.34,13.84l.026-.245c1.188.276,2.265.955,3.454,1.179" transform="translate(22.779 7.491)" fill="#00204a"/>
      <path id="路径_489" data-name="路径 489" d="M24.477,17.3a43.825,43.825,0,0,1,5.18,5.182c-.019.341.427.442.265.754l-.352-.115c-1.1-.963-1.855-2.252-3.132-2.952-.22.212,0,.482.1.619.425.879,1.07,1.591,1.446,2.48-.093.056-.126.208-.281.123a20.814,20.814,0,0,0-7.094-7.042l-.025-.239c.569-.152.723.465,1.173.617l1.57.727c.327-.129.05-.492-.068-.723-.327-.4-.926-.594-.974-1.123a25.751,25.751,0,0,1,2.19,1.691" transform="translate(11.344 8.602)" fill="#00204a"/>
      <path id="路径_490" data-name="路径 490" d="M72.042,11.581c-1.368.952-2.727,1.9-4.095,2.851-.239.025-.5.29-.729-.029.186-.6.952-.668,1.466-.909,1.156-.592,2.184-1.562,3.325-2.244Z" transform="translate(37.039 6.199)" fill="#fff"/>
      <path id="路径_491" data-name="路径 491" d="M46.084,15.557a23.367,23.367,0,0,1,2.626.627c-.323.178-.6-.234-.937-.2-.807-.313-1.63.2-2.395-.212a7.432,7.432,0,0,1-4.191-1.308l-.019-.194a18.119,18.119,0,0,0,4.915,1.289" transform="translate(22.685 7.862)" fill="#00204a"/>
      <path id="路径_492" data-name="路径 492" d="M48.825,16.682c-.371.18-.99-.245-1.3.123.017.191.313.262.332.453-2.688-.282-5.725-.1-8.1-1.669a18.484,18.484,0,0,0,7.245,1.36l.136-.11a14.311,14.311,0,0,0-2.931-.789A7.364,7.364,0,0,1,40.9,14.756l.093-.056c2.435,1.182,5.168,1.407,7.836,1.982" transform="translate(21.911 8.1)" fill="#00204a"/>
      <path id="路径_493" data-name="路径 493" d="M71.287,12.7c.32.259-.518.675.127.808.723-1.081,1.79-.551,2.747-1.174.186-.062.341.02.355.163l-.3.416c-1.568.869-3.361,1.379-5.027,2.212-.251-.074-.589-.092-.672-.423-.042-.479.586-.489.852-.757a18.129,18.129,0,0,1,1.379-1.29c.194-.016.382-.085.537.047" transform="translate(37.755 6.783)" fill="#fff"/>
      <path id="路径_494" data-name="路径 494" d="M39.5,15.829c1.8,1.09,3.923,1.035,5.864,1.582a2.19,2.19,0,0,1,1.117.042l.017.192a9.076,9.076,0,0,0-2.232-.033c-1.987-.543-4.175-.631-5.765-2.128.347.11.65.23,1,.344" transform="translate(21.217 8.533)" fill="#00204a"/>
      <path id="路径_495" data-name="路径 495" d="M41.329,17.2a20.437,20.437,0,0,0,4.619.684c.1.04.163.181.31.211a12.8,12.8,0,0,1-3.819-.417,17.182,17.182,0,0,1-4.973-1.911c1.289.315,2.537,1.216,3.862,1.433" transform="translate(20.645 8.689)" fill="#00204a"/>
      <path id="路径_496" data-name="路径 496" d="M24.083,22.768c4.479,1.278,9.339,1.456,13.483,3.834l-.132.155c-4.4-1.531-9.193-2.005-13.679-3.329a11.866,11.866,0,0,0-2.6-.923c-1.674-.811-3.049-2.038-4.723-2.851-.43-.448-1.145-.865-1.354-1.523,2.917,1.664,5.75,4.019,9.007,4.636" transform="translate(8.307 9.991)" fill="#fff"/>
      <path id="路径_497" data-name="路径 497" d="M43.078,17.924l.008.1c-1.742.548-3.285-.422-4.8-1.058l.026-.245c1.59.436,3.18.87,4.762,1.2" transform="translate(21.099 9.213)" fill="#00204a"/>
      <path id="路径_498" data-name="路径 498" d="M75.283,14.191a.358.358,0,0,0,.436.493c.687-.453.231.948.946.3.23-.119.5-.389.754-.217l-.033.146c-1.321.9-2.365,2.162-4,2.311.487.538.828,1.087,1.553,1.069.594.138.15,1.052.872,1.033.96-.14.554,1.256,1.619.721.442.1.538.58.893.791-.029.2-.109.346-.3.364-2.98-.789-5.01-3.361-7.6-5.106l-.033-.383c.364-.278.923.541.8-.268,1.312-.416,2.565-1.014,3.941-1.335Z" transform="translate(38.786 7.775)" fill="#fff"/>
      <path id="路径_499" data-name="路径 499" d="M42.54,18.18l.121.231a15.6,15.6,0,0,1-2.925-.166c-.112-.181-.636-.087-.481-.487,1.007.389,2.241.13,3.285.422" transform="translate(21.615 9.785)" fill="#00204a"/>
      <path id="路径_500" data-name="路径 500" d="M42.259,18.724l-.175.211-2.978-.257a.612.612,0,0,1-.288-.5,27.709,27.709,0,0,0,3.442.551" transform="translate(21.388 10.014)" fill="#00204a"/>
      <path id="路径_501" data-name="路径 501" d="M39.658,18.734c.763.413,1.7.082,2.461.4.073.332-.383.087-.557.295-1.568-.2-3.221-.234-4.788-.43-.164-.177.017-.338,0-.527,1.044-.194,1.812.7,2.883.264" transform="translate(20.226 10.162)" fill="#00204a"/>
      <path id="路径_502" data-name="路径 502" d="M38.683,19.3a1.832,1.832,0,0,0,1.852.119c.306.161.78.074.957.392a14.816,14.816,0,0,1-2.558.14c-.014.341-.344.422-.644.354l-2.247-.228-.23-.366c.681.036,1.444.4,2.142.092l-1.6-.577c.729-.5,1.528.292,2.331.074" transform="translate(19.735 10.502)" fill="#00204a"/>
      <path id="路径_503" data-name="路径 503" d="M55.346,19.51a27.084,27.084,0,0,1,8.345,9.982l.047-.006c-.078-1.351-1.01-2.522-1.66-3.769,1.017,1.017,1.442,2.479,2.367,3.56l.095-.011c-.411-1.8-1.805-3.271-2.592-4.99.394.11.489.585.667.907a22.692,22.692,0,0,1,4.093,10.229l.225.315.262-.364a24.6,24.6,0,0,0-4.154-12.351A22.435,22.435,0,0,1,67.41,35.1c.1.088.113.181.214.22.1-.008.178-.161.265-.267a30.421,30.421,0,0,0-1.433-7.567l-.022-.24a21.713,21.713,0,0,1,1.6,8.379c-.741-.126-.417.715-1.084.872-1.326.318-2.173,1.608-3.2,2.527l-.192.019-.02-.24c.6-.831,1.376-1.337,2.032-2.125C63.924,28.887,59.637,21.343,51.9,17.8c1.278.22,2.282,1.143,3.446,1.711" transform="translate(28.598 9.808)" fill="#00204a"/>
      <path id="路径_504" data-name="路径 504" d="M38.419,20.4l.844.212c-.065.344-.619.105-.628.541.271.313.7.226,1.048.34l.022.24c-1.131-.186-2.294-.172-3.414-.264l-.323-.312c.268-.265.721-.112,1.062-.048.535,0,1.093.285,1.556.048-.327-.4-.952-.347-1.447-.445a16.827,16.827,0,0,0-2.052-.2c-.144.012-.352-.161-.222-.318a14.494,14.494,0,0,0,3.553.2" transform="translate(19.189 11.129)" fill="#00204a"/>
      <path id="路径_505" data-name="路径 505" d="M61.1,27a31.863,31.863,0,0,1,3.316,9.089l-.129.2c-.4-.155-.2-.563-.281-.988-1.028-5.816-4.32-10.449-8.858-14.485-.98-.636-2.164-1.4-3-2.046,3.788,1.63,6.592,5.246,8.953,8.225" transform="translate(28.733 10.346)" fill="#00204a"/>
      <path id="路径_506" data-name="路径 506" d="M38.171,21.374c.565.333,1.432-.231,1.835.458.248.074.642.136.721.468l.014.144c-.856.175-2.005-.2-2.807.016.288.506,1.031.149,1.489.4l.019.192c-.489-.053-.724.551-1.236.257-.783.949-2.091-.095-3.271.208-.592-.088-1.308.023-1.781-.366a.348.348,0,0,1,.07-.295,13.03,13.03,0,0,1,3.226.327c.236-.071.45.15.673-.064-.285-.456-1.028-.1-1.137-.766.529-.05.991.248,1.458.057-.586-.039-.129-.859-.755-.847-.444-.057-.865.081-1.182-.183.529-.58,1.537-.141,2.232.034Z" transform="translate(18.266 11.62)" fill="#00204a"/>
      <path id="路径_507" data-name="路径 507" d="M55.454,24.7c.2-.5-.472-.923-.664-1.393Q53.27,21.783,51.757,20.4l0-.05c.676-.012,1.083.723,1.649,1.059,1.677,1.878,3.668,3.485,5.058,5.438l.146-.012a8.56,8.56,0,0,0-1.624-2.9c-.628-1.011-1.891-1.574-2.378-2.64-.009-.1.188-.065.236-.07,2.184,1.638,3.516,3.983,5.249,5.953.687.616.883,1.663,1.65,2.077a2.4,2.4,0,0,0-.579-1.548l.04-.051c1.1,1.4,1.235,3.372,2.156,4.935.335-.034.008-.439.189-.6a16.472,16.472,0,0,0-2.322-6.179c2.376,2.637,2.48,6.356,2.859,9.906.335-.029.209-.36.386-.521A13.076,13.076,0,0,0,62.2,26.4c.7.178.713,1.388,1.523,1.266.368.306.292,1.038.785,1.138l-.033-.87c.268.267.242,1.045.856.89.164.178.191.465.434.492.256-.363-.208-.707-.248-1.138-1.489-2.964-3.989-5.346-6.524-7.628,1.419.69,2.524,2.137,3.69,3.237a26.083,26.083,0,0,1,5.545,11.16c-.064.349-.171.793-.5.872-.185-.417.136-1.126-.282-1.472-.627.538-.157,1.463-.779,2.055.479,1.5-1.221,2-1.546,3.2l-.285.026c-1.3,1.669-2.268,3.746-4.16,4.748-2.612,2.131-6.024.848-8.714.081-1.585-.383-2.758-2.064-4.419-2.2A11.2,11.2,0,0,0,44.9,43.512c-.844.271-1.269-.611-1.748-1.1-.105-.085-.073-.282-.084-.378a20.487,20.487,0,0,1,2.455-1.2c1.442-.668,3.164-.878,4.247-2.233a13.861,13.861,0,0,1,8.006-4.04c1.1.382,2.471.012,3.263,1.249.105.087.38-.088.451.15-.065.346.245.558.5.682.253.07.423-.138.507-.34a7.781,7.781,0,0,0-5.073-2.435,8.577,8.577,0,0,0-3.453.9c-.147.5-.579.54-1.008.625-.045,0-.185.068-.242-.023-.067-.189.217-.262.1-.447-.25-.124-.614.155-.825-.067a8.153,8.153,0,0,1,1.971-.668,1.246,1.246,0,0,0,.734-.409c-.181-.419-.727-.031-1-.388.217-.265.693.177.951-.188,1.525.248,3.087-.143,4.548.448.143-.546-.346-1.081-.682-1.584-.383-.012-.189.552-.6.351-2.384-2.2-3.878-5.261-6.882-6.821-1.038-.776-2.288-1.145-3.271-1.829,3.51.74,6.077,3.356,8.636,5.833.181-.067.064-.346,0-.437-2.032-2.572-4.513-5.3-7.62-6.412.827.02,1.517.682,2.353.847,1.81.656,2.91,2.058,4.475,3.316.14-.065.313-.323.154-.451-1.943-2.147-4.064-4.658-6.907-5.512-.152-.081-.316-.259-.178-.369,2.7.33,4.724,2.368,6.776,4.116" transform="translate(23.731 11.212)" fill="#00204a"/>
      <path id="路径_508" data-name="路径 508" d="M36.6,23.583l.017.191a23.761,23.761,0,0,0-2.572-.047,2.122,2.122,0,0,1-1.818-.27c-.031-.337.261-.361.529-.582,1.227.18,2.721.085,3.843.707" transform="translate(17.758 12.605)" fill="#00204a"/>
      <path id="路径_509" data-name="路径 509" d="M31.209,24.21c.881.6,2.081.534,2.962,1.129a27.066,27.066,0,0,0-4.078-.591.433.433,0,0,0-.116.3A31.428,31.428,0,0,0,33.164,26.5a25.181,25.181,0,0,0-6.057-.017c-.05-.043-.15-.082-.112-.185.627-.538,1.867-.219,2.412-.611.074-.245-.233-.414-.482-.535-2.2-.717-4.613.43-6.651-.642.577-.051,1.193-.206,1.821-.216,2.142.093,4.887-.6,7.115-.081" transform="translate(12.274 13.233)" fill="#00204a"/>
      <path id="路径_510" data-name="路径 510" d="M47.8,23.93c2.074.92,4.451,2.541,5.193,4.751-.076.25-.237.068-.341.034-1.332-2.883-4.717-4.408-7.442-5.562.212-.307.583,0,.87.016Z" transform="translate(24.911 12.683)" fill="#00204a"/>
      <path id="路径_511" data-name="路径 511" d="M87.58,20.991c-2.6,2.229-4.886,5.83-3.829,9.362.608-.734.561-1.8,1.005-2.707A10.67,10.67,0,0,1,89.2,21.805a.716.716,0,0,1,.89-.372l.1.04A10.6,10.6,0,0,0,84.779,28.9c-.093.541-.475,1.157-.135,1.66.485,0,.093-.546.261-.8.389-1.052.886-2.018,1.216-3.116,1.653-1.993,3.566-4.351,6.268-4.5a9.645,9.645,0,0,0-5.964,4.67,8.326,8.326,0,0,0-.9,3.861l.143-.011c.622-2.142,1.861-4.486,3.884-5.64a9.484,9.484,0,0,0-3.58,5.805c.431-.09.651-.788.907-1.2.475-1.159,1.543-2.662,2.838-2.832-1.864,1.289-3.285,3.747-2.787,5.975.056.095.146.037.242.031.468-1.258,1.087-2.91,2.613-3.2.189-.065.3.119.49.1l.016.143a2.59,2.59,0,0,0-2.237,2.054c.037.337-.172.692.042.917a6.584,6.584,0,0,1,1.2-1.132,10.357,10.357,0,0,1,1.559-.383c-.112.346-.6.341-.872.516a6.016,6.016,0,0,0-1.7,4.614c-.016.34-.448.378-.316.752a1.592,1.592,0,0,0,1.205.473c.444-.431-.217-.755-.208-1.194a6.5,6.5,0,0,1-.064-1.691c.257.172.261.7.614.864.862-1.678,1.821-3.9,4.025-4.154,1.706.133,3.772-.057,4.717,1.791.85,1.325.777,3.124,2.274,4.1.476.439,1.328.744,1.444,1.463-.485.527-1.045-.292-1.435.226A10.858,10.858,0,0,1,98.039,42.3c.048.53.624.479.76.9a55.115,55.115,0,0,0,6.446,3.665,27.385,27.385,0,0,1,3.2,3.141c.633.572.507,1.311.957,1.993,1.016,2.037.425,4.031.62,6.147a32.178,32.178,0,0,1-5.089,13.5c-.078.734-.749,1.331-.288,2.111.7,1.774,2.632,2.272,3.833,3.712-1.7-.662-3.315-1.771-5.058-2.292a.692.692,0,0,0-.774.512c2.03,1.506,4.437,2.4,6.347,4.157-1.312-.557-2.716-1.587-4.121-2.088-.138.06-.341-.017-.368.18l.061.14a28,28,0,0,1,5.843,3.96c.057.141.217.271.281.413a1.554,1.554,0,0,1-1.076-.628c-2.077-1.452-4.124-3.2-6.522-3.463a.335.335,0,0,0-.105.45,20.245,20.245,0,0,0,2.649,1.928c2.525,2.14,5.605,4.034,6.859,7.07l-.008.433-.3-.068a14.4,14.4,0,0,0-4.458-4.72l-.085.107c1.078,1.205,1.467,2.77,2.457,4.03a16.551,16.551,0,0,1,.734,2.162c-.693-.177-.686-1.1-.98-1.7a14.762,14.762,0,0,0-1.478-2.336c-.485-.535-.983-1.168-1.455-1.61-.149.015-.3-.019-.33.13a6.7,6.7,0,0,1-.87,6.767,14.461,14.461,0,0,1-6.887,3.591c-.257.316-.631-.037-1.055.1-4.292.209-8.87,1.993-13,1.4-.332.079-.2.506-.084.689.4.591.793,1.23,1.188,1.826-.729-.56-1.089-1.3-1.892-1.612-.168,1.317.7,2.353,1.194,3.47l2.721,3.718c-1.885-1.47-2.869-3.754-4.2-5.57-.244.509.093,1.011.138,1.491.689,1.681.965,3.592,2.344,4.914.343.552,1.25.907,1.45,1.517.468.344.976.585,1.173,1.148-1.354-.5-2.395-1.812-3.366-2.882-1.157-.425-1.041-1.8-2.108-2.322-.335.561.392,1.076.447,1.65.347.648.889,1.228,1.236,1.874-.572-.482-.794-1.281-1.5-1.557-.839-1.715-1.771-3.42-2.522-5.238-.152-.034-.32-.31-.544-.095a5.182,5.182,0,0,0,.116,2.266,6.7,6.7,0,0,0,.864,3.547,12.285,12.285,0,0,1-1.694-3.665c-.056-.042-.166-.18-.262-.167a2.332,2.332,0,0,0,.074,1.3,4.99,4.99,0,0,0,.625,2.074c-2.142-2.221-1.334-5.491-1.308-8.352-1.919-2.389-5.177-.972-7.727-1.849-.682-.033-1.343-.358-2-.154A11.033,11.033,0,0,0,66.5,99.048c-.541,3.051.326,6.12.369,9.216-.006-1.647-1.148-2.992-.667-4.588l-.239-.51c.123-1.27.034-2.714.068-3.93l-.16-.13c-.94,1.3-1.272,2.975-1.911,4.439l-.132.16-.217-.271a22.761,22.761,0,0,1,2.013-5.467c-.121-.23-.394-.061-.532.051a31.57,31.57,0,0,0-4.881,8.445,5.062,5.062,0,0,0-.538,1.5c-.386-.5.306-.9.254-1.428.74-5.056,4.458-9.858,8.712-12.582-.033-.332-.357-.2-.606-.281-2.516.571-4.285,2.869-6.057,4.681-2.725,3.5-3.777,7.861-4.192,12.208-.354-.16-.264-.749-.245-1.092a29.273,29.273,0,0,1,2.308-8.5c-.014-.144-.028-.29-.181-.374a11.6,11.6,0,0,0-3.423,5.359c-.067,1.362-.834,2.5-.7,3.893l-.045.05c-.42-.879.164-1.9.123-2.868.138-2.145,1.233-3.941,2.32-5.787,2.42-3.128,5.27-6.353,8.872-7.7a1.018,1.018,0,0,0-.726-.515c-4.442,1.67-7.819,6.006-10.772,9.671-.271.217-.136.642-.476.628a6.843,6.843,0,0,1,.569-1.168c.9-1.2,1.923-2.26,2.824-3.508a26.8,26.8,0,0,0,3.093-3.2c-.6-.231-1.222.406-1.833.608a11.389,11.389,0,0,0-4.765,5.528.16.16,0,0,1-.3-.067c.842-2.4,1.864-4.969,4.073-6.727-1.2-.9-2.486.329-3.564.72.267-.748,1.238-1.276,1.871-1.77-.368-.3-.912.133-1.275.358-1.95.909-3.217,2.919-4.886,4.233A49.545,49.545,0,0,0,46.227,105a21.657,21.657,0,0,0-.912,2.165l-.287.028c2.071-5.86,6.029-11.7,11.647-14.839,2.917-.949,6.407-1.956,9.275-.284A20.933,20.933,0,0,0,69.1,93.139c1.756.13,3.449.648,5.249.723.036-.1.13-.158.073-.25C69.2,91.629,64.006,87.85,57.96,90.01a35.348,35.348,0,0,0-5.385,1.467c-4.151,1.745-8.306,3.436-11.751,6.469a18.048,18.048,0,0,0-4.783,5.337c-.307.368-.453.87-.822,1.042l-.034-.332c2.123-4.268,6.094-6.862,9.621-9.567,3.98-3.035,9.067-4.087,13.575-6.1l.129-.209c-.515-.337-1.36-.064-2.038,0-5.016,1.242-10.026,2.579-14.041,5.762a.976.976,0,0,1-.974.481,1.8,1.8,0,0,1,.833-.949,15.265,15.265,0,0,1,3.941-2.452A7.544,7.544,0,0,0,47.9,89.635a11.426,11.426,0,0,0-3.732,1.512c-1.259.019-1.961,1.346-3.15,1.553l.016-.341c3.456-2.938,7.913-3.981,12.245-5.3l.082-.155a1.413,1.413,0,0,0-1.263-.025c-1.258.019-2.345.31-3.6.382-.278-.413.355-.372.527-.58,4.523-1.391,9.533-.6,13.8.991,5.688,2.282,11.184,5.159,17.013,6.894a28.973,28.973,0,0,0,14.68-.493c.036-.147-.033-.338-.177-.324-.29.026-.4.327-.752.219-.883-.645-1.9.465-2.7-.378-.633.49-.763-.364-1.124-.624a.364.364,0,0,1,.192-.551c.233-.119.347.112.5.2.053-.44.909-.133.651-.789-.886-1.176-2.337-1.187-3.436-2.049a4.394,4.394,0,0,0-2.738-.281c-.647.347-1.053,1.21-1.773,1.228.068-.295.136-.594-.217-.752-.5-.194-.957,1.2-1.045.244.343-.47.861-.664,1.053-1.163-.712-.374-1.276.794-1.943.952-.318-.309.368-.713-.092-1.01-.434.04-.676.549-1.08.394.06-.394,1.072-.44.45-.864-.473.091-.827.462-1.25.6-.389-.544.655-.741.275-1.236l-.675.06c.135-.155.278-.65-.161-.712-3.358-1.188-7.014-1.478-10.235-3.259a88.916,88.916,0,0,1-12.32-6.413c-1.979-1.512-4.2-3-5.049-5.34-.495-.146-.526.58-.969.476-.537-1.064,1.405-1.536.78-2.541a1.186,1.186,0,0,0-.855.706c.026.29-.2.456-.433.572-.332.082-.413-.25-.335-.5a6.313,6.313,0,0,1,1.574-1.8c-.49-.582-.892.281-1.421.332-.641.445-1.035,1.4-1.63,1.746.04-1.114,1.366-1.962,1.976-2.7-.551-.191-1.1.2-1.621.295-.509.242-.848.758-1.415.909.5-1.934,2.595-2.277,4.127-3a9.207,9.207,0,0,1,4.7.582c2.578.628,4.563,3.256,7.29,3.342a5.549,5.549,0,0,0,3.535,1.073c1.374.163,1.83,1.964,3.332,1.968,2.607-.1,4.627,1.847,7.367,1.107,2.928.214,5.571-1.052,8.391-1.458,4.272-1.466,8.828-1.936,12.632-4.278L98.437,69a9.9,9.9,0,0,0,2.629,3.24,2.493,2.493,0,0,0,1.807.169c1.818-1.28,2.722-3.544,3.865-5.3.219-.8.884-1.438,1.052-2.226-.109-.67.667-1.18.516-1.793.986-3.436,1.585-7.366.335-10.977-.109-.09-.22-.225-.352-.116-.36.81.29,1.574.174,2.406-.27.222.141.472-.031.684a11.629,11.629,0,0,1-1.056,3.78c-.279,1.138-1.156,2.14-1.438,3.282-.219-.271.33-.613-.121-.817a6.971,6.971,0,0,0-2,2.421c-.886.369-1.118,1.554-2.119,1.743a.444.444,0,0,1,0-.579,4.494,4.494,0,0,0,1.478-2.367,5.608,5.608,0,0,0,.721-3.166c.394-.427-.333-.941.068-1.365-.157-.616.169-1.273-.489-1.6a.783.783,0,0,0-.538.49A11.992,11.992,0,0,1,99.7,65.878c-.34-.017-.459.288-.686.453-.067.344.318.307.513.34.492,0,1.126-.4,1.472.157,1.576.285,2.257-1.228,3.248-2.05a6.061,6.061,0,0,1-2.637,2.378c-.467.189-.838-.161-1.235-.268-2.4.268-4.791.056-6.378-1.88a2.367,2.367,0,0,1-.923-2.147,2.059,2.059,0,0,1,.869-1.049,3.1,3.1,0,0,1,2.536,1.219,1.341,1.341,0,0,0,1.221.127c2.128-1.6,2.511-4.25,1.947-6.673-.684-1.142-2.026-.928-2.99-.884-.794.267-1.684.594-1.787,1.574-.107.444.36.743.579,1.01a1.917,1.917,0,0,1-1.475-.734,4.121,4.121,0,0,1-.121-3.381,5.578,5.578,0,0,1,1.827-1.722c-.017-.188-.217-.267-.321-.306l-3.071.285c-1.016.529-.762,1.719-.862,2.694.1,1.639.194,3.665,1.829,4.58a3.359,3.359,0,0,0,3.432-.079,1.036,1.036,0,0,1,.895-.278,28.666,28.666,0,0,1-.772,3.125,14.6,14.6,0,0,1,.236-2.154l-.321-.259c-1.847.413-4.183,1.311-5.626-.641-.14.062-.3-.118-.375.132a3.519,3.519,0,0,0,1.68,1.442,5.135,5.135,0,0,1-3.273-.862c-1.335-1.809-.9-4.517-1.208-6.716a6.961,6.961,0,0,1,5.232-5.232,33.145,33.145,0,0,1,9.283-.186c.727.029,1.461.109,2.139.093-4.864-3.857-10.48-5.9-15.346-9.812a19.1,19.1,0,0,0-6.949-2.837,13.116,13.116,0,0,1-1.832-.414c-.107-.135.082-.157.118-.254a3.165,3.165,0,0,0,1.883-.124l-.518-.341a.433.433,0,0,1,.534,0,32,32,0,0,1,4.348,1.968c.163-.352-.349-.642-.524-.968-.43-.444-1.042-.776-1.143-1.346-.183-.42-.436-.008-.695-.178-.4-.158-.544-.631-1.016-.485l-.157-.181a14.784,14.784,0,0,1,.181-5.829c-.1-.039-.11-.136-.214-.175l-.095.011c-.864,1.629-.413,3.865-.347,5.649-.4-.734-.957.624-1.1-.378-.293.025-.062.389-.24.554a2.409,2.409,0,0,1-.285-.991c-.056-2.662-.313-5.447.875-7.783.329-.126.392-.473.611-.687.126.279-.464.721.045.966.017.189-.206.4.045.481.772-.025.727-1.036,1.281-1.331-.271.749-.4,1.487-.718,2.2.019.2-.107.4.141.467l.192-.014c.434-2.122,2.212-3.837,3.929-5.159" transform="translate(19.388 11.567)" fill="#00204a"/>
      <path id="路径_512" data-name="路径 512" d="M50.924,26.688l-.029.245c-.78-.121-1.3-.993-2.009-1.312a15.533,15.533,0,0,0-4.234-1.784l-.014-.147a10.778,10.778,0,0,1,6.286,3" transform="translate(24.597 13.054)" fill="#00204a"/>
      <path id="路径_513" data-name="路径 513" d="M48.924,26.556c-.454.333-1.3.119-1.88.081A24.151,24.151,0,0,1,39.6,24.712l-.06-.143c3,1.028,6.224,1.314,9.387,1.987" transform="translate(21.786 13.538)" fill="#00204a"/>
      <path id="路径_514" data-name="路径 514" d="M55.219,25.721c-.5-.731-1.017-1.553-1.515-2.28a6.9,6.9,0,0,1,1.515,2.28" transform="translate(29.592 12.917)" fill="#00204a"/>
      <path id="路径_515" data-name="路径 515" d="M49.191,25.973c-1.214-.031-2.41-.889-3.69-1.109-.543-.141-1.1-.38-1.641-.478a19.448,19.448,0,0,1,5.331,1.587" transform="translate(24.168 13.437)" fill="#00204a"/>
      <path id="路径_516" data-name="路径 516" d="M47.262,25.774a14.537,14.537,0,0,1-4.2-.918l-.012-.144a23.973,23.973,0,0,1,4.216,1.062" transform="translate(23.72 13.617)" fill="#00204a"/>
      <path id="路径_517" data-name="路径 517" d="M47.618,27.163c-.363.276-1.011.1-1.492.092a53.821,53.821,0,0,1-6.854-1.787c1.084-.343,2.221.423,3.391.51a33.457,33.457,0,0,0,4.956,1.185" transform="translate(21.64 13.985)" fill="#00204a"/>
      <path id="路径_518" data-name="路径 518" d="M64.98,23.233a1.87,1.87,0,0,1-.371,1.2,6.733,6.733,0,0,1-.442,2.029,5.71,5.71,0,0,1,.765-3.225Z" transform="translate(35.333 12.802)" fill="#00204a"/>
      <path id="路径_519" data-name="路径 519" d="M74.156,22.471a16.525,16.525,0,0,0-3.681,1.506,7.557,7.557,0,0,1,3.681-1.506" transform="translate(38.834 12.382)" fill="#00204a"/>
      <path id="路径_520" data-name="路径 520" d="M65.725,23.5a8.75,8.75,0,0,1-.563,2.765,4.565,4.565,0,0,1,.563-2.765" transform="translate(35.886 12.948)" fill="#fff"/>
      <path id="路径_521" data-name="路径 521" d="M74.081,23.039c-.74.36-1.812.315-2.325,1.042l-.191.014c-.084-.33.422-.667.7-.788a4,4,0,0,1,1.818-.268" transform="translate(39.429 12.688)" fill="#00204a"/>
      <path id="路径_522" data-name="路径 522" d="M46.1,27.3l.254.171a17.686,17.686,0,0,1-6.482-.993A41.894,41.894,0,0,0,46.1,27.3" transform="translate(21.97 14.589)" fill="#00204a"/>
      <path id="路径_523" data-name="路径 523" d="M63.729,24.574a12.341,12.341,0,0,0,.3,3.749c.225-.7.085-1.7.5-2.417a22.088,22.088,0,0,0,.09,5.123c-1.193-1.874-.921-4.177-1.038-6.445Z" transform="translate(35.036 13.541)" fill="#00204a"/>
      <path id="路径_524" data-name="路径 524" d="M76.087,23.789c-.962.572-2.46.613-3.4,1.427.067-.876,1.179-.886,1.768-1.325a8.611,8.611,0,0,1,1.636-.1" transform="translate(40.05 13.101)" fill="#00204a"/>
      <path id="路径_525" data-name="路径 525" d="M45.474,27.854l0,.047a19.292,19.292,0,0,1-6.3-.624l-.2-.031a58.385,58.385,0,0,0,6.5.608" transform="translate(21.475 15.013)" fill="#00204a"/>
      <path id="路径_526" data-name="路径 526" d="M53.292,26.2c1.222,1.678,2.593,3.394,2.787,5.5-.515-.338-.543-1.159-.889-1.708a29.188,29.188,0,0,1-2.043-3.783Z" transform="translate(29.286 14.437)" fill="#fff"/>
      <path id="路径_527" data-name="路径 527" d="M75.533,24.373a16.968,16.968,0,0,1-2.393.852c.073-.248.4-.329.679-.5.572-.1,1.07-.487,1.714-.351" transform="translate(40.302 13.414)" fill="#00204a"/>
      <path id="路径_528" data-name="路径 528" d="M44.313,28.475a20.339,20.339,0,0,1-5.709-.44l.088-.1c1.779.364,3.831.033,5.621.543" transform="translate(21.272 15.391)" fill="#00204a"/>
      <path id="路径_529" data-name="路径 529" d="M22.468,30.736c.157.133-.025.292-.06.394l-1.976.624a7.3,7.3,0,0,1-2.688-1.3c.561-.2,1.413.645,1.666-.3a31.041,31.041,0,0,1,3.059.585" transform="translate(9.777 16.614)" fill="#fff"/>
      <path id="路径_530" data-name="路径 530" d="M76.616,24.864c-.313.8-1.294.648-1.9.946.039-.1-.065-.138-.118-.23-.245-.028-.375.132-.515.192l-.059-.092c.386-.568,1.263-.506,1.871-.754Z" transform="translate(40.791 13.701)" fill="#00204a"/>
      <path id="路径_531" data-name="路径 531" d="M42.932,28.893a4.9,4.9,0,0,1-1.874.174c-1.334-.262-2.451-.306-3.78-.52l.043-.053a33.035,33.035,0,0,1,5.61.4" transform="translate(20.542 15.701)" fill="#00204a"/>
      <path id="路径_532" data-name="路径 532" d="M38.373,29.572l3.378.364c-2.24-.13-4.428.315-6.443-.513-.371-.357-1.039-.244-1.213-.566,1.5-.043,2.821.659,4.278.715" transform="translate(18.787 15.9)" fill="#00204a"/>
      <path id="路径_533" data-name="路径 533" d="M32.874,30.508c-.168.791-1.211.5-1.819.751a65.924,65.924,0,0,0-16.038,6.722c.889-.859,2.631-1.405,3.684-2.569a55.252,55.252,0,0,1,13.435-5.028c.244.026.527-.047.738.124" transform="translate(8.275 16.742)" fill="#00204a"/>
      <path id="路径_534" data-name="路径 534" d="M41.288,30.319a21.812,21.812,0,0,1-6.721-.389l.043-.054c2.216-.109,4.4.512,6.677.444" transform="translate(19.047 16.455)" fill="#00204a"/>
      <path id="路径_535" data-name="路径 535" d="M55.111,28.152A7.332,7.332,0,0,1,56.186,31.4c-.23.119-.357-.211-.506-.244.07-.3.222-.748-.047-1.011a5.14,5.14,0,0,1-.616-1.979Z" transform="translate(30.316 15.513)" fill="#fff"/>
      <path id="路径_536" data-name="路径 536" d="M39.5,31.038a16.962,16.962,0,0,1-6.35-.577c.9-.225,1.916.262,2.936.31,1.121.092,2.283.079,3.414.267" transform="translate(18.265 16.752)" fill="#00204a"/>
      <path id="路径_537" data-name="路径 537" d="M34.8,31.249c-.031.2-.228.166-.315.27a24.039,24.039,0,0,0-15.749,7.229l-.057-.092c.158-.4.763-.651.478-1.111-.419-.883-1.394-.4-2.064-.338.484-.532,1.3-.608,1.889-1.05,5.038-2.068,9.944-4.509,15.819-4.909" transform="translate(9.418 17.219)" fill="#00204a"/>
      <path id="路径_538" data-name="路径 538" d="M37.264,31.651a13.25,13.25,0,0,1-4.552-.543c1.6,0,3.042.444,4.552.543" transform="translate(18.025 17.141)" fill="#00204a"/>
      <path id="路径_539" data-name="路径 539" d="M38.136,33.05c-1.608-.1-3.319-.758-4.99-1.038a9.343,9.343,0,0,1-1.536-.343,1.157,1.157,0,0,1-.827-.068,2.289,2.289,0,0,1,1.795.028c1.942.064,3.673.968,5.557,1.421" transform="translate(16.963 17.314)" fill="#00204a"/>
      <path id="路径_540" data-name="路径 540" d="M39.113,33.5c1.7.568,3.231,1.446,4.932,2.012-.675.067-1.469-.684-2.261-.369a33.8,33.8,0,0,0-5.959-2.064,18.7,18.7,0,0,0-8.1-.647c3.029-1.3,6.195-.045,9.246.445Z" transform="translate(15.277 17.556)" fill="#00204a"/>
      <path id="路径_541" data-name="路径 541" d="M77.345,29.3l.019.192a5.947,5.947,0,0,0-4.309-.47c-.253-.121-.842.27-.887-.211a5.133,5.133,0,0,1,4.27-.444Z" transform="translate(39.767 15.485)" fill="#fff"/>
      <path id="路径_542" data-name="路径 542" d="M48.643,35.813a47.116,47.116,0,0,0,5.464.946l0,.05A23.553,23.553,0,0,1,48,36.214a.217.217,0,0,0,.025.24c2.3,1.286,4.988,1.036,7.585.844.479-.045.85-.226,1.312.025.116.228-.172.257-.261.364-1.543.042-2.409.656-3.913.6a.236.236,0,0,0-.166.3c.366.309.932.157,1.124.624,1.484.344,2.7,1.492,4.144,1.889,2.342,1.72,5.193,2.182,7.507,3.615a10.929,10.929,0,0,1-2.752-.959c-4.521-1.708-8.779-4.267-13.371-5.728-.143.012-.34-.019-.475.088,2.81,1.581,5.767,2.613,8.528,4.2,2.637,1.259,4.469,3.266,7.178,4.275.436.49,1.194.324,1.442.931l-.575.053c-2.877-.748-5.275-3.091-8.039-4.144l-.087.109c1.943,2.14,4.557,3.693,6.989,5.354,1.049.34,1.928.935,2.987,1.368l.012.144c-.631.012-1.016-.482-1.556-.582-.7-.223-1.325-.7-2.023-.878-.175.161.076.284.1.476-.641-.087-1.339-.844-2.037-.538a30.312,30.312,0,0,0,3.211,2.223c-.6.3-1.387-.307-2-.154.51.295.948.833,1.576.82,1.363.6,2.894.893,4.206,1.45-.13.158-.485,0-.512.244l.154.081a17.7,17.7,0,0,1-6.786-2.662c.023-.247.3-.417.484-.529a.839.839,0,0,0,.668-.064c-.341-.549-.971-.543-1.314-1.135-.741-.659-1.688-.957-2.423-1.567.76-.172,1.425.74,2.246.71l-.019-.194A61.948,61.948,0,0,0,55.8,44.982c.24-.506.684.082,1.016,0a15.42,15.42,0,0,0,3.944,2.3l.087-.1a24.657,24.657,0,0,0-3.305-2.212,14.659,14.659,0,0,0-4.763-2.755c-.085.1-.166.257-.02.295.834.645,1.976.928,2.6,1.939-.67.107-1.207-.473-1.847-.6a23.248,23.248,0,0,0-3.021-.69.191.191,0,0,0-.065.3l.15.082c-1.674-.278-3.352-1.138-5.1-1.219a2.161,2.161,0,0,0-1.446.085c1.36.552,2.86.557,4.217,1.064-1.911-.212-3.935-.653-5.9-.957a35.2,35.2,0,0,0-5.163-.292c-.033.147-.282.071-.217.259,1.064.485,2.258.326,3.358.706,3.215,1.2,6.764,1.359,9.916,2.955l.011.092c-1.529-.288-2.894-.89-4.42-1.134-1.985-.008-4.228-.186-6.156.475-.1.447.549.192.763.368a1.821,1.821,0,0,1,.889.2c-.168.259-.58.006-.914.037-.25-.074-.423-.4-.651-.228-.045.053-.09.057-.043.1l.163.177a1.806,1.806,0,0,0-1.08.346l.323.358a12.969,12.969,0,0,1-2.71.541c-.512.24-1.2.158-1.649.492.012.144.113.186.214.223a45.263,45.263,0,0,1,9,.906c-1.585.146-3.2-.572-4.974-.357a14.534,14.534,0,0,0-5.2.333l-.088.107.262.219a27.745,27.745,0,0,1,8.22.881c-1.653-.088-3.192-.478-4.883-.417-2.475-.06-5.114-.3-7.563.462.538-.49,1.729-.161,1.678-1.222l-.036-.385c1.472-.864,3.313-.844,4.849-1.517l-.216-.225c-1.3.026-2.424.472-3.58.532-.073-.237.219-.216.307-.323,1.467-.38,3.15-.487,4.517-.9.037-.149-.169-.275-.318-.312-3.822-.464-7.617-.113-10.721,1.922a26.91,26.91,0,0,0-3.646,2.471c4.335-4.425,11-5.674,17.046-5.8a.447.447,0,0,0,.524-.1l-.116-.181c-3.819-1.486-8.566-2.018-12.608-.188-.1-.039-.2-.029-.254-.121l.307-.318c4.413-2.058,10.134-2.493,14.936-1.923l.375-.133A14.663,14.663,0,0,0,38.83,40.7a26.2,26.2,0,0,0-7.608-.02c-.1-.084-.31-.211-.127-.327,7.436-.788,14.212,1.245,21.006,2.939.332-.081.656.278.918-.037-.763-.9-1.9-1.179-2.877-1.765-3.161-1.691-6.718-1.9-10.17-2.592a25.736,25.736,0,0,0-5.477-.023l-.009-.1c1.083-.341,2.493-.278,3.535-.52-.216-.273-.8-.268-1.236-.273-5.753.147-10.119,3.17-14.564,5.908-1.138,1.269-2.57,2.032-3.6,3.479l.028-.242c2.613-3.149,5.734-6.055,9.416-7.609a17.827,17.827,0,0,1,8.9-1.7c2.1.194,4.138.731,6.277.82.585.043,1.062.482,1.622.239-.437-.493-1.211-.518-1.819-.8a28.12,28.12,0,0,0-7.1-1.376c-3.347-.56-6.761.726-9.523,2.289a57.81,57.81,0,0,0-5.01,3.423c-.073-.769,1.007-1.157,1.539-1.7,2.665-1.553,5.087-3.619,8.331-4.165,3.153-.485,6.514-1.331,9.6-.406.377-.085,1.086.234,1.233-.264-5.849-1.97-13.1-1.346-18.141,2.319-1.348,1.142-2.747,2.241-4.042,3.429a19.793,19.793,0,0,1,7.8-5.716c2.1-1.4,4.985-1.577,7.586-1.723a31.866,31.866,0,0,1,5.829.67.3.3,0,0,0,.116-.3c-2.693-1.349-5.926-1.241-8.954-1.491a17.306,17.306,0,0,0-7.864,2.958,31.915,31.915,0,0,0-3.6,2.948l.022-.29c3.648-3.487,7.916-6.016,13.241-6.077,5.137.057,9.54,2.6,14.536,3.2" transform="translate(10.26 17.971)" fill="#00204a"/>
      <path id="路径_543" data-name="路径 543" d="M62.774,30.355c-.146.5-.8.655-1.211.983-.651.3-.935,1.446-1.68,1.221-.071-.284.3-.417.326-.659a.222.222,0,0,1-.022-.24c.766-.606,1.557-1.5,2.587-1.3" transform="translate(32.992 16.711)" fill="#00204a"/>
      <path id="路径_544" data-name="路径 544" d="M52.1,31.685c.228.9-.67,1.129-1.159,1.61-.295-.02-.727.019-.8-.313a1.592,1.592,0,0,1,.783-1.477c.38-.084.945-.234,1.18.18" transform="translate(27.62 17.307)" fill="#fff"/>
      <path id="路径_545" data-name="路径 545" d="M72.482,30.468c-.38.614-.088,1.126-.268,1.767-.434.04-.478-.439-.789-.653-.509-.774.4-.862.74-1.424.189-.065.211.174.318.31" transform="translate(39.274 16.612)" fill="#fff"/>
      <path id="路径_546" data-name="路径 546" d="M74.022,30.6a1.2,1.2,0,0,1-.644,1.415c-.183.115-.36.327-.619.11-.181-.374-.577-.966-.236-1.483.414-.233,1.112-.541,1.5-.042" transform="translate(39.889 16.714)" fill="#fff"/>
      <path id="路径_547" data-name="路径 547" d="M54.807,32.44c-.2.988-.577,2.139-1.667,2.382-1.013.051-2.043.434-2.654-.428-.231-.368-.7-.76-.541-1.115,1.087-.292,1.728.861,2.8.372.641-.4,1.444-.617,1.762-1.326.11.09.285-.074.3.115" transform="translate(27.503 17.812)" fill="#fff"/>
      <path id="路径_548" data-name="路径 548" d="M42.162,37.75c.827.552,1.959.735,2.621,1.6a11.936,11.936,0,0,1,2.846,1.964c-1.176-.133-2.269-.951-3.42-1.328-3.625-1.506-7.121-3.164-10.815-4.321-.349-.115-.729-.031-1.042-.247l.124-.253a32.461,32.461,0,0,1,9.686,2.589" transform="translate(17.827 19.375)" fill="#fff"/>
      <path id="路径_549" data-name="路径 549" d="M50.532,35.033c.333-.033.52.389.862.4a11.294,11.294,0,0,0,2.7.425c-.425.624-1.365.42-2.047.385a4.907,4.907,0,0,1-2.773-.659c-.423-.4-1.323-.7-1.3-1.43.527-.583,1.01.439,1.619.234Z" transform="translate(26.438 18.721)" fill="#fff"/>
      <path id="路径_550" data-name="路径 550" d="M58.1,33.315c.036.914-1.218,1.515-1.531,2.319a5.38,5.38,0,0,1-3.425,1.191c1.09-.78,2.516-1.107,3.479-2.164.53-.532.712-1.23,1.477-1.346" transform="translate(29.284 18.357)" fill="#fff"/>
      <path id="路径_551" data-name="路径 551" d="M74.064,33.008c.876.064,1.546-.53,2.351-.749.095.523-.622,1.12-.979,1.447a2.421,2.421,0,0,1-2.08.048A2.484,2.484,0,0,1,72.2,32.7a.628.628,0,0,1,.23-.651c.769-.071.94.741,1.639.963" transform="translate(39.77 17.655)" fill="#fff"/>
      <path id="路径_552" data-name="路径 552" d="M78.364,32.609a5.832,5.832,0,0,1-2.579,3c-.417-.3-1.4.082-1.269-.659a4.7,4.7,0,0,0,3.167-2.862.934.934,0,0,1,.681.52" transform="translate(41.054 17.682)" fill="#fff"/>
      <path id="路径_553" data-name="路径 553" d="M9.41,41.928a7.772,7.772,0,0,1,1.923-2.209Z" transform="translate(5.185 21.886)" fill="#00204a"/>
      <path id="路径_554" data-name="路径 554" d="M60.411,35.832c.107.617-.758,1.185-.509,1.793l.526-.051a20.647,20.647,0,0,1-1.694,3.645c.208.174.329-.13.563-.2a5.014,5.014,0,0,1,1.469-1.393,10.122,10.122,0,0,1-4.121,3.1c.236-.6,1-.678,1.4-1.149A10.268,10.268,0,0,0,59.916,38.3c-.56-.29-.828.462-1.3.6a14.864,14.864,0,0,1-2.59,2.855l-.059-.043a11.231,11.231,0,0,0,2.054-2.466c-.862.129-1.45,1.1-2.367,1.138.245-.5.848-.752,1.041-1.306a7.663,7.663,0,0,0-1.858.853,6.692,6.692,0,0,1-2.683.827,14.372,14.372,0,0,0,6.877-4.175c.715.374.814-.606,1.38-.754" transform="translate(28.738 19.744)" fill="#00204a"/>
      <path id="路径_555" data-name="路径 555" d="M55.863,37.245a3.536,3.536,0,0,1-1.25,1.135,4.116,4.116,0,0,1-2.547.768,6.87,6.87,0,0,0,3.64-2.032Z" transform="translate(28.69 20.452)" fill="#00204a"/>
      <path id="路径_556" data-name="路径 556" d="M16.239,44.822l-.192.022a39.464,39.464,0,0,1,3.82-4.234c-1.014,1.6-2.564,2.66-3.628,4.213" transform="translate(8.842 22.377)" fill="#00204a"/>
      <path id="路径_557" data-name="路径 557" d="M39.184,40.343c-.1.009-.143.014-.186.068l.009.1a5.392,5.392,0,0,1,2.086.58,46.66,46.66,0,0,1-4.709-1.162c-.6-.188-1.294-.363-1.843-.555,1.689-.06,3.071.729,4.642.972" transform="translate(19.034 21.692)" fill="#00204a"/>
      <path id="路径_558" data-name="路径 558" d="M70.206,37.494c-1.888,1-2.662,3.105-3.659,4.9-.23.113-.157-.135-.264-.219.757-1.77,2.013-3.918,3.923-4.678" transform="translate(36.524 20.66)" fill="#00204a"/>
      <path id="路径_559" data-name="路径 559" d="M68.314,37.924c-.06.392-.579.54-.639.932A5.043,5.043,0,0,0,66.5,40.8a.689.689,0,0,1-.278.127c-.217-.222.06-.392.04-.586a8.29,8.29,0,0,1,2.052-2.42" transform="translate(36.444 20.897)" fill="#00204a"/>
      <path id="路径_560" data-name="路径 560" d="M71.808,38.035a12.359,12.359,0,0,0-4.469,6.083l-.146.012c-.365-.788.929-1.439.234-2.2l-.526.63-.047-.479,1.506-2.562c.8.267,1.163-1.076,1.929-.614.628-.009.9-.76,1.517-.867" transform="translate(36.84 20.958)" fill="#00204a"/>
      <path id="路径_561" data-name="路径 561" d="M85.952,41.278c.087.478-.489.482-.836.419-1.14.25-2.424-.019-3.515.226-1.142-.281-2.041.968-3.006-.008-1.807-.172-3.315-1.245-5.05-1.712.068-.3.445-.427.723-.552a17.013,17.013,0,0,1,6.905.281l.093-.056a19.856,19.856,0,0,0-4.571-.693c.15-.5.954-.136,1.315-.461,2.778.181,6.8-.777,7.941,2.556" transform="translate(40.525 21.337)" fill="#fff"/>
      <path id="路径_562" data-name="路径 562" d="M76.866,41.06c-1.334-.313-2.795-.372-4.174-.633-.031-.337.3-.459.476-.574a8,8,0,0,1,3.7,1.207" transform="translate(40.054 21.96)" fill="#fff"/>
      <path id="路径_563" data-name="路径 563" d="M36.577,44.418l.009.1a33.266,33.266,0,0,0-9.024.355c1.708-.884,3.806-.741,5.736-.824a17.511,17.511,0,0,1,3.279.371" transform="translate(15.187 24.271)" fill="#00204a"/>
      <path id="路径_564" data-name="路径 564" d="M75.932,40.812l.012.143-3.758.254c-.095-.04-.056-.144-.074-.285.551-.876,1.765-.313,2.632-.343.358.161.822-.026,1.188.231" transform="translate(39.736 22.278)" fill="#fff"/>
      <path id="路径_565" data-name="路径 565" d="M37.625,44.811a33.768,33.768,0,0,0-5.868.45,26.047,26.047,0,0,1-2.629.388c2.5-1.249,5.77-.971,8.5-.838" transform="translate(16.05 24.624)" fill="#00204a"/>
      <path id="路径_566" data-name="路径 566" d="M37.322,45.951l-.136.11a49.01,49.01,0,0,0-7.24-.248l.414-.233a26.272,26.272,0,0,1,6.963.371" transform="translate(16.501 25.067)" fill="#00204a"/>
      <path id="路径_567" data-name="路径 567" d="M38.219,47.227l.006.095c-2.587-.242-5.14-.588-7.772-.779.166-.3.706-.214,1.048-.2,2.3.225,4.546.45,6.718.879" transform="translate(16.78 25.524)" fill="#00204a"/>
      <path id="路径_568" data-name="路径 568" d="M81.58,42.406c.191-.017.3.116.458.25.129-.211-.043-.484.281-.61a.551.551,0,0,1,.655.278c.237.949-.56,1.746-1.185,2.339-.465.191-.889.861-1.458.427a6.4,6.4,0,0,0-.445-2.136.587.587,0,0,1,.369-.763c.734-.406.7,1.294,1.326.216" transform="translate(44.005 23.149)" fill="#fff"/>
      <path id="路径_569" data-name="路径 569" d="M41.709,47.786l.008.1A30.376,30.376,0,0,0,30.084,50.9c-4.04,1.875-7.084,5.6-10.021,8.923-.875,1.537-2.33,3.077-3.1,4.7a41.131,41.131,0,0,1,5.382-7.768c4.821-5.438,10.794-8.951,18.437-9.03.3.023.634.037.928.06" transform="translate(9.347 26.298)" fill="#00204a"/>
      <path id="路径_570" data-name="路径 570" d="M76.529,45.133a8.939,8.939,0,0,1-.318,2.84c-.275-.847.143-1.562-.088-2.461-.419-.347-1.011,0-1.48-.3l0-.05c.628-.011,1.354-.561,1.889-.033" transform="translate(41.129 24.743)" fill="#00204a"/>
      <path id="路径_571" data-name="路径 571" d="M72.81,49.046l.017.194a5.754,5.754,0,0,1-2.713,2.046,11.659,11.659,0,0,0,2.353-2.3c.141-.014.282-.076.343.062" transform="translate(38.635 26.977)" fill="#00204a"/>
      <path id="路径_572" data-name="路径 572" d="M73.456,49.255c-.158,1.416-1.762,1.908-2.655,2.716-.186.07-.408.281-.565.155a14.747,14.747,0,0,0,2.98-2.848Z" transform="translate(38.702 27.141)" fill="#00204a"/>
      <path id="路径_573" data-name="路径 573" d="M37.117,53.189c-.648.836-1.942,1.008-2.848,1.674-5.581,2.99-10.521,7.71-14.8,12.757-.409.811-1.011,1.643-1.424,2.41L18.01,69.6c1.894-4.1,5.641-8.081,9.213-10.837,1.329-.8,2.541-1.835,3.874-2.589a54.723,54.723,0,0,1,6.02-2.984" transform="translate(9.924 29.309)" fill="#00204a"/>
      <path id="路径_574" data-name="路径 574" d="M74.7,50.121c-.028.245-.257.364-.14.594.318.793,1.658-.4.9.791.62,1,1.152-.641,1.813.268.389.009.416.3.346.6-.16.351-.428,1.1-.91.613-.5.872-1.427.281-2.08.534-.693-.177-.982.914-1.681.69.343-.467.741-.892,1.177-1.419-.462-.248-.838.906-1.286.216-.472.14-.859.713-1.45.619.065-.4.6-.344.864-.658a1.819,1.819,0,0,0,.534-.49c-.073-.282-.4-.157-.608-.282-.9.234-1.508.965-2.413,1.146,1.289-1.281,3.071-1.881,4.332-3.454a.964.964,0,0,1,.6.234" transform="translate(38.442 27.489)" fill="#00204a"/>
      <path id="路径_575" data-name="路径 575" d="M48.642,55.212a13.964,13.964,0,0,0,2.244,3.811c-.327.129-.527.582-.883.374a9.99,9.99,0,0,1-3.142-4.6c.1-.495.088-1.123.6-1.362,1.1-.154.785,1.182,1.179,1.777" transform="translate(25.822 29.437)" fill="#fff"/>
      <path id="路径_576" data-name="路径 576" d="M80.021,52.528c-.285.076-.453-.2-.571-.385.034-.147-.168-.276-.262-.262-.146.541.288,1.036.389,1.608-.155-.082-.47-.344-.63.009a2.066,2.066,0,0,1-.7-1.774c.234-.6.875.06,1.059-.586.368.309.811.943.71,1.39" transform="translate(43.098 28.178)" fill="#00204a"/>
      <path id="路径_577" data-name="路径 577" d="M78.338,51.572a4.6,4.6,0,0,0,.845,2.34c-.476.095-.459-.777-1.066-.53-.214-.22-.15-.565-.364-.791-.126.211-.351.377-.56.248a1.239,1.239,0,0,1-.14-1.005.386.386,0,0,1,.411-.231c.168.177.084.33.057.574l.152.084c.278-.172.15-.98.664-.689" transform="translate(42.434 28.383)" fill="#00204a"/>
      <path id="路径_578" data-name="路径 578" d="M42.486,57.224a5.133,5.133,0,0,1-1.511.431c-4.678,1.793-9.218,4-12.777,7.92C24.73,68.9,22.24,73.393,20.405,77.636c-.05-.527.445-.962.391-1.537,1.114-2.092,2.175-4.225,3.384-6.322A31.65,31.65,0,0,1,38.973,57.987c1.253-.07,2.26-.695,3.513-.763" transform="translate(11.242 31.532)" fill="#00204a"/>
      <path id="路径_579" data-name="路径 579" d="M54.676,57.457c.257.166.343.546.678.516.5-.29.05-1.022.668-1.129.543.628.521,1.94,1.438,1.9.262-.27.043-1.12.689-.889,1.149.865,2.024,2.962,3.668,2.468.369-.178.9-.763,1.252-.116l4.849,4.734-.13.157c-1.266-.608-2.714-.571-3.941-1.232-3.1-.487-5.93-1.774-8.839-2.862-.637-.569-1.574-.771-2.216-1.439l.082-.1c2.21.326,4.276,1.151,6.451,1.629.042-.1.132-.16.073-.248a3.6,3.6,0,0,1-2.22-.957A11.894,11.894,0,0,1,53.319,58.5c-.707-.321-.034-.914-.273-1.376.354-.374-.028-1.352.814-1.142Z" transform="translate(29.089 30.832)" fill="#fff"/>
      <path id="路径_580" data-name="路径 580" d="M48.663,57.42l0,.043c-1.681.16-3.059,1.011-4.586,1.2A41.632,41.632,0,0,0,33.1,64.629a21.5,21.5,0,0,0-5.033,6.812l-.191.019c.25-.945.9-1.781,1.2-2.679a27.083,27.083,0,0,1,8.025-7.965,23.114,23.114,0,0,1,8.841-3.387,16.688,16.688,0,0,0,2.713-.009" transform="translate(15.363 31.64)" fill="#00204a"/>
      <path id="路径_581" data-name="路径 581" d="M42.894,59.057c-3.4.9-6.959,2.2-9.469,4.948l-.279.078c2.309-3.268,6.044-4.245,9.748-5.025" transform="translate(18.264 32.542)" fill="#00204a"/>
      <path id="路径_582" data-name="路径 582" d="M60.959,57.311c1.545,1.022,2.823,2.744,4.7,3.15,1.214.031.872-1.585,2.026-1.691,3.256-.4,5.134,3.107,6.451,5.308a28.942,28.942,0,0,0,6.224,7.561c.143-.546-.563-.819-.85-1.328A10.565,10.565,0,0,1,76.839,61.4c.332-.61.406-1.391,1.149-1.748,3.446-.423,5.059,3.4,6.677,5.671.537.579.721,1.534,1.433,1.853.186-.549-.43-.928-.754-1.331a34.209,34.209,0,0,1-2.686-5.906,1.3,1.3,0,0,1,.589-1.508c2.3-.842,4.247.867,5.557,2.438,1.373,1.764,1.737,4.1,2.652,6.147a.419.419,0,0,0,.451.2l.222-.793.194.028a5.128,5.128,0,0,1-1.211,4.665c-2.143,1.993-4.786,2.674-7.854,3.056a5.132,5.132,0,0,1-3.865-1.964l-.506-.295c-1.774-1.867-2.947-4.036-4.993-5.734-1.5-1.506-3.74-2.7-5.9-1.97-.81.175-1.442,1.152-2.319.554-2.423-1.567-3.833-4.2-5.54-6.412a2.436,2.436,0,0,1-.287-1.039c.259-.312.8-.169,1.112-.006" transform="translate(32.977 31.482)" fill="#fff"/>
      <path id="路径_583" data-name="路径 583" d="M43.874,59.629a30.181,30.181,0,0,0-6.424,2.292A30.355,30.355,0,0,0,33.982,63.7l.036-.149c2.6-2.229,5.854-3.208,9.229-3.909Z" transform="translate(18.725 32.857)" fill="#00204a"/>
      <path id="路径_584" data-name="路径 584" d="M81.083,62.278c.333.986,1.235,1.821.941,2.817l-.191.019c-.264-2.3-1.964-3.885-3.06-5.818-.211-.175-.468-.344-.5-.633a10.716,10.716,0,0,1,2.806,3.615" transform="translate(43.133 32.325)" fill="#fff"/>
      <path id="路径_585" data-name="路径 585" d="M67.212,63.771c1.025.1,2.179-.008,3.015.639,1.033.2,2.029-.045,3.035.347.355-.324.6.233.945.251a5.544,5.544,0,0,1,2.862,1.624l.014.141c-.907.135-1.779-.364-2.738-.276-2.418-.454-4.88-.9-7.305-1.452-2.336-.655-4.51-1.615-6.854-2.317a10.208,10.208,0,0,1-2.772-1.68l.138-.113c3.194,1.017,6.612,1.326,9.66,2.835" transform="translate(31.637 33.577)" fill="#fff"/>
      <path id="路径_586" data-name="路径 586" d="M57.174,67.518c-2.111,2.327-5.564,2.164-7.671,4.493l-.047.051c-.095.009-.062-.14-.064-.186,1.089-1.317,2.161-2.82,3.691-3.491.043-.1-.057-.146-.164-.23-.532,0-1.14.253-1.6-.043.8-1.286,2.689-1.267,4.05-1.249a18.872,18.872,0,0,1,1.805.655" transform="translate(27.214 36.841)" fill="#fff"/>
      <path id="路径_587" data-name="路径 587" d="M67.219,67.617c.1.039.163.226.3.166.307-.369-.082-.917.275-1.238.186-.067.355.209.375.4.61.282,1.329-.8,1.65.042.3.6.883-.422,1.047.288.262.267.558-.2.865-.033a3.37,3.37,0,0,0,.82,1.523c-.279.123-.675.016-.738.411l.023.237c-.585-.043-.624-1.494-1.225-.665a.319.319,0,0,0,.068.191c-.04.1-.14.061-.236.07-.32-.313-.678.016-.962-.444-.454-.155-.844.8-1.117,0a.736.736,0,0,0-.771.023c-.8-.262-.636-1.1-.833-1.663a.211.211,0,0,1,.168-.307,2.63,2.63,0,0,1,.285.991" transform="translate(36.779 36.663)" fill="#00204a"/>
      <path id="路径_588" data-name="路径 588" d="M61.661,69.775a11.491,11.491,0,0,0-.416,2.261c0,.58-.042,1.118-.042,1.652-.2-.079-.332-.454-.409-.737a7.611,7.611,0,0,1,.47-3.29c.15.036.285-.076.4.113" transform="translate(33.492 38.385)" fill="#00204a"/>
      <path id="路径_589" data-name="路径 589" d="M63.234,70c.189.465-.15.979-.2,1.47a9.381,9.381,0,0,0,.437,3.642,1.216,1.216,0,0,1-.378-.935c-.157-.614-.029-1.351-.737-1.674-.2-.031-.422.136-.585-.045.178-.695-.163-1.776.462-2.319.4.11.6-.347,1-.14" transform="translate(34.037 38.541)" fill="#00204a"/>
      <path id="路径_590" data-name="路径 590" d="M52.869,80.92c.388-2.075.335-4.2.881-6.185l.256-.316c-.433,2.125-.808,4.285-1.137,6.5" transform="translate(29.132 41.006)" fill="#00204a"/>
      <path id="路径_591" data-name="路径 591" d="M41.983,76.727a14.8,14.8,0,0,1-.656,2.336c-.2.937-.458,1.835-.565,2.765a10.7,10.7,0,0,1,1.221-5.1" transform="translate(22.453 42.279)" fill="#00204a"/>
      <path id="路径_592" data-name="路径 592" d="M25.192,80.98c-.655,1.269-.71,2.775-1.514,4.016a9.245,9.245,0,0,1,1.472-4.448Z" transform="translate(13.047 44.384)" fill="#fff"/>
      <path id="路径_593" data-name="路径 593" d="M165.608,75.17c-1.374.554-3.184,1.864-5,7.149a41.758,41.758,0,0,1-2.375,4.7c-.028-.1-.048-.242-.078-.337-.99-3.17-4.253-5.677-9.315-4.133-4.012,1.225-7.67,4.366-10.26,8.607a9.381,9.381,0,0,0,.994-4,7.087,7.087,0,0,0-.312-2.111,6.325,6.325,0,0,0-3.06-3.778,5.787,5.787,0,0,0-4.419-.444A8.555,8.555,0,0,0,127,85.147a10.175,10.175,0,0,0-1.249,4.745,7.843,7.843,0,0,0,.261,1.795,14.338,14.338,0,0,0-2.8,3.037,22.947,22.947,0,0,0-2.148,3.946,7.618,7.618,0,0,0-6.665-4.107c.924-2.252,1.7-4.186,2.192-5.506l.248-.645c.783-2.026,1.672-4.323.985-6.615a5.553,5.553,0,0,0-2.7-3.377,5.236,5.236,0,0,0-4.054-.323c-1.529.481-2.71,1.5-4.332,3.774-2.185,2.962-5.714,8.717-9.923,19.048l-1.9,5.1-.422,1.266c-.185.532-.323.878-.484,1.323a17.558,17.558,0,0,0-3.927-6.595c-3.192-3.347-6.263-2-7.127-1.508-2.2,1.263-3.662,3.56-4.593,7.234a25.012,25.012,0,0,1-2.506,5.415,7.544,7.544,0,0,0-.27-1.684c-1.214-4.011-4.4-5.05-6.851-4.32-1.836.583-3.11,1.853-4.608,4.543.008-.014-.5.887-1.022,1.815-1.131-1.25-3.251-2.41-7.066-1.25-2.423.74-4.278,2.592-6.109,5.962-.147,0-.293-.009-.44-.009.726-2.221,1.478-4.526,1.478-4.526a58.668,58.668,0,0,0,1.84-6.6,14.01,14.01,0,0,0,.33-2.637,5.684,5.684,0,0,0-.285-1.762,5.011,5.011,0,0,0-6.431-3.4l-.02,0c-2.412.783-3.449,3-4.465,5.6,0,0-.2.512-.509,1.306-1.168-4.638-4.493-6.39-8.456-6.365a17.009,17.009,0,0,0-5.021,1.035c-5.287,1.6-14.662,6.634-22.682,13.9-3.7,3.356-4.872,5.339-5.211,8.856a14.438,14.438,0,0,0,.624,5.548A5.834,5.834,0,0,0,7.8,133.456a8.218,8.218,0,0,0,2.961-1.765l2.573-2.345,1.841-1.706c0,.006.572-.485.572-.485l2.472-2.162.082-.087a4.962,4.962,0,0,0,1.549-3.242,58.234,58.234,0,0,1,7.209-4.94c-1.118,2.606-2.44,5.162-3.834,7.8,0,0-.957,1.838-1.6,3.088-1.056.537-2.367,1.2-2.367,1.2l-3.069,1.574-.673.3-.181.059-1.489.347-1.518,1.32a11.373,11.373,0,0,0-2.461,6.525,6.652,6.652,0,0,0,.31,2.043,6.165,6.165,0,0,0,2.987,3.7,6.762,6.762,0,0,0,.831.333,10.758,10.758,0,0,0-.389,2.4,7.414,7.414,0,0,0,.324,2.19,6.341,6.341,0,0,0,7.83,4.365,5.806,5.806,0,0,0,3.307-2.6l.839-1.894.071-.2c-.016.043.723-2.221.723-2.221l.507-1.593s1.058-2.559,1.757-4.245c.425-.174.864-.351,1.542-.625,0,.136-.016.293-.016.42a11.81,11.81,0,0,0,.484,3.594c1.256,4.092,4.689,5.075,7.349,4.267,2.086-.645,5.219-3.3,6.668-6.48l1.025-2.243s-1.728-2.173-1.739-2.19l0-.016c0,.037.048-.968.048-.971s.107-.659.23-1.435l1.579-.437c.309-.1.54-.233.816-.346a4.832,4.832,0,0,0,1.691,1.2,10.484,10.484,0,0,0,3.954,3.978,8.159,8.159,0,0,0,6.237.833,7.147,7.147,0,0,0,3.463-2.365,6.974,6.974,0,0,0,6.5,1.145c2.35-.745,4.5-2.606,6.614-5.711,0,.009.732-1.219,1.47-2.452A12.67,12.67,0,0,0,87.537,133.1c2.79-.875,5.222-2.513,8.863-7.761l.186.264a5.084,5.084,0,0,0,5.646,2.085c1.7-.53,2.59-1.39,3.957-3.935a8.865,8.865,0,0,0,8.216,1.684,11.975,11.975,0,0,0,5.407-3.817,39.157,39.157,0,0,0,3.285-4.49,8.735,8.735,0,0,0,8.568,2.382c1.919-.606,4.32-2.06,7.91-7.194a11.476,11.476,0,0,0,1.943,1.525,10.45,10.45,0,0,0,8.442.937,15.072,15.072,0,0,0,7.662-6.057c0,.008.779-1.317,1.43-2.416a12.61,12.61,0,0,0,10.651,1.68c3.032-.9,5.86-2.924,10.471-10.182.04-.068,1.56-2.831,1.56-2.831a8.173,8.173,0,0,0,.676-3.118,5.9,5.9,0,0,0-.126-1.233,5.068,5.068,0,0,0-3.5-4.112s-1.084-.3-1.965-.549a16.449,16.449,0,0,0-.451-2,17.87,17.87,0,0,0-4.12-7.04c-2.688-2.762-5.311-2.282-6.637-1.746" transform="translate(0 41.194)" fill="#00204a" fill-rule="evenodd"/>
      <path id="路径_594" data-name="路径 594" d="M165.637,76.037c-1.075.434-2.517,1.534-4.137,6.24-.326.946-5.061,8.937-5.061,6.286a6.64,6.64,0,0,0-.27-1.965c-.71-2.275-3.08-4.459-7.428-3.135-3.955,1.205-7.606,4.441-10.018,8.867a20.079,20.079,0,0,0-2.055,5.7c-.318,1.233-2.893,2.862-2.3.085a13.014,13.014,0,0,0,.295-2.606,6.375,6.375,0,0,0-.271-1.961,3.9,3.9,0,0,0-.265-.543,8.025,8.025,0,0,0,2.443-2.755,7.938,7.938,0,0,0,.952-3.631,5.55,5.55,0,0,0-.245-1.66,4.823,4.823,0,0,0-2.327-2.9,4.252,4.252,0,0,0-3.26-.332,7.059,7.059,0,0,0-3.89,3.588,8.645,8.645,0,0,0-1.072,4.028,6.132,6.132,0,0,0,.267,1.83,3.97,3.97,0,0,0,.326.684,10.979,10.979,0,0,0-3.411,3.2,21.849,21.849,0,0,0-2.286,4.289l-.048.119-.071.234c-.467,1.588-1.422,1.176-1.619.544-1.09-3.608-4.614-5.3-7.093-4.56a6.415,6.415,0,0,0-1.65.91c1.526-3.615,2.779-6.722,3.491-8.616l.251-.655c.731-1.891,1.486-3.84.948-5.635a4.061,4.061,0,0,0-1.951-2.472A3.74,3.74,0,0,0,110.99,79c-1,.315-1.953.965-3.561,3.211-2.147,2.911-5.6,8.555-9.753,18.741l-1.863,5-.427,1.276c-1.2,3.493-2.738,3.144-3.173,1.725a16.084,16.084,0,0,0-3.76-6.426c-2.376-2.489-4.489-1.7-5.287-1.245-1.821,1.039-2.7,3.15-3.876,6.288a33.374,33.374,0,0,1-2.882,6.547c-1.928,2.8-2.632,1.756-2.51-.889a5.674,5.674,0,0,0-.3-1.863c-.92-3.031-3.156-3.847-4.965-3.305-1.208.386-2.23,1.154-3.721,3.829L62.79,115.66c-.14.251-.43.064-.479-.136-.23-.763-1.444-3.857-6.372-2.356-1.643.5-3.465,1.646-5.678,6.052-.026,0-.237-.012-.237-.012a25.822,25.822,0,0,0-3.2.1c1.01-3.091,2.165-6.632,2.165-6.632a56.439,56.439,0,0,0,1.8-6.451,12.511,12.511,0,0,0,.3-2.32,4.14,4.14,0,0,0-.223-1.379,3.516,3.516,0,0,0-1.709-2.106,3.589,3.589,0,0,0-2.809-.233l-.014,0c-1.636.53-2.438,1.94-3.518,4.707,0,0-1.149,4.092-1.925,4.4-.439.175-.887-1.683-1.151-2.548-1.59-5.2-5.252-5.959-7.294-5.947a15.831,15.831,0,0,0-4.58.965c-5.14,1.556-14.265,6.469-22.111,13.581-3.685,3.338-4.441,4.963-4.721,7.876a12.857,12.857,0,0,0,.565,4.96,4.341,4.341,0,0,0,5.244,3.285,6.831,6.831,0,0,0,2.429-1.484l2.489-2.268,1.9-1.76.574-.49,2.4-2.1.051-.053a3.612,3.612,0,0,0,1.177-2.465,3.129,3.129,0,0,0-.07-.461A48.639,48.639,0,0,1,29.3,113.108a73.668,73.668,0,0,1-5.269,11.582s-1.294,2.489-1.826,3.51c-.929.472-2.789,1.419-2.789,1.419l-3.076,1.571-.938.414c-.115.036-.416.087-.416.087l-1.039.172-.924.89a9.925,9.925,0,0,0-2.181,5.644,5.151,5.151,0,0,0,.237,1.582,4.691,4.691,0,0,0,2.265,2.831,5.073,5.073,0,0,0,1.965.521,11.884,11.884,0,0,0-.726,3.539,5.909,5.909,0,0,0,.256,1.746,4.826,4.826,0,0,0,5.928,3.363,4.374,4.374,0,0,0,2.466-1.943l.7-1.59.074-.222.7-2.161.526-1.646c.009-.023,1.357-3.285,2.033-4.915.8-.327,2.221-.9,4.379-1.774a24.361,24.361,0,0,0-.183,2.725,10.456,10.456,0,0,0,.42,3.166c.955,3.108,3.429,3.87,5.458,3.256a11.51,11.51,0,0,0,5.731-5.658l.693-1.518-1.126-1.235a1.625,1.625,0,0,1-.31-.458,1.949,1.949,0,0,1-.11-.7c0-.217.014-.521.05-.99,0,0,.217-1.376.4-2.527.624-.174,2.485-.687,2.485-.687a6.761,6.761,0,0,0,1.788-.844,3.586,3.586,0,0,0,2.035,1.968c.062.019.127.014.191.033a9.094,9.094,0,0,0,3.614,3.8,6.645,6.645,0,0,0,5.063.707c1.3-.388,2.285-1.061,3.8-3.234a5.459,5.459,0,0,0,6.168,2.013c2-.628,3.885-2.3,5.8-5.112l2.354-3.932a11.059,11.059,0,0,0,10.592,2.612c2.342-.734,4.817-2.019,9.511-9.376.372.884.727,1.608.965,2.055l.088.164.141.206a3.544,3.544,0,0,0,4,1.531c1.506-.467,2.15-1.266,3.933-4.921,2.693,2.654,5.36,3.557,8.222,2.676a10.471,10.471,0,0,0,4.729-3.38,39.748,39.748,0,0,0,3.5-4.833s.33-.521.751-1.182c2.227,3.231,5.607,4.282,8.29,3.471,1.742-.552,4.188-2.037,8.188-8.193A9.607,9.607,0,0,0,141.748,112a8.939,8.939,0,0,0,7.229.8,13.642,13.642,0,0,0,6.873-5.491c0,.006,2.178-3.691,2.178-3.691l.1-.191A11.016,11.016,0,0,0,168.72,106c2.216-.659,4.808-1.945,9.635-9.547.023-.045,1.439-2.6,1.439-2.6a5.853,5.853,0,0,0,.467-3.465,3.578,3.578,0,0,0-2.426-2.956l-1.855-.516a12.333,12.333,0,0,1-1.605-3.052,16.3,16.3,0,0,0-3.758-6.429c-1.965-2.019-3.792-1.877-4.98-1.4" transform="translate(0.539 41.732)" fill="#fff" fill-rule="evenodd"/>
      <path id="路径_595" data-name="路径 595" d="M105,112.166c2.292-4.862,4.543-7.459,6.978-9.325a20.06,20.06,0,0,1-5.1,9.339,6.213,6.213,0,0,0-1.878-.014m69.823-21.221c-2.1,3.26-4.72,5.264-6.784,5.889A14.613,14.613,0,0,0,170.807,83.7a13.708,13.708,0,0,0-3.153-5.41c-.879-.906-1.565-1.078-2.224-.81-.963.383-2.018,2.753-2.691,4.712-.43,1.249-2.133,4.619-7.312,13.558l-.307.575c-3.982,6.02-5.914,6.831-7.032,7.192-2,.6-3.783-.2-4.648-2.463,9.616-7.768,9.657-13.027,9.165-14.615-.414-1.329-1.653-2.261-4.276-1.464-2.879.879-6.181,3.333-8.537,7.661a17.69,17.69,0,0,0-1.812,5.059,23.442,23.442,0,0,1-1.9,4.425c-2.8,4.424-5.087,5.728-6.206,6.085a2.345,2.345,0,0,1-3.105-1.475,4.289,4.289,0,0,1,.614-3.356c.865-1.612,2.689-3.507,3.367-6.688a6.944,6.944,0,0,0,.095-3.251c-.253-.8-.957-1.345-2.344-.918-1,.309-2.2,1.014-3.677,3.1a19.184,19.184,0,0,0-2.007,3.786,33.893,33.893,0,0,1-3.012,7.234l-.467.732c-3.318,5.632-5.567,6.753-6.379,6.99a4.506,4.506,0,0,1-4.129-.946c8.351-8.338,7.912-11.985,7.5-13.319-.7-2.328-2.848-3.223-3.957-2.893-1.742.535-7.443,6.274-12.49,17.278-.321-.679-.44-1.331.413-3.384.186-.439.44-.929,1.411-2.984,4.061-8.6,7.991-18.125,9.418-21.921.662-1.759,1.475-3.572,1.145-4.676A1.263,1.263,0,0,0,110.61,80.5c-.293.093-.839.267-2.278,2.282-2.131,2.89-5.5,8.483-9.467,18.22-1.415,3.46-1.494,3.957-2.238,6.139-1.624,4.728-2.48,6.224-3.342,7.567l-.814,1.236c-2.384,3.944-4.517,5.342-6.593,5.979A14.627,14.627,0,0,0,88.647,108.8a13.5,13.5,0,0,0-3.156-5.407c-.878-.923-1.594-1.173-2.224-.813-.817.465-1.871,1.517-2.679,4.715-.183.729-.9,3.834-7.324,13.575l-.307.572c-2.73,4.475-4.821,5.5-4.915,5.525-.637.2-1.29-.132-1.57-1.062-.147-.482-.639-2.627,2.264-9.5,1.238-2.955,1.812-3.49,1.29-5.194-.493-1.625-1.29-1.785-1.822-1.625-.335.107-.934.293-2.241,2.638-3.515,6.181-4.54,8.4-7.975,13.291-2.291,3.3-2.944,3.744-3.463,3.9-.372.11-.744-.012-.946-.65a5.493,5.493,0,0,1-.119-2.345,6.02,6.02,0,0,1,.133-.852c5.726-7.5,5.126-10.288,5.114-10.336-.186-.613-.864-1.252-3.184-.548-.957.295-2.488,1-4.74,5.968a17.4,17.4,0,0,0-1.425,4.368,14.8,14.8,0,0,1-.625,2.451,10.074,10.074,0,0,1-.546,1.08l-.107.174a1.382,1.382,0,0,0-.133,1.318c.293.945.879,1.05,1.211.811l.267-.171.133-.2c1.132,4.141,4.569,5.528,6.393,4.966,1.106-.332,2.052-1.078,5.726-7.709a10.709,10.709,0,0,0,.267,4.275,3.021,3.021,0,0,0,3.981,2.212c.893-.284,2.4-1.106,4.448-4.116,1.506-2.187,2.691-4.571,4.023-6.848l.161-.251a8.386,8.386,0,0,0,10.119,4.777c1.573-.493,3.691-1.329,8.233-8.5l1.557-2.356,1.332-2.092a15.3,15.3,0,0,0,.641,2.783,23.157,23.157,0,0,0,1.7,4.132c.493.664.893.72,1.253.614.813-.253,1.4-1.494,4.048-7.1,3.743,5.3,6.26,5.422,8.084,4.861a8.2,8.2,0,0,0,3.6-2.662,35.882,35.882,0,0,0,3.235-4.487l2.64-4.157.731-1.148c.093.507.213,1,.346,1.494,1.373,4.434,4.568,5.688,6.727,5.035.878-.279,3.381-1.157,8.669-10.189l.16-.281.453-.758c1.21,5.674,5.3,7.631,9.005,6.5,1.612-.493,3.527-1.7,5.553-4.541a44.954,44.954,0,0,0,2.572-4.462c.409-.743,1.491-2.558,1.491-2.558a8.355,8.355,0,0,0,10.122,4.768c1.573-.467,3.7-1.332,8.244-8.486,0,0,1.016-1.667,1.239-2.206a3.5,3.5,0,0,0,.329-1.985c-.191-.917-.633-1.039-.633-1.039s-.385.74-1.182,1.979m-158.959,48.8c-2.038.624-3.17-.2-3.53-1.441-.253-.788-.253-2.384,1.6-5a3.531,3.531,0,0,0,1.025-.183,9.9,9.9,0,0,0,1.852-.828c2.038-1.024,4.062-2.1,6.111-3.116,2.931-5.849,6.393-11.417,8.152-17.781a2.371,2.371,0,0,0,.186-1.546c-.214-.695-.667-1.134-2.451-.585-2.755.838-8.976,3.836-17.128,11.108.56-.242,1.118-.5,1.706-.695.546-.172.734-.014.772.146.04.135.04.321-.44.813-1.359,1.213-1.385,1.225-2.862,2.489-1.494,1.283-2.838,2.748-4.357,4a4.309,4.309,0,0,1-1.545,1.011c-.665.2-1.692-.225-2.1-1.6a10.184,10.184,0,0,1-.467-3.981c.2-2.066.52-3.189,3.9-6.251,7.657-6.938,16.447-11.613,21.162-13.039a13.917,13.917,0,0,1,3.85-.852c2.119-.012,3.93,1.1,4.861,4.155a5.711,5.711,0,0,1,.079,3.5,53.423,53.423,0,0,1-3.235,8.431L29.423,126a60.562,60.562,0,0,1,7.591-3.13l6.994-17.955c.972-2.491,1.452-3.065,1.945-3.225a1.006,1.006,0,0,1,1.357.734c.107.32.188.653-.144,2.358a54.494,54.494,0,0,1-1.732,6.2L42,121.51a22.955,22.955,0,0,1,6.766-.678,35.356,35.356,0,0,0-2.4,5.1c-1.266,3.249-1.838,3.463-3.09,3.848-1.332.4-2.665.734-4,1.093a29.656,29.656,0,0,0-.679,4.357,5.865,5.865,0,0,0,.158,2.595,3.871,3.871,0,0,0,.865,1.438,9.278,9.278,0,0,1-4.166,4.292c-.96.292-1.852-.1-2.3-1.571-.307-1.016-.72-3.011.586-9.193l-9.55,3.861c-1.518,3.386-1.892,4.413-2.493,6.037-.437,1.266-.771,2.559-1.224,3.8a6.6,6.6,0,0,1-.548,1.331,1.883,1.883,0,0,1-1.064.85,2.31,2.31,0,0,1-2.756-1.688c-.534-1.745.464-3.887,1.984-8.034-.481.2-1.652.614-2.224.8M77.233,119.4c1.664-2.479,3.383-5.238,4.861-7.754a10.492,10.492,0,0,1,1.746,3.263c1.131,3.715-.653,5.807-1.413,6.047-.96.279-1.359-.52-1.945-.972a3.418,3.418,0,0,0-3.249-.585m82.149-25.083c1.68-2.493,3.4-5.233,4.862-7.752a10.336,10.336,0,0,1,1.731,3.266c1.146,3.7-.627,5.788-1.387,6.018-.971.3-1.357-.507-1.943-.962a3.394,3.394,0,0,0-3.263-.571m-28.927-3.581a1.691,1.691,0,0,1-2.2-1.2c-.734-2.372,1.264-5.768,3.011-6.289a2.035,2.035,0,0,1,2.451,1.571c.611,1.947-1.053,5.222-3.262,5.917m12.7,6.98a15.219,15.219,0,0,1,3.409-7.845c.628-.772.973-.921,1.12-.976a.491.491,0,0,1,.651.349s.161,3.263-5.18,8.472" transform="translate(1.295 42.632)" fill="#00204a" fill-rule="evenodd"/>
      <path id="路径_596" data-name="路径 596" d="M112.314,74.294h1.053v3.181h.383V74.294h1.107v-.382h-2.544Z" transform="translate(61.888 40.728)" fill="#00204a"/>
      <path id="路径_597" data-name="路径 597" d="M115.806,76.812l-.91-2.9h-.614v3.563h.382V74.451l.954,3.025H116l.951-3.025v3.025h.382V73.913h-.611Z" transform="translate(62.972 40.728)" fill="#00204a"/>
    </g>
  </svg>
  