<svg id="组_159" data-name="组 159" xmlns="http://www.w3.org/2000/svg" xmlns:xlink="http://www.w3.org/1999/xlink" width="176.842" height="186.334" viewBox="0 0 176.842 186.334">
    <defs>
      <clipPath id="clip-path">
        <rect id="矩形_19" data-name="矩形 19" width="176.842" height="186.334" fill="none"/>
      </clipPath>
    </defs>
    <g id="组_157" data-name="组 157" transform="translate(0 0)" clip-path="url(#clip-path)">
      <path id="路径_598" data-name="路径 598" d="M106.759,184.561l.876,1.406-10.116.365c-9.112-.481-19.129-4.783-26.393-10.846-8.368,9.723-18.62,11-31.427,5.365L29.813,176l2.307-1.153-2.187-.75,2.519-4.139-6.375,1.5L26.8,164.2H20.708a2.77,2.77,0,0,1-3.028-2.792V159.7q-.939-.024-1.906-.077l-9.316-1.27L9.567,154.3c.009-.01.522-.686,1.272-1.82a49.674,49.674,0,0,0,2.715-4.628c1.966-3.827,3.565-8.324,3.089-12.025-.075-.586-.161-1.175-.256-1.772l-4.95,10.774s-4.377-11.36-5.064-14.01A47.954,47.954,0,0,1,4.8,117.32L2.356,119.7l.194-12.414A46.431,46.431,0,0,1,8.455,86.3l-4.707.824,1.627-7.806C7.4,70.769,12.408,62.118,20,56.665a57.707,57.707,0,0,1-4.581-9.334c-.744-1.993-3.071-10.341-3.071-10.341l9.8,2.783a28.513,28.513,0,0,1-.025-9.751l2.412-8.7,3.938,3.153C30.547,15.544,35.662.851,47.741,1.6c3.84.238,7.515,2.292,10.1,3.97l.246.159L60.861,0l5.611,5.15c1.835,1.7,5.6,5.817,9.514,9.6a45.762,45.762,0,0,0,7.156,6l.156-.016c.509-.042,1.286-.117,2.39-.235,2.038-.218,4.562-.494,7.07-.643,2.759-.162,5.524-.178,7.726-.232.871-.022,1.541-.054,2.036-.088,2.054-1.43,4.431-3.387,7.015-5.462a97.921,97.921,0,0,1,10.23-7.418c6.609-3.994,17.364-8.191,25,2.038,4.064,5.443,6.77,14.839,7.667,22.524l4.925-1.357-.1,7.378a49.779,49.779,0,0,1-.595,8.52,19.487,19.487,0,0,1-1.909,5.567,40.015,40.015,0,0,1,6.293,19.364l.621,6.757c.513.5,1.095,1.051,1.754,1.658l4.084,3.608-4.065,4.546c-.175.152-.365.314-.56.475a35.736,35.736,0,0,1,5.559,21.048l-.1,1.582.364.456,6.03,5.136-9.366,2.979c-.314.086-.613.161-.9.228a92.476,92.476,0,0,0,5.156,7.822l6.127,8.11s-3.3.329-5.21.452a43.751,43.751,0,0,1-5.713.076l-.558-.051a45.371,45.371,0,0,1-5.081,27.993l-7.947,12.2-1.224-6.9c-.5.677-1.034,1.37-1.536,2.019l-8.771,9.815-.572-5.688-8.878,5.963.525-6.448a75.494,75.494,0,0,1-11.138,6.09l-7.448,3.362-.374-7.808-2.485,2.864,1.747,6.473Z" transform="translate(1.088 0.001)" fill="#fff"/>
      <path id="路径_599" data-name="路径 599" d="M16.784,123c-1.2,2.514-2.2,4.253-3.323,6.779l-2.757,6s-1.769-4.579-2.431-7.135A45.149,45.149,0,0,1,7.7,107.968L4.46,111.13l.082-5.19a44.574,44.574,0,0,1,8.771-24.757c-.978.107-2.513.054-3.5.266l-3.244.569L7.3,78.529C9.4,69.653,14.917,60.841,23.14,56.1a53.751,53.751,0,0,1-5.913-11.24c-.716-1.921-1.576-5.013-1.576-5.013l4.722,1.339c1.919.55,3.469.941,5.011,1.275a26.944,26.944,0,0,1-1.3-13.378l1.14-4.076,4.245,3.4c1.452-8.733,5.888-25.982,17.123-25.287,3.016.186,6.133,1.851,8.667,3.5,1.175.763,2.326,1.591,3.4,2.4.183-.681.4-1.741.618-2.415l1.541-3.162L63.493,5.9c1.824,1.688,5.567,5.785,9.463,9.552,4.15,4.016,7.511,6.637,8.825,6.861.057.009.984-.051,3.253-.294,2-.213,4.472-.487,6.929-.632,2.721-.161,5.45-.175,7.624-.23,1.183-.029,2.02-.076,2.57-.123.17-.015.31-.028.421-.041,2.248-1.493,4.916-3.688,7.841-6.035a94.766,94.766,0,0,1,9.909-7.194c6.581-3.978,15.047-6.827,21.1,1.275,4.229,5.665,7.058,16.7,7.378,24.571.393-.124,4.571-1.272,4.571-1.272l-.047,3.434a47.051,47.051,0,0,1-.542,8.005,16.02,16.02,0,0,1-2.46,6.133c4.622,7.46,6.078,11.73,6.8,19.623l.329,3.592-3.44-.813a13.588,13.588,0,0,0,.7,1.266,32.215,32.215,0,0,0,5.729,6.28l1.9,1.677-1.952,2.191a12.067,12.067,0,0,1-2.547,1.762c4.75,6.828,7.15,14.108,6.668,21.677l-.175,2.745.091.07,1.159,1.478,2.188,1.864-4.222,1.343a17.119,17.119,0,0,1-4.725.595c.636,1.25,1.262,2.452,1.925,3.64a92.049,92.049,0,0,0,5.481,8.369l3,3.973a30.2,30.2,0,0,1-5.109,0,31.852,31.852,0,0,1-4.431-.575c2.165,10.256,1.186,20.254-4.025,29.959l-3.789,5.809-1.194-6.736a77.6,77.6,0,0,1-5.451,7.856l-4.22,4.719-.446-4.438a34.851,34.851,0,0,1-3.1,2.646l-4.723,3.171.452-5.548c.053-.513.105-1.026.155-1.538-4.734,4.365-10.762,7.6-15.892,9.916l-3.478,1.569-.183-3.811a32.592,32.592,0,0,0-1.2-6.656,56.473,56.473,0,0,1-3.84,5.043l-1.263,1.455-1.759-.788c-.632-.282-1.24-.573-1.835-.876l.08.306c.5,1.857,2,7.416,2,7.416l-6.425-1.4,1.883,3.025-4.874.178c-9.376-.494-19.88-5.444-26.78-12.205-7.767,10.705-16.975,12.648-29.813,7l-4.459-2.188,3.244-1.623c-.4-.108-2.13-.778-2.514-.892l-2.839-.972,1.31-2.15a55.313,55.313,0,0,0,2.433-5.488,47.519,47.519,0,0,1-4.969,1.9l-3.719.87.358-3.621c.38-3.542.537-6.456.674-9.831-4.625,2.414-8.77,2.8-14.413,2.5l-4.136-.567s8.838-11.515,7.665-20.656c-.335-2.6-.88-5.263-1.417-8.376q-.219-1.267-.412-2.642" transform="translate(2.06 1.435)" fill="#c9cacb" fill-rule="evenodd"/>
      <path id="路径_600" data-name="路径 600" d="M93,173.522a34.793,34.793,0,0,0,2.867,4.921c-9.749-.513-21.026-6.309-27.261-13.831-7.377,11.984-15.923,14.559-28.718,8.928a10.772,10.772,0,0,0,4.606-3.07,24.716,24.716,0,0,1-8.28-1.307,38.4,38.4,0,0,0,4.3-12.123c-2.165,1.938-6.893,3.932-9.974,4.9.649-5.19.729-9.081.974-15.082-5.681,4.447-10.023,5.241-17.11,4.865,11.351-16.38,3.365-20.561,3.62-38.763-3.266,4.869-5.565,10.378-7.948,15.719C7.51,117.946,7.493,108.077,12.494,98.16a59.192,59.192,0,0,0-6.2,6.722c-.17-9.89,5.4-19.574,11.419-27.273a30.368,30.368,0,0,0-8.755.615c2.294-9.278,8.517-18.339,17.5-22.054-3.674-3.978-5.432-8.433-7.662-13.264a80.566,80.566,0,0,0,10.281,2.266,25.358,25.358,0,0,1-3.222-16.48l4.807,3.764C31.3,25.025,35.319,4.3,45.577,4.936c4.552.282,10.46,5.258,14.034,7.972A29.222,29.222,0,0,1,60.945,6.98c3.419,3.418,14.9,16.32,19.542,17.11,1.064.181,5.96-.607,10.786-.892,5.377-.319,10.79-.053,11.761-.69,9.322-6.122,26.445-25.17,35.272-12.609,4.216,6,7.622,19.055,6.649,26.435,3.082-.729,2.839-.81,4.947-1.379-.238,5.4-.082,9.894-3.665,13.955,5.228,8.184,6.665,12.075,7.4,20.022A43.893,43.893,0,0,0,148.9,67.8c1.895,5.352,2.386,7.184,8.9,13.176a7.152,7.152,0,0,1-5.478,1.921c6.163,7.426,9.2,15.238,8.691,23.257a22.034,22.034,0,0,0-5.517-2.674c.974,3.082,4.217,6.081,6.488,7.784-3.244.892-5.489.648-9.083-.974,3.522,6.768,5.434,11.515,10.623,17.678a34.17,34.17,0,0,1-8.434-2.108c3.406,11.353,3.016,22.187-2.608,32.668-.322-3.231-.854-3.242-1.859-7.211a56.725,56.725,0,0,1-8.334,13.768,21.047,21.047,0,0,0-.74-4.761A23.382,23.382,0,0,1,135,167.537a37.68,37.68,0,0,0,.2-9.062c-4.258,6.764-12.592,11.54-19.683,14.741a36.322,36.322,0,0,0-3.109-12.514,62.708,62.708,0,0,1-6.5,9.34,59.945,59.945,0,0,1-6.5-3.633,47.644,47.644,0,0,0,2.158,9.527Z" transform="translate(2.906 2.275)" fill="#00234c" fill-rule="evenodd"/>
      <path id="路径_601" data-name="路径 601" d="M64.483,27.9c-1.3-3.69-2.837-8.312-2.028-12.489C65.11,18.551,73.321,27.9,77.862,28.058c.548.019,6.173-.667,10.137-.811,3.32-.12,8.515,0,8.515,0,7.135.893,11.859-5.694,17.678-9.406,2.161-1.38,9.163-8.109,13.623-7.624,2.545.278,3.735,2.3,5.19,5.516a34.542,34.542,0,0,1,3.4,17.515c-.108,2.552-2.675,7.542-2.675,7.542s3.292-.344,5.352-.811c1.474-.335,3.731-1.054,3.731-1.054a10.736,10.736,0,0,1-6.244,7.137c4.69,3.551,7.311,10.618,7.46,12.569a20.773,20.773,0,0,0-4.542-1.947c-2.433-5.432-8.578-13.2-12.8-16.734,2.741-4.025,3.47-5.89,3.916-10.093.05-.475-.178-3.33-.178-3.33A20.6,20.6,0,0,1,128.625,30c-1.4,1.82-5.352,5.109-8.838,4.055,3.973-3.406,5.815-6.16,7.055-11.028.006-.022.325-3,.325-3s-4.785,8.515-11.11,10.948c1.623-5.839,7.055-10.542,11.6-14.353-1.675.115-5.2,1.662-6.083,2.108-7.055,3.568-8.859,10.24-15.87,11.1,0,0,11.167,3.985,22.52,16.231,7.111,7.669,8.029,13.3,12.812,22.137a63.863,63.863,0,0,0,4.3,6.406c-5.757-2.028-10.217-9.406-10.217-9.406,1.7,11.6,15.37,20.541,17.323,30.82-2.626-.816-7.673-4.386-7.673-4.386.162.892.38,2.44.792,3.962.817,3.017,2.05,4.7,3.1,7.391a48.441,48.441,0,0,1-5.919-4.136c-.55-.434-3.973-3.487-3.973-3.487s2.161,5.124,3.65,8.352c2.272,4.929,4.542,9.733,6.211,12.454a36.326,36.326,0,0,1-6.3-5.622,59.544,59.544,0,0,1-4.215-5.7,119.278,119.278,0,0,0,6.568,13.785c3.709,6.21,5.546,12.044,5.207,21.134-2.039-4.843-2.206-6.944-5.937-11.16a17.743,17.743,0,0,0-5.595-4.542A25.733,25.733,0,0,1,141.647,130c2.53,6.1,3.6,11.908,1.8,16.845l.05-.284s-.912-3.523-1.512-5.771c-.63-2.368-5.008-10.767-7.828-11.153,0,0,3.469,3.27,4.117,11.46a31.962,31.962,0,0,1-1.3,11.677s-.811-7.217-2.839-11.028c-3.677-6.912-9.642-9.809-11.438-10.217,0,0,6.248,4.621,7.339,11.436a18.715,18.715,0,0,1-3.6,13.7c-.287-4.5-.082-8.6-3.65-13.138a14.243,14.243,0,0,0-2.893-2.557,29.248,29.248,0,0,1,1.62,3.469c2.329,6.71-.835,15.55-.835,15.55a18.286,18.286,0,0,0-1.783-8.191,15.789,15.789,0,0,0-2.649-3.111c1.446,2.49,1.358,6.457,1.273,10.11l-.678,3.908a47.873,47.873,0,0,0-7.758-18.123,26.849,26.849,0,0,0-5.631-5.65,29.873,29.873,0,0,1,2.6,5.422c1.712,5.773,1.653,9.634-2,15.31a35.2,35.2,0,0,0-2.595-11.6,10.831,10.831,0,0,0-1.947,3.973,47.054,47.054,0,0,0-1.023,6.076,11.621,11.621,0,0,1-2.707-8.1,22.066,22.066,0,0,1,.668-4.47,11.25,11.25,0,0,0-2.55,3.992c-2.577,6.4-2.253,11.1-1.686,16.371-6.486-4.7-10.542-8.838-13.461-17.272a22.748,22.748,0,0,1-1.7-6.568c-.389.251-1.8,6.317,1.459,14.11A52.221,52.221,0,0,0,81.5,161.69a66.209,66.209,0,0,0,1.783,6.881,35.569,35.569,0,0,1-9.069-5.9c-10.622-10.138-10.98-25.192-10.98-25.192a27.722,27.722,0,0,0-1.1,5.608c-.136,3.9.62,7.748.462,11.834-.3,7.669-6.622,14.237-13.921,14.8,0,0,6.114-6.682,6.081-14.92-.023-6.213-3.08-8.433-3.08-8.433s1.134,4.865.317,7.654c-2.082,7.11-7.616,9.375-10.292,9.78,0,0,2.02-6.045,2.188-10.056a47.04,47.04,0,0,0-.567-7.216,29.648,29.648,0,0,0,2.27-8.029,13.989,13.989,0,0,0-1.865-8.434s.686,2.95-.729,8.029c-1.783,6.406-4.7,9.73-9,12.082a55.814,55.814,0,0,0,.162-16.867,54.7,54.7,0,0,0-1.7-7.542s-.111,5.77-1.621,9C28.525,139.7,24.992,142.8,20.45,144.1c1.7-2.352,3-5.027,3.731-10.056,1.123-7.732.325-13.623,4.378-20.354a39.046,39.046,0,0,1,6.163-7.379,35.622,35.622,0,0,0-2.19,7.947,25.289,25.289,0,0,0,0,8.938c2.105-9.181,5.429-15.911,8.349-19.642a30.323,30.323,0,0,1,15.35-9.74c-7.646-.314-17.382,4.25-20.327,6.668A46.862,46.862,0,0,0,21.991,120.1a38.345,38.345,0,0,1-.487-11.109,29.6,29.6,0,0,1,9.65-18.976,36.719,36.719,0,0,0-5.837,3.163c-6.594,4.263-9.812,8.783-13.867,14.6,2.108-9.974,6.081-18.165,17.8-27.384a65.34,65.34,0,0,1,6.507-4.5c-5.928.513-15.389,4.877-20.416,8.931,2.837-6.081,6.98-11.343,13.23-16.921a51.808,51.808,0,0,1,6.207-4.853,34.4,34.4,0,0,0-8.9,1.745,29.535,29.535,0,0,0-10.419,5.055c2-3.9,4.972-6.856,9.454-9.594a40.5,40.5,0,0,1,24.733-6.1,25.538,25.538,0,0,0-10.388-1.763,46.384,46.384,0,0,0-8.6,1.379,30.851,30.851,0,0,1-5.109-6.244,44.717,44.717,0,0,0,7.135,1.216c4.342.389,8.191.406,11.169-.377a30.3,30.3,0,0,1-6.707-1.836c-3.488-1.678-7.137-4.9-7.379-8.735,6.811,4.542,12.65,6.326,19.794,6.266-4.943-4.274-7.491-8.1-10.55-13.509-.325,3.595,1.054,7,1.947,9.353a15.216,15.216,0,0,1-3.813-1.865,39.455,39.455,0,0,1-3.162-2.677,54.062,54.062,0,0,1,2.19-15.082c1.26-4.5,3.653-10.438,7.217-11.069,2.513-.446,5.451,1.8,7.055,2.96s7.682,5.611,7.682,5.611a28.853,28.853,0,0,0,2.633,5.862A30.221,30.221,0,0,0,64.483,27.9" transform="translate(5.288 4.226)" fill="#fff" fill-rule="evenodd"/>
      <path id="路径_602" data-name="路径 602" d="M99.978,31.664a38.1,38.1,0,0,0-3.068,4.929,38.261,38.261,0,0,0-2.108,7.3,10.886,10.886,0,0,1,4.7-2.919,6.365,6.365,0,0,1,2.566-.209c-2.269,1.212-5.307,4.622-4.349,7.548a6.645,6.645,0,0,1,3.529-3.836c4.9-1.707,6.381,1.311,8.619,4.586a19.867,19.867,0,0,0,3.245,3.511l-2.7.037a11.992,11.992,0,0,1-2.756,2.109c4.783,3.082,12.489,6.613,13.948,12.245,1.785,6.9-.637,10.837-1.3,12.731a39.156,39.156,0,0,1-6.163,10.542,15.581,15.581,0,0,1,5.09,12.885c0,6.894-11.17,11.1-16.8,7.637-5,5.63-12.535,2.507-12.535,2.507a24.006,24.006,0,0,0,2.234,5.744,15.209,15.209,0,0,0,2.468,3.177,15.615,15.615,0,0,1-8.754-6.065c-1.381-1.8-1.7-4.019-2.294-4.843-.459-.639-5.891-2.859-6.809-2.966-3.725-.431-5.77.648-8.983,2.279-5.748,2.919-6.58,9.295-6.58,9.295a9.348,9.348,0,0,1,.336-5.808,19.275,19.275,0,0,1,6.235-8.406c-6.1.623-12.718,4.3-15.8,9.7a38.177,38.177,0,0,0-3.811,7.543c.243-7.219,2.434-11.881,7.055-16.3a24.155,24.155,0,0,1,8.738-4.853c-9.657-2.911-18.658,3.025-18.658,3.025C48.7,99.8,54.931,97.616,60.3,97.613c4.608,0,7.46.893,13.7,3.568,5.343,2.289,14.717,7.549,20.956,6.692,2.441-.336,2.383-3.468,1.75-5.476a49.722,49.722,0,0,1-7.947-1.134,81.613,81.613,0,0,1-11.5-3.75C74.983,96.7,64.559,91.948,59.73,87.072c-1.808-1.824-1.952-3.355-2.687-5.7l-4.288-.219C56.486,77.017,60,76.662,64.994,78.9c11.926,5.336,19.814,9.92,29.36,8.66,7.379-.972,9.732-2.028,12.9-5.19,0,0,2.675,3.649,4.91,3.842,2.194-2.76,6.279-9.518,5.884-14.358a23.643,23.643,0,0,1-4.39,6.7A31.9,31.9,0,0,1,110.9,80.99a20.792,20.792,0,0,0,.857-6.925,29.838,29.838,0,0,1-4.5,6.711s-1.481-.57-2.842-1.246-5.388-3.158-7.137-6.488a12.187,12.187,0,0,1-1.611-6.536c.232-7.574,13.13-6.685,13.13-6.685a143.267,143.267,0,0,0-14.13-8.995c-1.194-.683-2.99-1.659-4.932-2.662a20.754,20.754,0,0,1-.674-4.973,30.758,30.758,0,0,1,1.453-8.847,27.98,27.98,0,0,0,1.371,5.573c.156-.247.7-1.316.811-1.58,1.013-2.345,3.609-5.676,7.286-6.673" transform="translate(20.908 14.626)" fill="#00234c"/>
      <path id="路径_603" data-name="路径 603" d="M37.072,12.347c.485,2.557,3.288,9.319,7.229,14.06a57.2,57.2,0,0,0,7.974,7.134,25.053,25.053,0,0,1-3.488-.433,18.151,18.151,0,0,1-5.473-2.473s.867,2.541,5.068,5.473a39.584,39.584,0,0,1-5.8.4,23.045,23.045,0,0,0,.7,4.761c-2.886-2.49-6.615-7.437-9.534-13.154a41.7,41.7,0,0,1-2.273-6.47,69.825,69.825,0,0,0,8.4,9.634c-1.177-2.433-3.973-12.731-2.8-18.937" transform="translate(14.536 5.704)" fill="#00234c" fill-rule="evenodd"/>
      <path id="路径_604" data-name="路径 604" d="M56.283,24.328a17.975,17.975,0,0,1,2.981,2.023A31.793,31.793,0,0,0,54.5,28.422c-5.4,3.019-12.566,9.822-12.566,9.822A44.7,44.7,0,0,1,45.5,32.978a33.884,33.884,0,0,1,7.821-7.23s-1.3-1.906-2.479-3.343a22.686,22.686,0,0,1,5.44,1.924" transform="translate(19.367 10.349)" fill="#00234c" fill-rule="evenodd"/>
      <path id="路径_605" data-name="路径 605" d="M74.009,27.857a11.372,11.372,0,0,1,6.33,4.128,35.448,35.448,0,0,1,6.973,17.678L83.86,52.782c-.319-1.294-.156-1.577-.684-3.443-1.475,4.565-5.783,8.7-10.948,8.838-5.131.142-9.65-4.054-9.65-4.054L57.9,53.906c1.406-.75,2.735-1.213,4.431-2.1,3.72-1.938,4.143-4.739,9.09-5.752a9.008,9.008,0,0,1,4.589.037c-.7-1.051-4.772-6.8-14.287-5.27-6.1.979-10.088,7.543-16.664,6.853a6.769,6.769,0,0,1-4.027-1.7,16.133,16.133,0,0,0,5.06-.4c6.761-1.74,9.749-8.593,17.671-9.175,2.753-.2,6.478.1,7.741,1.177-2.19-4.867-9.923-6.2-9.923-6.2,3.719-1.1,7.758-.02,11.528,2.3A27.505,27.505,0,0,1,81.8,43.1a59.516,59.516,0,0,0-2.351-7.055,32.464,32.464,0,0,0-5.438-8.184" transform="translate(18.95 12.868)" fill="#00234c" fill-rule="evenodd"/>
      <path id="路径_606" data-name="路径 606" d="M85.3,32.429a7.4,7.4,0,0,1,2.34,1.785c1.8,2.026,2.321,3.567,3.223,7.252a15.1,15.1,0,0,0-3.054-3.089,16.948,16.948,0,0,0-4.672-2.64c.759-1.259,2.162-3.308,2.162-3.308" transform="translate(38.398 14.979)" fill="#00234c" fill-rule="evenodd"/>
      <path id="路径_607" data-name="路径 607" d="M40.2,44.775c6.308-.17,9.438,1.595,15.529,1.7,1.775.032,2.513.041,4.552-.041,0,0-2.817,2.324-2.89,2.352a23.928,23.928,0,0,1,5.352,4.581,15.841,15.841,0,0,1,3.485,5.64,38.969,38.969,0,0,0-11.3-7.646C45.9,47.076,39.523,46.07,29.613,47.372c3.086-1.908,6.058-2.476,10.587-2.6" transform="translate(13.677 20.676)" fill="#00234c" fill-rule="evenodd"/>
      <path id="路径_608" data-name="路径 608" d="M70.962,47.6s1.595,3.117,1.887,3.853a22.5,22.5,0,0,1-8.157,1.2,7.1,7.1,0,0,1-1.6-.349,19.542,19.542,0,0,0,3.693-1.516A12.279,12.279,0,0,0,70.962,47.6" transform="translate(29.141 21.989)" fill="#00234c" fill-rule="evenodd"/>
      <path id="路径_609" data-name="路径 609" d="M45.565,49.952a28.1,28.1,0,0,1,11.416,4.465,36.283,36.283,0,0,0-13.185,1.1,29.111,29.111,0,0,0-10.056,4.72,12.759,12.759,0,0,1,4.69-5.092,13.7,13.7,0,0,1,5.961-2.517,24.33,24.33,0,0,0-7.5-1.01,24.954,24.954,0,0,0-6.165.626c3.048-2.843,8.8-3.342,14.842-2.288" transform="translate(14.19 22.837)" fill="#00234c" fill-rule="evenodd"/>
      <path id="路径_610" data-name="路径 610" d="M95.594,57.605c-.218.873-1.013,1.175-1.51,1.744-.6-.852-1.107-1.5-1.012-2.241a2.055,2.055,0,0,1,2-1.763,2.09,2.09,0,0,1,.525,2.26" transform="translate(42.982 25.563)" fill="#c9cacb" fill-rule="evenodd"/>
      <path id="路径_611" data-name="路径 611" d="M87.274,66.537a8.907,8.907,0,0,1-3.041,1.621,13.5,13.5,0,0,1-4.583.325c.225-.184,2.016-1.81,2.718-2.513a17.241,17.241,0,0,0,1.459-1.785A15.215,15.215,0,0,0,85.35,65.3a11.865,11.865,0,0,0,1.924,1.234" transform="translate(36.788 29.646)" fill="#00234c" fill-rule="evenodd"/>
      <path id="路径_612" data-name="路径 612" d="M59.248,69.369C51.71,70.923,47.341,72.794,41.29,77.55A42.108,42.108,0,0,0,30.218,89.878,23.96,23.96,0,0,1,41.252,73.405c5.992-3.979,11.957-5.172,18-4.036" transform="translate(13.957 31.852)" fill="#00234c" fill-rule="evenodd"/>
      <path id="路径_613" data-name="路径 613" d="M62.921,69.757c1.529,0,2.652,1.545,4.06,2.422a15.571,15.571,0,0,0,3.615,1.6,9,9,0,0,0,1,3.182,18.008,18.008,0,0,1-3.437-1.235c-2.81-1.357-6.22-2.725-6.22-5.029a.874.874,0,0,1,.978-.937" transform="translate(28.609 32.22)" fill="#fff" fill-rule="evenodd"/>
      <path id="路径_614" data-name="路径 614" d="M92.611,72.323c1.175.284,4.5,3.487,5.473,7.055.807,2.957,1.379,5.271-2.21,7.6A9.193,9.193,0,0,1,89.93,88.4c-2.291-.393-3.853-2.286-5.074-4.258-1.57-2.539-4.014-4.818-3.535-7.765.424-2.6,3.871-3.694,5.209-2.437a27.583,27.583,0,0,1,4.906,7.1,6.841,6.841,0,0,0-.162-2.878,22.267,22.267,0,0,0-2.149-3.893c-.852-1.662,2.773-2.118,3.487-1.946" transform="translate(37.531 33.389)" fill="#c6322c" fill-rule="evenodd"/>
      <path id="路径_615" data-name="路径 615" d="M71.557,72.432a8.762,8.762,0,0,1,1.33.168s2.694,2.014,3.656,1.792c.738-.172,1.129-.632,2.2-.572,3.223.178,5.66,5.527,5.66,5.527a11.418,11.418,0,0,0-4.112-.715c-.42-.031-2.161-.082-2.161-.082-5.567-.208-7.982-5.866-7.982-5.95a6.388,6.388,0,0,1,1.406-.17" transform="translate(32.4 33.455)" fill="#fff" fill-rule="evenodd"/>
      <path id="路径_616" data-name="路径 616" d="M88.937,44.544a3.847,3.847,0,0,1-2.126,2.723s-1.962-1.215-2.473-1.5a9.7,9.7,0,0,0,4.6-1.224" transform="translate(38.953 20.575)" fill="#c9cacb" fill-rule="evenodd"/>
      <path id="路径_617" data-name="路径 617" d="M84.476,42.468a1.642,1.642,0,1,1-1.642,1.643,1.643,1.643,0,0,1,1.642-1.643" transform="translate(38.258 19.616)" fill="#fff"/>
      <path id="路径_618" data-name="路径 618" d="M61.4,42.468a1.642,1.642,0,1,1-1.642,1.643A1.641,1.641,0,0,1,61.4,42.468" transform="translate(27.6 19.616)" fill="#fff"/>
      <path id="路径_619" data-name="路径 619" d="M66.863,44.493a3.478,3.478,0,0,1-3.663,3.26c-2.1.079-3.374-2.3-3.374-2.3a7.954,7.954,0,0,0,3.419.336,7.035,7.035,0,0,0,3.618-1.3" transform="translate(27.632 20.551)" fill="#c9cacb" fill-rule="evenodd"/>
      <path id="路径_620" data-name="路径 620" d="M88.388,65.339c2.757,0,3-4.136.81-4.785-2.121-.627-2.593.254-3.242,1.46a4.894,4.894,0,0,1-1.783-3.488c-.153-3.481,5.077-3.567,8.188-3.567,4.055,0,5.76.729,5.709-.4C98,52.932,95.2,52.608,92.2,52.77c-4.617.25-9.966-.151-10.3,5.352-.2,3.335,2.839,5.6,2.839,5.6a6.476,6.476,0,0,0,3.649,1.621" transform="translate(37.822 24.357)" fill="#c9cacb"/>
      <path id="路径_621" data-name="路径 621" d="M19.562,113.441a3.038,3.038,0,1,0-3.03-3.03,3.023,3.023,0,0,0,3.03,3.03m0-.719a2.319,2.319,0,1,1,2.313-2.311,2.24,2.24,0,0,1-2.313,2.311m.69-2.105c.558-.038.857-.275.857-.857,0-.835-.5-.963-1.225-.963H18.355v3.152h.7v-1.332h.49l.7,1.332h.765Zm-1.194-.474v-.8h.681c.306,0,.712,0,.712.32,0,.4-.2.475-.551.475Z" transform="translate(7.636 49.589)" fill="#00234c" fill-rule="evenodd"/>
    </g>
  </svg>
  