<svg id="组件_22_1" data-name="组件 22 – 1" xmlns="http://www.w3.org/2000/svg" xmlns:xlink="http://www.w3.org/1999/xlink" width="186.042" height="187.178" viewBox="0 0 186.042 187.178">
    <defs>
      <clipPath id="clip-path">
        <rect id="矩形_29" data-name="矩形 29" width="186.042" height="187.178" fill="none" stroke="rgba(0,0,0,0)" stroke-width="1"/>
      </clipPath>
      <clipPath id="clip-path-2">
        <rect id="矩形_28" data-name="矩形 28" width="185.127" height="186.262" fill="none" stroke="rgba(0,0,0,0)" stroke-width="1"/>
      </clipPath>
    </defs>
    <g id="组_198" data-name="组 198" clip-path="url(#clip-path)">
      <g id="组_197" data-name="组 197" transform="translate(0.458 0.916)">
        <g id="组_196" data-name="组 196" clip-path="url(#clip-path-2)">
          <g id="组_195" data-name="组 195">
            <g id="组_194" data-name="组 194" clip-path="url(#clip-path-2)">
              <path id="路径_623" data-name="路径 623" d="M22.178,64.547c-1.572-.388-2.533-1.96-2.757-4.7a12.217,12.217,0,0,1,2.757,4.7" transform="translate(16.034 50.359)" fill="#0f121b" stroke="rgba(0,0,0,0)" stroke-width="1"/>
              <path id="路径_624" data-name="路径 624" d="M79.1,61.9l-.111-.222a14.419,14.419,0,0,1,1.313-.851c2.145-1.072,3.162-3,3.9-5.1a9.72,9.72,0,0,1,1.831-3.55,1.75,1.75,0,0,1,.629,1.96,11.73,11.73,0,0,1-6.8,7.637,2.718,2.718,0,0,1-.758.129" transform="translate(66.615 43.838)" fill="#0f121b" stroke="rgba(0,0,0,0)" stroke-width="1"/>
              <path id="路径_625" data-name="路径 625" d="M73.972,49.19a16.7,16.7,0,0,1-1.555,3.976c-.555,1.313-1.183,2.607-1.849,3.883-.627,1.257-.98,2.718-2.163,3.7-1.313-.832-1.664-2.256-2.478-3.347a1.067,1.067,0,0,1,0-.8,5.531,5.531,0,0,1,.629-1.516c1.757-2.533,3.772-4.771,6.786-5.843a2.5,2.5,0,0,1,.631-.055" transform="translate(55.457 41.307)" fill="#0f121b" stroke="rgba(0,0,0,0)" stroke-width="1"/>
              <path id="路径_626" data-name="路径 626" d="M122.629,9.743c-1.479-1.128-3.532-.684-3.883.74,1.276-.24,2.515-.481,3.883-.74m-3.661-4.956c-1.073.222-1.738,1.257-1.5,2.718.869-1.22,1.72-2.4,3.513-1.535a1.585,1.585,0,0,0-2.016-1.183m-5.436-.166a6.131,6.131,0,0,0,2.034,6.195,4.286,4.286,0,0,0,1.2.592c.055-.092.129-.185.2-.3a6.113,6.113,0,0,0-.481-.721,19.756,19.756,0,0,1-1.313-1.479,5.011,5.011,0,0,1,1.109-6.823,11.278,11.278,0,0,1,1.72-1,2.9,2.9,0,0,1,2.7.018c2.589,1.165,4.29,3.236,5.862,5.473a2.945,2.945,0,0,1,.37,2.552c-.647,2.108-1.331,4.216-1.979,6.342-.536,1.775-1.387,3.495-1.128,5.436a2.53,2.53,0,0,1-.055.832c-.555,2.94-1.313,5.843-1.627,8.8a24.225,24.225,0,0,1-2.792,8.765,13.534,13.534,0,0,0-1.646,5.381,6.453,6.453,0,0,1-.592,2.071c-1.868,4.6-3.735,9.227-5.677,13.813-.7,1.683-1.683,3.236-2.422,4.9-.832,1.812-1.479,3.7-2.293,5.51-.74,1.664-1.572,3.291-2.385,4.919-.5.98-1.091,1.923-1.59,2.9-2.866,5.677-5.7,11.372-8.6,17.03-1.054,2.071-2.237,4.068-3.421,6.065a6.825,6.825,0,0,1-2.626,2.441c-3.828,2.219-7.97,2.385-12.223,2.126a14.029,14.029,0,0,1-7.47-2.9,7.786,7.786,0,0,1-.592-.666c2.2-4.789,4.456-9.523,6.564-14.349A193.25,193.25,0,0,1,88.272,62.683C91.8,57.061,95.447,51.5,98.978,45.874c1.35-2.145,2.552-4.4,3.865-6.583,1.683-2.811,3.347-5.6,5.1-8.358a12.231,12.231,0,0,0,1.738-3.92c.277-1.239.7-2.441,1-3.68a15.97,15.97,0,0,0,.536-5.917c-.129-.925,0-1.886-.055-2.829-.055-.758-.185-1.535-.3-2.293-.129-.758-.3-1.516-.425-2.274-.407-2.4,1.035-3.939,2.57-5.418.055-.037.2.018.518.018" transform="translate(57.131 0.189)" fill="#e5c5a2" stroke="rgba(0,0,0,0)" stroke-width="1"/>
              <path id="路径_627" data-name="路径 627" d="M65.008,87.221a27.893,27.893,0,0,1-8.6,2.94,43.627,43.627,0,0,1-4.919.61,3.442,3.442,0,0,1-1.629-.148c-3.2-1.239-6.489-2.274-8.929-4.9a4.5,4.5,0,0,1-1.461-3.217c.017-1.054.183-2.089.2-3.143.054-2,.017-3.976.054-5.973.039-1.479.15-2.977.242-4.456.166-3.254.462-6.527.5-9.782.017-3.162.074-6.25,1.22-9.3a16.142,16.142,0,0,1,9.3-9.375,22.7,22.7,0,0,1,4.7-1.59c4.623-.851,8.633.721,12.165,3.606a47.552,47.552,0,0,1,5.013,4.826,15.312,15.312,0,0,1,2.347,3.791c1.019,2.145,1.923,4.345,2.739,6.564a19.664,19.664,0,0,1,.608,3.106c-4.031,1.2-5.2,2.478-4.51,4.752.645-.222.629-.832.8-1.331a2.726,2.726,0,0,1,2.4-2c.645-.092,1.108.185,1.108.888,0,1.868,0,3.754-.092,5.64a2.516,2.516,0,0,1-.645,1.294,21.348,21.348,0,0,1-2.2,2.459,5.419,5.419,0,0,1-1.553.684c.409.851,1.054,1.091,1.8.5a5.705,5.705,0,0,0,.832-1.017c.479-.573.978-1.146,1.533-1.775a4.421,4.421,0,0,1-1.293,5.436c-1.387,1.183-2.831,2.33-4.142,3.606-1.646,1.609-3.145,3.4-4.789,5.03a13.724,13.724,0,0,1-2.792,2.274" transform="translate(33.059 32.362)" fill="#e5c5a2" stroke="rgba(0,0,0,0)" stroke-width="1"/>
              <path id="路径_628" data-name="路径 628" d="M9.228,11.829c-.037.592-.055,1.183-.111,1.775-.037.536.074,1.239-.629,1.368-.758.148-1.22-.425-1.516-1.054a7.221,7.221,0,0,1-.148-1.128,4.36,4.36,0,0,0-.37-.925C5.7,13.289,5.77,14.232,6.6,15.12a2.513,2.513,0,0,0,3.273.758c2.422-1.072,4.808-2.182,7.045-3.2-.222-.869-.462-1.738-.7-2.607-.129-.462.037-1.146-1.072-1.239.481,1.923.351,3.606-1.831,4.475-.869-2.755-.869-2.755-1.59-2.755.592,3.107.333,3.735-1.572,3.68-.407-.777.2-1.886-.684-2.533-.148.074-.24.092-.24.129M2.592,22.368c-.557-2.885-1.146-5.751-1.738-8.617A3.281,3.281,0,0,1,1.924,10.46,27.677,27.677,0,0,1,8.34,5.542a3.948,3.948,0,0,1,4.105.055,26.327,26.327,0,0,1,3.143,1.738c.832.629,2.071.684,3.07,1.128,2.5,1.109,3.365,2.94,2.33,5.529-.869,2.126-2.108,4.124-3.18,6.176-.721,1.368-1.535,2.681-2.219,4.068-.814,1.683-.388,3.347.2,4.993.555,1.572.98,3.18,1.627,4.7,1,2.459,2.016,4.919,3.254,7.267,2.459,4.641,5.067,9.209,7.618,13.813a7.118,7.118,0,0,0,.721,1.109c1.9,2.293,2.9,5.048,3.939,7.8,1.331,3.513,2.7,7.008,4.05,10.521a5.276,5.276,0,0,0,2.184,2.644c2.7,1.7,4.75,4.124,6.951,6.361,2.443,2.5,2.311,1.572,1.886,5.325a45.683,45.683,0,0,1-4.308,15.44,62.018,62.018,0,0,1-3.809,6.01c-.074.129-.277.166-.592.333a12.024,12.024,0,0,1-.851-1.128c-3.236-5.085-6.509-10.133-9.689-15.274a176.032,176.032,0,0,1-10.836-19.4c-2.607-5.7-5.27-11.354-7.8-17.067a82.936,82.936,0,0,1-5.7-19.545c-.555-3.107-.98-6.25-1.387-9.375-.129-1.128-.018-2.311-.092-3.458a22.728,22.728,0,0,0-.368-2.94" transform="translate(0.192 3.78)" fill="#e5c5a2" stroke="rgba(0,0,0,0)" stroke-width="1"/>
              <path id="路径_629" data-name="路径 629" d="M20.96,74.671c1.442.444,2.33-.277,3.051-1.368.5-.74.962-1.5,1.479-2.219a38.4,38.4,0,0,0,6.121-15.292c.407-2.053.666-4.142,1.036-6.472a8.956,8.956,0,0,1,.888.5c1.294.962,2.607,1.886,3.865,2.885,1.442,1.109,2.829,2.293,4.234,3.439,2.2,1.794,4.364,3.587,6.583,5.325,1.96,1.535,3.957,3.014,5.954,4.493a2.139,2.139,0,0,1,.925,2.145c-.165,1.757-.222,3.532-.277,5.307a4.291,4.291,0,0,0,1.072,3.236,14.682,14.682,0,0,0,4.364,3.513c1.72.74,3.439,1.516,5.178,2.219a5.279,5.279,0,0,0,1.775.314,18.59,18.59,0,0,0,6.379-.832c.962-.277,1.923-.536,2.9-.74a21.4,21.4,0,0,0,6.342-2.792,7.393,7.393,0,0,0,1.812-1.664A46.152,46.152,0,0,1,91.5,69.7c1.146-.925,2.089-2.163,3.7-2.385.2-.018.37-.24.555-.37,1.868-1.257,3.661-2.663,5.64-3.754a4.461,4.461,0,0,0,2.182-2.94c.111-.444.259-.869.5-1.683,3.476,5.51,8.6,7.378,14.294,8.339,5.973,1,11.076-.943,15.9-4.345a6.9,6.9,0,0,1-.536,1.775c-1.22,2.644-2.533,5.27-3.7,7.97-1.054,2.441-1.849,4.974-2.922,7.415-1.683,3.846-3.476,7.655-5.251,11.483a19.551,19.551,0,0,0-2.071,6.268,9.333,9.333,0,0,1-.573,1.9c-.351,1.091-.777,2.182-1.054,3.31-.351,1.553-.462,3.18-.925,4.715a10.769,10.769,0,0,0-.407,3.587c.055,1.109.185,2.219.166,3.31-.074,4.993-.185,9.967-.3,14.941-.018.5-.166.98-.2,1.479-.222,2.478-.462,4.956-.61,7.433-.074,1.479,0,2.959.037,4.456a1.93,1.93,0,0,0,.166.536l-87.444.851a.928.928,0,0,0,.037-.222c.055-2.552.185-5.1.129-7.637-.166-5.6,1.054-11.021,1.942-16.476.851-5.288,2.422-10.466,2.311-15.9a6.687,6.687,0,0,0-.74-3.162A68.968,68.968,0,0,1,28.8,93.107a41.867,41.867,0,0,0-2.866-7.064c-.629-1.035-1.183-2.126-1.72-3.217-1.091-2.237-2.163-4.475-3.254-6.712-.2-.425-.388-.869-.629-1.387a2.245,2.245,0,0,1,.629-.055" transform="translate(16.807 41.418)" fill="#182440" stroke="rgba(0,0,0,0)" stroke-width="1"/>
              <path id="路径_630" data-name="路径 630" d="M95.362,6.652c.349-1.424,2.4-1.868,3.883-.74-1.37.259-2.609.5-3.883.74" transform="translate(80.516 4.019)" fill="#1a1818" stroke="rgba(0,0,0,0)" stroke-width="1"/>
              <path id="路径_631" data-name="路径 631" d="M98.208,4.148c-1.794-.869-2.644.314-3.513,1.535-.242-1.461.423-2.5,1.5-2.718a1.587,1.587,0,0,1,2.017,1.183" transform="translate(79.908 2.011)" fill="#1a1818" stroke="rgba(0,0,0,0)" stroke-width="1"/>
              <path id="路径_632" data-name="路径 632" d="M6.745,11.841c.055-.592.074-1.183.111-1.775,0-.037.092-.055.24-.129.888.647.277,1.757.684,2.533,1.9.055,2.163-.573,1.572-3.68.721,0,.721,0,1.59,2.755,2.182-.869,2.311-2.552,1.831-4.475,1.109.092.943.777,1.072,1.239.24.869.481,1.738.7,2.607-2.237,1.017-4.623,2.126-7.045,3.2a2.513,2.513,0,0,1-3.273-.758c-.832-.888-.906-1.831-.148-3.254a4.36,4.36,0,0,1,.37.925A7.221,7.221,0,0,0,4.6,12.155c.3.629.758,1.2,1.516,1.054.7-.129.592-.832.629-1.368" transform="translate(2.564 5.543)" fill="#1a1818" stroke="rgba(0,0,0,0)" stroke-width="1"/>
              <path id="路径_633" data-name="路径 633" d="M145.965,105.982a2.718,2.718,0,0,0,.758-.129,11.731,11.731,0,0,0,6.8-7.637,1.75,1.75,0,0,0-.629-1.96,9.72,9.72,0,0,0-1.831,3.55c-.74,2.108-1.757,4.031-3.9,5.1a14.417,14.417,0,0,0-1.313.851l.111.222M129.674,90.746a2.494,2.494,0,0,0-.629.055c-3.014,1.072-5.03,3.31-6.786,5.843a5.475,5.475,0,0,0-.629,1.516,1.067,1.067,0,0,0,0,.8c.814,1.091,1.165,2.515,2.478,3.347,1.183-.98,1.535-2.441,2.163-3.7.666-1.276,1.294-2.57,1.849-3.883a16.621,16.621,0,0,0,1.553-3.976M145.65,63.12a193.25,193.25,0,0,0-13.887,25.869c-2.108,4.826-4.364,9.56-6.564,14.349a7.787,7.787,0,0,0,.592.666,14.029,14.029,0,0,0,7.47,2.9c4.253.259,8.395.092,12.223-2.126a6.825,6.825,0,0,0,2.626-2.441c1.183-2,2.367-3.994,3.421-6.065,2.9-5.658,5.732-11.354,8.6-17.03.5-.98,1.091-1.923,1.59-2.9.814-1.627,1.646-3.254,2.385-4.919.814-1.812,1.461-3.7,2.293-5.51.74-1.664,1.72-3.217,2.422-4.9,1.942-4.586,3.809-9.209,5.677-13.813a6.454,6.454,0,0,0,.592-2.071,13.533,13.533,0,0,1,1.646-5.381,24.225,24.225,0,0,0,2.792-8.765c.314-2.959,1.072-5.862,1.627-8.8a2.53,2.53,0,0,0,.055-.832c-.259-1.942.592-3.661,1.128-5.436.647-2.126,1.331-4.234,1.979-6.342a2.944,2.944,0,0,0-.37-2.552c-1.572-2.237-3.273-4.308-5.862-5.473a2.9,2.9,0,0,0-2.7-.018,11.278,11.278,0,0,0-1.72,1,5.011,5.011,0,0,0-1.109,6.823,19.752,19.752,0,0,0,1.313,1.479,6.114,6.114,0,0,1,.481.721c-.074.111-.148.2-.2.3a4.287,4.287,0,0,1-1.2-.592,6.131,6.131,0,0,1-2.034-6.195c-.314,0-.462-.055-.518-.018-1.535,1.479-2.977,3.014-2.57,5.418.129.758.3,1.516.425,2.274.111.758.24,1.535.3,2.293.055.943-.074,1.9.055,2.829a15.97,15.97,0,0,1-.536,5.917c-.3,1.239-.721,2.441-1,3.68a12.231,12.231,0,0,1-1.738,3.92c-1.757,2.755-3.421,5.547-5.1,8.358-1.313,2.182-2.515,4.438-3.865,6.583-3.532,5.621-7.174,11.187-10.706,16.808M73.036,106c-.037,2,0,3.976-.054,5.973-.02,1.054-.187,2.09-.2,3.144a4.494,4.494,0,0,0,1.459,3.217c2.443,2.626,5.732,3.661,8.931,4.9a3.44,3.44,0,0,0,1.629.148,43.677,43.677,0,0,0,4.919-.61,27.867,27.867,0,0,0,8.6-2.94,13.685,13.685,0,0,0,2.794-2.274c1.644-1.627,3.143-3.421,4.789-5.03,1.311-1.276,2.753-2.422,4.14-3.606a4.419,4.419,0,0,0,1.294-5.436c-.555.629-1.054,1.2-1.533,1.775a5.705,5.705,0,0,1-.832,1.017c-.741.592-1.387.351-1.8-.5a5.418,5.418,0,0,0,1.553-.684,21.333,21.333,0,0,0,2.2-2.459,2.533,2.533,0,0,0,.647-1.294c.092-1.886.092-3.772.092-5.64,0-.7-.462-.98-1.108-.888a2.73,2.73,0,0,0-2.406,2c-.166.5-.148,1.109-.8,1.331-.684-2.274.481-3.55,4.512-4.752a19.456,19.456,0,0,0-.61-3.106c-.814-2.219-1.72-4.419-2.737-6.564a15.264,15.264,0,0,0-2.348-3.791,47.531,47.531,0,0,0-5.011-4.826C97.629,72.217,93.618,70.646,89,71.5a22.661,22.661,0,0,0-4.7,1.59A16.145,16.145,0,0,0,75,82.462c-1.146,3.051-1.2,6.139-1.22,9.3-.035,3.254-.331,6.527-.5,9.782-.094,1.479-.2,2.977-.242,4.456M35.7,110.457c.224,2.737,1.183,4.308,2.755,4.7a12.187,12.187,0,0,0-2.755-4.7M3.324,38.915c-.832-5.473-1.7-10.928-2.515-16.4-.277-1.9-.388-3.846-.555-5.769a3.125,3.125,0,0,1,.962-2.4,29.493,29.493,0,0,1,6.694-5.4,5.357,5.357,0,0,1,5.51-.148c2.053,1.091,4.2,1.979,6.324,2.922a4.677,4.677,0,0,1,2.885,5.529c-.518,2.681-2.108,4.845-3.4,7.156a25.55,25.55,0,0,1-1.368,2.274,5.626,5.626,0,0,0-.647,5.214c1.775,6.065,3.828,12.019,7.156,17.456,1.2,1.979,2.2,4.105,3.4,6.084,1.442,2.422,3.033,4.752,4.512,7.156a15.518,15.518,0,0,1,1.054,2.4c.721,1.96,1.387,3.957,2.128,5.936.812,2.163,1.7,4.308,2.531,6.49A5.874,5.874,0,0,0,40.362,80.5c2.478,1.553,4.364,3.735,6.379,5.788,2.866,2.922,5.714,5.862,9.283,8.007a15.151,15.151,0,0,1,2.663,2.219,61.3,61.3,0,0,0,9.356,7.415c1.22.832,2.385,1.757,3.682,2.737a3.269,3.269,0,0,0,.313-.8c.259-3.476.555-6.953.741-10.429.109-1.923.017-3.865.017-5.806-.055-7.729,3.7-14.46,11.317-17.511a25.32,25.32,0,0,1,5.362-1.646c4.419-.7,8.339.832,11.76,3.513a38.429,38.429,0,0,1,5.753,5.473,22.682,22.682,0,0,1,2.9,4.993c.812,1.627,1.424,3.347,2.088,5.03a15.951,15.951,0,0,1,.925,6.028c-.055,3.606-.129,7.212-.2,10.8a6.932,6.932,0,0,0,.091.721,9.251,9.251,0,0,0,3.661-1.9c.351-.259.629-.666,1.037-.832,1.57-.647,2.069-1.886,2.365-3.476A13.663,13.663,0,0,1,128.8,89.95a4.35,4.35,0,0,0,2.755-2.7c4.031-9.652,9.523-18.51,14.922-27.4,2.422-3.957,5.1-7.766,7.581-11.7,2.163-3.476,4.179-7.045,6.287-10.558a65.107,65.107,0,0,1,3.458-5.658c1.59-2.089,2.256-4.512,3.014-6.934,1.072-3.476.906-7.008.832-10.54-.018-.536-.314-1.054-.388-1.609-.166-1.405-.647-2.94-.314-4.253.5-1.96,1.276-4.031,3.624-4.752a3.234,3.234,0,0,0,1.183-.814c3.735-3.754,6.268-3.68,10.17.111.777.777,1.516,1.627,2.219,2.459a4.949,4.949,0,0,1,.869,5.141c-.906,2.607-1.683,5.27-2.5,7.914a4.362,4.362,0,0,0-.351,1.276c-.2,4.087-1.257,8.062-1.942,12.075a5.932,5.932,0,0,0-.129.98,10.37,10.37,0,0,1-1.405,4.9,19.8,19.8,0,0,0-2.663,7.452,6.976,6.976,0,0,1-.536,1.9c-1.794,4.419-3.569,8.839-5.418,13.221-.721,1.738-1.664,3.384-2.422,5.085-.906,2.016-1.72,4.068-2.607,6.1-.61,1.405-1.239,2.829-1.942,4.2-.888,1.775-1.9,3.495-2.792,5.288-2.016,4.05-3.976,8.136-6.01,12.186A2.832,2.832,0,0,0,154.119,96a4.686,4.686,0,0,1,.111,3.217c-.98,4.271-3.051,8.081-4.826,12-.943,2.126-1.849,4.253-2.774,6.4-1.886,4.364-3.7,8.765-5.64,13.11-1.294,2.866-2.9,5.621-3.273,8.82a3.361,3.361,0,0,1-.259.962c-1.664,3.587-1.849,7.507-2.441,11.317-.055.388-.074.777-.092,1.165-.055,5.584-.092,11.169-.185,16.771a14.071,14.071,0,0,1-.277,2.626,32.908,32.908,0,0,0-.462,9.43,5.15,5.15,0,0,1-.647,3.513c-.074-.222-.148-.388-.2-.518a1.929,1.929,0,0,1-.166-.536c-.037-1.5-.111-2.977-.037-4.456.148-2.478.388-4.956.61-7.433.037-.5.185-.98.2-1.479.111-4.974.222-9.948.3-14.941.018-1.091-.111-2.2-.166-3.31a10.769,10.769,0,0,1,.407-3.587c.462-1.535.573-3.162.925-4.715.277-1.128.7-2.219,1.054-3.31a9.333,9.333,0,0,0,.573-1.9,19.551,19.551,0,0,1,2.071-6.268c1.775-3.828,3.569-7.637,5.251-11.483,1.072-2.441,1.868-4.974,2.922-7.415,1.165-2.7,2.478-5.325,3.7-7.97a6.9,6.9,0,0,0,.536-1.775c-4.826,3.4-9.93,5.344-15.9,4.345-5.7-.962-10.817-2.829-14.294-8.339-.239.814-.388,1.239-.5,1.683a4.461,4.461,0,0,1-2.182,2.94c-1.979,1.091-3.77,2.5-5.64,3.754-.185.129-.351.351-.555.37-1.609.222-2.552,1.461-3.7,2.385a46.237,46.237,0,0,0-6.86,6.971A7.417,7.417,0,0,1,99.887,120a21.436,21.436,0,0,1-6.344,2.792c-.98.2-1.94.462-2.9.74a18.607,18.607,0,0,1-6.381.832,5.26,5.26,0,0,1-1.773-.314c-1.74-.7-3.46-1.479-5.179-2.219a14.651,14.651,0,0,1-4.362-3.513,4.285,4.285,0,0,1-1.074-3.236c.055-1.775.113-3.55.279-5.307a2.145,2.145,0,0,0-.925-2.145c-2-1.479-3.994-2.959-5.956-4.493-2.219-1.738-4.381-3.532-6.583-5.325-1.405-1.146-2.792-2.33-4.234-3.439-1.257-1-2.57-1.923-3.865-2.885a8.958,8.958,0,0,0-.888-.5c-.368,2.33-.629,4.419-1.035,6.472a38.422,38.422,0,0,1-6.119,15.292c-.52.721-.982,1.479-1.481,2.219-.721,1.091-1.609,1.812-3.051,1.368a2.245,2.245,0,0,0-.629.055c.24.518.425.962.629,1.387,1.091,2.237,2.163,4.475,3.254,6.712.536,1.091,1.091,2.182,1.72,3.217a41.866,41.866,0,0,1,2.866,7.064,68.969,68.969,0,0,0,3.532,7.489,6.687,6.687,0,0,1,.74,3.162c.111,5.436-1.461,10.614-2.311,15.9-.888,5.455-2.108,10.873-1.942,16.476.055,2.533-.074,5.085-.129,7.637a.928.928,0,0,1-.037.222c-.037.277-.129.555-.185.851-.812-.2-.721-.758-.74-1.22-.018-1.442-.055-2.885,0-4.308.148-3.328.185-6.657.555-9.967.407-3.68,1.128-7.322,1.757-10.965.592-3.495,1.294-6.971,1.831-10.466a27.692,27.692,0,0,0,.2-4.641,5.148,5.148,0,0,0-.5-2.034c-.832-1.757-1.831-3.421-2.644-5.178-.555-1.2-.925-2.5-1.405-3.717-.74-1.849-1.461-3.7-2.256-5.51-.869-1.923-1.812-3.809-2.755-5.677q-1.193-2.385-2.441-4.715a7.228,7.228,0,0,1-1.276-3.384,3.263,3.263,0,0,0-.444-1.22,7.87,7.87,0,0,1-.74-4.2,2.527,2.527,0,0,0-.536-1.849c-3.107-4.919-6.231-9.8-9.3-14.737a136.44,136.44,0,0,1-8.783-16.771c-1.923-4.345-4.031-8.617-5.954-12.962A93.165,93.165,0,0,1,3.324,38.915m.166-6.121c.407,3.125.832,6.268,1.387,9.375a82.849,82.849,0,0,0,5.7,19.545c2.533,5.714,5.2,11.372,7.8,17.067a176.03,176.03,0,0,0,10.836,19.4c3.18,5.141,6.453,10.189,9.689,15.274a12.024,12.024,0,0,0,.851,1.128c.314-.166.518-.2.592-.333a62.016,62.016,0,0,0,3.809-6.01A45.683,45.683,0,0,0,48.461,92.8c.425-3.754.557-2.829-1.886-5.325-2.2-2.237-4.253-4.66-6.951-6.361a5.276,5.276,0,0,1-2.184-2.644c-1.35-3.513-2.718-7.008-4.05-10.521-1.035-2.755-2.034-5.51-3.939-7.8a7.118,7.118,0,0,1-.721-1.109c-2.552-4.6-5.159-9.172-7.618-13.813-1.239-2.348-2.256-4.808-3.254-7.267-.647-1.516-1.072-3.125-1.627-4.7-.592-1.646-1.017-3.31-.2-4.993.684-1.387,1.5-2.7,2.219-4.068,1.072-2.053,2.311-4.05,3.18-6.176,1.036-2.589.166-4.419-2.33-5.529-1-.444-2.237-.5-3.07-1.128a26.327,26.327,0,0,0-3.143-1.738A3.948,3.948,0,0,0,8.779,9.57a27.677,27.677,0,0,0-6.416,4.919A3.282,3.282,0,0,0,1.29,17.78c.592,2.866,1.183,5.732,1.738,8.617a22.413,22.413,0,0,1,.37,2.94c.074,1.146-.037,2.33.092,3.458" transform="translate(-0.247 -0.248)" fill="#1a1818" stroke="rgba(0,0,0,0)" stroke-width="1"/>
            </g>
          </g>
        </g>
      </g>
      <path id="路径_634" data-name="路径 634" d="M24.732,100.91h.185l87.444-.851h.2" transform="translate(21 84.962)" fill="none" stroke="#1a1818" stroke-miterlimit="10" stroke-width="1"/>
    </g>
  </svg>
  