<svg xmlns="http://www.w3.org/2000/svg" xmlns:xlink="http://www.w3.org/1999/xlink" width="144.725" height="160.593" viewBox="0 0 144.725 160.593">
    <defs>
      <clipPath id="clip-path">
        <rect id="矩形_32" data-name="矩形 32" width="144.725" height="160.593" fill="none"/>
      </clipPath>
      <clipPath id="clip-path-2">
        <rect id="矩形_31" data-name="矩形 31" width="143.837" height="159.316" fill="none"/>
      </clipPath>
    </defs>
    <g id="组_205" data-name="组 205" transform="translate(0 0)">
      <g id="组_204" data-name="组 204" transform="translate(0 0)" clip-path="url(#clip-path)">
        <g id="组_203" data-name="组 203" transform="translate(0.441 0.442)">
          <g id="组_202" data-name="组 202" clip-path="url(#clip-path-2)">
            <g id="组_201" data-name="组 201">
              <g id="组_200" data-name="组 200" clip-path="url(#clip-path-2)">
                <path id="路径_635" data-name="路径 635" d="M11.178,37.806a.714.714,0,0,1-.053,1.066c-.178.178-.373.338-.569.5-1.1.906-1.6.8-2.132-.48a3.445,3.445,0,0,1,.32-3.82c.906,1.013,1.688,1.866,2.434,2.736" transform="translate(5.772 26.803)" fill="#0f121b"/>
                <path id="路径_636" data-name="路径 636" d="M81.89,77.691c-.657,1.972-1.368,3.927-2.15,5.864-1.244,3.109-2.576,6.183-3.82,9.293A34.439,34.439,0,0,0,73.059,104.5a22.4,22.4,0,0,0,.373,3.909c.036.249.373.462.569.675a1.471,1.471,0,0,0,.16-.977,14.565,14.565,0,0,1-.391-2.861A29.391,29.391,0,0,1,75.422,96.6c1.706-4.353,3.518-8.671,5.188-13.042,1.137-2.985,2.15-6.024,3.11-9.08a30.337,30.337,0,0,0,.817-4.016,2.2,2.2,0,0,0-.977-2.4c-.249-.16-.444-.409-.693-.586-2.026-1.51-3.181-3.394-2.772-6.024.018-.142-.036-.3-.018-.462a2.047,2.047,0,0,0-1.546-2.434A3.991,3.991,0,0,1,76.169,56.1a1.4,1.4,0,0,1,.64-1.955,10.628,10.628,0,0,1,2.008-.657c.355-.107.853-.053.782-.711-1.137-.48-2.15.284-3.252.338a3.113,3.113,0,0,1,.284-2.239c.764-1.919,2.612-1.741,4.211-2.043-.018-.142-.053-.267-.071-.391-.782-.107-1.581-.2-2.381-.3.533-2.221,1.262-2.772,3.3-2.648.515.018,1.084.284,1.688-.231-.533-.373-.96-.675-1.386-.977a1.482,1.482,0,0,1,1.084-.32,30.482,30.482,0,0,1,4.033.764,8.251,8.251,0,0,1,2.523,1.35c1.013.746,1.919,1.652,2.9,2.452A2.987,2.987,0,0,1,93.706,51.2c-.107,2.292-.2,4.567-.249,6.841a3.52,3.52,0,0,0,.284,1.333,29.226,29.226,0,0,1,1.617,9.257,56.1,56.1,0,0,0,.764,7.729,53.019,53.019,0,0,1,.355,12.776c-.178,2.541-.5,5.064-.675,7.587a56.253,56.253,0,0,1-4.14,18.213,30.174,30.174,0,0,1-2.594,4.442,2.76,2.76,0,0,1-1.155.96,9.364,9.364,0,0,1-5.65.817,15.489,15.489,0,0,1-6.148-2.541,41.286,41.286,0,0,1-7.41-6.326c-1.155-1.35-2.1-2.879-3.3-4.158a17.683,17.683,0,0,1-4.673-10.235c-.3-2.345-.462-4.691-.551-7.054v-.018L61.6,89.88A110.906,110.906,0,0,0,80.931,73.569c.355.853.675,1.759.959,2.648a2.457,2.457,0,0,1,0,1.475" transform="translate(46.309 33.703)" fill="#e5c5a2"/>
                <path id="路径_637" data-name="路径 637" d="M68.416,30.972a18.97,18.97,0,0,1,.249,3.34c.018.8-.071,1.617-.124,2.452-1.013.32-2.15.426-2.47,1.955.657-.3,1.137-.515,1.652-.746a3.961,3.961,0,0,1,.746,3.874,43.831,43.831,0,0,1-2.132,5.686A2.907,2.907,0,0,1,64.7,49.239c-.338.142-.569.8-.622,1.262a29.381,29.381,0,0,1-3.127,9.488,11.637,11.637,0,0,1-6.539,5.633,24.079,24.079,0,0,1-11.283,1.066,11.04,11.04,0,0,1-7.481-4.549,25.313,25.313,0,0,1-3.82-7.569,18.693,18.693,0,0,1-.5-2.985,5.335,5.335,0,0,0-.053-.764A18.179,18.179,0,0,1,30.746,43c.071-.657.142-1.315.16-1.972.071-1.475.16-2.932.124-4.407-.071-3.412-.053-6.841,1.173-10.075,1.3-3.412,3.731-5.864,6.717-8,5.615-3.98,11.567-4.424,17.982-2.559a10.726,10.726,0,0,1,6.041,4.318A13.1,13.1,0,0,0,64.2,21.839c2.488,2.559,3.483,5.793,4.211,9.133" transform="translate(23.304 11.16)" fill="#e5c5a2"/>
                <path id="路径_638" data-name="路径 638" d="M70.107,17.2a4.318,4.318,0,0,1-4.709.64c-2.1-1.208-4.14-2.541-6.237-3.785a37.755,37.755,0,0,0-3.34-1.812,3.024,3.024,0,0,0-2.932.089c-1.262.746-2.541,1.475-3.82,2.221A50.753,50.753,0,0,0,36.187,24.926a9.909,9.909,0,0,1-1.724,1.493,16.265,16.265,0,0,0-5.633,6.841,22.019,22.019,0,0,1-.96,2.079,7.232,7.232,0,0,1-3.3,3.252,10.642,10.642,0,0,1-6.148,1.421,2.411,2.411,0,0,0-.6.142c.142.657.64.657,1.066.711a9.611,9.611,0,0,0,4.869-1,26.5,26.5,0,0,0,2.434-1.279,1.964,1.964,0,0,1,3,1.6,22.511,22.511,0,0,1-.462,3.607c-.391,1.883-.782,3.785-1.3,5.633a22.633,22.633,0,0,1-1.457,3.678,39.6,39.6,0,0,1-7.321,10.43c-.213.213-.444.409-.817.729-.586-.6-1.173-1.137-1.67-1.741A73.1,73.1,0,0,1,9.107,52.041c-1.67-2.79-3.483-5.508-5.029-8.351A26.6,26.6,0,0,1,.756,33.455a3.443,3.443,0,0,1,1.119-2.861c5.633-5.846,12.171-10.608,18.6-15.494a68.793,68.793,0,0,1,13.38-7.534c3.376-1.528,6.805-2.985,10.235-4.371A26.909,26.909,0,0,1,54.346,1.24c3.252.036,6.486-.267,9.737-.5a9.324,9.324,0,0,1,4.869.888A3.679,3.679,0,0,1,70.871,3.71c.729,2.1,1.439,4.211,2.257,6.29a2.329,2.329,0,0,1-.693,2.967A5.346,5.346,0,0,1,68.6,14.549a3.185,3.185,0,0,0-.853.249c.5.729,1.155.5,1.706.6.426.089,1.1.3,1.119.5a1.749,1.749,0,0,1-.462,1.3m-6.752-4.549c2.2-2.079,2.559-4.549,2.221-7.2-.16-.018-.32-.053-.48-.071-.053.444-.071.871-.16,1.3a25.325,25.325,0,0,1-.817,3.7,2.578,2.578,0,0,1-2.95,1.635,2.724,2.724,0,0,1-2.381-1.972c1.368-1.173,1.457-1.439.8-3.074-.249.711-.426,1.19-.622,1.688a2.746,2.746,0,0,1-.409.107c-.977.2-1.19.462-.817,1.279a4.833,4.833,0,0,0,2.576,2.683c.977.391,1.99.729,3,1.031a26.467,26.467,0,0,0,2.665.64,2.333,2.333,0,0,0,2.417-.906,5.261,5.261,0,0,0,.3-5.739c-.124-.178-.444-.231-.871-.444l.6,2.114a4.449,4.449,0,0,1-.213,2.843,1.885,1.885,0,0,1-1.688,1.35,5.541,5.541,0,0,1-3.181-.96" transform="translate(0.131 0.113)" fill="#e5c5a2"/>
                <path id="路径_639" data-name="路径 639" d="M121.079,89.939a110.906,110.906,0,0,1-19.332,16.312l-1.422.942c-.089-2.772-.071-5.526-.036-8.316.018-1.972.284-3.945.426-5.917a7.263,7.263,0,0,0-.107-1.119c-.355.515-.6.711-.64.96a26.507,26.507,0,0,0-.5,4.069c.053,4.886.178,9.773.338,14.641.16,4.744,1.35,9.133,4.5,12.847a1.933,1.933,0,0,1,.249.6c-.267.249-.533.48-.782.728-.96.96-1.955,1.919-2.9,2.914a4.359,4.359,0,0,0-1.19,3.2,19.727,19.727,0,0,0,.231,2.274c.32,2.4,1.119,4.762.657,7.25a1.971,1.971,0,0,0,.107.6H13.721c.071-.533.142-.96.16-1.386.053-1.262.036-2.541.16-3.8q1.253-12.527,2.541-25.036a92.667,92.667,0,0,1,2.257-14.144c.409-1.528.853-3.038,1.226-4.567,1-4,1.972-8,2.9-12.012a3.286,3.286,0,0,0-.071-1.759c-.6-1.83-1.279-3.625-1.955-5.437a22.331,22.331,0,0,0-1.3-3.234c-1.368-2.4-2.861-4.691-4.247-7.054-1.706-2.9-3.376-5.81-4.975-8.742C9.687,53.424,9.154,52,8.5,50.528a7.407,7.407,0,0,0,3.82-2.541c.924-.942,1.724-2.008,2.576-3.021,4.069-4.744,7.125-9.986,8.085-16.294.284-1.883.888-3.714,1.386-5.793.426.391.8.693,1.137,1.031a32.054,32.054,0,0,0,3.234,3c3.483,2.434,6.432,5.455,9.648,8.191a20.8,20.8,0,0,0,2.47,2.026c1.919,1.244,3.909,2.4,5.082,4.478a.494.494,0,0,0,.213.213,1.953,1.953,0,0,1,.942,1.652,20.639,20.639,0,0,0,.373,3.021,33.226,33.226,0,0,0,4.282,9.382c2.417,3.376,5.562,5.473,9.826,5.508,1.83.018,3.66,0,5.473-.142a14.011,14.011,0,0,0,8.191-2.95c1.208-1.013,2.31-2.132,3.447-3.216a.954.954,0,0,0,.231-.391c.5-1.368,1-2.754,1.528-4.122a8.483,8.483,0,0,1,.711-1.19c.231.693.391,1.1.515,1.528a31.692,31.692,0,0,0,.871,3.074,32.7,32.7,0,0,0,1.6,3.269.677.677,0,0,0,1.084.284c-.249-.515-.5-1.031-.8-1.635,1.279-.2,1.777.533,2.274,1.315a8.325,8.325,0,0,0,1.439,1.937,45.936,45.936,0,0,0,6.2,4.655c2.523,1.421,4.94,3,7.41,4.5a23.954,23.954,0,0,1,4.567,3.785,22.381,22.381,0,0,0,2.914,2.417,22.592,22.592,0,0,1,5.6,5.117c1.084,1.546,2.186,3.074,3.181,4.673.96,1.528,1.848,3.127,2.665,4.762.142.284.284.586.409.888" transform="translate(6.16 17.334)" fill="#182440"/>
                <path id="路径_640" data-name="路径 640" d="M41.688,11.567a1.885,1.885,0,0,0,1.688-1.35,4.449,4.449,0,0,0,.213-2.843l-.6-2.114c.426.213.746.267.871.444a5.261,5.261,0,0,1-.3,5.739,2.333,2.333,0,0,1-2.417.906,26.466,26.466,0,0,1-2.665-.64c-1.013-.3-2.026-.64-3-1.031A4.833,4.833,0,0,1,32.893,8c-.373-.817-.16-1.084.817-1.279a2.746,2.746,0,0,0,.409-.107c.2-.5.373-.977.622-1.688.657,1.635.569,1.9-.8,3.074a2.724,2.724,0,0,0,2.381,1.972,2.578,2.578,0,0,0,2.95-1.635,25.325,25.325,0,0,0,.817-3.7c.089-.426.107-.853.16-1.3.16.018.32.053.48.071.338,2.648-.018,5.117-2.221,7.2a5.541,5.541,0,0,0,3.181.96" transform="translate(24.978 2.154)" fill="#1a1818"/>
                <path id="路径_641" data-name="路径 641" d="M17.144,65.924a.714.714,0,0,0,.053-1.066c-.746-.871-1.528-1.724-2.434-2.736a3.445,3.445,0,0,0-.32,3.82c.533,1.279,1.031,1.386,2.132.48.2-.16.391-.32.569-.5M80.454,27.4c-6.414-1.866-12.367-1.421-17.982,2.559-2.985,2.132-5.419,4.584-6.717,8-1.226,3.234-1.244,6.663-1.173,10.075.036,1.475-.053,2.932-.124,4.407-.018.657-.089,1.315-.16,1.972a18.179,18.179,0,0,0,.533,7.818,5.335,5.335,0,0,1,.053.764,18.692,18.692,0,0,0,.5,2.985,25.313,25.313,0,0,0,3.82,7.569A11.04,11.04,0,0,0,66.683,78.1a24.079,24.079,0,0,0,11.283-1.066A11.637,11.637,0,0,0,84.505,71.4a29.381,29.381,0,0,0,3.127-9.488c.053-.462.284-1.119.622-1.262a2.907,2.907,0,0,0,1.635-1.706,43.834,43.834,0,0,0,2.132-5.686,3.961,3.961,0,0,0-.746-3.874c-.515.231-1,.444-1.652.746.32-1.528,1.457-1.635,2.47-1.955.053-.835.142-1.652.124-2.452a18.97,18.97,0,0,0-.249-3.34c-.729-3.34-1.724-6.574-4.211-9.133A13.1,13.1,0,0,1,86.5,31.719,10.726,10.726,0,0,0,80.454,27.4M65.777,18.2a4.318,4.318,0,0,0,4.709-.64,1.749,1.749,0,0,0,.462-1.3c-.018-.2-.693-.409-1.119-.5-.551-.107-1.208.124-1.706-.6a3.185,3.185,0,0,1,.853-.249,5.346,5.346,0,0,0,3.838-1.581,2.329,2.329,0,0,0,.693-2.967c-.817-2.079-1.528-4.193-2.257-6.29a3.679,3.679,0,0,0-1.919-2.079A9.324,9.324,0,0,0,64.462,1.1c-3.252.231-6.486.533-9.737.5A26.909,26.909,0,0,0,44.472,3.556C41.043,4.942,37.614,6.4,34.238,7.927a68.794,68.794,0,0,0-13.38,7.534c-6.432,4.886-12.971,9.648-18.6,15.494a3.443,3.443,0,0,0-1.119,2.861A26.6,26.6,0,0,0,4.458,44.051C6,46.894,7.816,49.612,9.486,52.4A73.1,73.1,0,0,0,16.54,62.885c.5.6,1.084,1.137,1.67,1.741.373-.32.6-.515.817-.729a39.6,39.6,0,0,0,7.321-10.43,22.633,22.633,0,0,0,1.457-3.678c.515-1.848.906-3.749,1.3-5.633a22.512,22.512,0,0,0,.462-3.607,1.964,1.964,0,0,0-3-1.6,26.5,26.5,0,0,1-2.434,1.279,9.611,9.611,0,0,1-4.869,1c-.426-.053-.924-.053-1.066-.711a2.411,2.411,0,0,1,.6-.142,10.642,10.642,0,0,0,6.148-1.421,7.232,7.232,0,0,0,3.3-3.252,22.019,22.019,0,0,0,.96-2.079,16.265,16.265,0,0,1,5.633-6.841,9.909,9.909,0,0,0,1.724-1.493A50.753,50.753,0,0,1,49.448,14.91c1.279-.746,2.559-1.475,3.82-2.221A3.024,3.024,0,0,1,56.2,12.6a37.755,37.755,0,0,1,3.34,1.812c2.1,1.244,4.14,2.576,6.237,3.785M142.36,130.673c.178-2.523.5-5.046.675-7.587a53.019,53.019,0,0,0-.355-12.776,56.1,56.1,0,0,1-.764-7.729,29.226,29.226,0,0,0-1.617-9.257,3.52,3.52,0,0,1-.284-1.333c.053-2.274.142-4.549.249-6.841a2.987,2.987,0,0,0-1.173-2.665c-.977-.8-1.883-1.706-2.9-2.452a8.251,8.251,0,0,0-2.523-1.35,30.48,30.48,0,0,0-4.033-.764,1.482,1.482,0,0,0-1.084.32c.426.3.853.6,1.386.977-.6.515-1.173.249-1.688.231-2.043-.124-2.772.426-3.3,2.648.8.107,1.6.2,2.381.3.018.124.053.249.071.391-1.6.3-3.447.124-4.211,2.043a3.113,3.113,0,0,0-.284,2.239c1.1-.053,2.114-.817,3.252-.338.071.657-.426.6-.782.711a10.629,10.629,0,0,0-2.008.657,1.4,1.4,0,0,0-.64,1.955,3.991,3.991,0,0,0,2.363,2.452,2.047,2.047,0,0,1,1.546,2.434c-.018.16.036.32.018.462-.409,2.63.746,4.513,2.772,6.024.249.178.444.426.693.586a2.2,2.2,0,0,1,.977,2.4,30.335,30.335,0,0,1-.817,4.016c-.96,3.056-1.972,6.095-3.109,9.08-1.67,4.371-3.483,8.689-5.188,13.042a29.391,29.391,0,0,0-1.652,8.653,14.564,14.564,0,0,0,.391,2.861,1.472,1.472,0,0,1-.16.977c-.2-.213-.533-.426-.569-.675a22.4,22.4,0,0,1-.373-3.909,34.439,34.439,0,0,1,2.861-11.656c1.244-3.11,2.576-6.183,3.82-9.293.782-1.937,1.493-3.891,2.15-5.864a2.457,2.457,0,0,0,0-1.475c-.284-.888-.6-1.795-.96-2.648-.124-.3-.267-.6-.409-.888-.817-1.635-1.706-3.234-2.665-4.762-1-1.6-2.1-3.127-3.181-4.673a22.592,22.592,0,0,0-5.6-5.117,22.381,22.381,0,0,1-2.914-2.417,23.954,23.954,0,0,0-4.567-3.785c-2.47-1.493-4.886-3.074-7.41-4.5a45.935,45.935,0,0,1-6.2-4.655,8.324,8.324,0,0,1-1.439-1.937c-.5-.782-1-1.51-2.274-1.315.3.6.551,1.119.8,1.635a.677.677,0,0,1-1.084-.284,32.7,32.7,0,0,1-1.6-3.269,31.691,31.691,0,0,1-.871-3.074c-.124-.426-.284-.835-.515-1.528a8.483,8.483,0,0,0-.711,1.19c-.533,1.368-1.031,2.754-1.528,4.122a.954.954,0,0,1-.231.391c-1.137,1.084-2.239,2.2-3.447,3.216a14.011,14.011,0,0,1-8.191,2.95c-1.812.142-3.643.16-5.473.142-4.264-.036-7.41-2.132-9.826-5.508a33.226,33.226,0,0,1-4.282-9.382,20.639,20.639,0,0,1-.373-3.021,1.953,1.953,0,0,0-.942-1.652.494.494,0,0,1-.213-.213c-1.173-2.079-3.163-3.234-5.082-4.478a20.8,20.8,0,0,1-2.47-2.026c-3.216-2.736-6.166-5.757-9.648-8.191a32.054,32.054,0,0,1-3.234-3c-.338-.338-.711-.64-1.137-1.031-.5,2.079-1.1,3.909-1.386,5.793-.96,6.308-4.016,11.55-8.085,16.294-.853,1.013-1.652,2.079-2.576,3.021a7.407,7.407,0,0,1-3.82,2.541c.657,1.475,1.19,2.9,1.919,4.229,1.6,2.932,3.269,5.846,4.975,8.742,1.386,2.363,2.879,4.655,4.247,7.054a22.33,22.33,0,0,1,1.3,3.234c.675,1.812,1.35,3.607,1.955,5.437a3.286,3.286,0,0,1,.071,1.759c-.924,4.016-1.9,8.014-2.9,12.012-.373,1.528-.817,3.038-1.226,4.567a92.667,92.667,0,0,0-2.257,14.144q-1.306,12.5-2.541,25.036c-.124,1.262-.107,2.541-.16,3.8-.018.426-.089.853-.16,1.386-.8-.338-.675-.888-.657-1.35.142-2.328.249-4.673.462-7,.48-5.366.96-10.732,1.581-16.081.8-7.072,1.333-14.179,3.181-21.091,1.35-5.064,2.541-10.164,3.767-15.245a2.544,2.544,0,0,0-.053-1.315c-.64-2.132-1.262-4.282-2.008-6.4a17.946,17.946,0,0,0-1.564-3.287C21.711,82.5,18.37,77.4,15.705,71.894c-.5-1.048-.942-2.15-1.493-3.163a8.469,8.469,0,0,1-.551-6.628,2.252,2.252,0,0,0-.267-1.972c-2.736-4.46-5.366-8.991-8.209-13.4a26.53,26.53,0,0,1-3.163-6.2C1.366,38.454.8,36.339.335,34.207c-.409-1.955.675-3.447,2.026-4.691C4.689,27.4,7.052,25.3,9.5,23.333c3.678-2.967,7.392-5.9,11.176-8.742A72.623,72.623,0,0,1,35.357,6.559c2.736-1.208,5.455-2.488,8.28-3.518,2.328-.835,4.78-1.35,7.161-2.026,2.1-.6,4.229-.16,6.343-.284C59.522.607,61.921.553,64.284.3a10.132,10.132,0,0,1,5.473,1A4.407,4.407,0,0,1,72.085,4c.675,1.972,1.368,3.927,2.061,5.881.8,2.239.657,2.807-1.173,4.371-.373.32-.8.622-1.262,1a2.419,2.419,0,0,1-.835,3.074,5.383,5.383,0,0,1-4.62.942,8.12,8.12,0,0,1-1.635-.782q-3.865-2.319-7.694-4.655a3.793,3.793,0,0,0-4.176.018c-5.6,3.252-11,6.752-15.3,11.692a9.864,9.864,0,0,1-1.795,1.652,16.246,16.246,0,0,0-5.988,7.338c-.426,1.013-.96,2.008-1.51,3.163.355.249.764.533,1.155.835a33.948,33.948,0,0,1,3.234,2.488,64.631,64.631,0,0,0,5.313,4.549c2.434,1.919,4.673,4.087,7.036,6.095,1.386,1.173,2.879,2.221,4.3,3.376,1.262,1,2.47,2.043,3.785,3.145a11.464,11.464,0,0,0,.569-3.358c.071-1.119.16-2.239.2-3.358a31.68,31.68,0,0,0,.018-3.181,31.192,31.192,0,0,1,.853-9.524,12.061,12.061,0,0,1,2.594-4.975,34.681,34.681,0,0,1,3.181-3.465,24.61,24.61,0,0,1,3.34-2.1c4.638-2.9,9.613-3.323,14.837-2.15.693.16,1.35.462,2.043.586,2.825.462,4.726,2.221,6.4,4.353.3.409.586.835.924,1.208a19.64,19.64,0,0,1,5.082,14.712c-.071,1.67.053,3.358-.071,5.011-.284,3.518-1.315,6.77-3.945,9.311a2.782,2.782,0,0,0-.8,2.221,27.24,27.24,0,0,0,1.955,8.991c2.008-.124,3,.906,4,2.4a12.994,12.994,0,0,0,3.7,3.536c3.749,2.505,7.641,4.815,11.443,7.25a14.085,14.085,0,0,1,2.736,2.186,28.808,28.808,0,0,0,5.331,4.513,21.791,21.791,0,0,1,6.006,6.414c1.048,1.617,2.221,3.163,3.181,4.833a38.186,38.186,0,0,1,1.741,3.891c.2.426.409.853.693,1.439.284-.355.48-.48.515-.64.231-1.1.444-2.2.675-3.287a2.635,2.635,0,0,0-.977-2.7c-.6-.551-1.244-1.066-1.795-1.652a5.262,5.262,0,0,1-1.617-3.838c.036-.551-.018-1.119.018-1.67a1.9,1.9,0,0,0-1.226-2.008A7.742,7.742,0,0,1,122.263,91a2.741,2.741,0,0,1-.444-2.47,3.89,3.89,0,0,0,.071-1.208,5.858,5.858,0,0,1,.924-3.465c.515-.871.96-1.777,1.4-2.665.586-1.155,1.19-2.257,2.576-2.648a1.54,1.54,0,0,0,.888-.746,1.447,1.447,0,0,1,1.795-.746c1.652.3,3.3.622,4.922.977a3.167,3.167,0,0,1,1.368.657q2.212,1.759,4.318,3.625a3.036,3.036,0,0,1,.924,2.79,15.706,15.706,0,0,0,.142,4.087,5,5,0,0,1-.16,1.777,5.727,5.727,0,0,0,.462,3.269,28.321,28.321,0,0,1,1.262,8.262c.018.6,0,1.226.071,1.83.231,2.114.426,4.247.746,6.343a48.505,48.505,0,0,1,.231,12.936c-.3,2.825-.462,5.668-.675,8.511a61.941,61.941,0,0,1-2.043,11.07,43.1,43.1,0,0,1-3.181,8.387c-1.919,3.856-5.331,4.94-9.009,4.336a17.352,17.352,0,0,1-7.836-3.518,41.6,41.6,0,0,1-8.547-8.209,3.8,3.8,0,0,0-.5-.569,2.123,2.123,0,0,0-.409-.231,12.566,12.566,0,0,0-3.518,3.145,4.52,4.52,0,0,0-1.119,3.962c.089.5.16,1.013.267,1.51a31.526,31.526,0,0,1,.569,3.145,25.321,25.321,0,0,1,.053,3.483,1.31,1.31,0,0,1-.711.942.065.065,0,0,0-.018-.053,1.971,1.971,0,0,1-.107-.6c.462-2.488-.338-4.851-.657-7.25a19.727,19.727,0,0,1-.231-2.274,4.359,4.359,0,0,1,1.19-3.2c.942-1,1.937-1.955,2.9-2.914.249-.249.515-.48.782-.729a1.932,1.932,0,0,0-.249-.6c-3.145-3.714-4.336-8.1-4.5-12.847-.16-4.869-.284-9.755-.338-14.641a26.5,26.5,0,0,1,.5-4.069c.036-.249.284-.444.64-.96a7.261,7.261,0,0,1,.107,1.119c-.142,1.972-.409,3.945-.426,5.917-.036,2.79-.053,5.544.036,8.316v.018c.089,2.363.249,4.709.551,7.054a17.683,17.683,0,0,0,4.673,10.235c1.208,1.279,2.15,2.807,3.3,4.158a41.286,41.286,0,0,0,7.41,6.326,15.489,15.489,0,0,0,6.148,2.541,9.364,9.364,0,0,0,5.65-.817,2.76,2.76,0,0,0,1.155-.96,30.175,30.175,0,0,0,2.594-4.442,56.253,56.253,0,0,0,4.14-18.213" transform="translate(-0.248 -0.248)" fill="#1a1818"/>
              </g>
            </g>
          </g>
        </g>
        <path id="路径_642" data-name="路径 642" d="M11.437,89.88H98.414" transform="translate(8.885 69.824)" fill="none" stroke="#1a1818" stroke-miterlimit="10" stroke-width="1"/>
        <path id="路径_643" data-name="路径 643" d="M81.376,60.46c-.089.089-.178.2-.267.284A110.906,110.906,0,0,1,61.777,77.056L60.356,78l-.036.018-.373-.284" transform="translate(46.57 46.969)" fill="none" stroke="#1a1818" stroke-miterlimit="10" stroke-width="0.5"/>
      </g>
    </g>
  </svg>
  