<svg xmlns="http://www.w3.org/2000/svg" xmlns:xlink="http://www.w3.org/1999/xlink" width="144.63" height="151.858" viewBox="0 0 144.63 151.858">
    <defs>
      <clipPath id="clip-path">
        <rect id="矩形_35" data-name="矩形 35" width="144.63" height="151.858" fill="none"/>
      </clipPath>
      <clipPath id="clip-path-2">
        <rect id="矩形_34" data-name="矩形 34" width="143.817" height="150.633" fill="none"/>
      </clipPath>
    </defs>
    <g id="组_210" data-name="组 210" clip-path="url(#clip-path)">
      <g id="组_209" data-name="组 209" transform="translate(0.408 0.407)">
        <g id="组_208" data-name="组 208" clip-path="url(#clip-path-2)">
          <g id="组_207" data-name="组 207">
            <g id="组_206" data-name="组 206" clip-path="url(#clip-path-2)">
              <path id="路径_644" data-name="路径 644" d="M86.634,43.964a23.847,23.847,0,0,0,.538-6.64,4.685,4.685,0,0,1,.149-.834c.375.425.734.671.783.949a7.492,7.492,0,0,1,.229,2.879c-.409,1.7-1.127,3.32-1.7,4.972a4.988,4.988,0,0,1,0-1.325" transform="translate(54.619 22.783)" fill="#0f121b"/>
              <path id="路径_645" data-name="路径 645" d="M86.645,36.166c-.051.18-.1.36-.132.54-.082-.049-.227-.1-.227-.131a1.781,1.781,0,0,1,.08-.425c.1,0,.18.016.28.016" transform="translate(54.428 22.567)" fill="#0f121b"/>
              <path id="路径_646" data-name="路径 646" d="M85.814,44.354c.262-2.388.507-4.776.769-7.164.654,2.486.049,4.841-.769,7.164" transform="translate(54.128 23.228)" fill="#0f121b"/>
              <path id="路径_647" data-name="路径 647" d="M69.593,32.2c-.182,1.848-.345,3.582-.509,5.446a2.139,2.139,0,0,1-.883-2.388c.114-1.112.065-2.355,1.392-3.058" transform="translate(42.907 20.057)" fill="#0f121b"/>
              <path id="路径_648" data-name="路径 648" d="M11.453,48.61q3.263,3.7,6.558,7.425c-1.063,2.028-2.453,2.257-4.072.687a9.169,9.169,0,0,1-2.143-4.35c-.311-1.178-.507-2.4-.752-3.614.131-.049.262-.1.409-.147" transform="translate(6.611 30.486)" fill="#0f121b"/>
              <path id="路径_649" data-name="路径 649" d="M76.6,46.194c1.241-.883,1.227-2.944,3.106-3.107a2.231,2.231,0,0,1,.85,2.012c-.327,2.584-.424,5.217-1.439,7.671-.1.245-.211.507-.327.736-.687,1.292-1.014,1.341-2.126.278a1.357,1.357,0,0,0-.278-.1c-.131,1.227-.131,1.227,1.85,2.061A31.934,31.934,0,0,1,76.35,59.1c-1.554,2.241-3.157,4.432-4.857,6.575-3.32,4.2-7.262,7.638-12.561,9.192-.72.213-1.439.491-2.159.72a3.4,3.4,0,0,1-1.112.245c-2.535-.213-5.07-.523-7.62-.654-1.866-.1-3.125-1.178-4.352-2.322a11.159,11.159,0,0,1-3.647-8.1,70.857,70.857,0,0,0-.85-8.079A59.559,59.559,0,0,1,38.93,43.79c.116-1.9.36-3.794.572-5.675a20.114,20.114,0,0,1,3.976-9.208c1.061-1.5,2.306-2.879,3.451-4.334a6.64,6.64,0,0,1,4.1-2.5,26.68,26.68,0,0,1,6.46-.671,20.662,20.662,0,0,1,9.977,3.664,17.193,17.193,0,0,1,5.348,5.4c.883,1.374,2.012,2.584,2.928,3.925,1.194,1.75,2.355,3.533,3.435,5.348a9.645,9.645,0,0,1,.638,2.175C77.5,43.2,76.579,44.46,76.6,46.194" transform="translate(24.193 13.177)" fill="#e5c5a2"/>
              <path id="路径_650" data-name="路径 650" d="M39.147,8.489c-1.488.065-1.832,1.21-2.5,1.881-.72.687-1.308,1.521-2.159,2.519a3.545,3.545,0,0,1,.9-2.519,26.248,26.248,0,0,1,9.4-8.145,19.013,19.013,0,0,1,7.474-1.5,4.655,4.655,0,0,1,2.715.932C57.2,3.288,59.3,5.1,61.472,6.821a3.018,3.018,0,0,0,1,.425,47.251,47.251,0,0,1,4.841,1.439c5.136,2.11,10.206,4.35,15.325,6.493,2.568,1.079,5.136,2.11,7.752,3.042a46.436,46.436,0,0,1,9.633,4.792c4.449,2.846,8.8,5.839,13.248,8.685a10.606,10.606,0,0,1,5,8.03c.736,5.888,1.308,11.792.278,17.729-.343,2.028-.147,4.154-.425,6.2a68.01,68.01,0,0,1-1.439,7.18,4.267,4.267,0,0,1-1.243,1.881c-1.75,1.7-3.549,3.369-5.364,5-1.914,1.7-3.484,1.6-5.806.131a6.909,6.909,0,0,1-1.75-1.7c-1.832-2.486-3.615-5.021-5.4-7.556a59.426,59.426,0,0,1-3.942-5.806c-2.241-4.171-2.633-8.488-.049-12.708A22.727,22.727,0,0,1,95.9,46.7c.278-.311.85-.327,1.456-.523a4.342,4.342,0,0,0-.818-.687c-1.521-.72-3.058-1.407-4.579-2.126a5.373,5.373,0,0,1-1.112-.654c-2.633-2.126-5.3-4.2-7.85-6.395-2.339-2.028-4.5-4.285-6.853-6.3-2.388-2.061-5-3.86-7.393-5.921A32.409,32.409,0,0,0,60.278,19.3a18.755,18.755,0,0,0-2.5-.654c-1.456-.409-2.928-.818-4.367-1.292a19.385,19.385,0,0,1-2.224-1.014,14.579,14.579,0,0,1-4.629-2.977,2.826,2.826,0,0,0-3.418-.785c-1.946.85-3.86,1.75-5.773,2.65-.572.262-1.063.867-1.75.327a1.609,1.609,0,0,1-.278-2.208c.981-1.374,2.093-2.65,3.14-3.958.18-.229.36-.474.671-.9" transform="translate(21.505 0.05)" fill="#e5c5a2"/>
              <path id="路径_651" data-name="路径 651" d="M30.155,49.407c2.192-.932,3.664-.589,5.283,1.161a6.734,6.734,0,0,1,1.652,6.526,28.962,28.962,0,0,1-2.028,5.675c-2.7,5.463-5.561,10.86-8.374,16.257a18.29,18.29,0,0,1-1.21,1.815c-.654-.474-1.178-.752-1.619-1.145a21.489,21.489,0,0,1-1.685-1.766c-3.909-4.547-7.9-9.012-11.678-13.657-2.6-3.206-5-6.591-7.343-9.993a12.382,12.382,0,0,1-2.4-6.493,6.479,6.479,0,0,1,2.519-5.724c3.991-3.189,7.949-6.444,11.972-9.584,3.173-2.486,6.329-4.988,9.666-7.245a88.988,88.988,0,0,1,18.432-9.4c1.112-.425,2.143-1.047,3.222-1.554q3.754-1.791,7.54-3.516c1.292-.605,1.308-.572,2.306.474.736.752,1.259.7,2.47.065,1.783-.932,3.6-1.783,5.4-2.666a2.814,2.814,0,0,1,3.533.72,10.246,10.246,0,0,0,2.764,1.963c2.911,1.439,5.773,2.977,9.126,3.353,2.388.278,4.416,1.619,4.465,3.811A28.85,28.85,0,0,0,81.772,20.1a3.851,3.851,0,0,1-2.829,1.03c-.638-.049-1.276.164-1.93.18a4.323,4.323,0,0,1-1.7-.311c1.472-1.112,3.238-1.668,4.465-3.418-1.079.065-1.554.736-2.208,1.047-.965.458-1.946.916-2.96,1.292-.9.343-1.554-.016-2.093-1.079,1.783-.393,3.5-.8,4.481-2.4.131-.18.114-.458.213-.949-.409.245-.621.311-.736.458a5.414,5.414,0,0,1-3.435,2A3.828,3.828,0,0,1,68.7,16.19c-.752-1.112-.572-1.619.7-1.93a2.15,2.15,0,0,0,.932-.491,2.56,2.56,0,0,0-2.29.049,1.783,1.783,0,0,0-.262,2.372,14.767,14.767,0,0,0,2.65,2.6c1.668,1.194,3.484,2.192,5.217,3.3a4.7,4.7,0,0,1,.818.916c.932-1.357,2.208-1.276,3.516-.9.867.245,1.047.523.85,1.423A3.321,3.321,0,0,1,79.155,26a7.924,7.924,0,0,1-6.166.769,45.777,45.777,0,0,1-4.678-1.881c-1.652-.687-3.287-1.472-4.956-2.11a3.431,3.431,0,0,0-3.287.36c-2.29,1.652-4.612,3.271-6.836,5-3.386,2.666-6.787,5.3-9.993,8.161a77.281,77.281,0,0,0-5.315,5.97c-2.437,2.731-5.037,5.217-8.537,6.64-2.061.834-4.023,1.914-6.019,2.879-.065.033-.082.18-.147.393a3.489,3.489,0,0,0,2.551-.605c1.456-.736,2.895-1.521,4.383-2.175" transform="translate(0.061 4.861)" fill="#e5c5a2"/>
              <path id="路径_652" data-name="路径 652" d="M13.254,69.736a17.7,17.7,0,0,1-.36-1.75C15.1,69,16.459,68.1,17.555,66.661a23.184,23.184,0,0,0,2.306-3.369q3.925-7.433,7.7-14.949a38.906,38.906,0,0,0,2.143-5.119c.949-2.8,1.03-5.593-.867-8.1a24.056,24.056,0,0,0-2.11-2.175,1.922,1.922,0,0,1,1.357.311,28.423,28.423,0,0,1,4.449,4.04,42.55,42.55,0,0,0,10.418,9.764c2.028,1.341,4.007,2.78,5.953,4.285,1.619,1.243,3.271,2.339,5.446,2.126.785-.065,1.063.36,1.112,1.063.065.932.213,1.848.229,2.78a12.212,12.212,0,0,0,5.5,10.042A8.411,8.411,0,0,0,66.1,68.885c1.783.065,3.582.2,5.364.262a3.929,3.929,0,0,0,1.456-.049A48.372,48.372,0,0,0,78.74,67a27.484,27.484,0,0,0,10.909-9.829,4.305,4.305,0,0,1,3.5-2.208c3.467-.36,5.5-2.666,6.787-5.643a20.479,20.479,0,0,0,1.864-9.535,4.737,4.737,0,0,1,.769-3.255c.932,1.6,1.717,3.091,2.633,4.5,1.93,2.96,3.876,5.921,5.888,8.832,1.472,2.159,3.026,4.252,4.6,6.346a8.257,8.257,0,0,0,3.614,2.7,3.858,3.858,0,0,0,4.007-.376,34.843,34.843,0,0,0,7.622-7.327c.85-1.129,1.652-2.306,2.47-3.451a37.115,37.115,0,0,0-.883,4.171c-.36,3.4-.605,6.82-.818,10.238-.2,3.484-.213,6.967-.474,10.435-.36,5.168-.85,10.32-1.325,15.472a72.635,72.635,0,0,1-3.86,17.827,48.7,48.7,0,0,0-1.75,6.444,100.608,100.608,0,0,0-1.6,16.568,6.831,6.831,0,0,0,.18,1.194H28.235c.18-.131.245-.147.262-.18a.778.778,0,0,0,.131-.294,6.562,6.562,0,0,1-.033-.981c1.5-11.383,1.75-22.9,3.336-34.28a.49.49,0,0,0-.1-.294c-.016-.049-.082-.082-.114-.114-.049-.016-.114-.033-.262-.082-.262.85-.507,1.685-.883,2.944-.769-1.308-1.39-2.257-1.914-3.255-.8-1.537-1.407-3.189-2.339-4.645a79.654,79.654,0,0,0-8.456-10.974,22.532,22.532,0,0,1-4.612-8.21" transform="translate(7.787 20.531)" fill="#182440"/>
              <path id="路径_653" data-name="路径 653" d="M86.574,42.083c.016-.049.016-.1.033-.147a.124.124,0,0,1,.033-.065v.114c-.016.033-.049.065-.065.1" transform="translate(54.611 26.202)" fill="#1a1818"/>
              <path id="路径_654" data-name="路径 654" d="M141.189,59.522c.033-.18.083-.36.132-.54-.1,0-.18-.016-.278-.016a1.7,1.7,0,0,0-.082.425c0,.033.146.082.227.131m-1,8.308c.818-2.322,1.425-4.678.77-7.164-.263,2.388-.507,4.776-.77,7.164m-27.949-9.879c.164-1.864.325-3.6.507-5.446-1.325.7-1.276,1.946-1.39,3.058a2.137,2.137,0,0,0,.883,2.388M63.635,70.1a71.225,71.225,0,0,1,.849,8.079,11.154,11.154,0,0,0,3.649,8.1c1.227,1.145,2.484,2.224,4.35,2.322,2.55.131,5.085.442,7.622.654a3.415,3.415,0,0,0,1.112-.245c.718-.229,1.438-.507,2.159-.72,5.3-1.554,9.239-4.988,12.561-9.192,1.7-2.143,3.3-4.334,4.856-6.575a31.935,31.935,0,0,0,1.882-3.353c-1.979-.834-1.979-.834-1.85-2.061a1.408,1.408,0,0,1,.28.1c1.111,1.063,1.438,1.014,2.126-.278.114-.229.227-.491.327-.736,1.014-2.453,1.111-5.086,1.438-7.671a2.231,2.231,0,0,0-.85-2.012c-1.879.164-1.864,2.224-3.106,3.107-.018-1.734.9-2.993,3.22-4.285a9.561,9.561,0,0,0-.638-2.175c-1.079-1.815-2.241-3.6-3.435-5.348-.916-1.341-2.044-2.551-2.928-3.925a17.175,17.175,0,0,0-5.348-5.4,20.662,20.662,0,0,0-9.977-3.664,26.68,26.68,0,0,0-6.46.671,6.64,6.64,0,0,0-4.1,2.5c-1.145,1.456-2.389,2.829-3.451,4.334a20.114,20.114,0,0,0-3.976,9.208c-.213,1.881-.456,3.778-.572,5.675A59.455,59.455,0,0,0,63.635,70.1M58.4,10.669c.671-.671,1.012-1.815,2.5-1.881-.309.425-.489.671-.671.9-1.045,1.308-2.159,2.584-3.139,3.958a1.607,1.607,0,0,0,.276,2.208c.687.54,1.179-.065,1.75-.327,1.915-.9,3.827-1.8,5.773-2.65a2.826,2.826,0,0,1,3.418.785,14.6,14.6,0,0,0,4.629,2.977,19.407,19.407,0,0,0,2.226,1.014c1.438.474,2.91.883,4.365,1.292a18.843,18.843,0,0,1,2.5.654,32.373,32.373,0,0,1,8.47,4.792c2.389,2.061,5,3.86,7.393,5.921,2.357,2.012,4.516,4.269,6.854,6.3C107.3,38.8,109.969,40.877,112.6,43a5.416,5.416,0,0,0,1.112.654c1.521.72,3.058,1.407,4.579,2.126a4.343,4.343,0,0,1,.818.687c-.605.2-1.178.213-1.454.523a22.737,22.737,0,0,0-2.766,3.386c-2.584,4.22-2.19,8.537.049,12.708a59.732,59.732,0,0,0,3.943,5.806c1.781,2.535,3.565,5.07,5.4,7.556a6.856,6.856,0,0,0,1.75,1.7c2.322,1.472,3.893,1.57,5.8-.131,1.815-1.636,3.614-3.3,5.364-5a4.253,4.253,0,0,0,1.243-1.881,68.009,68.009,0,0,0,1.439-7.18c.28-2.044.082-4.171.425-6.2,1.03-5.937.458-11.841-.276-17.729a10.61,10.61,0,0,0-5-8.03c-4.449-2.846-8.8-5.839-13.249-8.685a46.4,46.4,0,0,0-9.633-4.792c-2.617-.932-5.185-1.963-7.752-3.042C99.271,13.335,94.2,11.094,89.067,8.985a47.4,47.4,0,0,0-4.843-1.439,3,3,0,0,1-1-.425C81.052,5.4,78.96,3.587,76.734,1.952a4.651,4.651,0,0,0-2.715-.932,19,19,0,0,0-7.473,1.5,26.234,26.234,0,0,0-9.4,8.145,3.537,3.537,0,0,0-.9,2.519c.85-1,1.438-1.832,2.159-2.519M34.539,52.358a16.026,16.026,0,0,1,6.688,5.283,39.536,39.536,0,0,0,10.418,9.715,64.406,64.406,0,0,1,5.677,4.122,11.2,11.2,0,0,0,3.386,1.914,2.71,2.71,0,0,0,2.453-.164,3.815,3.815,0,0,0,.047-.556,77.279,77.279,0,0,1-.327-18.743,20.589,20.589,0,0,1,2.324-8.6,45.361,45.361,0,0,1,5.674-7.965,8.1,8.1,0,0,1,4.581-2.65c.473-.1.947-.18,1.421-.262a17.952,17.952,0,0,1,10.142.7c4.089,1.7,7.8,3.811,10.336,7.605.965,1.439,2.11,2.764,3.124,4.187,1.848,2.6,3.94,5.07,4.512,8.374a7.359,7.359,0,0,0,.491,1.03,4.781,4.781,0,0,1,.523,1.685,20.975,20.975,0,0,1-.458,5.675c-1.145,3.664-2.4,7.36-4.988,10.369a3.459,3.459,0,0,0-.393.883,5.886,5.886,0,0,0,5.054-2.044,10.657,10.657,0,0,0,2.47-4.171,23.525,23.525,0,0,0,1.423-6.182,44.485,44.485,0,0,1,.492-5.348c.458-2.4,1.192-4.743,3.565-6.1a3.575,3.575,0,0,0,.883-.949c.783-.949,1.57-1.914,2.337-2.879.245-.294.443-.605.868-1.178-1.212-.589-2.242-1.063-3.256-1.554a9.062,9.062,0,0,1-1.848-.981c-4.545-3.893-9.372-7.442-13.673-11.645A120.189,120.189,0,0,0,87.97,23.41a5.577,5.577,0,0,0-3.009-1.423,8.5,8.5,0,0,0,.245,1.1,1.883,1.883,0,0,1-.736,2.437c-.327.278-.671.54-1,.834A4.2,4.2,0,0,0,81.787,29.2a3.108,3.108,0,0,1-1.748,2.437A11.073,11.073,0,0,1,76.6,32.9a6.983,6.983,0,0,1-3.629-.343A62.906,62.906,0,0,1,65.154,29.3a4.567,4.567,0,0,0-5.641.605c-.083.065-.18.131-.28.2-4.35,3.336-8.748,6.64-13.084,10.026a29.189,29.189,0,0,0-4.383,4.367c-2.075,2.5-4.449,4.759-6.688,7.131a8.769,8.769,0,0,0-.54.736M10.808,69.384c3.776,4.645,7.767,9.11,11.676,13.657a21.489,21.489,0,0,0,1.685,1.766c.442.393.965.671,1.619,1.145A18.289,18.289,0,0,0,27,84.137c2.813-5.4,5.675-10.794,8.374-16.257A29.074,29.074,0,0,0,37.4,62.2a6.742,6.742,0,0,0-1.652-6.526c-1.619-1.75-3.093-2.093-5.284-1.161-1.488.654-2.928,1.439-4.383,2.175a3.489,3.489,0,0,1-2.551.605c.065-.213.082-.36.147-.393,2-.965,3.958-2.044,6.019-2.879,3.5-1.423,6.1-3.909,8.537-6.64a77.282,77.282,0,0,1,5.315-5.97c3.206-2.862,6.607-5.5,9.993-8.161,2.224-1.734,4.547-3.353,6.836-5a3.431,3.431,0,0,1,3.287-.36c1.668.638,3.3,1.423,4.957,2.11A45.627,45.627,0,0,0,73.3,31.882a7.919,7.919,0,0,0,6.164-.769,3.327,3.327,0,0,0,1.686-2.47c.195-.9.015-1.178-.852-1.423-1.307-.376-2.584-.458-3.516.9a4.7,4.7,0,0,0-.818-.916c-1.732-1.112-3.547-2.11-5.217-3.3A14.758,14.758,0,0,1,68.1,21.3a1.78,1.78,0,0,1,.262-2.371,2.556,2.556,0,0,1,2.288-.049,2.15,2.15,0,0,1-.932.491c-1.276.311-1.456.818-.7,1.93a3.828,3.828,0,0,0,4.334,1.75,5.41,5.41,0,0,0,3.435-2c.114-.147.327-.213.736-.458-.1.491-.082.769-.213.949-.981,1.6-2.7,2.012-4.48,2.4.538,1.063,1.192,1.423,2.092,1.079,1.014-.376,2-.834,2.962-1.292.653-.311,1.127-.981,2.206-1.047C78.86,24.44,77.1,25,75.622,26.108a4.326,4.326,0,0,0,1.7.311c.653-.016,1.292-.229,1.93-.18a3.853,3.853,0,0,0,2.829-1.03A28.811,28.811,0,0,1,84.47,23.59C84.422,21.4,82.393,20.057,80,19.779c-3.351-.376-6.213-1.914-9.126-3.353a10.271,10.271,0,0,1-2.764-1.963,2.814,2.814,0,0,0-3.533-.72c-1.8.883-3.613,1.734-5.4,2.666-1.212.638-1.735.687-2.471-.065-1-1.047-1.014-1.079-2.306-.474q-3.778,1.717-7.54,3.516c-1.079.507-2.108,1.129-3.22,1.554a88.959,88.959,0,0,0-18.434,9.4C21.879,32.6,18.722,35.1,15.549,37.59c-4.023,3.14-7.981,6.395-11.972,9.584A6.479,6.479,0,0,0,1.058,52.9a12.382,12.382,0,0,0,2.4,6.493c2.34,3.4,4.745,6.787,7.345,9.993M24.872,86.77q-3.287-3.729-6.558-7.425c-.147.049-.278.1-.409.147.245,1.21.442,2.437.752,3.614a9.169,9.169,0,0,0,2.143,4.35c1.619,1.57,3.009,1.341,4.072-.687M1.353,57.134a9.315,9.315,0,0,1-1-6.019A6.886,6.886,0,0,1,3.2,46.52c4.285-3.451,8.588-6.853,12.9-10.255,2.535-1.979,5.054-3.974,7.654-5.839a71.24,71.24,0,0,1,12.332-7.033c4.629-2.143,9.34-4.138,14-6.231,1.735-.785,3.4-1.7,5.186-2.584-.28-3.925,2.7-6.019,4.907-8.472A23.114,23.114,0,0,1,64.026,3.1C67.035.938,70.52.4,74.086.251A4.491,4.491,0,0,1,77,1.183c2.077,1.586,4.138,3.173,6.248,4.727a7.28,7.28,0,0,0,1.832.965c1.833.687,3.713,1.227,5.528,1.946,3.551,1.39,7.065,2.879,10.583,4.334.9.376,1.75.883,2.664,1.243,3.125,1.243,6.313,2.355,9.4,3.729a75.394,75.394,0,0,1,8.572,4.35c5.136,3.189,10.122,6.591,15.16,9.944a7.641,7.641,0,0,1,2.995,4.547,42.7,42.7,0,0,1,1.258,6.886,49.768,49.768,0,0,1,.149,11.579,2.442,2.442,0,0,0,.505,1.979c.312.376.476.883.8,1.243,1.719,1.9,1.57,4.072.918,6.3-.36,1.259-.834,2.47-1.292,3.7a23.343,23.343,0,0,0-1.341,7.016c-.149,2.568-.409,5.1-.54,7.654-.149,3.107-.132,6.215-.361,9.306-.425,5.97-.818,11.956-1.521,17.909a66.991,66.991,0,0,1-3.68,16.044,51.965,51.965,0,0,0-2.8,13.558c-.276,2.928-.36,5.872-.556,8.8-.049.605.116,1.292-.621,1.946a6.993,6.993,0,0,1-.18-1.194,100.788,100.788,0,0,1,1.6-16.568,48.7,48.7,0,0,1,1.75-6.444,72.711,72.711,0,0,0,3.86-17.827c.474-5.152.963-10.3,1.323-15.472.263-3.467.278-6.951.476-10.435.211-3.418.456-6.836.818-10.238a36.4,36.4,0,0,1,.883-4.171c.016-.033.047-.065.065-.1v-.114c.572-1.652,1.292-3.271,1.7-4.972a7.525,7.525,0,0,0-.231-2.879c-.049-.278-.409-.523-.783-.949a4.686,4.686,0,0,0-.149.834A23.785,23.785,0,0,1,141.5,67a4.988,4.988,0,0,0,0,1.325.116.116,0,0,0-.034.065c-.015.049-.015.1-.031.147-.818,1.145-1.619,2.322-2.471,3.451a34.835,34.835,0,0,1-7.62,7.327,3.861,3.861,0,0,1-4.009.376,8.257,8.257,0,0,1-3.614-2.7c-1.568-2.093-3.122-4.187-4.594-6.346-2.013-2.911-3.96-5.872-5.888-8.832-.918-1.407-1.7-2.895-2.633-4.5a4.737,4.737,0,0,0-.769,3.255,20.479,20.479,0,0,1-1.864,9.535c-1.292,2.977-3.322,5.283-6.787,5.643a4.305,4.305,0,0,0-3.5,2.208,27.488,27.488,0,0,1-10.911,9.829,48.275,48.275,0,0,1-5.822,2.093,3.926,3.926,0,0,1-1.456.049c-1.783-.065-3.582-.2-5.364-.262a8.411,8.411,0,0,1-4.907-1.521,12.212,12.212,0,0,1-5.5-10.042c-.015-.932-.162-1.848-.229-2.78-.047-.7-.327-1.129-1.112-1.063-2.174.213-3.827-.883-5.445-2.126-1.948-1.5-3.927-2.944-5.955-4.285a42.58,42.58,0,0,1-10.418-9.764,28.351,28.351,0,0,0-4.449-4.04,1.922,1.922,0,0,0-1.357-.311,23.836,23.836,0,0,1,2.11,2.175c1.9,2.5,1.815,5.3.867,8.1A38.9,38.9,0,0,1,35.6,69.123q-3.78,7.507-7.7,14.949a23.185,23.185,0,0,1-2.306,3.369c-1.1,1.439-2.453,2.339-4.661,1.325a17.7,17.7,0,0,0,.36,1.75,22.532,22.532,0,0,0,4.612,8.21A79.526,79.526,0,0,1,34.358,109.7c.932,1.456,1.539,3.107,2.34,4.645.522,1,1.143,1.946,1.914,3.255.375-1.259.62-2.093.882-2.944.147.049.214.065.262.082.033.033.1.065.114.114a.492.492,0,0,1,.1.294c-1.588,11.383-1.833,22.9-3.338,34.28a6.788,6.788,0,0,0,.033.981.753.753,0,0,1-.131.294c-.016.033-.082.049-.262.18-.131-.262-.36-.507-.36-.752a32.775,32.775,0,0,1,.131-3.582c.442-4.432,1.014-8.864,1.423-13.313.393-4.285.638-8.57.981-12.872a4.05,4.05,0,0,0-.458-2.339c-1.16-2.143-2.143-4.4-3.4-6.493a75.584,75.584,0,0,0-4.481-6.607c-1.568-2.093-3.369-3.991-5.037-6a23.129,23.129,0,0,1-5-10.336,3.067,3.067,0,0,0-.327-1.079C18,84.922,17.528,81.961,17.1,79a4,4,0,0,0-1.03-2.143A117.666,117.666,0,0,1,5.883,64.1c-1.5-2.322-3.122-4.579-4.53-6.967" transform="translate(-0.249 -0.249)" fill="#0f121b"/>
            </g>
          </g>
        </g>
      </g>
      <line id="直线_14" data-name="直线 14" x2="94.631" transform="translate(36.43 151.04)" fill="none" stroke="#1a1818" stroke-miterlimit="10" stroke-width="1"/>
    </g>
  </svg>
  