<svg xmlns="http://www.w3.org/2000/svg" xmlns:xlink="http://www.w3.org/1999/xlink" width="171.112" height="156.225" viewBox="0 0 171.112 156.225">
    <defs>
      <clipPath id="clip-path">
        <rect id="矩形_38" data-name="矩形 38" width="171.112" height="156.225" fill="none"/>
      </clipPath>
      <clipPath id="clip-path-2">
        <rect id="矩形_37" data-name="矩形 37" width="170.268" height="155.377" fill="none"/>
      </clipPath>
    </defs>
    <g id="组_216" data-name="组 216" clip-path="url(#clip-path)">
      <g id="组_215" data-name="组 215" transform="translate(0.421 0.428)">
        <g id="组_214" data-name="组 214" clip-path="url(#clip-path-2)">
          <g id="组_213" data-name="组 213">
            <g id="组_212" data-name="组 212" clip-path="url(#clip-path-2)">
              <path id="路径_655" data-name="路径 655" d="M86.516,48.311c-.391.423-.577.626-.78.862-.389-.778-.389-.778.78-.862" transform="translate(58.671 32.961)" fill="#0f121b"/>
              <path id="路径_656" data-name="路径 656" d="M81.488,17.73c-.068,0-.171.1-.475.287.408.287.744.541,1.1.744,1.067.592,1.067.592.474,1.928a1.7,1.7,0,0,1-1.706-.761,20.074,20.074,0,0,1-2.386-3.382c-1.082-2.182-.81-3.044.932-4.786a26.03,26.03,0,0,1,6.511-4.837c.913-.457,1.826-.93,2.74-1.4,1.875-.981,3.651-.558,5.428.372a10.321,10.321,0,0,1,3.9,3.822c.746,1.167,1.793,2.148,2.046,3.585a5.847,5.847,0,0,1,.237,1.048c-.032,2.892,1,5.564,2.031,8.168,1.757,4.38,3.788,8.642,5.63,12.988,2.471,5.817,5.158,11.55,6.832,17.655a10.911,10.911,0,0,1,.254,1.522c.255,1.623.474,3.247.746,4.87a14.414,14.414,0,0,1-.137,5.953,5.029,5.029,0,0,1-1.59,2.57,26.6,26.6,0,0,1-7.12,4.515A69.025,69.025,0,0,1,90.8,77.054a8.452,8.452,0,0,1-.218-1.167q-.51-7.762-.964-15.524a20.955,20.955,0,0,1,.235-6.9c.169-.609.389-1.2.592-1.793H90.8c.509,1.268,1,2.537,1.522,3.788a36.194,36.194,0,0,0,1.759,3.923,20.831,20.831,0,0,0,2.488,3.332c.846.981,1.4,2.334,2.755,2.74a2.969,2.969,0,0,0,.254-.237,6,6,0,0,0-.523-.812c-1-1.218-2.063-2.418-3.046-3.67-2.2-2.757-3.095-6.1-4.26-9.335a2.362,2.362,0,0,1,.1-1.488c1.791-4.245,1.894-8.675,1.554-13.174-.254-3.162-1.471-6.071-2.486-9.031a3.467,3.467,0,0,0-2.757-2.587c-.641-.135-1.25-.457-1.894-.643-2.182-.609-2.757-1.776-2.45-3.957a10.608,10.608,0,0,1,3.042-5.784c.727-.761,1.4-.609,1.676.457a16.67,16.67,0,0,1,.337,3.2c.019,1.015-.151,2.046-.169,3.078a1.572,1.572,0,0,0,.829,1.725c.051-1.4.135-2.638.169-3.89.017-1.268,0-2.537,0-3.873a3.647,3.647,0,0,0,3.553-2.215c.118-.287.742-.389,1.165-.507.727-.2.727-.169.9-1.15a2.865,2.865,0,0,0-.594.1c-.778.389-1.268.034-1.64-.626-.423-.761-.846-1.522-1.319-2.266a5.118,5.118,0,0,0-.861-.812,4.345,4.345,0,0,0,.861,2.537,3.859,3.859,0,0,1,.626,1.691,2.943,2.943,0,0,1-.744,1.742c-.71.761-1.268.541-1.742-.423-.676-1.37-1.436-2.706-2.182-4.059-.083-.152-.287-.237-.727-.575.017,2,1.623,2.926,1.826,4.617a2.965,2.965,0,0,0-3.178,1.167c-.763-.829-1.439-1.59-2.132-2.334a1.661,1.661,0,0,0-.286.186,2.773,2.773,0,0,0,.169.761,8.008,8.008,0,0,0,.626.879,2.731,2.731,0,0,1-.408,3.805c-.2.186-.641.152-.964.1a9.053,9.053,0,0,1-1.165-.321" transform="translate(53.383 3)" fill="#e5c5a2"/>
              <path id="路径_657" data-name="路径 657" d="M70.162,25.825c.3-.575.609-1.116,1.37-.964a1.332,1.332,0,0,1,1.048,1.37,11.639,11.639,0,0,1-1.032,6c-.609,1.285-1.421,2.486-2.046,3.788-.389.778-1.1.778-1.945,1,1.59,1.522.862,3.095.338,4.617-.727,2.08-1.657,4.093-2.384,6.173a8.383,8.383,0,0,1-3.839,4.651c-3.247,1.86-6.511,3.72-10.2,4.617a12.575,12.575,0,0,1-6.24.017,4.7,4.7,0,0,1-2.554-1.843c-.676-.9-1.522-1.657-2.232-2.52a18.029,18.029,0,0,1-1.708-2.368A20.857,20.857,0,0,1,35.8,42.009c-.135-1.725-.575-3.416-.778-5.141-.169-1.556.017-3.027-.051-4.532a44.179,44.179,0,0,1,.594-7.035,55.986,55.986,0,0,1,3.33-13.6A17.844,17.844,0,0,1,45.946,3C49.463.729,53.287.594,57.208.966a13.362,13.362,0,0,1,7.12,2.655,4.895,4.895,0,0,1,1.048.9c1.945,2.74,4.245,5.31,4.769,8.845a5.235,5.235,0,0,0,.71,1.691c1.268,2.384,1.962,4.82,1.032,7.525-.22.676-.372,1.167-1.15,1.437-1.133.406-1.573,1.4-1.522,2.841.727.017.744-.609.947-1.032" transform="translate(23.731 0.131)" fill="#e5c5a2"/>
              <path id="路径_658" data-name="路径 658" d="M11.642,104.163c-1.744.964-2.454.66-4.077-1.759-.237.338-.438.643-.759,1.116-1.911-1.471-4.177-2.587-5.276-4.9a10.691,10.691,0,0,1-.509-6.511c.374-2.131.846-4.228,1.371-6.325,1.691-6.511,3.315-13.039,5.173-19.5.913-3.2,2.3-6.257,3.484-9.386.846-2.249,1.725-4.5,2.57-6.764a14.9,14.9,0,0,1,2-3.771,32.432,32.432,0,0,0,2.214-4.042,6.774,6.774,0,0,1,.763-1.218c.693,8.354,4.651,14.56,12.293,18.5-.981,1.167-1.793,2.2-2.655,3.179-2.2,2.452-4.465,4.837-6.6,7.339a28.8,28.8,0,0,0-5.428,8.54,13.084,13.084,0,0,0-.761,7.238,5.158,5.158,0,0,0,1.421,2.655,13.132,13.132,0,0,1,3.3,10.1c-.051.795-.1,1.657-1.133,2.046-.573-.676-1.116-1.353-1.708-2.063-.558.71-.051,1.032.152,1.387.778,1.539.66,2.1-.744,3.129a6.38,6.38,0,0,1-.913.575c-1.793.964-2.334.862-3.719-.643-.238-.237-.526-.423-.778-.643l-.306.254c.2.49.423.981.627,1.471" transform="translate(0.099 27.978)" fill="#e5c5a2"/>
              <path id="路径_659" data-name="路径 659" d="M49.9,22.691c.389,1.911.846,3.653,1.082,5.428.524,3.619,2.283,6.663,4.245,9.639a5.4,5.4,0,0,0,.44.44c.778.862,1.607,1.708,2.334,2.638A5.249,5.249,0,0,0,60.846,42.8a13.117,13.117,0,0,0,7.136-.118A45.558,45.558,0,0,0,77.5,38.368a9.788,9.788,0,0,0,4.769-5.615c.237-.727.474-1.471.778-2.182a2.3,2.3,0,0,1,1.759-1.556,22.422,22.422,0,0,1,11.922,1.2,16.345,16.345,0,0,0,5.056,1.268,9.43,9.43,0,0,1,1.37.152,81.845,81.845,0,0,0,11.3,1.421,19.21,19.21,0,0,1,2.435.372,34.563,34.563,0,0,0,4.786,1.032,55.411,55.411,0,0,1,7.492.778c1.911.372,3.805.812,5.7,1.285.829.22.93.541.676,1.387-.085.3-.2.592-.3.879a15.766,15.766,0,0,0-1.082,7.238c.237,2.4.423,4.8.56,7.221.269,4.853.472,9.724.709,14.662a10.738,10.738,0,0,1-1.065.558,21.118,21.118,0,0,0-6.054,3.6,16.743,16.743,0,0,1-7.069,3.6,43.229,43.229,0,0,0-9.5,3.044,5.141,5.141,0,0,0-3.2,3.822c-.573,3.23-1.268,6.443-1.842,9.673-.391,2.182-.7,4.363-1.032,6.545-.56,3.822-1.135,7.627-1.659,11.432q-1.268,9.157-2.486,18.315c-.474,3.518-.913,7.035-1.37,10.553a1.118,1.118,0,0,0,0,.474H13.6q.634-3.095,1.218-6.189c.49-2.57.862-5.175,1.454-7.728.879-3.788,2.148-7.525,2.858-11.347,1-5.344,1.725-10.755,2.4-16.15.474-3.923.676-7.881,1-11.821.051-.507.1-1.015.169-1.522.575-3.771,1.184-7.525,1.725-11.28a11.229,11.229,0,0,0,.017-1.843,13.309,13.309,0,0,1-5.5-3.027c-3.585-2.892-5.462-6.849-6.764-11.144a3.76,3.76,0,0,1-.135-1.065c-.1-2.74-.186-5.462,1.319-7.931a7.167,7.167,0,0,0,.389-1,48.688,48.688,0,0,1,4.4-8.811c2.723-4.346,6.376-7.9,10.011-11.466a8.137,8.137,0,0,1,1.759-1.218A22.267,22.267,0,0,1,40.79,23.621a33.4,33.4,0,0,0,7.339-.778,10.059,10.059,0,0,1,1.776-.152" transform="translate(7.867 15.255)" fill="#182440"/>
              <path id="路径_660" data-name="路径 660" d="M144.657,82.387c.2-.237.389-.44.778-.862-1.167.085-1.167.085-.778.862M134.645,21.27c.3-.186.406-.287.474-.287a9.153,9.153,0,0,0,1.167.321,1.3,1.3,0,0,0,.964-.1,2.731,2.731,0,0,0,.406-3.805,8.242,8.242,0,0,1-.626-.879,2.774,2.774,0,0,1-.169-.761,1.676,1.676,0,0,1,.287-.186c.693.744,1.37,1.505,2.131,2.334a2.967,2.967,0,0,1,3.179-1.167c-.2-1.691-1.809-2.621-1.826-4.617.44.338.643.423.727.575.744,1.353,1.505,2.689,2.182,4.059.474.964,1.032,1.184,1.742.423a2.943,2.943,0,0,0,.744-1.742,3.9,3.9,0,0,0-.626-1.691,4.357,4.357,0,0,1-.862-2.537,5.216,5.216,0,0,1,.862.812c.474.744.9,1.505,1.319,2.266.372.66.862,1.015,1.64.626a2.867,2.867,0,0,1,.592-.1c-.169.981-.169.947-.9,1.15-.423.118-1.049.22-1.167.507a3.646,3.646,0,0,1-3.551,2.215c0,1.336.017,2.6,0,3.873-.034,1.251-.118,2.486-.169,3.89a1.572,1.572,0,0,1-.829-1.725c.017-1.032.186-2.063.169-3.078a16.807,16.807,0,0,0-.338-3.2c-.271-1.065-.947-1.218-1.674-.457a10.611,10.611,0,0,0-3.044,5.784c-.3,2.182.271,3.348,2.452,3.957.643.186,1.251.507,1.894.643a3.47,3.47,0,0,1,2.757,2.587c1.015,2.959,2.232,5.868,2.486,9.031.338,4.5.237,8.929-1.556,13.174a2.373,2.373,0,0,0-.1,1.488c1.167,3.23,2.063,6.578,4.262,9.335.981,1.251,2.046,2.452,3.044,3.67a6.018,6.018,0,0,1,.524.812,3.248,3.248,0,0,1-.254.237c-1.353-.406-1.911-1.759-2.757-2.74a20.821,20.821,0,0,1-2.486-3.331,35.552,35.552,0,0,1-1.759-3.923c-.524-1.251-1.015-2.52-1.522-3.788h-.355c-.2.592-.423,1.184-.592,1.793a21,21,0,0,0-.237,6.9q.457,7.762.964,15.524a8.232,8.232,0,0,0,.22,1.167,69.047,69.047,0,0,0,16.133-4.465,26.6,26.6,0,0,0,7.12-4.515,5.04,5.04,0,0,0,1.59-2.57,14.414,14.414,0,0,0,.135-5.953c-.271-1.623-.49-3.247-.744-4.87a11.434,11.434,0,0,0-.254-1.522c-1.674-6.1-4.363-11.838-6.832-17.655-1.843-4.346-3.873-8.608-5.631-12.988-1.032-2.6-2.063-5.276-2.029-8.168a5.847,5.847,0,0,0-.237-1.048c-.254-1.437-1.3-2.418-2.046-3.585a10.338,10.338,0,0,0-3.906-3.822c-1.776-.93-3.551-1.353-5.428-.372-.913.474-1.826.947-2.74,1.4a26.091,26.091,0,0,0-6.511,4.837c-1.742,1.742-2.012,2.6-.93,4.786a20.062,20.062,0,0,0,2.384,3.382,1.7,1.7,0,0,0,1.708.761c.592-1.336.592-1.336-.474-1.928-.355-.2-.693-.457-1.1-.744M59.78,42.392a20.857,20.857,0,0,0,2.943,8.354,17.875,17.875,0,0,0,1.708,2.368c.71.862,1.556,1.623,2.232,2.52a4.7,4.7,0,0,0,2.554,1.843,12.575,12.575,0,0,0,6.24-.017c3.687-.9,6.95-2.757,10.2-4.617a8.383,8.383,0,0,0,3.839-4.651c.727-2.08,1.657-4.092,2.384-6.173.524-1.522,1.251-3.095-.338-4.617.846-.22,1.556-.22,1.945-1,.626-1.3,1.437-2.5,2.046-3.788a11.639,11.639,0,0,0,1.032-6,1.332,1.332,0,0,0-1.048-1.37c-.761-.152-1.065.389-1.37.964-.2.423-.22,1.048-.947,1.032-.051-1.437.389-2.435,1.522-2.841.778-.271.93-.761,1.15-1.437.93-2.706.237-5.141-1.032-7.525a5.235,5.235,0,0,1-.71-1.691C93.6,10.21,91.3,7.64,89.357,4.9A4.9,4.9,0,0,0,88.309,4a13.362,13.362,0,0,0-7.12-2.655c-3.923-.372-7.745-.237-11.263,2.029a17.835,17.835,0,0,0-7.052,8.709,55.986,55.986,0,0,0-3.33,13.6,44.577,44.577,0,0,0-.594,7.035c.068,1.505-.118,2.976.051,4.532.2,1.725.643,3.416.778,5.141M10.534,133.746a4.562,4.562,0,0,1-3.2-.862c-1.776-1.387-3.585-2.74-5.242-4.245A5.09,5.09,0,0,1,.76,126.272,12.42,12.42,0,0,1,.4,120.928c1.082-5.615,2.266-11.178,3.89-16.657C5.14,101.429,5.8,98.5,6.7,95.662c.981-3.129,2.1-6.223,3.23-9.3,1.032-2.79,2.1-5.581,3.264-8.32.71-1.64,1.657-3.162,2.488-4.752,1.148-2.131,2.315-4.228,3.4-6.392.862-1.742,1.676-3.518,2.4-5.327A46.223,46.223,0,0,1,31.792,46.011c1.065-1.048,2.1-2.114,3.112-3.213a11.764,11.764,0,0,1,6.629-3.636,33.133,33.133,0,0,1,8.254-.913,27.854,27.854,0,0,0,7.287-1c.609-.118.829-.423.812-1.065a20.289,20.289,0,0,1,.152-2.435c.034-.355.118-.71.118-1.065a56.159,56.159,0,0,1,2.486-16.235c.152-.609.289-1.2.457-1.793A20.573,20.573,0,0,1,70.18,2.127,14.746,14.746,0,0,1,76.37.419a18.508,18.508,0,0,1,9.944,1.4,10.084,10.084,0,0,1,4.617,3.72c1.218,1.894,2.672,3.636,3.433,5.8.051.152.169.271.186.423.3,2.384,1.759,4.346,2.384,6.612a7.318,7.318,0,0,1-.1,4.093,3.16,3.16,0,0,0,.287,3.061,3.553,3.553,0,0,1,.406,2.08,14.237,14.237,0,0,1-1.843,6.612c-.643,1.048-1.251,2.114-1.86,3.2a2.466,2.466,0,0,0-.338.846c-.321,1.691-.626,3.4-.981,5.327a18.331,18.331,0,0,0,2.554-.169,13.033,13.033,0,0,1,4.583.152c.66.1,1.319.169,1.962.321,1.184.3,2.368.66,3.534,1a39.135,39.135,0,0,0,3.839,1.048,116.877,116.877,0,0,0,14.358,1.809,11.343,11.343,0,0,1,1.809.338,29.759,29.759,0,0,0,4.634.981,56.357,56.357,0,0,1,7.931.9c2.4.474,4.786,1.082,7.306,1.674a3.257,3.257,0,0,0,.778-1.962,30.942,30.942,0,0,0,.085-11.5c-.575-2.537-1.573-4.989-2.384-7.458a2.189,2.189,0,0,0-1.522-1.4c-.744-.237-1.471-.507-2.2-.71a4.4,4.4,0,0,1-3.162-2.672,2.624,2.624,0,0,0-1.15-1.116,9.914,9.914,0,0,1-4.786-6.663,2.646,2.646,0,0,1,.744-2.57c1.793-1.826,3.45-3.805,5.8-4.989,1.64-.846,3.23-1.776,4.854-2.655a5.725,5.725,0,0,1,5.615.2,9.462,9.462,0,0,1,3.839,3.23c.71,1.082,1.623,2.029,2.232,3.145a7.2,7.2,0,0,1,1,3.027,24.56,24.56,0,0,0,2.1,8.168c1.793,4.431,3.873,8.726,5.716,13.14,2.283,5.445,4.887,10.772,6.409,16.488.457,1.742.609,3.551.947,5.31a29.359,29.359,0,0,1,.575,6.883,5.97,5.97,0,0,1-2.215,4.38,28.832,28.832,0,0,1-11.094,6.156c-3.078.981-6.24,1.674-9.386,2.452-.862.2-1.505.44-1.64,1.488a2.294,2.294,0,0,1-.93,1.336,14.755,14.755,0,0,1-2.672,1.488,18.6,18.6,0,0,0-5.141,3.044,19.655,19.655,0,0,1-9.3,4.515,32.376,32.376,0,0,0-8.151,2.74,3.79,3.79,0,0,0-2.4,2.943c-.3,1.776-.71,3.534-1.015,5.293-1.015,5.919-2.063,11.838-2.993,17.757-.423,2.74-.558,5.53-.93,8.27-.626,4.735-1.353,9.453-2.012,14.188-.49,3.45-.93,6.917-1.4,10.383-.085.524-.2,1.048-.321,1.623-.44-.135-.592-.338-.626-.558a1.118,1.118,0,0,1,0-.474c.457-3.518.9-7.035,1.37-10.553q1.218-9.157,2.486-18.315c.524-3.805,1.1-7.61,1.657-11.432.338-2.182.643-4.363,1.032-6.545.575-3.23,1.268-6.443,1.843-9.673a5.141,5.141,0,0,1,3.2-3.822,43.229,43.229,0,0,1,9.5-3.044,16.743,16.743,0,0,0,7.069-3.6,21.118,21.118,0,0,1,6.054-3.6,10.736,10.736,0,0,0,1.065-.558c-.237-4.938-.44-9.808-.71-14.662-.135-2.418-.321-4.82-.558-7.221a15.766,15.766,0,0,1,1.082-7.238c.1-.287.22-.575.3-.879.254-.846.152-1.167-.676-1.387-1.894-.474-3.788-.913-5.7-1.285a55.412,55.412,0,0,0-7.492-.778,34.564,34.564,0,0,1-4.786-1.032,19.21,19.21,0,0,0-2.435-.372,81.845,81.845,0,0,1-11.3-1.421,9.43,9.43,0,0,0-1.37-.152,16.344,16.344,0,0,1-5.056-1.268,22.422,22.422,0,0,0-11.922-1.2,2.3,2.3,0,0,0-1.759,1.556c-.3.71-.541,1.454-.778,2.182a9.788,9.788,0,0,1-4.769,5.615A45.558,45.558,0,0,1,76.1,58.187a13.117,13.117,0,0,1-7.137.118,5.249,5.249,0,0,1-2.841-1.962c-.727-.93-1.556-1.776-2.334-2.638a5.4,5.4,0,0,1-.44-.44c-1.96-2.976-3.72-6.02-4.245-9.639-.237-1.776-.693-3.518-1.082-5.428a10.058,10.058,0,0,0-1.776.152,33.4,33.4,0,0,1-7.339.778A22.271,22.271,0,0,0,38.032,41.5a8.126,8.126,0,0,0-1.757,1.218c-3.638,3.568-7.29,7.12-10.011,11.466a48.7,48.7,0,0,0-4.4,8.811,7.376,7.376,0,0,1-.387,1c-1.507,2.469-1.422,5.192-1.321,7.931a3.821,3.821,0,0,0,.135,1.065c1.3,4.3,3.179,8.253,6.764,11.144a13.32,13.32,0,0,0,5.5,3.027A11.229,11.229,0,0,1,32.536,89c-.541,3.754-1.15,7.509-1.725,11.28-.068.507-.118,1.015-.169,1.522-.321,3.94-.524,7.9-1,11.821-.678,5.395-1.4,10.806-2.4,16.15-.71,3.822-1.979,7.559-2.86,11.347-.59,2.554-.964,5.158-1.454,7.728q-.583,3.095-1.218,6.189a2.138,2.138,0,0,1-.372.592c-.71-.3-.457-.795-.372-1.218.389-2.029.78-4.042,1.167-6.054.862-4.431,1.659-8.861,2.943-13.225a87.193,87.193,0,0,0,3.112-16.945c.22-2.5.71-4.989,1.033-7.492a36.856,36.856,0,0,0,.37-4.3,102.645,102.645,0,0,1,1.776-16.066c.051-.237.068-.49.118-.913-.355.169-.609.22-.744.372-2.909,3.264-5.833,6.494-8.675,9.825a26.294,26.294,0,0,0-4.481,6.967,15,15,0,0,0-1.15,5.547,6.027,6.027,0,0,0,1.505,4.109,14.07,14.07,0,0,1,3.433,8.4,20.331,20.331,0,0,1-.237,3.518,1.254,1.254,0,0,1-.372.829c-1.64,1.37-2.79,3.332-4.921,4.093a5.065,5.065,0,0,1-1.167.338c-1.37.135-2.757.2-4.143.321m-2.621-3.112c1.623,2.418,2.334,2.723,4.076,1.759-.2-.49-.423-.981-.626-1.471l.3-.254c.254.22.541.406.778.643,1.387,1.505,1.928,1.607,3.72.643a6.38,6.38,0,0,0,.913-.575c1.4-1.032,1.522-1.59.744-3.129-.2-.355-.71-.676-.152-1.387.592.71,1.133,1.387,1.708,2.063,1.032-.389,1.082-1.251,1.133-2.046a13.138,13.138,0,0,0-3.3-10.1,5.158,5.158,0,0,1-1.421-2.655,13.069,13.069,0,0,1,.761-7.238,28.768,28.768,0,0,1,5.428-8.54c2.131-2.5,4.4-4.887,6.6-7.339.862-.981,1.674-2.012,2.655-3.179-7.642-3.94-11.6-10.147-12.294-18.5a6.857,6.857,0,0,0-.761,1.218,32.432,32.432,0,0,1-2.214,4.042,14.9,14.9,0,0,0-2,3.771c-.846,2.266-1.725,4.515-2.57,6.764-1.184,3.129-2.57,6.189-3.484,9.386-1.86,6.46-3.484,12.988-5.175,19.5-.524,2.1-1,4.194-1.37,6.325a10.7,10.7,0,0,0,.507,6.511c1.1,2.317,3.365,3.433,5.276,4.9.321-.473.524-.778.761-1.116" transform="translate(-0.249 -0.252)" fill="#1a1818"/>
            </g>
          </g>
        </g>
      </g>
      <path id="路径_661" data-name="路径 661" d="M12.942,91.781h87.177" transform="translate(8.944 63.432)" fill="none" stroke="#1a1818" stroke-miterlimit="10" stroke-width="1"/>
    </g>
  </svg>
  