<svg id="组_287" data-name="组 287" xmlns="http://www.w3.org/2000/svg" width="224.009" height="248.737" viewBox="0 0 224.009 248.737">
  <g id="组_257" data-name="组 257" transform="translate(0 0)">
    <g id="组_253" data-name="组 253" transform="translate(15.858 27.282)">
      <path id="路径_918" data-name="路径 918" d="M408.592,413.763a48.367,48.367,0,0,0-.908-8.662,93.717,93.717,0,0,0-16.465-120.921c.021-.025.04-.053.062-.077l-.134-.167c-.045.019-.091.043-.136.064q-2.162-1.914-4.443-3.688a19.008,19.008,0,0,0,.068-2.511l-32.373-15.226c-.486.32-.976.633-1.453.972a94.1,94.1,0,0,0-51.217.964,22.488,22.488,0,0,0-1.85-1.86c-.2-.223-.246-.755-.721-.711-.237.025-.154.314-.134.488.019.836.556,1.5.33,2.239-1.437-.642-1.478-2.366-1.959-3.7-.388-.321-.336-1.041-.934-1.047l.322,2.178c-.622.356-.661-.713-1.11-1.032q-1.384-1.814-2.857-3.6l-.681.222a8.61,8.61,0,0,1,1.288,4.843c-.038.24-.006.535-.3.623-.748-.416-1.505-.862-2.265-1.326L262.44,277.19a2.179,2.179,0,0,1-.065.215c-.195,2.4-1,4.693-.818,7.241-.652.719.333,1.7-.316,2.418a1.277,1.277,0,0,1-1.44-.108c-2.605-.414-4.762-2.424-7.156-3.75-.6-.007-1.253-1.319-1.653-.447a22.635,22.635,0,0,0,5.517,6.058c.166.46-.568.288-.405.752a12.849,12.849,0,0,0,2.519,2.6c-.27.306-.534.615-.8.924a9.259,9.259,0,0,0-2.305-.189c-.115.682.465,1.131,1.109,1.569a93.731,93.731,0,0,0-18.916,81.651,22.251,22.251,0,0,0-1.478,5.311c-.6,2.5-1.263,5.011-1.87,7.514-.08,1.674-1,3.314-.545,5a3.237,3.237,0,0,0,.5-1.655,35.806,35.806,0,0,1,4.162-7.249,10.4,10.4,0,0,1,1.075-2.27A93.586,93.586,0,0,0,256.621,414a31.3,31.3,0,0,1-3.036,6.411c-.2.44-.528.707-.67,1.137.348-.09.621.237,1.024.085a26.051,26.051,0,0,0,4.776-5.217q.808.912,1.64,1.8a1.462,1.462,0,0,0-.192,1.046l.239-.022c.152-.15.314-.323.469-.482,1.564,1.648,3.169,3.254,4.846,4.785a42.265,42.265,0,0,0,.98,6.929c.276.392.1,1.125.757,1.063.479-.638,1.37-.661,2-1.021.665-.745,1.287-1.5,1.918-2.235.367.286.726.582,1.1.862-.505.781-1.025,1.549-1.5,2.31a8.55,8.55,0,0,0,3.044-1.185q1.67,1.208,3.393,2.346l0,.031c-.545,2.437-.24,5.1-1.776,7.205.466.5.934-.207,1.363-.123l.008.113a9.265,9.265,0,0,1-1.844,1.965c.535.609,1.125-.1,1.72-.1,2.457.133,3.79-2.262,6.217-2.485.463-.162.762-.79,1.3-.717-.031.956-1.062,1.407-1.338,2.273l.735.168c1.258.065,2.331-.573,3.5-.2a34.782,34.782,0,0,1-5.691,6.2c-.2.161-.455.32-.682.494l1.288.886-.183.264a24.285,24.285,0,0,0,7.871-1.042c1.687-.457,3.076-1.6,4.833-1.944a13.5,13.5,0,0,0,4.345-2.442,93.736,93.736,0,0,0,68.684-3.561,8.373,8.373,0,0,0,1.285,2.735,13.736,13.736,0,0,0,.51-3.546,93.52,93.52,0,0,0,10.719-6.09c.288-.04.448-.279.747-.256a7.187,7.187,0,0,0,1.391-1.188,94.16,94.16,0,0,0,8.355-6.549,24.654,24.654,0,0,0,.481,2.848l.121-.012a20.6,20.6,0,0,0,1.278-4.237,5.57,5.57,0,0,0,1.122-1.356c1.567-1.5,3.1-3.038,4.56-4.645.175.765.14,1.66.37,2.393.886-.738.471-2.013,1.169-2.855.125-.55.151-1.122.3-1.667.111-.129.224-.255.334-.384.353.476.243,1.286.809,1.561-.019-.772-.062-1.569-.106-2.372,1.354-1.638,2.634-3.336,3.878-5.064a26.2,26.2,0,0,1,2.84,9.866l.52.489a1.409,1.409,0,0,0,.338-.871C408.532,416.985,408.74,415.358,408.592,413.763Z" transform="translate(-233.689 -257.468)" fill="#011a30" fill-rule="evenodd"/>
    </g>
    <path id="路径_919" data-name="路径 919" d="M389.42,397.875c1.8,4.7,11.557,2.2,17.884,8.77,5.784,6,4.848,15.575,4.684,17.241-2.068,21.134-44.867,42.063-84.367,42.412,0,0-37.743.333-72.6-27.439C243.63,429.788,242.76,424,243.3,420.826c.617-3.638,3.24-4.728,9.147-13.036,2.791-3.927,3.213-5.1,7.61-12.419,6.609-11,12.2-19.242,12.59-19.806,15.87-23.1,125.1-11.626,125.955,6.244C398.881,387.674,387.411,392.628,389.42,397.875Z" transform="translate(-216.692 -217.56)" fill="#011a30" fill-rule="evenodd"/>
    <path id="路径_920" data-name="路径 920" d="M237.339,324.679a31.332,31.332,0,0,1-15.683-14.536,26.224,26.224,0,0,1-2.012-12.988s.092-1.228.276-2.437c1.541-10.2,14.116-24.1,14.116-24.1a103.528,103.528,0,0,1,15.652-14.846c12.549-9.454,24.23-13.437,31.464-15.837a136.773,136.773,0,0,1,48.305-6.709c27.737,1.111,47.91,7.678,53.284,10.071a160.336,160.336,0,0,1,30.424,17.982,137.888,137.888,0,0,1,20.788,20.946c5.394,7.083,9.219,12.148,9.563,19.509.568,12.139-9.189,20.821-10.328,21.8-10.864,9.379-25.4,7.694-29.071,7.268-34.708-4.027-36.44-46.9-64.646-52.788C302.211,270.229,266.384,336.922,237.339,324.679Z" transform="translate(-219.531 -233.11)" fill="#011a30" fill-rule="evenodd"/>
    <g id="组_254" data-name="组 254" transform="translate(186.044 201.006)">
      <path id="路径_921" data-name="路径 921" d="M389.454,416.9l-.638-1.372a.961.961,0,0,0-.324-1.867l-1.366,0V416.9h.607v-1.316h.438l.612,1.316Zm-.962-1.926h-.759v-.706h.759a.353.353,0,0,1,0,.706Z" transform="translate(-385.455 -412.442)" fill="#011a30" fill-rule="evenodd"/>
      <path id="路径_922" data-name="路径 922" d="M391.3,415.412a2.834,2.834,0,1,0-2.835,2.833A2.837,2.837,0,0,0,391.3,415.412Zm-5.063,0a2.228,2.228,0,1,1,2.228,2.223A2.229,2.229,0,0,1,386.24,415.412Z" transform="translate(-385.634 -412.572)" fill="#011a30" fill-rule="evenodd"/>
    </g>
    <g id="组_256" data-name="组 256" transform="translate(171.19 184.472)" opacity="0.16">
      <g id="组_255" data-name="组 255">
        <path id="路径_923" data-name="路径 923" d="M374.7,397.81a2.326,2.326,0,1,0,2.324,2.329A2.326,2.326,0,0,0,374.7,397.81Zm0,4.152a1.826,1.826,0,1,1,1.827-1.823A1.825,1.825,0,0,1,374.7,401.962Z" transform="translate(-372.372 -397.81)" fill="#011a30"/>
        <path id="路径_924" data-name="路径 924" d="M375.5,399.49a.788.788,0,0,0-.789-.786l-1.12,0v2.658h.5v-1.079h.359l.5,1.079h.55l-.523-1.125A.788.788,0,0,0,375.5,399.49Zm-.789.29h-.623v-.58h.623a.29.29,0,0,1,0,.58Z" transform="translate(-372.225 -397.703)" fill="#011a30"/>
      </g>
    </g>
  </g>
  <g id="组_279" data-name="组 279" transform="translate(20.08 20.696)">
    <g id="组_262" data-name="组 262" transform="translate(24.774 165.142)">
      <path id="路径_925" data-name="路径 925" d="M314.362,425.541l1.453.233,1.308-8.36-4.265-.664-.007.008-1.315-.206a5.572,5.572,0,0,0-1.8-.612c-.257-.04-.5-.038-.745-.055a6.1,6.1,0,0,0-.708-.164,7.122,7.122,0,0,0-5.414,1.116,6.592,6.592,0,0,0-2.565,4.454,5.744,5.744,0,0,0-.073.9c0,2.551,1.728,4.557,3.45,6.342a.026.026,0,0,1,.012.012l-2.968-.466c-.8-.124-1.452-.229-1.452-.229l-1.431,9.137,3.965.619,0-.008,1.449.228.074-.115a9.106,9.106,0,0,0,2.734.914c.243.038.48.034.724.05a7.126,7.126,0,0,0,.728.168,7.037,7.037,0,0,0,5.29-1.158,6.888,6.888,0,0,0,2.684-4.572,6.507,6.507,0,0,0,.079-1.013c0-3.091-2.305-5.189-4.2-6.911-.048-.046-.093-.089-.14-.131l3.124.49Zm-7.594,7.5a1.287,1.287,0,0,1-.237.569,4.416,4.416,0,0,1-.647-2.7,3.376,3.376,0,0,1,.9,1.913A1.439,1.439,0,0,1,306.768,433.041Zm2.2-10.988a1.047,1.047,0,0,1,.013-.177,1.016,1.016,0,0,1,.254-.557,2.417,2.417,0,0,1,.218,1.185c0,.2-.011.431-.028.678A2.044,2.044,0,0,1,308.966,422.054Z" transform="translate(-254.984 -397.04)" fill="#001a31"/>
      <g id="组_261" data-name="组 261">
        <path id="路径_926" data-name="路径 926" d="M280.636,404.988h0c-.025-.018-7.29-4.938-7.29-4.938l0,0c-.742-.5-1.252-.847-1.252-.847l-2.62,3.865,1.02.692c-.6.887-6.691,9.873-7.294,10.766-.257-.176-1.019-.692-1.019-.692l-2.6,3.843,15.1,10.227h0l1.253.845,2.6-3.837s-.752-.508-.992-.674c.6-.887,6.689-9.874,7.29-10.766.243.162.995.674.995.674l2.618-3.865Z" transform="translate(-259.577 -399.009)" fill="#001a31"/>
        <path id="路径_927" data-name="路径 927" d="M295.933,412.873h0c-.2-.077-8.2-3.284-8.2-3.284l-.009.018c-.782-.311-1.31-.524-1.31-.524l-1.736,4.335,1.114.446c-.411,1.023-4.09,10.213-4.09,10.213a8.872,8.872,0,0,0-.707,3.276c0,2.612,1.59,4.608,4.714,5.861.315.125.6.2.89.3.149.065.272.142.428.2,5.287,2.119,7.464-.167,9.1-4.258,0,0,3.1-7.745,3.959-9.891l1.116.448,1.736-4.333Z" transform="translate(-257.006 -397.823)" fill="#001a31"/>
        <g id="组_258" data-name="组 258" transform="translate(52.555 41.827)">
          <line id="直线_21" data-name="直线 21" fill="#001a31"/>
        </g>
        <path id="路径_928" data-name="路径 928" d="M336.262,438.755l-.224-4.635-.613.03a.8.8,0,0,1-.532-.105c-.13-.115-.145-.431-.156-.66,0-.04-.119-2.469-.119-2.469-.119-2.484-1.359-3.745-3.816-4.118.557-1.1,2.542-5,2.826-5.562l.276-.015V421.2c.479-.023,1.253-.058,1.253-.058l-.225-4.667-17.842.864v.016l-1.253.063.224,4.667s.923-.045,1.23-.062c.053,1.075.577,11.916.629,12.991-.308.011-1.229.057-1.229.057l.223,4.634,9.867-.477v-.02l1.254-.059s-.011-.233-.027-.544a7.364,7.364,0,0,0,3.234.409l3.767-.183v-.018Z" transform="translate(-252.823 -396.935)" fill="#001a31"/>
        <path id="路径_929" data-name="路径 929" d="M348.128,431.068l-1.232.279c-.237-1.046-2.635-11.632-2.874-12.681.316-.073,1.231-.279,1.231-.279l-1.033-4.555-1.333.3,0-.01-9.418,2.131,1.033,4.554s.9-.2,1.2-.271c.237,1.051,2.639,11.636,2.875,12.686-.3.064-1.2.271-1.2.271l1.024,4.526,1.334-.3,0,.01,9.417-2.134Z" transform="translate(-250.707 -397.253)" fill="#001a31"/>
        <g id="组_259" data-name="组 259" transform="translate(93.522 9.622)">
          <path id="路径_930" data-name="路径 930" d="M366.792,427.884l-3.426-7.49-1.456.666-.007-.015-3.539,1.616s.007.265.016.644c-.184-.4-.346-.759-.449-.982.731-.336,2.927-1.338,2.927-1.338s-2.082-4.56-2.125-4.65l2.237-1.025-3.519-7.689-1.455.665-.007-.015-12.913,5.908,1.942,4.248s.84-.389,1.12-.514c.448.975,4.963,10.849,5.412,11.824l-1.12.514,1.931,4.218,1.454-.669.007.018Z" transform="translate(-343.075 -407.621)" fill="#001a31"/>
        </g>
        <g id="组_260" data-name="组 260" transform="translate(110.559)">
          <path id="路径_931" data-name="路径 931" d="M365.281,406.519a1.076,1.076,0,0,0,.2.476,1.7,1.7,0,0,0,1.07.591A3.5,3.5,0,0,0,365.281,406.519Z" transform="translate(-357.446 -398.131)" fill="#001a31"/>
          <path id="路径_932" data-name="路径 932" d="M371.345,416.137a1.418,1.418,0,0,0-.217-.478,2.782,2.782,0,0,0-1.926-.89A4.432,4.432,0,0,0,371.345,416.137Z" transform="translate(-356.976 -397.141)" fill="#001a31"/>
          <path id="路径_933" data-name="路径 933" d="M378.816,411.456c-2.125-3.023-5.639-2.922-8.463-2.837-.041,0-.081,0-.12,0l2.465-1.733-.03-.04,1.275-.9-4.863-6.921-3.533,2.484s0,.028.01.054l-.969.683a5.75,5.75,0,0,0-1.849.851,8.985,8.985,0,0,0-.894.728c-.119.071-.235.129-.351.208a7.123,7.123,0,0,0-3.119,4.562,5.952,5.952,0,0,0-.09,1.03,6.87,6.87,0,0,0,1.341,3.958c1.726,2.456,4.652,2.76,7.4,2.857l-2.333,1.642.03.043-1.273.893,5.316,7.565,3.283-2.306-.011-.053,1.258-.885s-.008-.035-.015-.071a9.1,9.1,0,0,0,2.54-1.218,8.753,8.753,0,0,0,.771-.652c.159-.1.325-.18.476-.289a7.043,7.043,0,0,0,3-4.509,6.293,6.293,0,0,0,.094-1.085A7.081,7.081,0,0,0,378.816,411.456Zm-6.379,6.092a1.417,1.417,0,0,1,.217.478,4.433,4.433,0,0,1-2.144-1.369A2.782,2.782,0,0,1,372.438,417.548Zm-6.117-9.654a1.076,1.076,0,0,1-.2-.476,3.5,3.5,0,0,1,1.27,1.067A1.7,1.7,0,0,1,366.321,407.894Z" transform="translate(-358.286 -399.03)" fill="#001a31"/>
        </g>
      </g>
    </g>
    <g id="组_263" data-name="组 263" transform="translate(26.542 167.007)">
      <path id="路径_934" data-name="路径 934" d="M272.288,400.7c.8.542,4.975,3.367,5.776,3.911-.365.535-.875,1.29-1.239,1.83l-.68-.461-3.469,5.123,2.873,1.942,3.468-5.118s-.614-.418-.679-.459l1.24-1.83c.8.542,4.976,3.367,5.776,3.911-.363.539-.876,1.293-1.239,1.829-.241-.162-.993-.674-.993-.674l-8.673,12.807s.75.506.992.672l-1.222,1.805c-.8-.542-4.974-3.372-5.776-3.913.362-.533.861-1.271,1.222-1.8.065.043.679.459.679.459l3.842-5.669-2.9-1.962-3.841,5.67.707.476c-.363.532-.861,1.271-1.222,1.805-.8-.545-4.977-3.375-5.776-3.913.361-.534.86-1.271,1.221-1.8l1.019.689,8.673-12.8s-.765-.516-1.018-.689C271.412,401.989,271.924,401.233,272.288,400.7Z" transform="translate(-261.155 -400.695)" fill="#fff"/>
      <path id="路径_935" data-name="路径 935" d="M287.016,410.478c.9.358,5.692,2.278,6.594,2.637-.242.6-.581,1.454-.823,2.053-.174-.07-.936-.373-.936-.373l-4.711,11.76c-.385.963-1.026,2.565.774,3.287,1.831.731,2.525-1,2.858-1.83l4.71-11.764s-.828-.334-1.084-.435c.241-.6.581-1.448.822-2.05.829.33,3.889,1.556,4.718,1.89-.24.6-.579,1.449-.821,2.053L298,417.258l-4.419,11.033c-.933,2.326-1.825,3.534-2.985,4.03-1.1.469-2.576.321-4.515-.458-2.633-1.053-3.938-2.616-3.938-4.74a7.614,7.614,0,0,1,.614-2.795l4.549-11.353s-.843-.336-1.114-.447C286.435,411.925,286.774,411.079,287.016,410.478Z" transform="translate(-258.635 -399.521)" fill="#fff"/>
      <path id="路径_936" data-name="路径 936" d="M307.088,434.578a2.185,2.185,0,0,0,.813-1.5c.277-1.763-1.26-3.337-2.89-5-1.872-1.915-3.993-4.088-3.575-6.743a5.4,5.4,0,0,1,2.075-3.655,5.916,5.916,0,0,1,4.5-.893,4.846,4.846,0,0,1,2.69,1.336l.522.579.677-.988c.471.077,1.594.251,2.284.358-.146.922-.784,5.005-.929,5.928-.719-.115-2.064-.325-2.733-.431.036-.379.078-.757.078-1.144,0-1.373-.345-2.667-1.929-2.916a2.143,2.143,0,0,0-1.616.354,2.113,2.113,0,0,0-.824,1.452c-.259,1.649,1.22,3,2.784,4.422,1.969,1.79,4.2,3.823,3.729,6.82a5.682,5.682,0,0,1-2.192,3.77,5.752,5.752,0,0,1-4.376.937,7.27,7.27,0,0,1-3.757-1.734l-.537-.569s-.6.919-.755,1.16c-.451-.071-1.322-.208-1.962-.306.15-.951.9-5.756,1.051-6.708.745.117,2.274.356,2.958.466-.025.336-.058.692-.058.986,0,3.534,1.614,4.206,2.378,4.329A2.08,2.08,0,0,0,307.088,434.578Z" transform="translate(-256.592 -398.775)" fill="#fff"/>
      <path id="路径_937" data-name="路径 937" d="M332.425,417.664c.03.65.074,1.559.106,2.209l-1,.047-3.967,7.8.945.05c2.482.13,3.443.97,3.547,3.1l.116,2.424a2.1,2.1,0,0,0,.557,1.554,1.658,1.658,0,0,0,.8.356c.03.587.078,1.6.111,2.274l-2.538.121h0c-2.782.134-3.465-.489-3.667-1.537a10.873,10.873,0,0,1-.149-2.036l-.028-1.06c-.085-1.8-.317-2.643-.849-3.128a2.162,2.162,0,0,0-1.644-.431l-1.025.047.306,6.307s.939-.045,1.261-.063l.106,2.176-7.41.358-.106-2.176,1.23-.061-.747-15.445-1.229.059c-.031-.648-.076-1.559-.106-2.208l7.5-.362c.032.647.076,1.56.106,2.209l-1.355.065.283,5.846,1.17.231,2.956-6.291-1.321.063c-.033-.644-.076-1.559-.109-2.207Z" transform="translate(-254.446 -398.658)" fill="#fff"/>
      <path id="路径_938" data-name="路径 938" d="M341.852,415.372c.142.632.345,1.524.488,2.156l-1.231.278,3.419,15.084,1.23-.281c.143.63.339,1.5.483,2.126-.949.215-6.07,1.379-7.019,1.592-.142-.629-.339-1.5-.482-2.124l1.2-.273-3.418-15.083-1.2.271-.489-2.154C335.783,416.748,340.9,415.588,341.852,415.372Z" transform="translate(-252.31 -398.933)" fill="#fff"/>
      <path id="路径_939" data-name="路径 939" d="M355.26,409.623c.386.849,2.107,4.6,2.493,5.455-.581.263-1.36.618-1.788.816-.485-.464-2.954-2.812-2.954-2.812l-2,.915,2.573,5.623,2.928-1.338c.3.646.832,1.82,1.129,2.469l-2.927,1.341,2.729,5.966,2.133-.974s-.073-3.267-.09-3.918c.407-.186,1.118-.507,1.685-.767.384.837,2.017,4.412,2.406,5.251-.968.442-9.771,4.47-10.737,4.914-.268-.587-.638-1.4-.908-1.982.282-.128,1.122-.514,1.122-.514l-6.437-14.06s-.838.386-1.118.514c-.271-.592-.651-1.419-.92-2.014C345.546,414.067,354.3,410.061,355.26,409.623Z" transform="translate(-251.14 -399.623)" fill="#fff"/>
      <path id="路径_940" data-name="路径 940" d="M367.454,401.365c.539.764,2.916,4.143,3.451,4.9-.59.417-1.683,1.184-2.249,1.579-1.08-1.343-2.489-2.8-4.168-1.624a2.037,2.037,0,0,0-.5,3c.961,1.365,2.958,1.3,5.075,1.242,2.662-.077,5.676-.162,7.421,2.32a5.668,5.668,0,0,1,1.043,4.234,5.752,5.752,0,0,1-2.5,3.712h0a7.245,7.245,0,0,1-3.907,1.364l-.782-.038s.211,1.079.267,1.361c-.375.263-1.1.773-1.624,1.141-.553-.785-3.352-4.762-3.9-5.553.613-.428,1.865-1.308,2.439-1.714,2.818,3.379,4.682,2.687,5.371,2.205a2.075,2.075,0,0,0,.925-1.332,2.165,2.165,0,0,0-.454-1.643c-1.026-1.462-3.226-1.524-5.553-1.593-2.678-.077-5.709-.162-7.257-2.363a5.4,5.4,0,0,1-1.046-4.071,5.914,5.914,0,0,1,2.616-3.767,4.86,4.86,0,0,1,2.861-.907l.777.055s-.161-.976-.2-1.181C365.956,402.42,366.885,401.768,367.454,401.365Z" transform="translate(-249.357 -400.615)" fill="#fff"/>
    </g>
    <g id="组_274" data-name="组 274">
      <g id="组_264" data-name="组 264" transform="translate(0 40.071)">
        <path id="路径_941" data-name="路径 941" d="M240.655,291.851A5.393,5.393,0,0,0,239.3,293.2a6.74,6.74,0,0,0-.524.917c-.06.081-.134.136-.192.218a5.955,5.955,0,0,0-1.014,4.619c.728,3.843,4.939,6.977,6.214,7.841,6.215,4.236,11.269,4.171,14.231-.174.186-.278.319-.541.468-.809.082-.113.168-.214.246-.329,2.436-3.572,1.682-6.743-2.236-9.412l-1.369-.931-3.546,5.287.93.622c.293.194.661.439,1.01.7a46.02,46.02,0,0,1-4.122-2.607c-.645-.436-1.467-1-2.277-1.574l.3-.459,3.3-4.928-7.066-4.815Z" transform="translate(-237.458 -287.364)" fill="#001a31"/>
      </g>
      <g id="组_266" data-name="组 266" transform="translate(12.327 26.923)">
        <g id="组_265" data-name="组 265">
          <path id="路径_942" data-name="路径 942" d="M271.18,288.844c.035-2.78-1.416-5.7-4.314-8.669s-5.8-4.512-8.585-4.549a7.959,7.959,0,0,0-5.618,2.359,9.846,9.846,0,0,0-1.531,1.218c-4.074,3.971-3.464,9.079,1.715,14.394,5.063,5.191,10.048,5.983,14.079,2.274a10.5,10.5,0,0,0,1.588-1.279A8.045,8.045,0,0,0,271.18,288.844Z" transform="translate(-248.464 -275.625)" fill="#001a31"/>
        </g>
        <path id="路径_943" data-name="路径 943" d="M253.051,280.876Z" transform="translate(-247.913 -274.995)" fill="#001a31"/>
      </g>
      <g id="组_267" data-name="组 267" transform="translate(26.09 10.75)">
        <path id="路径_944" data-name="路径 944" d="M286.72,281.573l1.205-.787s-8.686-14.023-9.289-15l1.018-.632-2.457-3.971-6.654,4.121.017.028-.847.526a.2.2,0,0,0-.026-.024l-7.731,4.786.017.028-1.222.759,2.458,3.971s.8-.494,1.074-.668c.564.915,6.281,10.145,6.846,11.057-.276.174-1.072.668-1.072.668l2.441,3.941,6.637-4.148Z" transform="translate(-260.752 -261.186)" fill="#001a31"/>
      </g>
      <path id="路径_945" data-name="路径 945" d="M302.011,275.975h0l1.068-.372-5.8-16.662.065-.022v0c.318-.111,1.067-.368,1.067-.368l-1.534-4.412-5.766,2.008-2.693.937h0l-8.471,2.95h0l-1.067.371,1.536,4.41,1.192-.417c.354,1.016,3.922,11.27,4.275,12.286h-.006c-.311.105-1.186.411-1.186.411l1.524,4.382,7.391-2.575Z" transform="translate(-232.486 -251.282)" fill="#001a31"/>
      <g id="组_268" data-name="组 268" transform="translate(68.52 0.086)">
        <path id="路径_946" data-name="路径 946" d="M310.808,266.3s-.15.547-.337,1.215c-.091-.664-.176-1.29-.223-1.636.8-.111,3.191-.437,3.191-.437s-.675-4.967-.69-5.066l2.439-.33-1.138-8.38-1.343.184v-.01l-14.073,1.912.63,4.628,1.221-.168c.143,1.067,1.6,11.823,1.749,12.886-.3.043-1.219.166-1.219.166l.625,4.594,1.343-.18v.008l14.134-1.92-1.109-8.16Z" transform="translate(-298.634 -251.665)" fill="#001a31"/>
      </g>
      <path id="路径_947" data-name="路径 947" d="M324.535,260.548l.579.017.626.026v.06l.579.015,4.588.193.357-8.545-1.209-.05,0-.05-4.447-.188a5.546,5.546,0,0,0-1.6-.328c-.153-.007-.3.016-.446.02a5.4,5.4,0,0,0-.759-.122,5.976,5.976,0,0,0-4.459,1.578c-2.877,2.65-3.31,7.876-3.375,9.421-.187,4.459.657,7.748,2.509,9.759a7.119,7.119,0,0,0,5.156,2.228c.055,0,.1,0,.156,0a9.189,9.189,0,0,0,1.051.105c4.32.18,6.611-2.13,6.809-6.868l.068-1.654-1.207-.055,0-.05-5.019-.208-.036,1.116a15.434,15.434,0,0,1-.139,1.885,34.768,34.768,0,0,1-.023-5.437Z" transform="translate(-228.156 -251.588)" fill="#001a31"/>
      <g id="组_269" data-name="组 269" transform="translate(105.169 1.214)">
        <path id="路径_948" data-name="路径 948" d="M350.314,256.826l0-.018-16.955-4.136-2,8.218,1.486.361,0,.017,3.422.836c-.822,3.371-2,8.212-2.181,8.939-.478-.115-1.625-.4-1.625-.4l-1.1,4.507,1.485.361,0,.018,10.364,2.529,1.1-4.509-1.484-.362,0-.015-.109-.028c.186-.764,1.365-5.595,2.184-8.954l1.02.249,0,.017,3.88.948,2-8.217Z" transform="translate(-331.355 -252.672)" fill="#001a31"/>
      </g>
      <g id="组_270" data-name="组 270" transform="translate(119.537 7.145)">
        <path id="路径_949" data-name="路径 949" d="M361.923,261.815l0-.006-8.857-3.843-1.86,4.28s.847.371,1.13.491c-.43.988-4.75,10.945-5.179,11.932l-1.129-.491-1.848,4.254,1.347.586,0,.008,8.858,3.844,1.847-4.255s-.86-.376-1.159-.5c.429-.988,4.75-10.947,5.178-11.93.3.125,1.159.5,1.159.5l1.86-4.283Z" transform="translate(-344.183 -257.967)" fill="#001a31"/>
      </g>
      <g id="组_271" data-name="组 271" transform="translate(132.288 15.378)">
        <path id="路径_950" data-name="路径 950" d="M369.556,276.119l3.887,2.446L378,271.328l-1.353-.852.009-.012-3.361-2.118a5.471,5.471,0,0,0-1.284-1.161,7.3,7.3,0,0,0-.741-.375,5.155,5.155,0,0,0-.6-.489,5.989,5.989,0,0,0-4.654-.847c-3.814.87-6.789,5.194-7.61,6.5-4,6.365-3.762,11.412.693,14.217.22.139.435.232.651.347a8.567,8.567,0,0,0,.691.521,6.423,6.423,0,0,0,4.886,1.117c1.658-.375,3.109-1.585,4.435-3.694l.885-1.4-1.353-.851.01-.015-4.159-2.618c.421-.7.87-1.424,1.294-2.1s.971-1.539,1.529-2.391l.247.153.862.541-.012.022Z" transform="translate(-355.567 -265.318)" fill="#001a31"/>
      </g>
      <g id="组_272" data-name="组 272" transform="translate(145.315 23.482)">
        <path id="路径_951" data-name="路径 951" d="M391.216,283.728l.006,0-11.978-11.172-3.185,3.412.877.817c-.752.808-7.505,8.044-7.505,8.044a6.307,6.307,0,0,0,.436,9.965c.2.193.4.327.594.493.164.173.293.344.474.514,1.8,1.682,3.367,2.438,4.926,2.386,2.035-.069,3.72-1.594,5.1-3.068l7.265-7.791c.215.2.878.82.878.82l3.185-3.415S391.84,284.309,391.216,283.728Z" transform="translate(-367.198 -272.553)" fill="#001a31"/>
      </g>
      <g id="组_273" data-name="组 273" transform="translate(156.574 38.607)">
        <path id="路径_952" data-name="路径 952" d="M404.526,301.6l-10.061-14.26-.017.015-.911-1.293-6.91,4.873,2.32,3.294.025-.006.585.827c-2.821,1.991-6.877,4.851-7.535,5.312-.017-.022-.052-.073-.052-.073l-.019.013c-.3-.435-.911-1.295-.911-1.295l-3.791,2.675,6.15,8.716.018-.01.913,1.291L388.122,309s-.67-.951-.949-1.342c.613-.431,4.676-3.3,7.513-5.3l2,2.833.019-.01.911,1.29Z" transform="translate(-377.25 -286.057)" fill="#001a31"/>
      </g>
    </g>
    <g id="组_275" data-name="组 275" transform="translate(1.259 1.224)">
      <path id="路径_953" data-name="路径 953" d="M243.157,289.9c.775.526,4.261,2.9,5.035,3.428-.409.6-1.176,1.726-1.567,2.3-1.427-.868-3.568-2.161-4.515-.773-.982,1.445.94,2.838,5.773,6.127,3.887,2.65,6.455,4.4,7.672,2.614a1.491,1.491,0,0,0,.268-.845,1.476,1.476,0,0,0-.03-.293c-.205-1.053-1.511-1.95-2.605-2.675.394-.576,1.047-1.539,1.438-2.11.17.118.353.237.353.237,2.06,1.409,3.08,2.879,3.08,4.5a5.761,5.761,0,0,1-1.167,3.2c-3.224,4.734-8.589,2.535-12.522-.148-1.175-.8-5.058-3.675-5.7-7.052a4.984,4.984,0,0,1-.089-.93,4.832,4.832,0,0,1,.909-2.768,3.615,3.615,0,0,1,2.183-1.616l1.235-.233s-1.041-.921-1.109-.98C242.15,291.378,242.771,290.469,243.157,289.9Z" transform="translate(-238.582 -248.213)" fill="#fff"/>
      <path id="路径_954" data-name="路径 954" d="M264.535,281.845c-2.632-2.7-5.3-4.145-7.72-4.176a6.836,6.836,0,0,0-4.93,2.163c-4.492,4.379-1.536,9.3,1.737,12.657s8.091,6.412,12.584,2.033a6.832,6.832,0,0,0,2.278-4.973C268.483,287.155,267.162,284.537,264.535,281.845Zm.218,10.962c-1.414,1.377-3.066-.32-7.064-4.42l-.436-.448c-2.818-2.888-4.239-4.341-4.239-5.574v-.02a1.506,1.506,0,0,1,.482-1.085c1.368-1.332,3.124.47,6.973,4.419l.466.477c2.949,3.02,4.3,4.4,4.281,5.609A1.456,1.456,0,0,1,264.754,292.806Z" transform="translate(-237.26 -249.682)" fill="#fff"/>
      <path id="路径_955" data-name="路径 955" d="M275.441,263.395c.339.553.821,1.328,1.163,1.879l-1.019.632s8.687,14.027,9.289,15c-.794.488-4.078,2.523-4.675,2.894-.637-.544-9.178-7.883-9.178-7.883l-.923.792,4.827,7.8,1.234-.764c.339.547.808,1.3,1.146,1.849-.77.479-3.79,2.349-4.562,2.826-.338-.547-.808-1.306-1.147-1.853.276-.168,1.073-.662,1.073-.662l-8.142-13.147s-.8.493-1.074.661c-.342-.551-.821-1.323-1.164-1.877.837-.519,5.261-3.256,5.9-3.655.638.577,9.078,8.186,9.078,8.186l.933-.782-4.954-7.933s-1.079.666-1.205.747c-.343-.554-.822-1.332-1.164-1.883C271.649,265.744,274.669,263.873,275.441,263.395Z" transform="translate(-235.736 -251.395)" fill="#fff"/>
      <path id="路径_956" data-name="路径 956" d="M294.911,255.861c.213.615.513,1.475.726,2.091l-1.132.391s5.424,15.582,5.8,16.665c-.883.306-4.529,1.579-5.194,1.807l-7.241-9.691-1.072.571,3.014,8.656s.984-.341,1.37-.476c.212.609.505,1.452.717,2.057-.857.3-4.21,1.47-5.067,1.765-.213-.607-.505-1.452-.718-2.055.306-.109,1.193-.417,1.193-.417l-5.084-14.607-1.193.417-.726-2.086c.927-.326,5.843-2.036,6.555-2.284l7.075,9.966,1.082-.561-3.108-8.824-1.338.466c-.214-.612-.513-1.471-.727-2.088Z" transform="translate(-233.573 -252.299)" fill="#fff"/>
      <path id="路径_957" data-name="路径 957" d="M311.655,267.238c.445-.058,1.217-.164,1.835-.249.125.917.655,4.811.778,5.723-1.052.148-10.646,1.448-11.7,1.594-.087-.642-.207-1.524-.293-2.161l1.22-.166-2.083-15.323s-.915.125-1.22.166c-.087-.642-.211-1.549-.3-2.189,1.051-.146,10.583-1.442,11.634-1.582.125.925.681,5.018.809,5.941l-1.949.265-2.012-3.549-2.181.3.834,6.127s2.391-.324,3.19-.433c.1.707.269,1.982.364,2.689-.8.111-3.188.439-3.188.439l.884,6.5,2.323-.316Z" transform="translate(-231.221 -252.637)" fill="#fff"/>
      <path id="路径_958" data-name="路径 958" d="M322.582,273.216h0a5.926,5.926,0,0,1-4.3-1.832c-1.622-1.762-2.357-4.748-2.185-8.876.061-1.421.45-6.239,2.98-8.563a4.737,4.737,0,0,1,3.576-1.258,3.635,3.635,0,0,1,2.521,1l.852.925s.23-1.37.243-1.457c.62.026,1.721.071,2.407.1-.039.935-.214,5.149-.253,6.083-.727-.027-2.087-.082-2.779-.112-.019-1.672-.052-4.174-1.732-4.244-1.742-.073-1.911,2.3-2.156,8.139-.195,4.7-.325,7.806,1.836,7.9a1.487,1.487,0,0,0,1.093-.4c.785-.733.856-2.314.9-3.63.7.032,1.857.081,2.55.108-.008.208-.017.427-.017.427C327.943,271.559,326.185,273.369,322.582,273.216Z" transform="translate(-229.28 -252.681)" fill="#fff"/>
      <path id="路径_959" data-name="路径 959" d="M334.134,253.995c1.062.261,13.5,3.294,14.566,3.555-.221.907-1.2,4.92-1.422,5.825-.619-.148-1.431-.348-1.884-.457l-.6-4.05-1.519-.368-3.665,15.022,1.594.389c-.152.627-.364,1.492-.517,2.118-.97-.235-7-1.709-7.972-1.944.152-.627.365-1.49.516-2.116l1.625.4,3.665-15.024-1.522-.372s-1.98,2.776-2.37,3.319c-.457-.11-1.288-.312-1.911-.46C332.933,258.918,333.912,254.9,334.134,253.995Z" transform="translate(-227.282 -252.523)" fill="#fff"/>
      <path id="路径_960" data-name="路径 960" d="M353.56,259.407c.893.385,5.709,2.476,6.6,2.865-.26.594-.621,1.434-.88,2.027-.3-.128-1.16-.5-1.16-.5l-6.154,14.187,1.156.5c-.256.591-.61,1.409-.868,2-.893-.386-5.708-2.474-6.6-2.865.256-.591.609-1.407.867-2l1.128.489,6.159-14.183s-.846-.371-1.13-.492C352.939,260.841,353.3,260,353.56,259.407Z" transform="translate(-225.728 -251.874)" fill="#fff"/>
      <path id="路径_961" data-name="路径 961" d="M359.34,272.488c.757-1.2,3.488-5.189,6.841-5.952a4.743,4.743,0,0,1,3.727.688,3.64,3.64,0,0,1,1.692,2.123l.277,1.226.938-1.144c.525.328,1.458.915,2.041,1.281-.5.794-2.746,4.364-3.248,5.159-.614-.389-1.766-1.113-2.352-1.484a7.976,7.976,0,0,0,1.261-3.286,1.374,1.374,0,0,0-.656-1.253,1.256,1.256,0,0,0-.978-.168c-1.125.255-2.307,1.98-4.937,6.158-2.5,3.982-4.16,6.611-2.331,7.761a1.465,1.465,0,0,0,1.146.2c1.045-.244,1.893-1.583,2.577-2.7.594.371,1.575.99,2.162,1.359-.109.176-.226.361-.226.361-1.147,1.822-2.345,2.855-3.667,3.154a5.278,5.278,0,0,1-3.962-.961h0C354.8,281.958,356.805,276.516,359.34,272.488Z" transform="translate(-224.404 -251.033)" fill="#fff"/>
      <path id="路径_962" data-name="路径 962" d="M379.2,274.1c.711.662,4.486,4.183,5.195,4.843-.442.476-1.065,1.144-1.509,1.616l-.738-.689-8.645,9.265c-.7.757-1.883,2.021-.464,3.343,1.439,1.346,2.714-.02,3.328-.674l8.642-9.262-.856-.8c.447-.474,1.067-1.141,1.509-1.614.653.608,3.063,2.855,3.717,3.463-.442.479-1.066,1.144-1.508,1.617-.215-.2-.878-.814-.878-.814l-8.1,8.686c-1.711,1.835-2.982,2.637-4.242,2.679-1.2.043-2.519-.629-4.046-2.056a5.117,5.117,0,0,1-.375-8.226l8.342-8.941-.876-.823C378.134,275.239,378.755,274.575,379.2,274.1Z" transform="translate(-223.006 -250.11)" fill="#fff"/>
      <path id="路径_963" data-name="路径 963" d="M393.082,287.583l8.646,12.251-4.9,3.456c-.367-.519-.848-1.2-1.118-1.581.36-.564,2.2-3.45,2.2-3.45l-.9-1.276L384.372,305.9s.67.95.948,1.342c-.525.371-1.254.887-1.78,1.256-.577-.818-4.156-5.888-4.731-6.706l1.779-1.258.964,1.369,12.638-8.917-.905-1.278-3.967.944c-.273-.384-.766-1.083-1.135-1.608C388.945,290.5,392.32,288.122,393.082,287.583Z" transform="translate(-221.748 -248.491)" fill="#fff"/>
    </g>
    <g id="组_276" data-name="组 276" transform="translate(148.333 162.668)">
      <path id="路径_964" data-name="路径 964" d="M372.085,396.821a2.194,2.194,0,1,0,2.192,2.2A2.194,2.194,0,0,0,372.085,396.821Zm0,3.916a1.722,1.722,0,1,1,1.723-1.719A1.722,1.722,0,0,1,372.085,400.737Z" transform="translate(-369.893 -396.821)" fill="#001a31"/>
      <path id="路径_965" data-name="路径 965" d="M372.847,398.4a.744.744,0,0,0-.744-.742l-1.057,0v2.507h.469V399.15h.338l.474,1.018h.52l-.494-1.061A.744.744,0,0,0,372.847,398.4Zm-.744.273h-.588v-.547h.588a.273.273,0,0,1,0,.547Z" transform="translate(-369.755 -396.72)" fill="#001a31"/>
    </g>
    <g id="组_278" data-name="组 278" transform="translate(12.06 23.208)">
      <ellipse id="椭圆_14" data-name="椭圆 14" cx="72.529" cy="72.529" rx="72.529" ry="72.529" transform="matrix(0.083, -0.997, 0.997, 0.083, 0, 146.217)" fill="#001a31"/>
      <g id="组_277" data-name="组 277" transform="translate(4.662)">
        <path id="路径_966" data-name="路径 966" d="M290.388,276.272a39.912,39.912,0,0,0,7.859,5.548c.225-.068.2-.3.23-.482a7.233,7.233,0,0,0-1.691-4.783c-.015-.136-.078-.318.006-.419l.139-.01c1.183,1.318,2.237,2.7,3.286,4.079.347.245.377,1.072.858.8l-.247-1.685c.463.006.422.562.721.81.372,1.03.4,2.364,1.515,2.861.174-.569-.241-1.085-.255-1.733-.015-.135-.079-.358.1-.377.367-.034.4.377.558.551,3.32,2.92,5.175,7.5,9.809,8.688a25.757,25.757,0,0,0,4.574-.474c4.208-.389,8.816-1.464,12.91-.643,5.061.311,8.483-3.1,12.252-5.757,2.834-2.3,6.012-3.883,9.012-5.87,3.212-1.686,6.131-4.079,9.778-5.064a2.931,2.931,0,0,1,1.518.456,20.235,20.235,0,0,1,3.768,6.252,32.3,32.3,0,0,1,2.615,8.761,17.7,17.7,0,0,1,.74,8.47c.362.889-.356,1.6-.1,2.411l-.134.1c1.445.6,2.741-.346,3.939-.874l.1.129c-.793.905-1.189,2.1-2.359,2.479-.2.3-.725.625-.375.915.218.348.656.078.781.433-.386.316-.912.64-.912,1.105a7.268,7.268,0,0,0,4.4-.365l.325.015.009.091c-1.63,1.353-3.631,2.14-5.32,3.356-.157.293-.6.474-.437.78l.278.484c1.537,1.612,3.77,2.326,5,4.151,1.069,1.517,1.472,3.375,2.536,4.889-.028.187.123.358-.052.468-.506,0-.7-.581-1.054-.92-1.225-1.229-2.629-2.943-4.376-3.377-.326.492.262.852.265,1.359.758,1.226,2.176,2.061,2.806,3.389.209.255.65.492.358.842a.348.348,0,0,1-.418-.009,5.65,5.65,0,0,0-1.77-1.173c-.142.475.147,1.091.149,1.6a19.605,19.605,0,0,0,1.316,3.244c.3.712.642,1.419.889,2.136-.606-.085-.949-.787-1.588-.727-.195-.123-.418-.469-.692-.492l.037.411a23.366,23.366,0,0,0,2.693,4.643c.624.265.878,1.028,1.541,1.15l.032.366c-.343.261-.72-.3-1.017,0,.818,1.356,1.431,2.961,2.686,4.048l0,.459c-1.018-.5-1.615-1.512-2.559-2.209a34.221,34.221,0,0,0-3.583-2.254c-.276.492.472.557.325.988a2.414,2.414,0,0,1,.7,1.041c2.555,3.133,4.549,6.735,7.662,9.4a38.954,38.954,0,0,0,3.493,3.322c.114.266-.2.3-.289.394-.521-.136-1.063-.038-1.638-.214.1.541-.446.133-.669.245a20.121,20.121,0,0,0-2.538-1.52l-.082.149a11.69,11.69,0,0,1,2.023,2.351,21.845,21.845,0,0,1,2.991,3.875c-.084.1-.068.283-.2.3-.6.058-1.308-1.125-1.627-.08.016,1.155,1.006,1.891,1.148,2.892.156.217.644.5.206.722-1.193-.444-2.166-1.462-3.393-1.717-.683,1.08.382,2.086.748,3.07.081.407.618.68.475,1.154-.179.526-.869,1.053-.308,1.646.141.5.9.7.677,1.324-1.243-.022-2.361-1.075-3.555-1.519a15.714,15.714,0,0,1-2.915-2.035c-.18.017-.29-.156-.515-.093l-.114.245c.106,2.157,1.618,3.542,2.3,5.37a15.23,15.23,0,0,0,1.421,1.9c-.084.562.448.836.672,1.231,1.679,2.154,3.133,4.414,4.765,6.572.077.364.512.554.593.915a35.909,35.909,0,0,1,2.656,2.707c-.472.459-.81-.25-1.256-.068-1.944-.6-3.725-1.821-5.681-2.516-.142.474.357.887.626,1.278.521.6.738,1.454,1.251,2.055-.01.88.97,1.986.055,2.579-.184-.027-.381-.149-.613-.175a7.549,7.549,0,0,0,.342,2.691c-.42-.055-.71-.672-1.111-1-.326-.063-.772-.391-.918.043a19.063,19.063,0,0,0,1.222,2.745c.422,1.025,1.278,1.817,1.607,2.852.624.267.467,1.063.881,1.532a33.584,33.584,0,0,1,2.395,12.337c.113,1.234-.047,2.492.146,3.585a1.093,1.093,0,0,1-.261.674l-.4-.379c-.207-4.232-2.293-7.775-4.01-11.355a9.39,9.39,0,0,0-1.823-2.741c-.348.728.476,1.156.308,1.82a19.262,19.262,0,0,1,.259,4.314c-.147,1.906.105,4.1.153,6.081-.485-.235-.323-.984-.726-1.321a7.066,7.066,0,0,0-.393,1.7c-.54.652-.218,1.638-.9,2.209-.2-.629-.131-1.419-.327-2.045a3.661,3.661,0,0,0-.372-.983c-.818.121-.451,1.565-1.52,1.53-.216-.352-.141-1.053-.657-1.144-.311,1.14.19,2.522-.506,3.513a4.67,4.67,0,0,1-1.3,1.92,15.942,15.942,0,0,1-.988,3.276l-.094.01a36.158,36.158,0,0,0-.777-3.943,8.372,8.372,0,0,0-.358-1.863c-.634-.862-.523-2.121-1.331-2.875-.259.207-.766.207-.725.618a25.747,25.747,0,0,1-1.734,7.689,8.539,8.539,0,0,1-2.985,4.153c-.278-.02-.392.265-.72.206-.221-.394.091-1.066-.4-1.349-.5.6-.838,1.418-1.545,1.761-.381-.608.119-1.21-.217-1.827-.517-.087-.727.622-1.128.755l-2.6,1.807c-1.056.056-.379,1.377-.923,1.981-.391-.241-.585-.826-1.016-1.014-.475,1.846-.136,3.52-.707,5.329a12.178,12.178,0,0,1-1.273-2.791,72.283,72.283,0,0,0-4.927-8.313c-.6-.5-1-1.291-1.8-1.494a8.1,8.1,0,0,1-2.043,2.867,3.007,3.007,0,0,1-2.335,1.695c-.68-.814-1.354-1.626-1.935-2.451-.618.288-.646,1.027-.866,1.6-.4,1.657.409,2.918.466,4.529-.482-.186-.678-.815-1.216-1.136a15.543,15.543,0,0,1-3.8-4.63c-.1-.083-.164-.263-.344-.2-1.306,3.306-2.091,6.753-.874,10.425.2,1.223,1.122,2.154,1.585,3.13l-.185.013a33.606,33.606,0,0,1-4.643-3.721c-.137.013-.168.153-.25.254.141.535.544.917.689,1.458-.59.1-.831-.476-1.345-.567a54.266,54.266,0,0,1-5.56-4.7c-.18.064-.263.162-.251.3a7.819,7.819,0,0,0,2.024,4.889l.017.183c-1.045.19-2.112-.356-3.133-.446l.016.183a13.106,13.106,0,0,0,2.668,1.875.223.223,0,0,1-.111.288c-1.877-.333-3.583-1.282-5.385-1.807a29.9,29.9,0,0,1-4.338-2.46,31.715,31.715,0,0,1-7.565-7.374c-.188-.075-.221.11-.254.253a11.731,11.731,0,0,1-1.748,6.026c-.169.153-.364.036-.514-.09a10.231,10.231,0,0,0,.083-4.071c-.455.087-.585.656-.739.99a10.809,10.809,0,0,1-2.7,4.778c-1.558,1.113-3,2.494-4.887,3.038-1.359.263-2.433,1.151-3.738,1.5a16.125,16.125,0,0,1-7.372.637c-.093-.5.573-.793.959-1.1a26.885,26.885,0,0,0,4.4-4.8c-.9-.286-1.734.208-2.707.159l-.568-.131c.214-.669,1.011-1.017,1.036-1.757-.42-.056-.652.429-1.009.554-1.876.173-2.908,2.025-4.808,1.922-.46,0-.916.549-1.331.078a7.2,7.2,0,0,0,1.426-1.519l-.006-.089c-.332-.065-.694.479-1.054.1,1.187-1.632.951-3.687,1.374-5.572,0-1.018.521-2.355-.287-3.114-.643.06-.958.642-1.487.876-1.069.423-2.061,1.21-3.2,1.315a26.583,26.583,0,0,0,2.584-4.443.389.389,0,0,0-.286-.109,45.586,45.586,0,0,0-3.473,3.828c-.485.278-1.174.3-1.545.79-.505.047-.372-.52-.586-.822a27.264,27.264,0,0,1-.774-6.343,38.467,38.467,0,0,1-.227-6.441c-.164-.267-.285-.068-.469-.048a21.134,21.134,0,0,1-3.4,4.146l-.185.018c-.153-.678.45-1.148.672-1.725a9.63,9.63,0,0,0,.11-2.319c-.151-.125-.313-.389-.534-.277a21.83,21.83,0,0,1-5.06,6.152c-.311.118-.522-.135-.792-.066.11-.333.366-.539.518-.879,2.12-3.521,3.777-7.552,2.732-11.842.158-.8-.7-1.043-.582-1.793-.868-1.392-.868-2.872-1.649-4.32-.49-1.8-1.377-3.381-1.953-5.131-.3.258-.252.762-.51.972a10.9,10.9,0,0,1-.505-2.446c-.3-1.77-.37-3.474-.582-5.3.176-2.046.03-4.111.255-6.161-.159-.725.571-1.808-.469-2.08l-.542.142a78.105,78.105,0,0,0-5.177,5.884c-.822,1.6-2.166,3.017-2.7,4.73a27.729,27.729,0,0,0-3.219,5.6,2.5,2.5,0,0,1-.385,1.281c-.354-1.3.361-2.572.422-3.866.469-1.937.98-3.881,1.446-5.812a26.986,26.986,0,0,1,2.627-7.5,47.924,47.924,0,0,0,2.988-5.587c-.591-.407-1.042.187-1.485.413l-.831.958c-.61-.591.128-1.582.148-2.367a40.058,40.058,0,0,1,1.939-6.46.414.414,0,0,0-.216-.347c-.514-.046-.809,1.228-1.07.466.137-1.535.653-2.923.738-4.5l-.146-.078c-1.077.836-2.51,1.8-2.784,3.3-.224.067-.3-.2-.354-.333-.05-3.042,1.029-5.775,2.208-8.513a41.855,41.855,0,0,1,3.948-5.726c.05-.419.512-.416.517-.879.745-.9,1.215-1.773,2.015-2.632-.118-.267.218-.158.341-.309.259-.719,1.123-.842,1.381-1.559.335-.355.745-.9.609-1.4-.393-.246-.726.158-1.039.233-3.145,1.448-5.306,5.021-7.853,7.426l-1.211,1.864-.274.028c.595-2.041.853-4.232,1.821-6.217a3.674,3.674,0,0,1,.7-1.865,31.279,31.279,0,0,1,4.439-5.908,20.308,20.308,0,0,0,3.322-2.985c.423.1.511-.464.78-.534,1.639-.755,2.933-2.211,4.677-2.833.195-.391.878-.455.606-.937-1.648-1.326-3.816-1.814-5.086-3.59.568-.33,1.128.263,1.687.306.459-.043.991.231,1.34.012-.655-.584-1.37-.839-2.064-1.373-.246-.166-.673-.263-.707-.629a16.548,16.548,0,0,1,1.949.1c.093-.468-.61-.586-.907-.794a5.55,5.55,0,0,1-1.547-.775l-.021-.231a8.615,8.615,0,0,1,1.859.148c2.455.1,4.881-.128,7.47-.092.456-.091,1.066.039,1.408-.271-.932-1.065-2.5-1.567-3.608-2.527a13.689,13.689,0,0,1-3.6-2.018c-.572-.687-1.948-1.065-1.8-1.955,1.053-.1,2.015.318,3.023.225l-.03-.318a11.791,11.791,0,0,1-2.539-2.49c-.125-.358.441-.225.314-.581a17.476,17.476,0,0,1-4.267-4.685c.309-.674.818.342,1.279.346,1.85,1.026,3.518,2.579,5.533,2.9a.992.992,0,0,0,1.116.082c.5-.556-.261-1.313.243-1.869-.138-1.97.482-3.74.633-5.6.26-.669.077-1.622.519-2.357l-.035-.365c1.241-4.55,2.259-9.491,4.533-13.81,1.108-1.489,2.27-3.4,4.3-3.4C286.544,272.66,288.371,274.936,290.388,276.272Z" transform="translate(-252.388 -272.309)" fill="#001a31"/>
        <path id="路径_967" data-name="路径 967" d="M287.959,275.555c3.418,2.5,7.281,5.833,11.224,8,.405,1.905.469,4.069,1.456,5.73l.136-.012a23.911,23.911,0,0,0-.591-2.391c-.507-2.494-.726-4.321-1.228-6.765.6.5.82,1.4,1.337,2,.98,2.588.989,5.174,1.142,7.835-.022.231-.125.615.078.82l.2-.29c.2-2.834-.341-5.647-.366-8.417,1.459,1.8,1.511,4.336,2.262,6.482a20.827,20.827,0,0,0,.405,2.363c.355-1.649-.226-3.439-.115-5.206a3.511,3.511,0,0,1,.865,1.354,13.212,13.212,0,0,0,1.574,2.53,21.148,21.148,0,0,0-1.188-2.382c-.267-1.359-1.333-2.417-1.248-3.946l.1-.008a42.269,42.269,0,0,1,3.277,4.495c2.086,1.053,3.891,3.1,6.268,3.341,1.769.158,3.147-.895,4.895-.964a41.311,41.311,0,0,1,10.379-.595c2.043.133,4.075.637,6.151.166a15.905,15.905,0,0,0,1.948-.964c.64-.061,1-.645,1.523-.973,1.668-1.4,3.489-2.677,5.165-4.034a13.579,13.579,0,0,1,2.385-1.653c1.371-1.14,2.973-1.752,4.348-2.9a62.1,62.1,0,0,1,9.911-5.63c.2-.3.625-.2.879-.408.456-.088,1.044-.234,1.4.148a22.878,22.878,0,0,1,3.455,6.417,61.249,61.249,0,0,1,2.121,6.913,31.3,31.3,0,0,1,.923,5.452c-.111.8,0,1.527-.066,2.271a39.469,39.469,0,0,0-.318,5.016c-.056.419-.417,1.008.078,1.328a10.95,10.95,0,0,0,2.35-1c.309-.168.549-.559.976-.461.2.719-.787,1-1.158,1.449a25.6,25.6,0,0,0-3.239,1.409c.246.16.545-.1.859-.174.679-.152,1.448-.366,2.127-.476.06.136.16.218.127.361-.045.512-.68.153-.819.629a20.172,20.172,0,0,1-2.317.907,10.889,10.889,0,0,0,3.085.407,17.847,17.847,0,0,1,2.218-.022c-.035.649-.929.458-1.358.819-1.161.431-2.094,1.3-3.311,1.648a5.788,5.788,0,0,0,2.232,2.655.128.128,0,0,0,.021.225,25.912,25.912,0,0,0,3.1,2.023c.058.133.027.321-.107.334-.957-.328-1.953-.652-2.865-1.025-.137.01-.327-.063-.405.13.081.361.731.9.2,1.133-.091.007-.129.108-.17.155a10.051,10.051,0,0,0,1.147,2.387c-.733-.393-1.032-1.15-1.725-1.642-1.69-1.78-2.908-3.975-4.825-5.69-1.461-1.806-3.633-3.357-4.478-5.489.223-1.043,1.416-1.151,2.043-1.858.457-.547,1.051-1.11,1.5-1.7-.2-.213-.41.036-.54.141-.736.533-1.315,2.245-2.538,1.483.157-.8,1.06-.972,1.52-1.478a3.687,3.687,0,0,0,1.221-1.316c-.445-.283-.924,1.01-1.29.028.036-.1-.017-.18-.119-.269-.532.236-1.042.7-1.646.664.017-.326.311-.628.513-.925-.573.236-.9,1.194-1.465,1.567-.087.1-.178.108-.282-.02a5.358,5.358,0,0,1,2.183-2.326l-.234.439a.132.132,0,0,0,.23-.024l1.6-1.673c-.237-.022-.688.065-.5-.366.442-.227,0-.461.162-.752a5.6,5.6,0,0,0,.78-1.044l-.558-.041a4.243,4.243,0,0,1,.252-2.286l-.105-.081c-.553.976-1.243,2.008-1.659,2.968l-.184.018c-.271-.435.172-1.126-.354-1.354-.362,1.1-1.5,1.757-2.359,2.436-.484-.231-.91.685-1.144.153a14.426,14.426,0,0,0,1.28-1.642c-.146-.082-.325-.018-.467-.048.006-.46.573-.794.912-1.1a23.554,23.554,0,0,0,2.583-1.534c-.646-.494-1.21.392-1.8.539a74.6,74.6,0,0,1-10.143,4.084c-.207-.214-.717-.255-.569-.64,2.075-.98,4.261-1.831,6.271-3.033a104.216,104.216,0,0,0,9.534-5.732c.033-.1-.057-.087-.11-.176-1.531.928-3.108,1.816-4.643,2.693a8.638,8.638,0,0,1-2.423,1.29c0-.463.7-.99.976-1.429a11.451,11.451,0,0,0,1.924-4.151.178.178,0,0,0-.282-.017,17.191,17.191,0,0,1-6.847,6.773l-1.169.342c-.216-.349.279-.487.3-.767-.069-.224-.466-.048-.407-.379,1.984-2.031,3.786-4.5,4.264-7.272.233-.992,1.123-1.812,1.494-2.77l-.1-.083c-2.7,3.207-5.909,5.442-8.891,8.117-.074-.775.6-1.482,1.133-2.181a30.438,30.438,0,0,1,7.347-6.916l-.006-.045a6.426,6.426,0,0,0-2.614,1.213c-2.454,1.891-5.11,3.612-6.839,6.36A14.236,14.236,0,0,1,342.806,291c-.38.361-1.252.394-1.053,1.065.432.195.885.108,1.318.3.982.14,1.733.762,2.713.855a9.712,9.712,0,0,0,2.136,1.144c3.551,1.928,6.576,4.7,9.668,7.176,1.136,1.281,2.774,1.541,3.866,2.871a5.567,5.567,0,0,1-1.547-.775c-.373-.061-.719-.764-1.046-.318a39.06,39.06,0,0,1,7.309,6.149c2.531,2.857,4.089,6.224,6.484,9.136.218.856.964,1.437,1.139,2.342.021.227.226.441.064.641-1.247-1.5-2.183-3.075-3.377-4.532a4.576,4.576,0,0,0-.982-1.154l-.128.149a23.87,23.87,0,0,1,2.381,6.241,30.262,30.262,0,0,0,2.954,4.432,2.488,2.488,0,0,1-1.3-1.08c-.758-.206-.759-1.221-1.476-.965-.039.554.589.82.816,1.309.6,1,1.868,1.716,2.157,2.845-2.665-1.369-4.1-3.82-5.778-6.064a.344.344,0,0,0-.356.171c.792,1.543,1.623,3.034,2.37,4.626a33.2,33.2,0,0,0,3.456,5.912c2.157,2.339,3.392,5.224,5.8,7.309a12.115,12.115,0,0,1,3.1,2.616,11.382,11.382,0,0,1-4.211-2.1c-1.266-.755-2.3-1.953-3.489-2.81-.335.4.068.729.193,1.085,1.481,1.527,2.437,3.379,3.963,4.9a14.233,14.233,0,0,1-1.841-.94l-.132.105c1.49,1.571,3.385,2.6,4.871,4.165a1.518,1.518,0,0,1,.7.625,3.763,3.763,0,0,1-1.869-.747,31.821,31.821,0,0,1-3.132-2.434c-.088.055-.192-.028-.225.071l.016.18c1.524,1.521,2.923,3.143,4.318,4.767l.022.186-.274.025-3.258-2.282c-1.359-1.17-2.475-2.727-3.865-3.8-.091.007-.127.1-.214.2l.13.358c1.6,1.832,3.488,3.738,5.228,5.606l.021.23-.365.034c-.995-.785-1.86-1.627-2.764-2.419-.184.018-.361.077-.389.265.8,1.126,1.8,2.047,2.555,3.179.23.486.815.8.951,1.3-1.714-1.04-2.684-2.565-4.005-3.875-1.456-1.25-2.667-2.843-4.084-4.144-.091-.038-.18.018-.263.121.1.541.72.806,1.041,1.24,2.1,3.265,5.2,5.746,7.347,9.01-1.24-.392-2.162-1.413-3.292-2.14a29.2,29.2,0,0,0-2.78-2.051,33.116,33.116,0,0,1-3.866-3.885c-.143-.035-.221.113-.3.211l.044.459c1.217,1.687,1.909,3.655,3.26,5.284.233,1.039,1.175,1.736,1.41,2.777,1.328,1.812,2.073,3.865,3.3,5.693a52.3,52.3,0,0,0,6.921,9.42c-.254.211-.668-.215-1-.321a26.7,26.7,0,0,1-5.237-4.682,52.733,52.733,0,0,1-3.547-4.382,16.428,16.428,0,0,0-1.456-1.8c-.215.2,0,.461.1.682,3.045,4.424,4.99,9.461,8.651,13.6,0,.461.811.755.391,1.213-1.236.11-1.729-1.228-2.568-1.84a4.789,4.789,0,0,0-1.385-1.489l.027.321c1.047,1.335,1.921,2.73,2.966,4.06.015.139.027.324-.155.338-.969,0-1.364-1.256-2.185-1.639-.963-.927-1.719-2.1-2.591-3.084a9.889,9.889,0,0,0-1.27-1.687c-.139.985.5,1.9.862,2.784,2.419,5.685,6.907,10.253,8.715,16.271a14.778,14.778,0,0,1,.614,3.127,1.184,1.184,0,0,1,.063.689c.094,1.007.169,1.829.172,2.845l-.183.017c-2.215-5.933-5.839-11.137-9.593-16.283-.1-.036-.18.065-.222.115,1.261,2.144,2.082,4.515,3.124,6.771.729,2.381,1.745,4.871,1.534,7.57l-.18.015a45.417,45.417,0,0,0-3.917-9.33c-.1-.085-.2-.211-.339-.156.232,1.5,1.359,2.69,1.691,4.228.787,2.56,1.244,5.518,1.817,8.191-.207.246.271.895-.279.95-1.449-4.206-2.776-8.516-5.946-11.822a17.817,17.817,0,0,0-4.094-3.311c.027.273.517.594.806.755.335,1.078,1.607,1.373,2.017,2.305,3.235,3.023,4.713,7,6.1,10.975.311.895-.451,1.61-.9,2.254-.353.171-.246-.208-.439-.283a17.493,17.493,0,0,0-2.273-6.576c-.188-.025-.264.166-.3.259a28.757,28.757,0,0,1,.971,10.436c-.27.118-.147.431-.32.539-.272-.433-.174-.86-.307-1.31a33,33,0,0,0-1.267-9.672l-.2-.166-.164.2c.963,3.926,1.58,8.067.774,11.837l-.04.053a6.592,6.592,0,0,1-.535-2.305,31.947,31.947,0,0,0-2.133-6.037,8.243,8.243,0,0,0-1.379-2.915,10.609,10.609,0,0,0-1.985-2.494l-.17-.306a22.366,22.366,0,0,0-6.594-4.928.424.424,0,0,0-.5.093c.125.356.538.363.79.529,4.795,2.462,8.315,7.026,8.082,12.5.193,4.041.066,8.623-2.963,11.811-.316.034-.41.548-.838.4-.285-.569-.075-1.283-.221-1.869a25.486,25.486,0,0,0-.825-5.879c-.188-.074-.218.113-.259.212a10.9,10.9,0,0,1-.261,6.115c-.337-.155-.149-.631-.324-.987a61.678,61.678,0,0,0-1.76-7.5,8.774,8.774,0,0,0-1.1-2.389c-.281.487.19,1.043.373,1.533,1.082,2.715,1.821,6.2,1.118,9.085a13.552,13.552,0,0,1-1.141,2.09,7,7,0,0,1-2.192,1.265c-.481-.692-.494-1.845-.981-2.63-.34-.664-.258-1.78-1.029-2.121a21.7,21.7,0,0,1,.774,4.865c-.506,0-.383-.656-.687-.952-.4-.885-.815-1.812-1.22-2.7-.435.316.216.858.214,1.322.2,1.225.963,2.4.622,3.682l-.3-.25c-.78-2.375-1.943-4.529-2.677-6.951a14.248,14.248,0,0,0-1.337-2.97c-.707-1.133-1.1-2.437-1.85-3.523l-.047.006c.049,1.057.865,1.859,1.137,2.8,1.13,2.709,2.659,5.244,3.115,8.2a10.515,10.515,0,0,1,.758,2.655,15.857,15.857,0,0,1,.606,3.544,2.165,2.165,0,0,1-.556-1.01c-.745-2.562-2.284-4.68-3.159-7.184a117.651,117.651,0,0,1-5.372-12.059c-.4.133.037.417-.078.654,1.706,3.952.621,8.624-1.393,12.316-.468.414-.759,1.276-1.461,1.153-1.172-2.15-2.758-4.311-3.452-6.833-.164-.26-.367.036-.4.176a20.735,20.735,0,0,0,.483,9.187c-.326-.059-.642-.491-.9-.747-1.838-2.875-3.588-5.805-4.061-9.41-.459.045-.268.581-.48.784a30.406,30.406,0,0,0-1.467,8.536,15.033,15.033,0,0,0,.895,6.2c.074.734.5,1.335.6,1.929a5.578,5.578,0,0,1-1.975-1.892,38.147,38.147,0,0,1-7.471-12.789c-.094-.038-.155-.216-.29-.156-.221.619.214,1.316.325,2a9.953,9.953,0,0,0,1.13,2.712c.3,1.219,1.164,2.106,1.5,3.274a35.36,35.36,0,0,0,1.976,3.371c.026.32.287.622.138,1l-.318.03a23.56,23.56,0,0,1-7.007-8.305c-.617-1.7-1.725-3.161-2.3-4.91-.689-.951-.895-2.176-1.584-3.128-.768-1.823-.941-3.7-1.538-5.63l-.144-.075c-.168,1.674.612,3.126.944,4.71a78.813,78.813,0,0,0,3.573,9.129c.628,1.284,1.161,2.572,1.83,3.8a13.762,13.762,0,0,0,1.593,5.667c.006.1-.134.06-.227.068a30.249,30.249,0,0,1-6.559-4.515,141.332,141.332,0,0,1-10-12.688c-.57.329.349.8.351,1.308.934,2.082,2.48,3.829,3.676,5.749.412.469.655,1.093,1.142,1.371l.02.228c2.575,2.855,4.973,5.815,7.722,8.563-.2.3-.466-.05-.651-.077-1.617-.5-2.624-1.88-4.114-2.529a16.676,16.676,0,0,1-3.343-3.148c-4.916-5.728-9.236-12.944-7.9-20.916-.1-1.053.262-2.151.167-3.156a18.529,18.529,0,0,0-.812,4.645c-.083,2.593.474,5.126.451,7.854.134,2.94.893,5.639.392,8.688-.113,3.75-1.644,7.63-5.111,9.567-.154-.17.1-.379.179-.569,1.2-2,2.872-3.868,3.075-6.149l-.155-.17c-2.269,3.4-4.36,8.207-8.761,9.032a18.758,18.758,0,0,1-5.279.814l-.019-.183c2.6-2.367,5.6-4.814,6.992-8.22a10.624,10.624,0,0,0,.638-2.554l-.2-.166c-.417.5-.487,1.2-.9,1.7a6.8,6.8,0,0,1-5.583,3.52,4.856,4.856,0,0,1,.852-1.739c.083-.609.724-1.178.3-1.783-.563.376-1.036,1.251-1.746,1.085l-.02-.231a12.216,12.216,0,0,0,2.36-6.4.279.279,0,0,0-.288-.112c-.364.543-.166,1.217-.388,1.792-.984,2.812-2.988,6.093-5.83,7.279a14.356,14.356,0,0,1,.918-2.484,5.722,5.722,0,0,0,.4-1.7c.463-.5.388-1.325.551-2.033l-.19-.075c-.594,1.073-.786,2.474-1.819,3.264.258-2.193,1.5-4.248,1.329-6.542a5.091,5.091,0,0,0-.032-1.842c-.286-.067-.252.255-.239.436-.113.753.067,1.7-.525,2.267a20.172,20.172,0,0,0-.074-3.272l-.187.015a9.5,9.5,0,0,1-3.385,3.778c-.08-.361.392-.725.544-1.063a35.913,35.913,0,0,0,2.588-7.445c.716-2.236,1.657-4.536,1.757-6.9l-.184.017c-.874,4-2.126,7.911-4.956,11.218a32.62,32.62,0,0,1-3.246,3.813l-.105-.133c.4-4.7,2.4-8.9,4.221-13.181,2.453-4.89,4.049-10.066,6.4-15.042.659-1.356,1.271-2.7,1.931-4.058a.2.2,0,0,0-.328-.016c-1.969,3.645-3.745,7.364-5.618,11.047-.932,2.4-1.817,4.787-2.653,7.216.229.951-.67,1.728-.865,2.62a61.917,61.917,0,0,0-2.663,7.082,47.122,47.122,0,0,0-.893,5.3c-.083.1-.255.253-.358.128l-.146-.083c-.048-4.469,1.243-8.468,2.389-12.546a42.958,42.958,0,0,0,3.374-12.363c-.058-.133-.241-.115-.329-.063-.419.454-.321,1-.5,1.527-1.159,2.92-2.7,5.7-3.389,8.715a61.676,61.676,0,0,0-1.735,9.674c-.2.85-.156,1.767-.356,2.618l-.091.007a25.711,25.711,0,0,1-.047-8.442,33.618,33.618,0,0,0,.467-3.921c-.271-1.406-.635-2.849-.808-4.22-.2-.208-.277.025-.4.132a16.3,16.3,0,0,1-2.679,6.943l-.139.01c.052-1.942.514-3.925.556-5.958.1-2.919.433-5.764.814-8.619l-.2-.165c-.429.871-.194,1.912-.528,2.774a38.512,38.512,0,0,1-.759,4.732c-.748,2.889-2.256,5.563-3.521,8.313-.389.313-.533.7-1.023.925.168-.66.629-1.164.66-1.86a16.276,16.276,0,0,0,1-11.541c-.383-6.105.187-12.39,2.923-17.72l.1-.47c2.209-4.039,5.89-6.643,9.406-9.047l.011.138a27.225,27.225,0,0,0-4.535,7.3c-1.27,2.239-2.389,4.608-3.472,6.874a5.576,5.576,0,0,0-1,2.586c.2-.3.286-.9.781-1.039a4.1,4.1,0,0,1,1.123-2.322,19.432,19.432,0,0,1,2.247-4.133c1.209-1.407,1.847-2.988,2.912-4.43a13.306,13.306,0,0,1,1-1.2.178.178,0,0,0-.1-.035l0-.045c.258.3.252-.259.523-.328a30.93,30.93,0,0,1,10.105-6.985,23.769,23.769,0,0,0,3.013-.836c-4.218.254-7.9,2.35-11.127,4.911l-.276.026-.019-.229a14.344,14.344,0,0,1,2.037-2.4c2.671-2.557,5.9-4.013,9.071-5.7-.009-.091-.1-.125-.151-.168-.933.411-1.926.642-2.8,1.138-4.311,1.789-8.059,4.673-11.773,7.42-.192-.073.026-.186.018-.279,1.79-2.108,4.4-3.408,6.082-5.6-.582.19-1.075.84-1.687,1.219-.914.594-1.658,1.539-2.625,2.043a19.455,19.455,0,0,0-2.826,2.9l-.227.02c-1.941,2.441-4.345,4.416-5.841,7.188-.985.83-1.055,2.037-1.8,2.98-.1.935-.672,1.727-.721,2.657a7.28,7.28,0,0,0-.463,1.981,35.734,35.734,0,0,0-.468,12.834c-.323.028-.31-.343-.47-.559-2.041-3.594-2.277-8.142-2.679-12.448a30.615,30.615,0,0,1,.823-9.029,23.674,23.674,0,0,0,.173-2.6l-.151-.125a8.361,8.361,0,0,0-1,2.586c-.647,2.46-1.017,4.942-1.716,7.362a26.219,26.219,0,0,1,3.419-17.308c.6-.976.923-2.025,1.528-2.958.6-1.531,2.015-2.679,2.657-4.219l-.049-.037c-4.75,5.517-7.537,12.288-12.621,17.7a66.8,66.8,0,0,0-5.956,8.908c-.139.013-.167.2-.358.127.455-5.535,4.877-9.6,7.818-14.211a17.964,17.964,0,0,0,1.2-1.494,3.818,3.818,0,0,0-1.409,1.241,33.839,33.839,0,0,1-3.738,3.993c-.253-.253.1-.426.083-.609l1.289-2.009c.261-.167.16.213.346.245a4.236,4.236,0,0,1,.916-2.071,28.029,28.029,0,0,1,1.711-5.933l3.163-4.216-.056-.088c-2.609,2.229-4.723,5.289-6.737,7.967l-.184.017c-.176-1.412.585-2.637,1.207-3.9a54.41,54.41,0,0,0,3.908-4.655,1.825,1.825,0,0,0-1.206.94c-.805.773-1.258,1.875-2.237,2.241.047-.972.994-1.707,1.483-2.4.78-1.045,1.81-1.878,2.458-2.861l.137-.015a51.9,51.9,0,0,1,5.46-5.312l-.273.026a108.791,108.791,0,0,0-8.5,7.392c-.2-.121-.021-.226.016-.324,3.02-3.79,6.686-6.53,9.968-9.976l-.489.23A93.621,93.621,0,0,0,260,350.22a.221.221,0,0,1-.283-.067c1.709-4.452,3.54-9.1,6.936-12.784-.008-.093.249-.3-.034-.368-1.406,1.286-2.382,2.669-3.642,4.036-1.935,2.025-3.893,4.284-5.637,6.384-.295-.158.2-.34.079-.609a4.848,4.848,0,0,1,.718-1.727,71.42,71.42,0,0,1,9.059-12.8c1.121-1.351,2.053-2.73,3.237-3.9a10.693,10.693,0,0,1-1.344.449,8.834,8.834,0,0,1,2.168-2.509l-.018-.185c-3.221,1.086-5.917,3.368-8.641,5.376a63.663,63.663,0,0,0-4.4,4.84l-.137.013c.031-2.172,1.146-4.076,2.358-5.946a50.007,50.007,0,0,1,6.261-6.628,43.982,43.982,0,0,1,9.005-4.945c.287-.4,1-.186,1.033-.79,1.519-.557,2.818-1.506,4.509-1.662,1.1-.612,2.564-.241,3.6-.985,1.073-.379,2.377-.269,3.174-1.126-.729-.394-1.845.035-2.632-.492.017-.326.417-.5.622-.752,1.063-.516,1.718,1.085,2.591.035-.366-.472-1.11-.035-1.6-.265-.2-.213-.543.1-.747-.115.413-.5,1.346-.4,1.9-.361.345-.263-.216-.352-.186-.54.139-.474.836.063.825-.539a6.914,6.914,0,0,0-5-.132c-.036.1.062.13.111.175a5.336,5.336,0,0,1,2.575-.1c-.25.3-.09.517-.156.8-.875.033-1.219.8-1.725,1.31a1.63,1.63,0,0,1-1.273-.3c-.018-.187.152-.338-.134-.448a.8.8,0,0,0-.784.487c.129.4.528.225.783.483,1.058-.008,1.907.652,2.856.932l-.168.2a12.529,12.529,0,0,1-4.779-.291c-.172.153-.629.2-.367.542.507.461,1.354.152,1.813.614-1.2.484-2.285-.248-3.369-.468-.308.165.023.276,0,.506-.714.253-1.457-.279-2.118.059-.03.188.112.218.212.3.842.105,1.73.208,2.565.269l.017.183a11,11,0,0,1-8.128-2.013l.127-.15c1.358.195,2.528.873,3.984.644l.083-.1c-.31-.34-.856-.241-1.241-.438-.588-.358-1.555-.316-1.841-.933.9-.271,1.976-.1,3.02-.283,2.462-.32,4.874-1.2,7.436-1.431.086-.1.254-.258.065-.328-1.054-.411-2.177-.581-3.232-.995-2.485-.411-4.83-1.81-6.969-2.951a13.966,13.966,0,0,1-2.4-1.531c2.092.13,4.107.96,6.225,1.4a5.918,5.918,0,0,0,2.683.077,37.656,37.656,0,0,0-3.794-1.587c-1.393-1.071-3.156-1.694-4.2-3.023,1.328.382,2.551,1.146,3.926,1.527,3.845,1.12,7.94,1.476,11.755,2.788,1.027.129,2,.594,3.022.731.308.338.618.677,1.1.407.213-.206-.04-.459-.151-.637-1.45-1.709-2.89-3.793-5.241-4.218-.052.421.552.458.851.7a7.65,7.65,0,0,1,2.2,1.825l.026.276-.557-.041c-4.254-2.046-9.146-2.052-13.549-3.721-.654-.587-.336-1.632-.552-2.445l.3-.3a1.263,1.263,0,0,1-.3-.2,42.994,42.994,0,0,1,1.053-8.547c.073-1.713.764-3.209.977-4.893a8.5,8.5,0,0,1,1.032-2.264c-.18-.491.341-.815.346-1.278,1.478-2.952,1.883-7.054,5.5-8.407C285.2,273.69,286.508,274.861,287.959,275.555Z" transform="translate(-252.14 -272.222)" fill="#fff"/>
        <path id="路径_968" data-name="路径 968" d="M281.793,278.022a26.049,26.049,0,0,0,2.1,7.238,24.238,24.238,0,0,0,1.776,3.714c.778,1.4,1.2,2.98,2.331,4.212l.168-.2a49.727,49.727,0,0,1-3.554-9.916c1,1.8,1.212,4.088,2.25,5.838a27.318,27.318,0,0,0,4.825,7.216c.526.688,1.257,1.083,1.735,1.773-.022.235-.3.215-.478.323a11.32,11.32,0,0,1-3.711-3.669c-.146-.077-.252-.251-.391-.243a8.605,8.605,0,0,0,1.721,3.119c.607,1.052,1.563,1.931,2.173,3.032l.015.138c-1.293.025-1.389-1.534-2.567-1.792l-.082.1c.446.834.45,1.9,1.34,2.507l.012.138a2.848,2.848,0,0,1-1.471-.925c-.568.374.062,1.148.062,1.658l.034.366c-.457.043-.536-1.289-1-.372-.246-.16-.47-.6-.8-.707-.167.2.169.351,0,.5-.525-.18-.633-1.324-1.387-.978.287,1.081,1.445,1.622,2.024,2.4-.011.371.407.883-.038,1.066-.5-.463-.722-1.319-1.528-1.52-2.658-.815-3.753-3.623-5.365-5.6a40.868,40.868,0,0,0-6.866-6.793c.632-.152,1.054.409,1.553.828.875.466,1.6,1.278,2.513,1.7.211-.2,0-.458-.109-.679-1.437-1.529-2.173-3.492-3.611-5.066-.012-.138-.071-.271.062-.328,1.133.77,1.8,2,2.988,2.862a5.422,5.422,0,0,0,1.2,1.043c.237-.437-.338-.708-.425-1.118a31.375,31.375,0,0,1-3.439-5.218c.594-.053.678.859,1.216,1.177.689.955,1.685,1.738,2.463,2.638.941,1.2,1.8,2.462,2.783,3.664.625-.244-.164-.771-.113-1.234a43.436,43.436,0,0,0-2.022-3.875,4.292,4.292,0,0,1-1.1-1.377c.213-.2.456-.549.157-.8l0-.047.185-.018c1.513,1.893,2.767,3.943,4.188,5.843.147.08.129-.105.216-.156-.6-1.98-.681-4.327-1.592-6.182-.409-1.438-.782-2.973-1.063-4.515l.226-.022a4.542,4.542,0,0,0,.418,1.486,1.1,1.1,0,0,0-.049-1.012C281.753,279.6,281.426,278.567,281.793,278.022Z" transform="translate(-249.659 -271.623)" fill="#001a31"/>
        <path id="路径_969" data-name="路径 969" d="M287.043,287.678a6,6,0,0,1,.864,1.351c1.724,2.148,3.74,4.454,6.346,5.689.064.177.17.352.1.545a5.872,5.872,0,0,0-1.28.118,19,19,0,0,1-6.453-8.307C286.9,287.092,286.843,287.512,287.043,287.678Z" transform="translate(-248.279 -270.536)" fill="#001a31"/>
        <path id="路径_970" data-name="路径 970" d="M344.058,281.9c.172.352-.4.682-.511.923a9.633,9.633,0,0,1-4.221,3.3l-.017-.185C340.876,284.412,342.387,283.257,344.058,281.9Z" transform="translate(-241.953 -271.157)" fill="#fff"/>
        <path id="路径_971" data-name="路径 971" d="M340.119,282.886c-.747.9-1.188,2.094-2.134,2.831l-.031-.318a12.747,12.747,0,0,1,2.143-2.784Z" transform="translate(-242.116 -271.072)" fill="#fff"/>
        <path id="路径_972" data-name="路径 972" d="M290.764,289.924c1.285,1.4,3.1,2.109,4.629,3.123l.027.276c-1.056.05-1.892-.98-2.812-1.447a17.576,17.576,0,0,1-2.758-2.837C290.193,289.238,290.423,289.722,290.764,289.924Z" transform="translate(-247.89 -270.3)" fill="#001a31"/>
        <path id="路径_973" data-name="路径 973" d="M308.846,290.646l2.044.132-.128.108a11.507,11.507,0,0,1-8.668-1.361l-.012-.139C304.3,289.916,306.384,290.969,308.846,290.646Z" transform="translate(-246.422 -270.259)" fill="#001a31"/>
        <path id="路径_974" data-name="路径 974" d="M309.04,289.606a12.492,12.492,0,0,1,3.264.343c-2.652-.721-6.045,1.02-8.416-.651A10.119,10.119,0,0,0,309.04,289.606Z" transform="translate(-246.205 -270.269)" fill="#001a31"/>
        <path id="路径_975" data-name="路径 975" d="M339.13,286.872l.017.229a42.019,42.019,0,0,1-4.644,2.65c-.225.064-.456.084-.57-.177.237-.438.776-.581,1.216-.809l2.911-1.978A1.389,1.389,0,0,1,339.13,286.872Z" transform="translate(-242.598 -270.578)" fill="#fff"/>
        <path id="路径_976" data-name="路径 976" d="M304.921,291.371c1.924.379,4.044.321,5.823,1.081-1.806-.524-4.084-.226-5.983-.784a10.826,10.826,0,0,1-3.156-1.184l.025-.235C302.762,290.514,303.788,291.158,304.921,291.371Z" transform="translate(-246.479 -270.155)" fill="#001a31"/>
        <path id="路径_977" data-name="路径 977" d="M277.921,294.519a41.414,41.414,0,0,1,4.938,4.943c-.018.324.408.42.252.715l-.335-.108c-1.053-.918-1.766-2.144-2.984-2.816-.212.2,0,.463.1.591.4.838,1.019,1.522,1.377,2.364-.087.053-.12.2-.268.115a19.828,19.828,0,0,0-6.761-6.71l-.025-.23c.544-.142.69.447,1.118.59l1.5.689c.314-.118.048-.464-.065-.684-.311-.385-.881-.563-.927-1.067A24.387,24.387,0,0,1,277.921,294.519Z" transform="translate(-249.767 -269.835)" fill="#001a31"/>
        <path id="路径_978" data-name="路径 978" d="M340.355,287.472c-1.3.905-2.6,1.812-3.9,2.715-.226.022-.48.276-.7-.028.178-.569.909-.637,1.4-.87,1.1-.559,2.079-1.485,3.169-2.136Z" transform="translate(-242.38 -270.527)" fill="#fff"/>
        <path id="路径_979" data-name="路径 979" d="M306.063,292.365a22.5,22.5,0,0,1,2.5.6c-.307.168-.575-.222-.894-.19-.769-.3-1.553.188-2.283-.2a7.046,7.046,0,0,1-3.993-1.241l-.018-.186A17.484,17.484,0,0,0,306.063,292.365Z" transform="translate(-246.506 -270.048)" fill="#001a31"/>
        <path id="路径_980" data-name="路径 980" d="M308.161,293.6c-.352.17-.941-.239-1.233.115.015.18.3.247.316.431-2.563-.271-5.457-.093-7.718-1.587a17.763,17.763,0,0,0,6.906,1.294l.129-.105a13.544,13.544,0,0,0-2.793-.755,7.051,7.051,0,0,1-3.163-1.231l.089-.055C303.013,292.834,305.619,293.052,308.161,293.6Z" transform="translate(-246.729 -269.98)" fill="#001a31"/>
        <path id="路径_981" data-name="路径 981" d="M340.113,288.924c.3.246-.494.644.119.772.69-1.033,1.706-.529,2.618-1.12.177-.066.327.017.34.155l-.286.4c-1.493.831-3.2,1.315-4.792,2.107-.237-.071-.562-.089-.638-.4-.04-.459.559-.469.812-.722a16.89,16.89,0,0,1,1.314-1.231C339.786,288.861,339.962,288.8,340.113,288.924Z" transform="translate(-242.173 -270.359)" fill="#fff"/>
        <path id="路径_982" data-name="路径 982" d="M298.814,293.072c1.714,1.041,3.739.99,5.588,1.512a2.043,2.043,0,0,1,1.066.035l.017.185a8.593,8.593,0,0,0-2.126-.031c-1.9-.52-3.981-.6-5.5-2.028C298.195,292.852,298.482,292.965,298.814,293.072Z" transform="translate(-246.929 -269.856)" fill="#001a31"/>
        <path id="路径_983" data-name="路径 983" d="M300.174,294.484a19.212,19.212,0,0,0,4.4.652c.1.039.155.172.3.2a12.342,12.342,0,0,1-3.639-.4,16.394,16.394,0,0,1-4.738-1.822C297.72,293.419,298.911,294.276,300.174,294.484Z" transform="translate(-247.093 -269.81)" fill="#001a31"/>
        <path id="路径_984" data-name="路径 984" d="M275.525,300.66c4.27,1.214,8.9,1.383,12.853,3.647l-.127.152c-4.2-1.457-8.761-1.912-13.036-3.175a11.264,11.264,0,0,0-2.481-.875c-1.6-.777-2.905-1.948-4.5-2.723-.41-.423-1.091-.821-1.289-1.446C269.723,297.824,272.422,300.068,275.525,300.66Z" transform="translate(-250.64 -269.436)" fill="#fff"/>
        <path id="路径_985" data-name="路径 985" d="M302.142,295.524l.009.092c-1.661.522-3.132-.4-4.572-1.008l.024-.232C299.119,294.792,300.633,295.2,302.142,295.524Z" transform="translate(-246.962 -269.66)" fill="#001a31"/>
        <path id="路径_986" data-name="路径 986" d="M344.607,291.005a.341.341,0,0,0,.414.47c.654-.431.22.9.9.286.217-.113.474-.366.719-.2l-.032.14c-1.26.857-2.255,2.055-3.813,2.2.463.51.79,1.035,1.48,1.015.567.133.143,1,.831.983.915-.125.528,1.2,1.545.689.419.1.512.552.85.753-.027.188-.1.333-.29.351-2.838-.749-4.775-3.2-7.242-4.865l-.029-.366c.345-.265.879.516.764-.255,1.251-.4,2.445-.968,3.756-1.273Z" transform="translate(-241.877 -270.073)" fill="#fff"/>
        <path id="路径_987" data-name="路径 987" d="M301.972,296.147l.115.217a15,15,0,0,1-2.787-.152c-.106-.178-.6-.085-.459-.469C299.8,296.117,300.979,295.871,301.972,296.147Z" transform="translate(-246.814 -269.496)" fill="#001a31"/>
        <path id="路径_988" data-name="路径 988" d="M301.555,296.817l-.168.2-2.838-.243a.6.6,0,0,1-.276-.484A25.9,25.9,0,0,0,301.555,296.817Z" transform="translate(-246.879 -269.43)" fill="#001a31"/>
        <path id="路径_989" data-name="路径 989" d="M298.3,296.923c.729.394,1.624.083,2.345.384.071.316-.363.08-.531.281-1.5-.188-3.068-.224-4.561-.41-.157-.17.016-.323,0-.508C296.551,296.487,297.281,297.342,298.3,296.923Z" transform="translate(-247.213 -269.387)" fill="#001a31"/>
        <path id="路径_990" data-name="路径 990" d="M297.045,297.7a1.757,1.757,0,0,0,1.765.111c.292.158.744.069.914.373a14.174,14.174,0,0,1-2.438.136c-.015.328-.329.4-.614.334l-2.143-.213-.217-.352c.648.031,1.375.381,2.04.088l-1.528-.547C295.519,297.144,296.279,297.9,297.045,297.7Z" transform="translate(-247.355 -269.289)" fill="#001a31"/>
        <path id="路径_991" data-name="路径 991" d="M318.825,297.431a25.788,25.788,0,0,1,7.952,9.51l.045-.006c-.074-1.283-.962-2.4-1.58-3.592.969.971,1.374,2.364,2.255,3.395l.091-.012c-.392-1.715-1.721-3.116-2.471-4.755.376.1.465.558.634.864a21.617,21.617,0,0,1,3.9,9.749l.215.3.248-.345a23.446,23.446,0,0,0-3.958-11.772,21.349,21.349,0,0,1,4.164,11.523c.1.083.106.176.2.213.091-.01.17-.158.254-.258a29.136,29.136,0,0,0-1.366-7.212l-.021-.229a20.7,20.7,0,0,1,1.528,7.984c-.7-.118-.4.682-1.032.832-1.263.3-2.072,1.534-3.054,2.409l-.181.016-.019-.229c.569-.792,1.312-1.276,1.935-2.028-1.569-7.425-5.656-14.614-13.028-17.99C316.758,296.007,317.715,296.887,318.825,297.431Z" transform="translate(-244.806 -269.489)" fill="#001a31"/>
        <path id="路径_992" data-name="路径 992" d="M296.432,299.156l.8.2c-.06.33-.589.105-.6.519.259.3.665.215,1,.324l.02.231c-1.079-.178-2.186-.166-3.255-.251l-.307-.3c.254-.256.688-.111,1.013-.049.51,0,1.043.274,1.483.049-.314-.391-.907-.334-1.379-.427a14.914,14.914,0,0,0-1.954-.185c-.14.01-.336-.156-.213-.306A13.931,13.931,0,0,0,296.432,299.156Z" transform="translate(-247.511 -269.109)" fill="#001a31"/>
        <path id="路径_993" data-name="路径 993" d="M324.394,304.926a30.489,30.489,0,0,1,3.163,8.661l-.123.2c-.382-.151-.188-.54-.27-.945-.98-5.54-4.115-9.956-8.442-13.8-.933-.6-2.061-1.328-2.858-1.948C319.474,298.645,322.145,302.088,324.394,304.926Z" transform="translate(-244.767 -269.334)" fill="#001a31"/>
        <path id="路径_994" data-name="路径 994" d="M295.581,300.409c.538.324,1.364-.217,1.748.441.236.071.612.123.687.444l.013.138c-.814.166-1.911-.195-2.675.016.274.482.981.139,1.418.375l.018.184c-.466-.05-.69.524-1.176.248-.748.9-2-.092-3.118.2-.567-.087-1.248.022-1.7-.351a.333.333,0,0,1,.068-.281,12.435,12.435,0,0,1,3.075.314c.224-.067.43.14.641-.063-.272-.434-.981-.093-1.083-.729.5-.045.945.235,1.389.057-.559-.043-.121-.819-.719-.81-.423-.055-.824.078-1.127-.172.5-.554,1.465-.139,2.127.032Z" transform="translate(-247.777 -268.968)" fill="#001a31"/>
        <path id="路径_995" data-name="路径 995" d="M315.689,303.314c.185-.479-.449-.88-.635-1.328q-1.445-1.455-2.889-2.778l0-.045c.644-.016,1.033.687,1.574,1.01,1.595,1.79,3.495,3.321,4.82,5.178l.139-.01a8.2,8.2,0,0,0-1.549-2.764c-.6-.96-1.8-1.5-2.266-2.512-.009-.09.178-.062.225-.065,2.081,1.557,3.351,3.8,5,5.674.655.582.84,1.583,1.571,1.974a2.272,2.272,0,0,0-.551-1.471l.039-.048c1.044,1.334,1.176,3.213,2.054,4.7.318-.028.007-.414.18-.569a15.728,15.728,0,0,0-2.214-5.889c2.265,2.512,2.366,6.056,2.726,9.441.318-.03.2-.342.368-.5a12.468,12.468,0,0,0-2.166-8.386c.664.171.679,1.322,1.449,1.206.353.291.28.988.75,1.081l-.032-.828c.258.255.231.995.815.85.157.168.184.446.417.468.243-.346-.2-.674-.239-1.083-1.419-2.823-3.8-5.1-6.217-7.274,1.354.661,2.406,2.04,3.516,3.09a24.825,24.825,0,0,1,5.285,10.636c-.06.326-.162.752-.476.828-.175-.4.131-1.073-.268-1.4-.6.516-.149,1.4-.743,1.961.457,1.434-1.163,1.91-1.473,3.045l-.274.025c-1.234,1.592-2.158,3.57-3.964,4.525-2.489,2.03-5.741.809-8.3.077-1.511-.366-2.629-1.968-4.209-2.1a10.649,10.649,0,0,0-2.521,1.2c-.8.261-1.209-.579-1.664-1.045-.1-.086-.072-.271-.082-.362a20,20,0,0,1,2.341-1.142c1.373-.637,3.015-.838,4.049-2.128a13.206,13.206,0,0,1,7.63-3.851c1.047.365,2.353.012,3.108,1.188.1.085.364-.077.431.143-.063.33.233.533.473.651.24.066.405-.132.484-.323a7.413,7.413,0,0,0-4.835-2.322,8.222,8.222,0,0,0-3.291.862c-.14.474-.553.512-.96.6-.045,0-.178.064-.232-.027-.064-.176.207-.246.1-.422-.239-.119-.587.146-.789-.065a7.8,7.8,0,0,1,1.879-.636,1.17,1.17,0,0,0,.7-.392c-.174-.4-.694-.027-.957-.371.207-.248.661.168.907-.178,1.452.239,2.94-.136,4.333.429.136-.519-.328-1.03-.651-1.509-.365-.01-.179.523-.568.33-2.271-2.1-3.7-5.011-6.561-6.5-.989-.739-2.178-1.093-3.116-1.743,3.344.706,5.792,3.2,8.229,5.561.176-.066.062-.332.006-.418-1.937-2.453-4.3-5.047-7.261-6.112.786.017,1.444.648,2.243.8,1.722.626,2.771,1.966,4.265,3.161.131-.057.3-.306.144-.429-1.853-2.045-3.872-4.439-6.584-5.249-.143-.083-.3-.252-.17-.356C311.8,299.7,313.735,301.647,315.689,303.314Z" transform="translate(-246.206 -269.085)" fill="#001a31"/>
        <path id="路径_996" data-name="路径 996" d="M293.746,303.171l.018.188a20.612,20.612,0,0,0-2.451-.047,2.022,2.022,0,0,1-1.734-.259c-.027-.32.25-.346.506-.553C291.254,302.668,292.678,302.58,293.746,303.171Z" transform="translate(-247.923 -268.684)" fill="#001a31"/>
        <path id="路径_997" data-name="路径 997" d="M284.957,304.185c.839.573,1.986.511,2.825,1.078a26.378,26.378,0,0,0-3.887-.561.429.429,0,0,0-.112.288,30.286,30.286,0,0,0,3.039,1.379,23.966,23.966,0,0,0-5.773-.018c-.048-.043-.146-.077-.108-.174.6-.515,1.779-.209,2.3-.58.069-.239-.219-.4-.46-.514-2.1-.68-4.4.411-6.339-.609.552-.047,1.138-.2,1.736-.208C280.218,304.355,282.834,303.694,284.957,304.185Z" transform="translate(-249.5 -268.504)" fill="#001a31"/>
        <path id="路径_998" data-name="路径 998" d="M309.179,303.555c1.976.877,4.242,2.424,4.946,4.527-.072.236-.226.067-.323.03-1.27-2.745-4.5-4.2-7.093-5.294.2-.3.556-.008.829.01Z" transform="translate(-245.866 -268.662)" fill="#001a31"/>
        <path id="路径_999" data-name="路径 999" d="M343.415,300.009c-2.48,2.122-4.654,5.557-3.649,8.929.579-.7.535-1.713.959-2.585a10.167,10.167,0,0,1,4.237-5.567.68.68,0,0,1,.85-.352l.093.036a10.093,10.093,0,0,0-5.158,7.083c-.091.516-.455,1.1-.13,1.579.463,0,.09-.514.249-.763.372-1,.843-1.922,1.159-2.967,1.577-1.9,3.4-4.149,5.972-4.294a9.2,9.2,0,0,0-5.682,4.45,7.93,7.93,0,0,0-.857,3.682l.137-.013a9.009,9.009,0,0,1,3.7-5.375,9.035,9.035,0,0,0-3.411,5.534c.409-.085.621-.754.864-1.142.45-1.1,1.471-2.536,2.7-2.7-1.776,1.231-3.13,3.573-2.656,5.7.053.087.14.032.231.028.448-1.2,1.036-2.775,2.491-3.049.179-.065.285.113.466.093l.016.138a2.463,2.463,0,0,0-2.131,1.951c.034.323-.165.663.039.874a6.222,6.222,0,0,1,1.148-1.072,9.812,9.812,0,0,1,1.485-.372c-.106.334-.569.329-.83.494a5.723,5.723,0,0,0-1.621,4.4c-.015.323-.429.361-.3.721a1.52,1.52,0,0,0,1.149.449c.423-.411-.206-.722-.2-1.14a6.1,6.1,0,0,1-.062-1.609c.245.162.249.672.585.823.821-1.6,1.735-3.716,3.836-3.957,1.626.125,3.6-.058,4.5,1.707.81,1.261.737,2.978,2.165,3.906.454.42,1.267.715,1.375,1.4-.461.5-.995-.281-1.365.215a10.392,10.392,0,0,1-2.39,3.086c.047.505.6.454.726.855a52.523,52.523,0,0,0,6.142,3.495,26.062,26.062,0,0,1,3.048,2.993c.6.547.484,1.251.913,1.9.97,1.942.4,3.84.592,5.853a30.714,30.714,0,0,1-4.851,12.872c-.073.7-.713,1.266-.274,2.008.665,1.695,2.508,2.171,3.651,3.542-1.624-.634-3.157-1.692-4.821-2.186a.659.659,0,0,0-.737.484c1.935,1.437,4.229,2.286,6.049,3.964-1.251-.531-2.588-1.514-3.929-1.99-.131.057-.324-.016-.349.175l.058.128a26.741,26.741,0,0,1,5.569,3.778c.055.136.206.257.265.389a1.468,1.468,0,0,1-1.026-.594c-1.977-1.387-3.929-3.053-6.215-3.3a.313.313,0,0,0-.1.427,19.165,19.165,0,0,0,2.522,1.839c2.407,2.041,5.344,3.843,6.538,6.734l-.008.418-.285-.067a13.662,13.662,0,0,0-4.249-4.5l-.08.1c1.027,1.151,1.4,2.64,2.341,3.843a16,16,0,0,1,.7,2.059c-.663-.168-.654-1.045-.936-1.621a14.173,14.173,0,0,0-1.408-2.224c-.463-.512-.937-1.114-1.387-1.532-.142.016-.283-.02-.314.125a6.384,6.384,0,0,1-.831,6.445,13.761,13.761,0,0,1-6.562,3.424c-.245.3-.6-.032-1.006.093-4.089.2-8.453,1.9-12.384,1.336-.318.077-.187.482-.08.66.376.562.754,1.173,1.131,1.739-.7-.536-1.038-1.241-1.8-1.542-.159,1.261.669,2.247,1.137,3.309l2.594,3.545c-1.8-1.4-2.735-3.574-4-5.3-.233.482.086.963.131,1.419.655,1.6.92,3.424,2.233,4.685.325.524,1.19.86,1.382,1.444.447.326.928.557,1.117,1.091a9.257,9.257,0,0,1-3.208-2.745c-1.1-.407-.992-1.708-2.008-2.213-.319.536.373,1.027.424,1.574.333.617.849,1.17,1.179,1.785-.547-.456-.758-1.221-1.429-1.484-.8-1.632-1.687-3.259-2.4-4.991-.143-.034-.3-.3-.517-.091a4.94,4.94,0,0,0,.11,2.158,6.413,6.413,0,0,0,.823,3.385,11.765,11.765,0,0,1-1.614-3.495c-.053-.04-.157-.174-.249-.16a2.212,2.212,0,0,0,.071,1.237,4.791,4.791,0,0,0,.6,1.977c-2.041-2.121-1.272-5.236-1.248-7.961-1.828-2.279-4.934-.925-7.362-1.763-.652-.032-1.281-.345-1.912-.145a10.5,10.5,0,0,0-2.512,4.708c-.514,2.91.31,5.835.353,8.788-.008-1.571-1.094-2.855-.637-4.374l-.227-.49c.117-1.207.034-2.586.066-3.744l-.152-.123a21.819,21.819,0,0,0-1.82,4.234l-.127.15-.206-.258a21.523,21.523,0,0,1,1.92-5.212c-.118-.221-.379-.058-.508.048a30.066,30.066,0,0,0-4.653,8.049,4.713,4.713,0,0,0-.512,1.434c-.368-.474.291-.86.241-1.363.707-4.821,4.249-9.4,8.3-11.992-.03-.314-.338-.193-.576-.264-2.4.545-4.087,2.733-5.774,4.458-2.6,3.334-3.6,7.5-4,11.636-.337-.153-.251-.715-.234-1.04a27.976,27.976,0,0,1,2.2-8.1.39.39,0,0,0-.171-.358,11.084,11.084,0,0,0-3.263,5.106c-.065,1.3-.8,2.385-.672,3.713l-.04.047c-.4-.837.154-1.81.114-2.734.133-2.043,1.175-3.756,2.211-5.515,2.306-2.983,5.023-6.052,8.457-7.34a.97.97,0,0,0-.692-.488c-4.234,1.594-7.453,5.722-10.266,9.217-.26.208-.129.612-.454.6a6.413,6.413,0,0,1,.542-1.112c.861-1.144,1.832-2.154,2.691-3.344a25.529,25.529,0,0,0,2.948-3.043c-.577-.223-1.166.386-1.747.579a10.827,10.827,0,0,0-4.542,5.27.153.153,0,0,1-.286-.068c.8-2.293,1.779-4.734,3.882-6.41-1.139-.861-2.37.314-3.4.689.255-.716,1.181-1.214,1.784-1.688-.351-.291-.87.125-1.216.343-1.857.865-3.064,2.778-4.656,4.033A47.066,47.066,0,0,0,304,380.075a21.437,21.437,0,0,0-.87,2.066l-.273.026c1.974-5.585,5.747-11.152,11.1-14.143,2.782-.9,6.107-1.859,8.839-.268a20.606,20.606,0,0,0,3.005,1.015c1.673.121,3.288.617,5,.688.034-.1.127-.151.073-.236-4.981-1.893-9.933-5.495-15.693-3.434a33.665,33.665,0,0,0-5.133,1.4c-3.956,1.659-7.915,3.276-11.2,6.166a17.251,17.251,0,0,0-4.559,5.087c-.292.351-.432.827-.784.993l-.031-.316c2.024-4.07,5.807-6.542,9.169-9.121,3.794-2.891,8.641-3.893,12.938-5.819l.123-.195c-.489-.324-1.3-.063-1.942,0-4.783,1.183-9.556,2.454-13.382,5.492a.925.925,0,0,1-.93.454,1.708,1.708,0,0,1,.8-.9,14.46,14.46,0,0,1,3.754-2.336,7.162,7.162,0,0,0,1.588-1.256,10.908,10.908,0,0,0-3.557,1.442c-1.2.017-1.868,1.28-3,1.476l.016-.326c3.293-2.794,7.541-3.792,11.67-5.052l.08-.149a1.361,1.361,0,0,0-1.2-.025c-1.2.02-2.234.3-3.43.366-.263-.391.339-.354.5-.554,4.31-1.326,9.085-.569,13.154.948,5.422,2.171,10.658,4.916,16.214,6.57a27.644,27.644,0,0,0,13.992-.472c.032-.142-.032-.32-.168-.31-.278.026-.385.316-.719.211-.84-.617-1.807.441-2.573-.361-.6.47-.726-.349-1.071-.595a.346.346,0,0,1,.183-.524c.222-.112.333.105.479.184.052-.417.868-.123.621-.749-.845-1.121-2.229-1.131-3.273-1.958a4.219,4.219,0,0,0-2.611-.263c-.617.333-1,1.153-1.69,1.173.066-.286.131-.571-.206-.719-.482-.188-.913,1.142-1,.231.326-.447.821-.629,1-1.109-.68-.353-1.217.757-1.854.911-.3-.3.353-.682-.084-.965-.417.043-.646.526-1.03.376.058-.376,1.022-.418.429-.828-.454.091-.789.447-1.193.577-.37-.521.625-.7.263-1.178l-.643.058c.128-.148.263-.622-.153-.682-3.2-1.128-6.686-1.407-9.756-3.106a84.623,84.623,0,0,1-11.74-6.109c-1.887-1.441-4-2.861-4.814-5.092-.472-.14-.5.552-.923.455-.512-1.016,1.341-1.464.744-2.426a1.15,1.15,0,0,0-.815.678c.026.277-.192.435-.411.548-.316.075-.392-.243-.321-.479a5.944,5.944,0,0,1,1.5-1.709c-.467-.559-.851.265-1.356.314-.61.421-.985,1.333-1.551,1.667.037-1.067,1.3-1.877,1.882-2.579-.523-.18-1.044.19-1.546.283-.483.231-.808.721-1.347.865.473-1.845,2.474-2.171,3.935-2.861a8.808,8.808,0,0,1,4.482.555c2.456.6,4.35,3.106,6.948,3.187a5.3,5.3,0,0,0,3.371,1.024c1.308.154,1.741,1.868,3.172,1.876,2.485-.093,4.411,1.76,7.023,1.053,2.791.2,5.309-1,8-1.387,4.07-1.4,8.416-1.845,12.038-4.076l.505-.047a9.485,9.485,0,0,0,2.5,3.09,2.375,2.375,0,0,0,1.72.16c1.734-1.22,2.6-3.377,3.685-5.047.207-.758.844-1.37,1-2.127-.105-.636.634-1.118.491-1.7.942-3.278,1.511-7.018.319-10.462-.1-.083-.208-.211-.334-.111-.342.773.274,1.5.164,2.3-.257.206.137.449-.028.645a11.094,11.094,0,0,1-1.006,3.6c-.268,1.088-1.1,2.045-1.372,3.13-.208-.259.315-.585-.115-.777a6.65,6.65,0,0,0-1.91,2.305c-.843.355-1.066,1.483-2.018,1.663a.421.421,0,0,1,0-.551,4.264,4.264,0,0,0,1.408-2.257,5.357,5.357,0,0,0,.687-3.017c.377-.4-.316-.895.065-1.3-.148-.587.162-1.219-.464-1.528a.741.741,0,0,0-.513.464,11.438,11.438,0,0,1-3.082,8.547c-.324-.012-.439.273-.653.431-.063.328.3.293.49.324.467,0,1.073-.376,1.4.15,1.5.274,2.149-1.173,3.1-1.952a5.805,5.805,0,0,1-2.512,2.266c-.446.178-.8-.158-1.179-.259-2.284.256-4.565.053-6.077-1.792a2.248,2.248,0,0,1-.88-2.041,1.969,1.969,0,0,1,.829-1,2.962,2.962,0,0,1,2.416,1.159,1.27,1.27,0,0,0,1.166.123c2.027-1.524,2.392-4.051,1.855-6.357-.653-1.1-1.93-.885-2.85-.845-.757.259-1.606.567-1.7,1.5-.1.426.343.709.552.964a1.82,1.82,0,0,1-1.407-.7,3.928,3.928,0,0,1-.113-3.223,5.3,5.3,0,0,1,1.737-1.634c-.013-.185-.2-.26-.3-.3l-2.926.273c-.969.5-.727,1.634-.822,2.567.1,1.561.185,3.493,1.742,4.364a3.208,3.208,0,0,0,3.272-.073.973.973,0,0,1,.853-.265,27.624,27.624,0,0,1-.736,2.978,13.751,13.751,0,0,1,.225-2.053l-.306-.249c-1.762.4-3.987,1.247-5.363-.608-.131.059-.287-.113-.356.124a3.349,3.349,0,0,0,1.6,1.376,4.914,4.914,0,0,1-3.12-.822c-1.272-1.727-.861-4.307-1.151-6.4a6.638,6.638,0,0,1,4.985-4.991,31.621,31.621,0,0,1,8.847-.173c.694.028,1.392.1,2.038.086-4.635-3.676-9.989-5.626-14.626-9.348a18.182,18.182,0,0,0-6.623-2.708,12.479,12.479,0,0,1-1.744-.391c-.1-.13.076-.15.11-.245a3.01,3.01,0,0,0,1.8-.118l-.494-.328a.418.418,0,0,1,.506,0,30.945,30.945,0,0,1,4.143,1.877c.157-.335-.332-.614-.5-.922-.409-.422-.991-.738-1.089-1.279-.175-.4-.417-.012-.661-.174-.384-.148-.52-.6-.97-.464l-.149-.17a14.1,14.1,0,0,1,.174-5.557c-.094-.038-.105-.129-.2-.168l-.087.012c-.826,1.551-.4,3.683-.332,5.386-.385-.7-.913.591-1.046-.366-.279.027-.059.374-.23.532a2.35,2.35,0,0,1-.273-.945c-.05-2.534-.3-5.191.834-7.419.314-.118.373-.451.584-.654.12.265-.442.689.041.92.018.183-.2.386.045.459.736-.026.692-.987,1.22-1.269-.26.715-.38,1.419-.685,2.093.019.183-.1.379.136.448l.184-.015C340.085,302.907,341.781,301.272,343.415,300.009Z" transform="translate(-247.454 -268.983)" fill="#001a31"/>
        <path id="路径_1000" data-name="路径 1000" d="M311.948,306.431l-.027.233c-.745-.114-1.241-.948-1.915-1.253a14.9,14.9,0,0,0-4.037-1.7l-.013-.138A10.239,10.239,0,0,1,311.948,306.431Z" transform="translate(-245.957 -268.555)" fill="#001a31"/>
        <path id="路径_1001" data-name="路径 1001" d="M308.171,306.624c-.435.321-1.237.115-1.793.08a23.114,23.114,0,0,1-7.1-1.834l-.058-.136C302.083,305.716,305.156,305.984,308.171,306.624Z" transform="translate(-246.765 -268.416)" fill="#001a31"/>
        <path id="路径_1002" data-name="路径 1002" d="M319.367,305.418c-.475-.694-.97-1.481-1.445-2.174A6.535,6.535,0,0,1,319.367,305.418Z" transform="translate(-244.52 -268.595)" fill="#001a31"/>
        <path id="路径_1003" data-name="路径 1003" d="M310.011,306.005c-1.157-.03-2.3-.847-3.516-1.057-.517-.135-1.049-.365-1.567-.455A18.414,18.414,0,0,1,310.011,306.005Z" transform="translate(-246.08 -268.445)" fill="#001a31"/>
        <path id="路径_1004" data-name="路径 1004" d="M307.875,305.934a13.983,13.983,0,0,1-4.005-.873l-.013-.14A23.148,23.148,0,0,1,307.875,305.934Z" transform="translate(-246.209 -268.394)" fill="#001a31"/>
        <path id="路径_1005" data-name="路径 1005" d="M306.828,307.505c-.345.263-.962.087-1.421.085a52.8,52.8,0,0,1-6.532-1.7c1.034-.326,2.118.4,3.23.486A32.115,32.115,0,0,0,306.828,307.505Z" transform="translate(-246.807 -268.288)" fill="#001a31"/>
        <path id="路径_1006" data-name="路径 1006" d="M332.49,302.97a1.81,1.81,0,0,1-.354,1.142,6.471,6.471,0,0,1-.421,1.931,5.448,5.448,0,0,1,.728-3.071Z" transform="translate(-242.87 -268.628)" fill="#001a31"/>
        <path id="路径_1007" data-name="路径 1007" d="M343.564,301.965a15.731,15.731,0,0,0-3.508,1.436A7.113,7.113,0,0,1,343.564,301.965Z" transform="translate(-241.863 -268.749)" fill="#001a31"/>
        <path id="路径_1008" data-name="路径 1008" d="M333.567,303.319a8.4,8.4,0,0,1-.536,2.637A4.349,4.349,0,0,1,333.567,303.319Z" transform="translate(-242.711 -268.586)" fill="#fff"/>
        <path id="路径_1009" data-name="路径 1009" d="M343.889,302.709c-.7.343-1.728.3-2.215.99l-.184.016c-.078-.311.4-.637.666-.753A3.8,3.8,0,0,1,343.889,302.709Z" transform="translate(-241.692 -268.661)" fill="#001a31"/>
        <path id="路径_1010" data-name="路径 1010" d="M305.6,308.036l.242.16a16.871,16.871,0,0,1-6.178-.948A40.355,40.355,0,0,0,305.6,308.036Z" transform="translate(-246.712 -268.114)" fill="#001a31"/>
        <path id="路径_1011" data-name="路径 1011" d="M331.1,304.74a11.735,11.735,0,0,0,.287,3.572c.214-.664.081-1.622.477-2.3a21.1,21.1,0,0,0,.086,4.886c-1.136-1.79-.878-3.981-.988-6.143Z" transform="translate(-242.955 -268.415)" fill="#001a31"/>
        <path id="路径_1012" data-name="路径 1012" d="M346.214,303.7c-.917.544-2.346.584-3.246,1.361.064-.837,1.123-.842,1.686-1.263A8.441,8.441,0,0,1,346.214,303.7Z" transform="translate(-241.514 -268.542)" fill="#001a31"/>
        <path id="路径_1013" data-name="路径 1013" d="M304.675,308.846l0,.045a18.346,18.346,0,0,1-6.008-.6l-.19-.025A56.17,56.17,0,0,0,304.675,308.846Z" transform="translate(-246.854 -267.992)" fill="#001a31"/>
        <path id="路径_1014" data-name="路径 1014" d="M317.327,306.884c1.165,1.6,2.471,3.236,2.657,5.252-.492-.326-.517-1.108-.847-1.63a27.953,27.953,0,0,1-1.95-3.608Z" transform="translate(-244.609 -268.158)" fill="#fff"/>
        <path id="路径_1015" data-name="路径 1015" d="M345.852,304.463a16.179,16.179,0,0,1-2.28.815c.071-.241.384-.316.65-.479C344.767,304.706,345.24,304.335,345.852,304.463Z" transform="translate(-241.441 -268.452)" fill="#001a31"/>
        <path id="路径_1016" data-name="路径 1016" d="M303.435,309.691a19.515,19.515,0,0,1-5.441-.422l.084-.1C299.771,309.519,301.728,309.2,303.435,309.691Z" transform="translate(-246.913 -267.884)" fill="#001a31"/>
        <path id="路径_1017" data-name="路径 1017" d="M274.967,312.66c.148.124-.024.276-.058.373l-1.883.592a6.948,6.948,0,0,1-2.563-1.239c.535-.186,1.347.612,1.589-.286A28.723,28.723,0,0,1,274.967,312.66Z" transform="translate(-250.218 -267.532)" fill="#fff"/>
        <path id="路径_1018" data-name="路径 1018" d="M347.209,305.123c-.3.764-1.233.616-1.808.9.036-.1-.059-.132-.112-.221-.233-.022-.358.129-.492.184l-.056-.089c.37-.541,1.2-.478,1.783-.715Z" transform="translate(-241.301 -268.37)" fill="#001a31"/>
        <path id="路径_1019" data-name="路径 1019" d="M301.634,310.294a4.721,4.721,0,0,1-1.786.167c-1.27-.253-2.335-.293-3.6-.5l.044-.05A31.537,31.537,0,0,1,301.634,310.294Z" transform="translate(-247.123 -267.794)" fill="#001a31"/>
        <path id="路径_1020" data-name="路径 1020" d="M296.12,311.073l3.22.348c-2.136-.128-4.221.3-6.141-.494-.353-.336-.989-.231-1.157-.537C293.469,310.351,294.73,311.018,296.12,311.073Z" transform="translate(-247.627 -267.737)" fill="#001a31"/>
        <path id="路径_1021" data-name="路径 1021" d="M283.882,312.528c-.159.749-1.154.474-1.733.712a62.749,62.749,0,0,0-15.286,6.407c.849-.818,2.507-1.338,3.512-2.447a52.76,52.76,0,0,1,12.8-4.795C283.411,312.432,283.68,312.36,283.882,312.528Z" transform="translate(-250.65 -267.495)" fill="#001a31"/>
        <path id="路径_1022" data-name="路径 1022" d="M299.071,312.157a20.9,20.9,0,0,1-6.406-.376l.043-.048C294.82,311.627,296.9,312.217,299.071,312.157Z" transform="translate(-247.552 -267.578)" fill="#001a31"/>
        <path id="路径_1023" data-name="路径 1023" d="M319.744,309.462a6.954,6.954,0,0,1,1.024,3.091c-.22.112-.339-.2-.48-.231.065-.289.212-.715-.044-.965a4.831,4.831,0,0,1-.588-1.885Z" transform="translate(-244.312 -267.849)" fill="#fff"/>
        <path id="路径_1024" data-name="路径 1024" d="M296.845,313.033a16.16,16.16,0,0,1-6.052-.543c.859-.216,1.825.245,2.8.292C294.659,312.871,295.768,312.859,296.845,313.033Z" transform="translate(-247.777 -267.492)" fill="#001a31"/>
        <path id="路径_1025" data-name="路径 1025" d="M286.48,313.549c-.03.185-.22.158-.3.261a22.915,22.915,0,0,0-15.012,6.885l-.054-.085c.152-.385.728-.622.457-1.06-.4-.84-1.329-.384-1.969-.322.46-.509,1.238-.581,1.8-1C276.2,316.256,280.88,313.93,286.48,313.549Z" transform="translate(-250.321 -267.358)" fill="#001a31"/>
        <path id="路径_1026" data-name="路径 1026" d="M294.557,313.879a12.623,12.623,0,0,1-4.34-.514C291.74,313.361,293.117,313.784,294.557,313.879Z" transform="translate(-247.846 -267.38)" fill="#001a31"/>
        <path id="路径_1027" data-name="路径 1027" d="M294.679,315.326c-1.532-.09-3.161-.721-4.755-.988a8.822,8.822,0,0,1-1.463-.326,1.11,1.11,0,0,1-.789-.065,2.212,2.212,0,0,1,1.709.026C291.234,314.032,292.885,314.895,294.679,315.326Z" transform="translate(-248.152 -267.331)" fill="#001a31"/>
        <path id="路径_1028" data-name="路径 1028" d="M294.489,315.921c1.617.542,3.079,1.375,4.7,1.916-.643.059-1.4-.653-2.156-.354a32.009,32.009,0,0,0-5.68-1.963,17.74,17.74,0,0,0-7.719-.619c2.887-1.243,5.9-.041,8.811.424Z" transform="translate(-248.636 -267.261)" fill="#001a31"/>
        <path id="路径_1029" data-name="路径 1029" d="M347.224,310.543l.019.18a5.668,5.668,0,0,0-4.107-.446c-.24-.115-.8.255-.846-.2a4.91,4.91,0,0,1,4.071-.424Z" transform="translate(-241.595 -267.857)" fill="#fff"/>
        <path id="路径_1030" data-name="路径 1030" d="M300.232,318.4a45.631,45.631,0,0,0,5.208.9l0,.047a22.454,22.454,0,0,1-5.821-.567.214.214,0,0,0,.021.231c2.19,1.226,4.757.986,7.231.8.456-.037.81-.211,1.25.027.112.218-.162.244-.249.347-1.469.043-2.294.626-3.73.573a.228.228,0,0,0-.158.293c.349.291.888.148,1.072.594,1.416.328,2.577,1.421,3.949,1.8,2.232,1.642,4.948,2.086,7.155,3.446a10.258,10.258,0,0,1-2.622-.909c-4.309-1.631-8.366-4.074-12.745-5.46a.756.756,0,0,0-.453.085c2.68,1.5,5.5,2.49,8.128,4,2.514,1.2,4.26,3.114,6.84,4.071.416.472,1.138.31,1.375.889l-.548.053c-2.743-.717-5.027-2.95-7.663-3.953l-.082.1c1.853,2.043,4.344,3.519,6.662,5.1,1,.324,1.836.89,2.847,1.3l.011.14c-.6.008-.968-.464-1.484-.556-.666-.216-1.26-.668-1.924-.838-.169.156.071.271.09.456-.608-.087-1.275-.806-1.94-.516a28.9,28.9,0,0,0,3.057,2.118c-.573.283-1.318-.29-1.905-.142.488.278.9.79,1.5.782,1.3.571,2.758.852,4.008,1.38-.124.152-.464,0-.487.232l.146.075a16.843,16.843,0,0,1-6.467-2.534c.023-.236.286-.4.461-.506a.781.781,0,0,0,.638-.058c-.326-.524-.926-.516-1.254-1.085-.7-.626-1.606-.913-2.307-1.493.725-.161,1.359.709,2.14.681l-.017-.188a58.46,58.46,0,0,0-5.124-2.983c.23-.484.651.077.969,0a14.818,14.818,0,0,0,3.757,2.191l.084-.1a24.267,24.267,0,0,0-3.148-2.108,14.1,14.1,0,0,0-4.54-2.624c-.082.1-.16.245-.019.278.794.619,1.883.89,2.479,1.848-.637.105-1.147-.449-1.761-.577a23.428,23.428,0,0,0-2.877-.654.182.182,0,0,0-.064.283l.143.081c-1.595-.269-3.193-1.09-4.862-1.166a2.05,2.05,0,0,0-1.378.083c1.295.526,2.725.531,4.018,1.013-1.82-.2-3.75-.622-5.624-.911a33.955,33.955,0,0,0-4.923-.28c-.029.14-.268.069-.2.248,1.014.461,2.153.311,3.2.674,3.063,1.145,6.446,1.294,9.451,2.815l.008.09c-1.456-.279-2.755-.849-4.21-1.083a18.011,18.011,0,0,0-5.868.451c-.1.424.523.185.727.349a1.807,1.807,0,0,1,.848.2c-.161.245-.551.008-.871.037-.236-.072-.4-.375-.621-.222-.045.052-.086.057-.04.1l.153.171a1.725,1.725,0,0,0-1.028.326l.308.343a12.192,12.192,0,0,1-2.584.516c-.487.228-1.139.153-1.571.472.012.136.11.176.2.211a43.37,43.37,0,0,1,8.573.862c-1.509.142-3.051-.544-4.739-.341a13.86,13.86,0,0,0-4.955.318l-.084.105.251.2a26.405,26.405,0,0,1,7.833.84c-1.576-.083-3.04-.454-4.653-.4-2.359-.057-4.874-.286-7.205.439.51-.464,1.646-.156,1.6-1.163l-.035-.369c1.4-.822,3.159-.8,4.622-1.444l-.2-.214c-1.242.026-2.311.449-3.414.5-.069-.223.211-.2.295-.3,1.4-.361,3-.466,4.305-.861.034-.143-.162-.264-.3-.3-3.642-.441-7.26-.1-10.218,1.833a25.527,25.527,0,0,0-3.473,2.353c4.131-4.215,10.485-5.408,16.243-5.527a.421.421,0,0,0,.5-.093l-.11-.174c-3.639-1.418-8.164-1.92-12.017-.178-.1-.036-.189-.027-.242-.114l.293-.3c4.2-1.962,9.658-2.379,14.235-1.835l.358-.125a13.866,13.866,0,0,0-3.775-.848,24.9,24.9,0,0,0-7.249-.022c-.1-.077-.3-.2-.123-.309,7.088-.751,13.546,1.184,20.021,2.8.316-.081.625.261.876-.037a9.67,9.67,0,0,0-2.743-1.683c-3.012-1.616-6.4-1.809-9.691-2.469a24.194,24.194,0,0,0-5.22-.025l-.01-.093c1.033-.323,2.377-.265,3.37-.5-.207-.261-.763-.251-1.179-.261-5.482.14-9.644,3.021-13.878,5.633-1.088,1.211-2.451,1.938-3.432,3.319l.027-.233a24.683,24.683,0,0,1,8.974-7.255,16.952,16.952,0,0,1,8.479-1.616c2,.185,3.946.694,5.983.782.558.04,1.015.457,1.547.228-.417-.469-1.156-.5-1.734-.764a27.08,27.08,0,0,0-6.771-1.313c-3.189-.531-6.446.7-9.076,2.184a55.086,55.086,0,0,0-4.776,3.26c-.067-.731.96-1.1,1.468-1.614,2.539-1.48,4.848-3.449,7.939-3.968,3-.464,6.208-1.27,9.152-.391.358-.08,1.035.228,1.175-.248-5.577-1.882-12.488-1.284-17.292,2.209-1.281,1.088-2.616,2.136-3.849,3.268a18.9,18.9,0,0,1,7.435-5.45c2-1.338,4.752-1.5,7.23-1.638a30.3,30.3,0,0,1,5.557.637.285.285,0,0,0,.111-.29c-2.567-1.284-5.648-1.181-8.534-1.421a16.516,16.516,0,0,0-7.494,2.82,30.451,30.451,0,0,0-3.433,2.811l.021-.278c3.478-3.323,7.546-5.735,12.62-5.791C291.275,315.4,295.47,317.832,300.232,318.4Z" transform="translate(-250.079 -267.142)" fill="#001a31"/>
        <path id="路径_1031" data-name="路径 1031" d="M328.829,312.359c-.138.474-.768.623-1.154.935-.623.29-.892,1.381-1.6,1.165-.069-.27.287-.394.31-.628a.218.218,0,0,1-.021-.231C327.094,313.023,327.847,312.173,328.829,312.359Z" transform="translate(-243.543 -267.504)" fill="#001a31"/>
        <path id="路径_1032" data-name="路径 1032" d="M315.083,314.022c.219.858-.636,1.075-1.1,1.532-.282-.02-.693.02-.767-.3a1.519,1.519,0,0,1,.746-1.407C314.323,313.769,314.86,313.629,315.083,314.022Z" transform="translate(-245.087 -267.333)" fill="#fff"/>
        <path id="路径_1033" data-name="路径 1033" d="M342.261,312.4c-.361.587-.084,1.075-.257,1.687-.413.04-.454-.416-.752-.623-.483-.738.386-.819.7-1.358C342.137,312.044,342.161,312.272,342.261,312.4Z" transform="translate(-241.737 -267.533)" fill="#fff"/>
        <path id="路径_1034" data-name="路径 1034" d="M344.138,312.593a1.148,1.148,0,0,1-.614,1.352c-.175.107-.343.31-.59.1-.172-.355-.549-.922-.225-1.414C343.1,312.413,343.769,312.124,344.138,312.593Z" transform="translate(-241.56 -267.503)" fill="#fff"/>
        <path id="路径_1035" data-name="路径 1035" d="M317.583,315.08c-.188.941-.551,2.039-1.588,2.269-.966.045-1.949.414-2.53-.409-.222-.349-.671-.725-.516-1.061,1.036-.281,1.646.818,2.666.354.609-.379,1.376-.59,1.679-1.263C317.4,315.053,317.565,314.9,317.583,315.08Z" transform="translate(-245.121 -267.187)" fill="#fff"/>
        <path id="路径_1036" data-name="路径 1036" d="M299.091,321.18c.79.524,1.866.7,2.5,1.52a11.328,11.328,0,0,1,2.714,1.872c-1.12-.124-2.163-.907-3.259-1.266-3.454-1.435-6.787-3.017-10.308-4.118-.333-.108-.693-.03-.992-.233l.119-.242A30.985,30.985,0,0,1,299.091,321.18Z" transform="translate(-247.903 -266.738)" fill="#fff"/>
        <path id="路径_1037" data-name="路径 1037" d="M312.8,318.153c.318-.03.5.371.822.388a10.643,10.643,0,0,0,2.574.4c-.407.6-1.3.4-1.951.369a4.692,4.692,0,0,1-2.646-.629c-.4-.379-1.259-.666-1.233-1.363.5-.554.963.419,1.545.225Z" transform="translate(-245.428 -266.926)" fill="#fff"/>
        <path id="路径_1038" data-name="路径 1038" d="M321.907,316.277c.035.872-1.16,1.446-1.459,2.211a5.127,5.127,0,0,1-3.265,1.132c1.039-.741,2.4-1.052,3.315-2.062C321.006,317.049,321.177,316.385,321.907,316.277Z" transform="translate(-244.609 -267.03)" fill="#fff"/>
        <path id="路径_1039" data-name="路径 1039" d="M344.1,315.517c.836.059,1.474-.51,2.241-.715.09.5-.591,1.066-.933,1.375a2.3,2.3,0,0,1-1.981.048,2.341,2.341,0,0,1-1.109-1,.6.6,0,0,1,.221-.623C343.269,314.531,343.433,315.3,344.1,315.517Z" transform="translate(-241.594 -267.232)" fill="#fff"/>
        <path id="路径_1040" data-name="路径 1040" d="M349.052,315.153a5.543,5.543,0,0,1-2.458,2.859c-.4-.286-1.333.078-1.21-.626a4.5,4.5,0,0,0,3.02-2.727A.889.889,0,0,1,349.052,315.153Z" transform="translate(-241.225 -267.225)" fill="#fff"/>
        <path id="路径_1041" data-name="路径 1041" d="M259.464,326.835a7.337,7.337,0,0,1,1.835-2.109Z" transform="translate(-251.538 -266.016)" fill="#001a31"/>
        <path id="路径_1042" data-name="路径 1042" d="M323.745,319.6c.1.59-.722,1.131-.485,1.707l.5-.045a19.773,19.773,0,0,1-1.614,3.474c.2.165.313-.124.537-.19a4.722,4.722,0,0,1,1.4-1.328,9.586,9.586,0,0,1-3.927,2.947c.225-.576.955-.642,1.331-1.09a9.82,9.82,0,0,0,1.786-3.122c-.534-.274-.79.439-1.239.575a14.162,14.162,0,0,1-2.47,2.725l-.055-.043a10.691,10.691,0,0,0,1.957-2.352c-.822.123-1.382,1.051-2.256,1.089.235-.484.81-.722.992-1.247a7.066,7.066,0,0,0-1.772.813,6.432,6.432,0,0,1-2.556.789,13.734,13.734,0,0,0,6.553-3.98C323.112,320.673,323.206,319.742,323.745,319.6Z" transform="translate(-244.766 -266.632)" fill="#001a31"/>
        <path id="路径_1043" data-name="路径 1043" d="M319.378,321.415a3.365,3.365,0,0,1-1.191,1.081,3.915,3.915,0,0,1-2.426.731,6.521,6.521,0,0,0,3.469-1.937Z" transform="translate(-244.78 -266.429)" fill="#001a31"/>
        <path id="路径_1044" data-name="路径 1044" d="M268.407,329.92l-.181.016a37.424,37.424,0,0,1,3.638-4.031C270.9,327.424,269.422,328.436,268.407,329.92Z" transform="translate(-250.486 -265.875)" fill="#001a31"/>
        <path id="路径_1045" data-name="路径 1045" d="M297.056,325.2c-.092.008-.135.012-.177.063l.009.09a5.256,5.256,0,0,1,1.988.557,45.049,45.049,0,0,1-4.487-1.108c-.572-.178-1.233-.348-1.757-.532C294.241,324.209,295.561,324.962,297.056,325.2Z" transform="translate(-247.556 -266.072)" fill="#001a31"/>
        <path id="路径_1046" data-name="路径 1046" d="M338.261,321.791c-1.8.953-2.536,2.959-3.487,4.663-.221.113-.15-.124-.251-.205C335.245,324.564,336.44,322.513,338.261,321.791Z" transform="translate(-242.527 -266.369)" fill="#001a31"/>
        <path id="路径_1047" data-name="路径 1047" d="M336.407,322.36c-.06.373-.552.514-.61.887a4.777,4.777,0,0,0-1.121,1.858.6.6,0,0,1-.263.119c-.206-.214.057-.375.038-.558A7.863,7.863,0,0,1,336.407,322.36Z" transform="translate(-242.55 -266.3)" fill="#001a31"/>
        <path id="路径_1048" data-name="路径 1048" d="M340,322.5a11.776,11.776,0,0,0-4.257,5.8l-.141.01c-.344-.749.888-1.373.224-2.1l-.5.6-.045-.457,1.434-2.444c.763.252,1.108-1.025,1.839-.586C339.151,323.32,339.411,322.606,340,322.5Z" transform="translate(-242.436 -266.283)" fill="#001a31"/>
        <path id="路径_1049" data-name="路径 1049" d="M355.93,325.848c.084.454-.465.461-.8.4-1.089.243-2.311-.016-3.35.217-1.085-.268-1.947.923-2.864-.007-1.72-.166-3.159-1.188-4.814-1.632.065-.281.427-.409.69-.526a16.267,16.267,0,0,1,6.58.268l.09-.057a19.086,19.086,0,0,0-4.355-.658c.14-.474.907-.128,1.251-.436C351.011,323.582,354.846,322.673,355.93,325.848Z" transform="translate(-241.377 -266.174)" fill="#fff"/>
        <path id="路径_1050" data-name="路径 1050" d="M346.96,326.055c-1.273-.3-2.665-.356-3.98-.6-.029-.321.282-.439.455-.549A7.637,7.637,0,0,1,346.96,326.055Z" transform="translate(-241.512 -265.995)" fill="#fff"/>
        <path id="路径_1051" data-name="路径 1051" d="M292.012,330.793l.009.094a31.764,31.764,0,0,0-8.6.339c1.627-.845,3.629-.709,5.467-.787A16.726,16.726,0,0,1,292.012,330.793Z" transform="translate(-248.662 -265.33)" fill="#001a31"/>
        <path id="路径_1052" data-name="路径 1052" d="M345.857,326.029l.011.138-3.581.24c-.091-.039-.055-.136-.071-.271.523-.833,1.683-.3,2.509-.327C345.067,325.964,345.509,325.784,345.857,326.029Z" transform="translate(-241.604 -265.903)" fill="#fff"/>
        <path id="路径_1053" data-name="路径 1053" d="M293.585,331.4a32.119,32.119,0,0,0-5.592.427c-.783.025-1.806.441-2.506.368C287.869,331.007,290.985,331.273,293.585,331.4Z" transform="translate(-248.414 -265.229)" fill="#001a31"/>
        <path id="路径_1054" data-name="路径 1054" d="M293.6,332.787l-.129.1a46.809,46.809,0,0,0-6.9-.235l.394-.221A24.922,24.922,0,0,1,293.6,332.787Z" transform="translate(-248.285 -265.101)" fill="#001a31"/>
        <path id="路径_1055" data-name="路径 1055" d="M294.636,334.3l.009.093c-2.467-.231-4.9-.561-7.407-.745.156-.29.672-.2,1-.185C290.424,333.678,292.569,333.9,294.636,334.3Z" transform="translate(-248.204 -264.97)" fill="#001a31"/>
        <path id="路径_1056" data-name="路径 1056" d="M354.081,328.129c.183-.017.286.113.437.237.123-.2-.041-.46.268-.58a.522.522,0,0,1,.623.264c.227.906-.533,1.666-1.127,2.23-.444.18-.848.819-1.391.405a6.172,6.172,0,0,0-.423-2.035.556.556,0,0,1,.349-.727C353.517,327.538,353.482,329.158,354.081,328.129Z" transform="translate(-240.376 -265.653)" fill="#fff"/>
        <path id="路径_1057" data-name="路径 1057" d="M293.016,335.353l.008.091a29.054,29.054,0,0,0-11.088,2.877c-3.848,1.79-6.749,5.338-9.551,8.506-.833,1.464-2.22,2.93-2.955,4.475a39.248,39.248,0,0,1,5.131-7.4c4.593-5.181,10.285-8.528,17.572-8.605C292.413,335.318,292.738,335.331,293.016,335.353Z" transform="translate(-250.342 -264.747)" fill="#001a31"/>
        <path id="路径_1058" data-name="路径 1058" d="M347.353,331.788a8.488,8.488,0,0,1-.3,2.707c-.263-.809.135-1.492-.084-2.345-.4-.333-.964,0-1.411-.286l0-.045C346.151,331.813,346.843,331.283,347.353,331.788Z" transform="translate(-241.203 -265.195)" fill="#001a31"/>
        <path id="路径_1059" data-name="路径 1059" d="M342.147,337.006l.018.183a5.474,5.474,0,0,1-2.586,1.95,10.974,10.974,0,0,0,2.241-2.193C341.958,336.933,342.089,336.873,342.147,337.006Z" transform="translate(-241.921 -264.552)" fill="#001a31"/>
        <path id="路径_1060" data-name="路径 1060" d="M342.811,337.312c-.153,1.354-1.68,1.819-2.534,2.592-.176.063-.388.264-.536.143a13.851,13.851,0,0,0,2.839-2.713Z" transform="translate(-241.901 -264.505)" fill="#001a31"/>
        <path id="路径_1061" data-name="路径 1061" d="M289.025,342.507c-.62.794-1.85.956-2.714,1.588-5.319,2.853-10.027,7.353-14.1,12.16-.39.777-.962,1.567-1.358,2.3l-.037-.409c1.806-3.908,5.376-7.7,8.781-10.327,1.268-.767,2.422-1.75,3.692-2.47A52.251,52.251,0,0,1,289.025,342.507Z" transform="translate(-250.176 -263.882)" fill="#001a31"/>
        <path id="路径_1062" data-name="路径 1062" d="M343.822,338.37c-.026.235-.245.348-.132.567.3.757,1.579-.376.857.755.592.954,1.1-.613,1.728.25.371.016.394.289.33.572-.152.336-.408,1.053-.868.584-.475.834-1.361.269-1.983.514-.661-.174-.936.873-1.6.654.326-.446.707-.85,1.12-1.351-.439-.236-.8.859-1.224.2-.449.133-.818.68-1.382.589.063-.373.573-.326.822-.624a1.809,1.809,0,0,0,.508-.466c-.068-.271-.382-.151-.578-.271-.857.221-1.437.92-2.3,1.09,1.228-1.22,2.927-1.792,4.127-3.291A.929.929,0,0,1,343.822,338.37Z" transform="translate(-241.976 -264.405)" fill="#001a31"/>
        <path id="路径_1063" data-name="路径 1063" d="M310.588,344.517a13.285,13.285,0,0,0,2.138,3.636c-.311.121-.5.552-.841.354a9.515,9.515,0,0,1-2.993-4.384c.094-.471.083-1.068.57-1.3C310.512,342.678,310.211,343.949,310.588,344.517Z" transform="translate(-245.604 -263.845)" fill="#fff"/>
        <path id="路径_1064" data-name="路径 1064" d="M351.99,341.12c-.271.073-.43-.188-.543-.366.03-.142-.159-.26-.25-.248-.14.521.273.989.37,1.533-.146-.082-.446-.328-.6.008a1.981,1.981,0,0,1-.666-1.695c.225-.572.837.063,1.011-.557C351.665,340.089,352.086,340.7,351.99,341.12Z" transform="translate(-240.637 -264.207)" fill="#001a31"/>
        <path id="路径_1065" data-name="路径 1065" d="M349.946,340.344a4.394,4.394,0,0,0,.806,2.236c-.455.088-.438-.744-1.016-.506-.2-.208-.143-.539-.347-.755-.12.2-.336.36-.533.239a1.18,1.18,0,0,1-.133-.96.367.367,0,0,1,.392-.218c.159.168.078.316.056.549l.143.075C349.577,340.84,349.456,340.071,349.946,340.344Z" transform="translate(-240.828 -264.148)" fill="#001a31"/>
        <path id="路径_1066" data-name="路径 1066" d="M295.018,347.831a4.9,4.9,0,0,1-1.44.409c-4.458,1.707-8.785,3.82-12.177,7.552a35.346,35.346,0,0,0-7.426,11.491c-.048-.5.423-.915.374-1.466,1.06-1.99,2.07-4.023,3.222-6.024a30.175,30.175,0,0,1,14.1-11.237C292.864,348.5,293.825,347.894,295.018,347.831Z" transform="translate(-249.797 -263.243)" fill="#001a31"/>
        <path id="路径_1067" data-name="路径 1067" d="M318.515,347.587c.244.158.326.523.644.493.482-.275.047-.974.638-1.076.519.6.5,1.847,1.369,1.813.25-.255.043-1.065.657-.847,1.094.822,1.929,2.82,3.5,2.354.353-.174.86-.73,1.193-.111l4.62,4.509-.123.148c-1.207-.577-2.59-.543-3.758-1.175a43.478,43.478,0,0,1-8.424-2.725c-.607-.544-1.5-.735-2.114-1.371l.081-.1c2.1.309,4.076,1.1,6.148,1.549.038-.1.125-.15.069-.237a3.4,3.4,0,0,1-2.117-.909,11.458,11.458,0,0,1-3.675-1.321c-.675-.307-.034-.874-.261-1.315.337-.354-.027-1.288.776-1.088Z" transform="translate(-244.665 -263.444)" fill="#fff"/>
        <path id="路径_1068" data-name="路径 1068" d="M303.648,348.088l0,.045c-1.6.151-2.913.963-4.372,1.146a39.643,39.643,0,0,0-10.46,5.683,20.477,20.477,0,0,0-4.8,6.492l-.183.016c.239-.9.858-1.695,1.149-2.551a25.793,25.793,0,0,1,7.649-7.589,22.039,22.039,0,0,1,8.425-3.232A15.573,15.573,0,0,0,303.648,348.088Z" transform="translate(-248.612 -263.212)" fill="#001a31"/>
        <path id="路径_1069" data-name="路径 1069" d="M300.081,350.25c-3.24.858-6.634,2.1-9.024,4.715l-.267.074C292.99,351.926,296.55,350.995,300.081,350.25Z" transform="translate(-247.777 -262.952)" fill="#001a31"/>
        <path id="路径_1070" data-name="路径 1070" d="M327.089,347.882c1.473.973,2.69,2.613,4.478,3,1.157.03.831-1.506,1.93-1.612,3.1-.381,4.893,2.961,6.147,5.064a27.592,27.592,0,0,0,5.933,7.2c.135-.519-.534-.78-.81-1.263a10.067,10.067,0,0,1-2.544-8.488c.316-.581.386-1.328,1.1-1.67,3.283-.4,4.821,3.241,6.363,5.405.511.553.687,1.461,1.366,1.77.177-.522-.41-.883-.719-1.273a32.46,32.46,0,0,1-2.559-5.625,1.243,1.243,0,0,1,.561-1.439c2.187-.8,4.047.827,5.3,2.326,1.309,1.679,1.658,3.91,2.529,5.856a.4.4,0,0,0,.431.19l.209-.755.184.028a4.884,4.884,0,0,1-1.154,4.447c-2.041,1.9-4.562,2.547-7.485,2.911a4.874,4.874,0,0,1-3.683-1.873l-.484-.279c-1.691-1.78-2.809-3.845-4.757-5.466-1.427-1.435-3.564-2.578-5.626-1.876-.77.166-1.373,1.1-2.209.529-2.31-1.5-3.652-4-5.279-6.111a2.319,2.319,0,0,1-.275-.99C326.276,347.59,326.8,347.724,327.089,347.882Z" transform="translate(-243.547 -263.257)" fill="#fff"/>
        <path id="路径_1071" data-name="路径 1071" d="M301.321,351a38.609,38.609,0,0,0-9.427,3.879l.035-.146c2.48-2.124,5.576-3.055,8.795-3.725Z" transform="translate(-247.645 -262.862)" fill="#001a31"/>
        <path id="路径_1072" data-name="路径 1072" d="M353.025,353.173c.319.94,1.178,1.737.9,2.687l-.183.015c-.251-2.187-1.872-3.7-2.918-5.542-.2-.168-.446-.329-.472-.606A10.2,10.2,0,0,1,353.025,353.173Z" transform="translate(-240.627 -263.015)" fill="#fff"/>
        <path id="路径_1073" data-name="路径 1073" d="M332.156,355.429c.977.1,2.077-.007,2.874.609a14.751,14.751,0,0,1,2.891.334c.339-.311.575.22.9.237a5.28,5.28,0,0,1,2.728,1.547l.012.138c-.864.128-1.695-.349-2.607-.265-2.3-.431-4.65-.857-6.963-1.381-2.227-.63-4.3-1.541-6.531-2.211a9.668,9.668,0,0,1-2.642-1.6l.131-.105C325.993,353.7,329.25,353.991,332.156,355.429Z" transform="translate(-243.933 -262.654)" fill="#fff"/>
        <path id="路径_1074" data-name="路径 1074" d="M319.647,361.174c-2.013,2.221-5.3,2.063-7.313,4.281l-.044.05c-.091.01-.058-.132-.062-.178,1.037-1.253,2.06-2.687,3.52-3.329.04-.1-.055-.132-.157-.215-.508,0-1.086.241-1.528-.046.764-1.223,2.565-1.205,3.86-1.185A17.544,17.544,0,0,1,319.647,361.174Z" transform="translate(-245.204 -261.716)" fill="#fff"/>
        <path id="路径_1075" data-name="路径 1075" d="M335.585,361.15c.1.037.157.217.29.16.293-.354-.078-.875.261-1.181.178-.065.341.2.358.383.58.269,1.267-.767,1.573.036.284.573.841-.4,1,.278.249.255.532-.19.824-.033a3.144,3.144,0,0,0,.782,1.449c-.267.12-.643.017-.7.393l.021.229c-.556-.04-.594-1.425-1.168-.632a.3.3,0,0,0,.065.178c-.038.1-.132.057-.225.069-.3-.3-.644.01-.916-.426-.431-.143-.8.77-1.063,0a.7.7,0,0,0-.734.022c-.763-.248-.606-1.047-.8-1.584a.2.2,0,0,1,.159-.293A2.507,2.507,0,0,1,335.585,361.15Z" transform="translate(-242.454 -261.767)" fill="#001a31"/>
        <path id="路径_1076" data-name="路径 1076" d="M328.1,364.35a11.062,11.062,0,0,0-.4,2.157c0,.552-.039,1.069-.039,1.573-.192-.073-.317-.431-.39-.7a7.258,7.258,0,0,1,.447-3.133C327.865,364.275,327.992,364.175,328.1,364.35Z" transform="translate(-243.399 -261.272)" fill="#001a31"/>
        <path id="路径_1077" data-name="路径 1077" d="M329.962,364.671c.18.444-.143.933-.193,1.4a8.947,8.947,0,0,0,.418,3.472,1.149,1.149,0,0,1-.36-.89c-.15-.589-.03-1.29-.7-1.594-.189-.032-.4.128-.557-.043.169-.664-.158-1.692.438-2.211C329.386,364.907,329.577,364.47,329.962,364.671Z" transform="translate(-243.242 -261.227)" fill="#001a31"/>
        <path id="路径_1078" data-name="路径 1078" d="M316.82,376.716c.371-1.975.318-4,.838-5.893l.245-.3Q317.285,373.556,316.82,376.716Z" transform="translate(-244.653 -260.519)" fill="#001a31"/>
        <path id="路径_1079" data-name="路径 1079" d="M302,373.568a13.95,13.95,0,0,1-.625,2.229c-.194.893-.436,1.747-.539,2.637A10.19,10.19,0,0,1,302,373.568Z" transform="translate(-246.573 -260.153)" fill="#001a31"/>
        <path id="路径_1080" data-name="路径 1080" d="M279.739,379.023c-.626,1.212-.677,2.648-1.442,3.826a8.793,8.793,0,0,1,1.4-4.238Z" transform="translate(-249.277 -259.548)" fill="#fff"/>
      </g>
    </g>
  </g>
</svg>
