<svg xmlns="http://www.w3.org/2000/svg" width="149.783" height="206.456" viewBox="0 0 149.783 206.456">
  <g id="组_249" data-name="组 249" transform="translate(-84.624 -2790.974)">
    <g id="组_225" data-name="组 225" transform="translate(84.624 2790.974)">
      <g id="组_224" data-name="组 224" transform="translate(4.345 10.449)">
        <g id="组_220" data-name="组 220">
          <g id="组_219" data-name="组 219">
            <path id="路径_663" data-name="路径 663" d="M434.537,184.023c-2.886-.08-6.56.9-9.039.282-1.23-.306-2.471-2.316-3.672-3.39a38.846,38.846,0,0,0-3.954-3.107c-4.155-2.695-13.357-6.987-20.9-4.8-6.1,1.767-9.129,10.357-11.016,16.947-2.124,7.416-2.224,17.781,0,24.574.857,2.617,3.869,5.886,3.954,8.192.069,1.857-1.748,4.5-2.259,6.779-1.7,7.565,1.111,13.447,1.13,20.9.02,7.832-1.725,15.264-1.13,22.032.881,10.011,7.148,15.9,12.146,21.185,3.063,3.236,7.006,7.11,7.909,11.863.759,3.993.622,9.355,1.413,12.993.877,4.037,2.975,7.237,4.237,11.017,3.182,9.53,3.954,20.518,11.3,23.162,8.517,3.066,15.895-4.039,22.315-5.649,7.144-1.792,15.355-.605,22.6-.848,7.339-.246,15.139-1.056,19.771-4.237,3.346-2.3,4.061-5.885,6.5-10.451,1.621-3.037,4.085-6.228,6.214-9.6,5.787-9.179,14.2-20.458,17.23-31.071,3.209-11.232-3.367-24.525-7.344-33.047-3.994-8.557-9.5-15.9-12.428-24.009-2.487-6.9-3.1-13.854-5.649-19.49-1.055-2.331-3.159-4.3-3.955-6.5-1.547-4.27-1.515-8.636-2.542-12.711a62.31,62.31,0,0,0-3.955-11.3c-3.138-6.6-9.2-17.878-18.36-17.513-10.759.428-16.292,11.855-22.032,18.36C439.787,184.205,437.119,184.095,434.537,184.023Z" transform="translate(-384.322 -166.219)" fill="#fff" fill-rule="evenodd"/>
            <path id="路径_664" data-name="路径 664" d="M443.01,184.588c5.74-6.5,11.273-17.931,22.032-18.36,9.16-.365,15.222,10.91,18.36,17.513a62.31,62.31,0,0,1,3.955,11.3c1.027,4.075.995,8.441,2.542,12.711.8,2.2,2.9,4.165,3.955,6.5,2.549,5.636,3.162,12.594,5.649,19.49,2.924,8.109,8.434,15.452,12.428,24.009,3.977,8.522,10.553,21.816,7.344,33.047-3.033,10.613-11.443,21.892-17.23,31.071-2.129,3.376-4.594,6.567-6.214,9.6-2.436,4.566-3.151,8.153-6.5,10.451-4.632,3.181-12.432,3.991-19.771,4.237-7.242.243-15.453-.944-22.6.848-6.42,1.61-13.8,8.715-22.315,5.649-7.344-2.644-8.116-13.632-11.3-23.162-1.262-3.779-3.36-6.98-4.237-11.017-.79-3.637-.654-9-1.413-12.993-.9-4.753-4.845-8.627-7.909-11.863-5-5.28-11.265-11.173-12.146-21.185-.6-6.769,1.15-14.2,1.13-22.032-.019-7.455-2.826-13.337-1.13-20.9.512-2.283,2.328-4.923,2.259-6.779-.085-2.306-3.1-5.574-3.954-8.192-2.224-6.793-2.124-17.158,0-24.574,1.887-6.59,4.914-15.18,11.016-16.947,7.545-2.186,16.747,2.107,20.9,4.8a38.846,38.846,0,0,1,3.954,3.107c1.2,1.073,2.441,3.084,3.672,3.39,2.48.616,6.153-.362,9.039-.282C437.119,184.095,439.787,184.205,443.01,184.588ZM416.176,179.5c-4.56-2.835-11.532-6.166-18.077-4.519-6.742,1.7-10.248,13.51-11.3,20.337-1.315,8.544-.129,16.053,2.542,21.75.969,2.068,2.789,3.934,2.824,5.649.036,1.7-1.449,4.247-1.977,6.214-2.173,8.1,1,14.228.565,24.009-.264,6-1.476,11.946-1.13,17.513,1.085,17.465,17.409,21.557,20.055,34.743,1.095,5.459.926,12.575,2.542,17.23.538,1.55,2.47,4.3,3.107,6.214,2.886,8.69,3.722,19.956,10.168,22.032,8.487,2.734,16.946-5.741,24.009-6.5,14.578-1.559,27.947,1.854,37-3.107,4.761-2.608,4.818-5.559,7.345-10.451,1.748-3.386,4.694-6.671,7.061-10.451,2.186-3.491,4.31-7.288,6.5-11.016,4.237-7.226,10.63-16.011,10.733-24.574.111-9.179-4.825-18.569-8.473-26.269-3.745-7.9-8.978-15.485-11.864-22.879-2.615-6.7-3.105-13.974-5.367-19.207-1.224-2.831-3.579-5.132-4.52-7.909-1.284-3.79-1.5-8.211-2.542-12.429a60.024,60.024,0,0,0-3.954-11.016c-2.758-5.818-8.4-17.426-17.23-16.382-5.084.6-10.378,5.393-13.276,8.756-1.5,1.742-4.8,8.668-6.779,9.321-2.5.824-6.379-.418-9.6-.565a42.744,42.744,0,0,0-9.886.565C421.619,183.667,419.6,181.631,416.176,179.5Z" transform="translate(-384.322 -166.219)" fill="#001a31" fill-rule="evenodd"/>
            <path id="路径_665" data-name="路径 665" d="M425.3,187.3a42.744,42.744,0,0,1,9.886-.565c3.225.147,7.107,1.388,9.6.565,1.98-.653,5.278-7.579,6.779-9.321,2.9-3.363,8.192-8.156,13.276-8.756,8.829-1.044,14.473,10.565,17.23,16.382a60.024,60.024,0,0,1,3.954,11.016c1.037,4.218,1.258,8.639,2.542,12.429.941,2.777,3.3,5.078,4.52,7.909,2.262,5.233,2.752,12.51,5.367,19.207,2.886,7.394,8.118,14.977,11.864,22.879,3.649,7.7,8.584,17.09,8.473,26.269-.1,8.563-6.5,17.349-10.733,24.574-2.186,3.728-4.31,7.524-6.5,11.016-2.367,3.78-5.314,7.065-7.061,10.451-2.527,4.892-2.584,7.843-7.345,10.451-9.055,4.961-22.424,1.548-37,3.107-7.063.756-15.523,9.23-24.009,6.5-6.446-2.077-7.282-13.342-10.168-22.032-.637-1.918-2.569-4.663-3.107-6.214-1.616-4.655-1.447-11.771-2.542-17.23-2.646-13.185-18.97-17.278-20.055-34.743-.346-5.567.866-11.517,1.13-17.513.43-9.782-2.738-15.912-.565-24.009.528-1.967,2.013-4.515,1.977-6.214-.035-1.715-1.855-3.581-2.824-5.649-2.671-5.7-3.857-13.206-2.542-21.75,1.05-6.826,4.556-18.641,11.3-20.337,6.546-1.647,13.517,1.684,18.077,4.519C420.249,182.369,422.269,184.406,425.3,187.3Zm-8.756-4.8c-3.179-2.079-11.587-6.215-17.513-4.519-3.078.881-5.162,6.707-6.5,10.169-3.014,7.813-3.728,18.882-.847,26.551,1.027,2.734,3.9,5.3,3.954,8.191.052,2.752-2.238,6.015-2.825,9.6-1.138,6.966,1.853,13.248,1.412,21.467-.335,6.264-1.72,12.314-1.129,18.36.889,9.115,6.134,13.173,10.733,18.077a43.047,43.047,0,0,1,7.626,10.451c2.634,5.367,1.908,14.764,3.954,20.9.521,1.563,2.467,4.339,3.107,6.214,2.784,8.146,3.419,19.159,9.321,20.62,6.509,1.611,13.658-4.663,18.643-5.931,14.071-3.581,34.3,2.425,42.087-5.367,1.311-1.311,2.541-5.345,3.954-7.909,3.473-6.3,8.4-13.024,12.711-20.337,3.986-6.76,9.943-14.359,10.733-22.6.887-9.248-4.741-19.866-7.909-26.551-3.637-7.675-8.941-15.41-11.863-22.6-2.734-6.722-3.346-14.568-5.932-20.337-1.143-2.549-3.4-4.69-4.237-7.062-1.312-3.724-1.712-8.327-2.543-11.864a58,58,0,0,0-3.39-11.3c-2.626-5.77-7.716-14.86-14.123-15.253-4.3-.264-10.835,6.167-12.993,8.756-1.844,2.213-4.173,8.857-7.061,9.6-1.818.47-4.816-.458-7.062-.565-5.912-.282-9.853-.359-14.971.565C421.27,186.989,419.6,184.5,416.544,182.5Z" transform="translate(-384.973 -166.958)" fill="#fff" fill-rule="evenodd"/>
            <path id="路径_666" data-name="路径 666" d="M424.877,190.623c5.117-.925,9.059-.847,14.971-.565,2.246.107,5.243,1.035,7.061.565,2.889-.747,5.218-7.391,7.061-9.6,2.158-2.59,8.694-9.02,12.993-8.756,6.407.393,11.5,9.483,14.123,15.253a58.005,58.005,0,0,1,3.39,11.3c.831,3.536,1.23,8.139,2.543,11.864.834,2.372,3.094,4.513,4.237,7.061,2.586,5.77,3.2,13.615,5.932,20.338,2.922,7.187,8.226,14.922,11.863,22.6,3.168,6.685,8.8,17.3,7.908,26.551-.79,8.238-6.746,15.837-10.733,22.6-4.314,7.312-9.238,14.034-12.711,20.337-1.413,2.564-2.644,6.6-3.954,7.909-7.792,7.792-28.016,1.785-42.087,5.367-4.985,1.268-12.134,7.542-18.643,5.931-5.9-1.461-6.537-12.474-9.321-20.62-.64-1.875-2.586-4.651-3.107-6.214-2.046-6.138-1.32-15.535-3.954-20.9a43.045,43.045,0,0,0-7.626-10.451c-4.6-4.9-9.844-8.962-10.733-18.077-.59-6.046.795-12.1,1.129-18.36.44-8.219-2.55-14.5-1.412-21.467.587-3.59,2.877-6.853,2.825-9.6-.054-2.889-2.927-5.457-3.954-8.191-2.881-7.67-2.167-18.738.847-26.551,1.335-3.461,3.419-9.287,6.5-10.169,5.925-1.7,14.333,2.44,17.513,4.519C420.587,185.275,422.259,187.766,424.877,190.623Zm59.317,25.139c-1.134-6.981-2.012-14.372-5.367-18.077.05-5.327-2.314-9.567-4.8-14.406-1.459-2.838-4.891-8.162-7.909-8.191-1.907-.018-5.674,2.919-7.061,4.237-2.843,2.7-7.372,7.622-7.344,11.016.024,3.006,2.116,3.687,3.107,6.214-8.559-3.85-21.2-4.513-32.766-3.107-3.608-5.534-10.477-13.328-18.924-12.428-4.349.463-5.531,5.68-6.779,9.6-2.539,7.983-3.343,19.834,2.542,24.856,2.635-3.567-.876-7.876-1.412-12.711-.641-5.768.272-16.2,4.8-16.383,2.818-.113,7.831,5.788,8.192,8.474.4,2.947-2.087,8.091-3.39,11.581-2.807,7.524-5.675,14.353-8.756,21.185-1.472,3.264-3.813,8.107-.847,11.3,1.281-1.505.17-2.574.847-4.237,2.095-5.143,15.6-8.105,16.383-1.13.429,3.821-3.458,6.205-5.084,8.474a62.173,62.173,0,0,0-3.672,6.779c-1.215,2.29-2.628,5.09-2.259,7.626,5.63.537,13.537.355,17.23,3.672-.908,2.667-3.5,2.983-5.084,5.65-1.558,2.622-2,7.059-4.8,8.474-3.659,1.848-10.97-2.074-11.863,3.671,1.567,1.275,3.424.163,5.084.282,3.531.255,6.591,2.37,10.169,2.26,2.091-.064,3.772-1.168,5.649-1.412,2.644-.344,5.494.315,8.192,0,7.254-.848,13.417-6.524,18.643-8.474,1.988-.741,4.656-1.5,6.778-1.129,6.167,1.084,4.057,9.151-.565,9.6-4.13.4-7.066-2.1-11.3-1.695s-9.368,2.977-12.428,5.367c-9.559,7.465-11.709,25.787-9.039,41.24,2.2.337,2.9-1.767,4.519-1.13,3.427,5.051.038,20.554,7.627,21.467,3.357.4,6.8-3.091,7.909-5.084,1.627-2.935,1.7-8.108,4.52-7.909,1.65.116,2.981,3.717,3.954,4.519,5.2,4.286,11.214,1.985,19.207,1.412,5.421-.388,13.194.77,16.947-.847s4.043-5.437,5.931-9.039c1.642-3.131,4.552-5.789,6.78-9.039,2.169-3.164,3.893-6.828,5.931-10.168,4.808-7.877,10.925-15.288,10.168-25.139a27.438,27.438,0,0,0-6.214-14.97c-1.507,1.788-.594,6-2.259,7.626-3.041-2.038-1.27-6.134-1.129-9.321.49-11.145-3.467-17.161-11.3-19.207-.481-7.269.2-17.5-4.8-21.749-.874.858.768,2.678.283,3.107C484.191,226.916,484.952,220.429,484.194,215.762Zm-78.242,18.077c1.081.9,1.577,2.378,1.412,4.52a4.759,4.759,0,0,0,3.672-1.412,8.181,8.181,0,0,0-.282-3.107C409.374,233.539,407.07,232.742,405.952,233.839Zm-1.695,4.8c-.07-1.259-1.113-2.7-.282-3.954C399.616,233.926,400.387,241.317,404.257,238.641ZM397.479,257c3.972-1.308,4.66-6.42,6.5-9.886.829-1.565,2.224-3.111,1.695-4.8a21.562,21.562,0,0,1-9.039-.565C398.363,246.23,398.433,251.712,397.479,257Zm47.453,18.36c1.53.751,4.247,2.615,6.214,1.13C451.589,272.675,445.824,272.621,444.932,275.361Zm-32.2,14.405c3.751-.319,11.752-4.881,9.886-7.626a1.909,1.909,0,0,0-1.695,0c-2.795,1.229-5.109,2.294-8.192,2.259-4.664-.052-7.348-3.665-10.733-1.412C402.887,286.821,407.079,290.247,412.731,289.766Z" transform="translate(-385.962 -167.735)" fill="#001a31" fill-rule="evenodd"/>
            <path id="路径_667" data-name="路径 667" d="M489.793,230.509c.484-.429-1.157-2.249-.283-3.107,5,4.252,4.322,14.48,4.8,21.749,7.832,2.046,11.789,8.063,11.3,19.207-.14,3.187-1.911,7.283,1.129,9.321,1.666-1.63.753-5.839,2.259-7.626a27.445,27.445,0,0,1,6.214,14.97c.756,9.852-5.361,17.262-10.169,25.14-2.039,3.34-3.763,7-5.931,10.169-2.228,3.25-5.138,5.907-6.78,9.039-1.888,3.6-2.164,7.417-5.931,9.039s-11.526.459-16.947.848c-7.993.572-14.009,2.873-19.207-1.413-.974-.8-2.3-4.4-3.954-4.519-2.819-.2-2.893,4.974-4.52,7.909-1.1,1.992-4.552,5.488-7.909,5.084-7.589-.913-4.2-16.415-7.627-21.467-1.624-.637-2.322,1.467-4.519,1.13-2.671-15.452-.521-33.774,9.039-41.24,3.06-2.39,8.2-4.965,12.428-5.366s7.169,2.1,11.3,1.694c4.622-.452,6.732-8.52.565-9.6-2.122-.373-4.791.388-6.778,1.13-5.225,1.949-11.389,7.626-18.643,8.473-2.7.315-5.548-.345-8.192,0-1.877.245-3.558,1.348-5.649,1.412-3.578.11-6.638-2-10.169-2.259-1.66-.12-3.516.992-5.084-.282.893-5.746,8.2-1.824,11.863-3.672,2.8-1.415,3.244-5.852,4.8-8.474,1.584-2.667,4.177-2.983,5.084-5.649-3.694-3.318-11.6-3.136-17.23-3.673-.368-2.535,1.045-5.336,2.259-7.626a62.051,62.051,0,0,1,3.673-6.779c1.625-2.269,5.513-4.653,5.084-8.474-.783-6.975-14.289-4.013-16.383,1.13-.677,1.663.434,2.731-.847,4.237-2.966-3.191-.625-8.034.847-11.3,3.081-6.832,5.949-13.661,8.756-21.184,1.3-3.49,3.787-8.634,3.39-11.581-.361-2.686-5.373-8.587-8.192-8.474-4.529.183-5.442,10.616-4.8,16.383.536,4.834,4.046,9.143,1.412,12.711-5.885-5.022-5.081-16.874-2.542-24.856,1.248-3.924,2.43-9.141,6.779-9.6,8.447-.9,15.316,6.894,18.925,12.428,11.563-1.406,24.206-.743,32.766,3.107-.992-2.528-3.083-3.208-3.107-6.214-.028-3.395,4.5-8.314,7.344-11.017,1.386-1.317,5.154-4.255,7.061-4.237,3.017.029,6.45,5.353,7.909,8.192,2.488,4.839,4.852,9.078,4.8,14.405,3.355,3.7,4.233,11.1,5.367,18.077C486.314,222.465,485.553,228.952,489.793,230.509ZM472.28,194.353c-.87-1.663-3.19-8.654-4.8-9.039-3.411-.814-4.29,4.015-5.367,5.649-1.5,2.28-4.371,3.455-4.237,5.649.123,2.025,4.166,5.3,5.649,6.779,2.449,2.449,4.488,4.1,5.932,6.779,6.344,2.978,7.727,10.915,11.581,16.383C481.924,214.563,476.678,202.756,472.28,194.353ZM434.43,230.225c.173,4.735-5.248,5.722-5.367,9.6-.11,3.59,5.161,10.224,8.192,7.062-.1-1.686-1.708-1.871-1.978-3.39.807-.605.493-2.332,1.695-2.543,5.14,3.91,14.543.783,17.795-3.107-3.144-2.484-5.46-7.056-10.733-6.5C442.669,227.891,436.933,227.435,434.43,230.225Z" transform="translate(-387.201 -168.957)" fill="#fff" fill-rule="evenodd"/>
            <path id="路径_668" data-name="路径 668" d="M501.687,228.183c-3.853-5.468-5.236-13.406-11.581-16.382-1.444-2.681-3.483-4.33-5.932-6.779-1.483-1.483-5.526-4.754-5.649-6.779-.133-2.194,2.735-3.369,4.237-5.649,1.076-1.635,1.956-6.463,5.366-5.65,1.612.385,3.932,7.377,4.8,9.039C497.329,204.385,502.575,216.192,501.687,228.183Z" transform="translate(-407.974 -171.4)" fill="#001a31" fill-rule="evenodd"/>
            <path id="路径_669" data-name="路径 669" d="M455.026,247.464c5.274-.56,7.589,4.012,10.733,6.5-3.252,3.89-12.655,7.017-17.795,3.107-1.2.21-.887,1.937-1.695,2.543.27,1.519,1.874,1.7,1.978,3.39-3.031,3.163-8.3-3.471-8.192-7.062.119-3.882,5.54-4.868,5.367-9.6C447.925,243.543,453.662,244,455.026,247.464Zm-7.909,6.5c.97,4.157,11.145,2.649,12.146-1.129a6.865,6.865,0,0,0-3.954-2.543c1.437,7.277-8.091,3.869-3.39-1.129C449.055,249.286,446.594,251.715,447.118,253.96Z" transform="translate(-398.316 -185.878)" fill="#001a31" fill-rule="evenodd"/>
            <path id="路径_670" data-name="路径 670" d="M454.264,250.715c-4.7,5,4.827,8.407,3.39,1.129a6.865,6.865,0,0,1,3.954,2.543c-1,3.778-11.176,5.287-12.146,1.129C448.938,253.272,451.4,250.843,454.264,250.715Z" transform="translate(-400.66 -187.435)" fill="#fff" fill-rule="evenodd"/>
            <path id="路径_671" data-name="路径 671" d="M415.817,254.3a8.182,8.182,0,0,1,.282,3.107,4.759,4.759,0,0,1-3.672,1.412c.165-2.142-.331-3.623-1.412-4.52C412.133,253.2,414.437,254,415.817,254.3Z" transform="translate(-391.025 -188.194)" fill="#fff" fill-rule="evenodd"/>
            <path id="路径_672" data-name="路径 672" d="M407.383,255.6c-.831,1.258.213,2.7.282,3.954C403.8,262.23,403.024,254.839,407.383,255.6Z" transform="translate(-389.37 -188.648)" fill="#fff" fill-rule="evenodd"/>
            <path id="路径_673" data-name="路径 673" d="M398.569,265.047a21.561,21.561,0,0,0,9.039.565c.529,1.691-.866,3.237-1.695,4.8-1.836,3.466-2.524,8.578-6.5,9.886C400.371,275.011,400.3,269.528,398.569,265.047Z" transform="translate(-387.9 -191.034)" fill="#fff" fill-rule="evenodd"/>
            <path id="路径_674" data-name="路径 674" d="M469.278,310.418c-1.967,1.484-4.684-.379-6.214-1.13C463.956,306.548,469.72,306.6,469.278,310.418Z" transform="translate(-404.093 -201.661)" fill="#fff" fill-rule="evenodd"/>
            <path id="路径_675" data-name="路径 675" d="M405.735,319.762c3.385-2.253,6.069,1.361,10.733,1.412,3.083.034,5.4-1.03,8.192-2.259a1.909,1.909,0,0,1,1.695,0c1.865,2.746-6.136,7.307-9.886,7.626C410.816,327.022,406.624,323.6,405.735,319.762Z" transform="translate(-389.699 -204.51)" fill="#fff" fill-rule="evenodd"/>
          </g>
        </g>
        <g id="组_223" data-name="组 223" transform="translate(110.625 170.744)">
          <g id="组_221" data-name="组 221">
            <path id="路径_676" data-name="路径 676" d="M532.036,394.548h1.032V397.4h.378v-2.847h1.089v-.341h-2.5Z" transform="translate(-532.036 -394.208)" fill="#001a31"/>
          </g>
          <g id="组_222" data-name="组 222" transform="translate(3)">
            <path id="路径_677" data-name="路径 677" d="M537.54,396.8l-.9-2.591h-.6V397.4h.375v-2.709l.936,2.709h.375l.938-2.709V397.4h.377v-3.187h-.606Z" transform="translate(-536.042 -394.208)" fill="#001a31"/>
          </g>
        </g>
      </g>
      <path id="路径_678" data-name="路径 678" d="M519.261,253.212c-4.4-9.438-10.483-17.537-13.707-26.48-2.743-7.605-3.419-15.28-6.23-21.5-1.164-2.572-3.484-4.744-4.362-7.166-1.708-4.709-1.672-9.525-2.8-14.019a68.727,68.727,0,0,0-4.362-12.461c-3.461-7.281-10.148-19.717-20.25-19.314-11.866.473-17.969,13.076-24.3,20.249-3.555-.422-6.5-.544-9.346-.623-3.183-.088-7.235.992-9.969.312-1.358-.337-2.726-2.555-4.05-3.738a42.809,42.809,0,0,0-4.362-3.427c-4.583-2.972-14.731-7.706-23.053-5.3-6.729,1.949-10.068,11.423-12.15,18.692-2.342,8.179-2.453,19.61,0,27.1.945,2.886,4.267,6.492,4.362,9.035.076,2.048-1.928,4.958-2.492,7.476-1.871,8.344,1.225,14.831,1.246,23.053.022,8.638-1.9,16.834-1.246,24.3.971,11.041,7.883,17.541,13.4,23.365,3.378,3.569,7.727,7.842,8.723,13.084.837,4.4.686,10.319,1.558,14.33.968,4.452,3.281,7.982,4.673,12.15,3.509,10.511,4.361,22.629,12.461,25.545,9.394,3.381,17.531-4.455,24.611-6.231,7.879-1.976,16.935-.667,24.922-.935,8.1-.271,16.7-1.165,21.806-4.673,3.691-2.534,4.478-6.49,7.166-11.526,1.787-3.349,4.505-6.869,6.853-10.592,6.383-10.124,15.658-22.564,19-34.269C530.9,277.273,523.648,262.611,519.261,253.212Zm-7.479,31.581c-2.793,9.774-8.46,18.346-13.79,26.8-1.961,3.109-5.46,7.473-6.952,10.271-2.245,4.206-2.959,7.349-6.042,9.465-4.267,2.93-9.252,4.218-16.013,4.444-6.67.224-14.233-.87-20.813.78-5.913,1.484-12.708,8.028-20.553,5.2-6.764-2.435-7.476-12.556-10.407-21.334-1.162-3.48-3.095-6.429-3.9-10.146-.728-3.351-.6-8.29-1.3-11.968-.831-4.378-4.463-7.946-7.285-10.927-4.6-4.863-10.375-10.292-11.186-19.512-.549-6.235,1.058-13.079,1.04-20.293-.017-6.867-5.43-12.354-3.867-19.321.472-2.1,4.736-7.99,4.673-9.7-.079-2.124-2.618-1.609-3.408-4.02-2.048-6.257-4.389-17.141-2.432-23.972,1.737-6.07,2.95-13.677,8.57-15.3,6.95-2.014,10.963,1.241,14.79,3.723.876.568,4.416,4.246,5.639,5.339,1.105.988,3.464,1.108,4.6,1.389,2.283.568,10.926.654,13.584.728,2.379.066,4.836.168,7.805.521,5.287-5.991,10.383-16.516,20.293-16.911,8.437-.336,9.087,10.609,11.978,16.69a57.34,57.34,0,0,1,3.969,10.27c.946,3.754,2.278,5.935,3.7,9.868.733,2.023,2.171,7.116,3.143,9.264,2.348,5.191,5.245,11.322,5.034,18.07-.288,9.254,9.009,15.13,12.687,23.012C509,265.07,514.738,274.448,511.782,284.793Z" transform="translate(-378.521 -152.267)" fill="#001a31"/>
    </g>
  </g>
</svg>
